  0
SECTION
  2
HEADER
  9
$ACADVER
  1
AC1014
  9
$HANDSEED
  5
FFFF
  9
$MEASUREMENT
 70
     1
  0
ENDSEC
  0
SECTION
  2
TABLES
  0
TABLE
  2
VPORT
  5
8
330
0
100
AcDbSymbolTable
 70
     4
  0
VPORT
  5
2E
330
8
100
AcDbSymbolTableRecord
100
AcDbViewportTableRecord
  2
*ACTIVE
 70
     0
 10
0.0
 20
0.0
 11
1.0
 21
1.0
 12
210.0
 22
148.5
 13
0.0
 23
0.0
 14
10.0
 24
10.0
 15
10.0
 25
10.0
 16
0.0
 26
0.0
 36
1.0
 17
0.0
 27
0.0
 37
0.0
 40
341.0
 41
1.24
 42
50.0
 43
0.0
 44
0.0
 50
0.0
 51
0.0
 71
     0
 72
   100
 73
     1
 74
     3
 75
     0
 76
     0
 77
     0
 78
     0
  0
ENDTAB
  0
TABLE
  2
LTYPE
  5
5
330
0
100
AcDbSymbolTable
 70
     1
  0
LTYPE
  5
14
330
5
100
AcDbSymbolTableRecord
100
AcDbLinetypeTableRecord
  2
BYBLOCK
 70
     0
  3

 72
    65
 73
     0
 40
0.0
  0
LTYPE
  5
15
330
5
100
AcDbSymbolTableRecord
100
AcDbLinetypeTableRecord
  2
BYLAYER
 70
     0
  3

 72
    65
 73
     0
 40
0.0
  0
LTYPE
  5
16
330
5
100
AcDbSymbolTableRecord
100
AcDbLinetypeTableRecord
  2
CONTINUOUS
 70
     0
  3
Solid line
 72
    65
 73
     0
 40
0.0
  0
ENDTAB
  0
TABLE
  2
LAYER
  5
2
100
AcDbSymbolTable
 70
2
  0
LAYER
  5
50
100
AcDbSymbolTableRecord
100
AcDbLayerTableRecord
  2
0
 70
0
  6
CONTINUOUS
  0
LAYER
  5
51
100
AcDbSymbolTableRecord
100
AcDbLayerTableRecord
  2
Layer_1
 70
0
  6
CONTINUOUS
  0
ENDTAB
  0
TABLE
  2
STYLE
  5
3
330
0
100
AcDbSymbolTable
 70
     1
  0
STYLE
  5
11
330
3
100
AcDbSymbolTableRecord
100
AcDbTextStyleTableRecord
  2
STANDARD
 70
     0
 40
0.0
 41
1.0
 50
0.0
 71
     0
 42
2.5
  3
txt
  4

  0
ENDTAB
  0
TABLE
  2
VIEW
  5
6
330
0
100
AcDbSymbolTable
 70
     0
  0
ENDTAB
  0
TABLE
  2
UCS
  5
7
330
0
100
AcDbSymbolTable
 70
     0
  0
ENDTAB
  0
TABLE
  2
APPID
  5
9
330
0
100
AcDbSymbolTable
 70
     2
  0
APPID
  5
12
330
9
100
AcDbSymbolTableRecord
100
AcDbRegAppTableRecord
  2
ACAD
 70
     0
  0
ENDTAB
  0
TABLE
  2
DIMSTYLE
  5
A
330
0
100
AcDbSymbolTable
 70
     1
  0
DIMSTYLE
105
27
330
A
100
AcDbSymbolTableRecord
100
AcDbDimStyleTableRecord
  2
ISO-25
 70
     0
  3

  4

  5

  6

  7

 40
1.0
 41
2.5
 42
0.625
 43
3.75
 44
1.25
 45
0.0
 46
0.0
 47
0.0
 48
0.0
140
2.5
141
2.5
142
0.0
143
0.03937007874016
144
1.0
145
0.0
146
1.0
147
0.625
 71
     0
 72
     0
 73
     0
 74
     0
 75
     0
 76
     0
 77
     1
 78
     8
170
     0
171
     3
172
     1
173
     0
174
     0
175
     0
176
     0
177
     0
178
     0
270
     2
271
     2
272
     2
273
     2
274
     3
340
11
275
     0
280
     0
281
     0
282
     0
283
     0
284
     8
285
     0
286
     0
287
     3
288
     0
  0
ENDTAB
  0
TABLE
  2
BLOCK_RECORD
  5
1
330
0
100
AcDbSymbolTable
 70
     1
  0
BLOCK_RECORD
  5
1F
330
1
100
AcDbSymbolTableRecord
100
AcDbBlockTableRecord
  2
*MODEL_SPACE
  0
BLOCK_RECORD
  5
1B
330
1
100
AcDbSymbolTableRecord
100
AcDbBlockTableRecord
  2
*PAPER_SPACE
  0
ENDTAB
  0
ENDSEC
  0
SECTION
  2
BLOCKS
  0
BLOCK
  5
20
330
1F
100
AcDbEntity
  8
0
100
AcDbBlockBegin
  2
*MODEL_SPACE
 70
     0
 10
0.0
 20
0.0
 30
0.0
  3
*MODEL_SPACE
  1

  0
ENDBLK
  5
21
330
1F
100
AcDbEntity
  8
0
100
AcDbBlockEnd
  0
BLOCK
  5
1C
330
1B
100
AcDbEntity
 67
     1
  8
0
100
AcDbBlockBegin
  2
*PAPER_SPACE
  1

  0
ENDBLK
  5
1D
330
1B
100
AcDbEntity
 67
     1
  8
0
100
AcDbBlockEnd
  0
ENDSEC
  0
SECTION
  2
ENTITIES
  0
LWPOLYLINE
  5
100
100
AcDbEntity
  8
Layer_1
 62
7
100
AcDbPolyline
 90
6
 70
1
 10
20.576099
 20
267.496018
 30
0.0
 10
23.116099
 20
267.496018
 30
0.0
 10
23.116099
 20
272.576019
 30
0.0
 10
20.576099
 20
272.576019
 30
0.0
 10
20.576099
 20
267.496018
 30
0.0
 10
20.576099
 20
267.496018
 30
0.0
  0
LWPOLYLINE
  5
101
100
AcDbEntity
  8
Layer_1
 62
7
100
AcDbPolyline
 90
6
 70
1
 10
5.336099
 20
267.496018
 30
0.0
 10
7.876099
 20
267.496018
 30
0.0
 10
7.876099
 20
272.576019
 30
0.0
 10
5.336099
 20
272.576019
 30
0.0
 10
5.336099
 20
267.496018
 30
0.0
 10
5.336099
 20
267.496018
 30
0.0
  0
LWPOLYLINE
  5
102
100
AcDbEntity
  8
Layer_1
 62
7
100
AcDbPolyline
 90
6
 70
1
 10
34.554002
 20
274.018951
 30
0.0
 10
35.554045
 20
274.018951
 30
0.0
 10
35.554045
 20
275.119039
 30
0.0
 10
34.554002
 20
275.119039
 30
0.0
 10
34.554002
 20
274.018951
 30
0.0
 10
34.554002
 20
274.018951
 30
0.0
  0
LWPOLYLINE
  5
103
100
AcDbEntity
  8
Layer_1
 62
7
100
AcDbPolyline
 90
6
 70
1
 10
34.554002
 20
272.318985
 30
0.0
 10
35.554045
 20
272.318985
 30
0.0
 10
35.554045
 20
273.418935
 30
0.0
 10
34.554002
 20
273.418935
 30
0.0
 10
34.554002
 20
272.318985
 30
0.0
 10
34.554002
 20
272.318985
 30
0.0
  0
LWPOLYLINE
  5
104
100
AcDbEntity
  8
Layer_1
 62
7
100
AcDbPolyline
 90
6
 70
1
 10
43.701883
 20
286.724031
 30
0.0
 10
45.201874
 20
286.724031
 30
0.0
 10
45.201874
 20
288.023936
 30
0.0
 10
43.701883
 20
288.023936
 30
0.0
 10
43.701883
 20
286.724031
 30
0.0
 10
43.701883
 20
286.724031
 30
0.0
  0
LWPOLYLINE
  5
105
100
AcDbEntity
  8
Layer_1
 62
7
100
AcDbPolyline
 90
6
 70
1
 10
43.701883
 20
288.623951
 30
0.0
 10
45.201874
 20
288.623951
 30
0.0
 10
45.201874
 20
289.923993
 30
0.0
 10
43.701883
 20
289.923993
 30
0.0
 10
43.701883
 20
288.623951
 30
0.0
 10
43.701883
 20
288.623951
 30
0.0
  0
LWPOLYLINE
  5
106
100
AcDbEntity
  8
Layer_1
 62
7
100
AcDbPolyline
 90
6
 70
1
 10
24.178136
 20
293.031062
 30
0.0
 10
25.278087
 20
293.031062
 30
0.0
 10
25.278087
 20
294.030969
 30
0.0
 10
24.178136
 20
294.030969
 30
0.0
 10
24.178136
 20
293.031062
 30
0.0
 10
24.178136
 20
293.031062
 30
0.0
  0
LWPOLYLINE
  5
107
100
AcDbEntity
  8
Layer_1
 62
7
100
AcDbPolyline
 90
6
 70
1
 10
22.478065
 20
293.031062
 30
0.0
 10
23.578153
 20
293.031062
 30
0.0
 10
23.578153
 20
294.030969
 30
0.0
 10
22.478065
 20
294.030969
 30
0.0
 10
22.478065
 20
293.031062
 30
0.0
 10
22.478065
 20
293.031062
 30
0.0
  0
LWPOLYLINE
  5
108
100
AcDbEntity
  8
Layer_1
 62
7
100
AcDbPolyline
 90
6
 70
1
 10
41.920002
 20
287.431950
 30
0.0
 10
42.920045
 20
287.431950
 30
0.0
 10
42.920045
 20
288.532038
 30
0.0
 10
41.920002
 20
288.532038
 30
0.0
 10
41.920002
 20
287.431950
 30
0.0
 10
41.920002
 20
287.431950
 30
0.0
  0
LWPOLYLINE
  5
109
100
AcDbEntity
  8
Layer_1
 62
7
100
AcDbPolyline
 90
6
 70
1
 10
41.920002
 20
289.132021
 30
0.0
 10
42.920045
 20
289.132021
 30
0.0
 10
42.920045
 20
290.231972
 30
0.0
 10
41.920002
 20
290.231972
 30
0.0
 10
41.920002
 20
289.132021
 30
0.0
 10
41.920002
 20
289.132021
 30
0.0
  0
LWPOLYLINE
  5
10a
100
AcDbEntity
  8
Layer_1
 62
7
100
AcDbPolyline
 90
6
 70
1
 10
30.109002
 20
274.780986
 30
0.0
 10
31.109045
 20
274.780986
 30
0.0
 10
31.109045
 20
275.880937
 30
0.0
 10
30.109002
 20
275.880937
 30
0.0
 10
30.109002
 20
274.780986
 30
0.0
 10
30.109002
 20
274.780986
 30
0.0
  0
LWPOLYLINE
  5
10b
100
AcDbEntity
  8
Layer_1
 62
7
100
AcDbPolyline
 90
6
 70
1
 10
30.109002
 20
273.081056
 30
0.0
 10
31.109045
 20
273.081056
 30
0.0
 10
31.109045
 20
274.181006
 30
0.0
 10
30.109002
 20
274.181006
 30
0.0
 10
30.109002
 20
273.081056
 30
0.0
 10
30.109002
 20
273.081056
 30
0.0
  0
LWPOLYLINE
  5
10c
100
AcDbEntity
  8
Layer_1
 62
7
100
AcDbPolyline
 90
6
 70
1
 10
17.282036
 20
282.986950
 30
0.0
 10
18.282080
 20
282.986950
 30
0.0
 10
18.282080
 20
284.087038
 30
0.0
 10
17.282036
 20
284.087038
 30
0.0
 10
17.282036
 20
282.986950
 30
0.0
 10
17.282036
 20
282.986950
 30
0.0
  0
LWPOLYLINE
  5
10d
100
AcDbEntity
  8
Layer_1
 62
7
100
AcDbPolyline
 90
6
 70
1
 10
17.282036
 20
284.687021
 30
0.0
 10
18.282080
 20
284.687021
 30
0.0
 10
18.282080
 20
285.786972
 30
0.0
 10
17.282036
 20
285.786972
 30
0.0
 10
17.282036
 20
284.687021
 30
0.0
 10
17.282036
 20
284.687021
 30
0.0
  0
LWPOLYLINE
  5
10e
100
AcDbEntity
  8
Layer_1
 62
7
100
AcDbPolyline
 90
6
 70
1
 10
16.266142
 20
275.747985
 30
0.0
 10
17.266048
 20
275.747985
 30
0.0
 10
17.266048
 20
276.848073
 30
0.0
 10
16.266142
 20
276.848073
 30
0.0
 10
16.266142
 20
275.747985
 30
0.0
 10
16.266142
 20
275.747985
 30
0.0
  0
LWPOLYLINE
  5
10f
100
AcDbEntity
  8
Layer_1
 62
7
100
AcDbPolyline
 90
6
 70
1
 10
16.266142
 20
277.448056
 30
0.0
 10
17.266048
 20
277.448056
 30
0.0
 10
17.266048
 20
278.548007
 30
0.0
 10
16.266142
 20
278.548007
 30
0.0
 10
16.266142
 20
277.448056
 30
0.0
 10
16.266142
 20
277.448056
 30
0.0
  0
LWPOLYLINE
  5
110
100
AcDbEntity
  8
Layer_1
 62
7
100
AcDbPolyline
 90
6
 70
1
 10
43.063002
 20
282.860020
 30
0.0
 10
44.063045
 20
282.860020
 30
0.0
 10
44.063045
 20
283.959971
 30
0.0
 10
43.063002
 20
283.959971
 30
0.0
 10
43.063002
 20
282.860020
 30
0.0
 10
43.063002
 20
282.860020
 30
0.0
  0
LWPOLYLINE
  5
111
100
AcDbEntity
  8
Layer_1
 62
7
100
AcDbPolyline
 90
6
 70
1
 10
43.063002
 20
284.559986
 30
0.0
 10
44.063045
 20
284.559986
 30
0.0
 10
44.063045
 20
285.660074
 30
0.0
 10
43.063002
 20
285.660074
 30
0.0
 10
43.063002
 20
284.559986
 30
0.0
 10
43.063002
 20
284.559986
 30
0.0
  0
LWPOLYLINE
  5
112
100
AcDbEntity
  8
Layer_1
 62
7
100
AcDbPolyline
 90
6
 70
1
 10
45.095002
 20
282.860020
 30
0.0
 10
46.095045
 20
282.860020
 30
0.0
 10
46.095045
 20
283.959971
 30
0.0
 10
45.095002
 20
283.959971
 30
0.0
 10
45.095002
 20
282.860020
 30
0.0
 10
45.095002
 20
282.860020
 30
0.0
  0
LWPOLYLINE
  5
113
100
AcDbEntity
  8
Layer_1
 62
7
100
AcDbPolyline
 90
6
 70
1
 10
45.095002
 20
284.559986
 30
0.0
 10
46.095045
 20
284.559986
 30
0.0
 10
46.095045
 20
285.660074
 30
0.0
 10
45.095002
 20
285.660074
 30
0.0
 10
45.095002
 20
284.559986
 30
0.0
 10
45.095002
 20
284.559986
 30
0.0
  0
LWPOLYLINE
  5
114
100
AcDbEntity
  8
Layer_1
 62
7
100
AcDbPolyline
 90
6
 70
1
 10
8.646142
 20
277.448056
 30
0.0
 10
9.646048
 20
277.448056
 30
0.0
 10
9.646048
 20
278.548007
 30
0.0
 10
8.646142
 20
278.548007
 30
0.0
 10
8.646142
 20
277.448056
 30
0.0
 10
8.646142
 20
277.448056
 30
0.0
  0
LWPOLYLINE
  5
115
100
AcDbEntity
  8
Layer_1
 62
7
100
AcDbPolyline
 90
6
 70
1
 10
8.646142
 20
275.747985
 30
0.0
 10
9.646048
 20
275.747985
 30
0.0
 10
9.646048
 20
276.848073
 30
0.0
 10
8.646142
 20
276.848073
 30
0.0
 10
8.646142
 20
275.747985
 30
0.0
 10
8.646142
 20
275.747985
 30
0.0
  0
LWPOLYLINE
  5
116
100
AcDbEntity
  8
Layer_1
 62
7
100
AcDbPolyline
 90
6
 70
1
 10
18.082101
 20
290.998992
 30
0.0
 10
19.182052
 20
290.998992
 30
0.0
 10
19.182052
 20
291.999035
 30
0.0
 10
18.082101
 20
291.999035
 30
0.0
 10
18.082101
 20
290.998992
 30
0.0
 10
18.082101
 20
290.998992
 30
0.0
  0
LWPOLYLINE
  5
117
100
AcDbEntity
  8
Layer_1
 62
7
100
AcDbPolyline
 90
6
 70
1
 10
16.382030
 20
290.998992
 30
0.0
 10
17.482118
 20
290.998992
 30
0.0
 10
17.482118
 20
291.999035
 30
0.0
 10
16.382030
 20
291.999035
 30
0.0
 10
16.382030
 20
290.998992
 30
0.0
 10
16.382030
 20
290.998992
 30
0.0
  0
LWPOLYLINE
  5
118
100
AcDbEntity
  8
Layer_1
 62
7
100
AcDbPolyline
 90
6
 70
1
 10
37.729002
 20
282.351950
 30
0.0
 10
38.729045
 20
282.351950
 30
0.0
 10
38.729045
 20
283.452038
 30
0.0
 10
37.729002
 20
283.452038
 30
0.0
 10
37.729002
 20
282.351950
 30
0.0
 10
37.729002
 20
282.351950
 30
0.0
  0
LWPOLYLINE
  5
119
100
AcDbEntity
  8
Layer_1
 62
7
100
AcDbPolyline
 90
6
 70
1
 10
37.729002
 20
284.052021
 30
0.0
 10
38.729045
 20
284.052021
 30
0.0
 10
38.729045
 20
285.151972
 30
0.0
 10
37.729002
 20
285.151972
 30
0.0
 10
37.729002
 20
284.052021
 30
0.0
 10
37.729002
 20
284.052021
 30
0.0
  0
LWPOLYLINE
  5
11a
100
AcDbEntity
  8
Layer_1
 62
7
100
AcDbPolyline
 90
6
 70
1
 10
28.966002
 20
293.323056
 30
0.0
 10
29.965907
 20
293.323056
 30
0.0
 10
29.965907
 20
294.423007
 30
0.0
 10
28.966002
 20
294.423007
 30
0.0
 10
28.966002
 20
293.323056
 30
0.0
 10
28.966002
 20
293.323056
 30
0.0
  0
LWPOLYLINE
  5
11b
100
AcDbEntity
  8
Layer_1
 62
7
100
AcDbPolyline
 90
6
 70
1
 10
28.966002
 20
291.622985
 30
0.0
 10
29.965907
 20
291.622985
 30
0.0
 10
29.965907
 20
292.723073
 30
0.0
 10
28.966002
 20
292.723073
 30
0.0
 10
28.966002
 20
291.622985
 30
0.0
 10
28.966002
 20
291.622985
 30
0.0
  0
LWPOLYLINE
  5
11c
100
AcDbEntity
  8
Layer_1
 62
7
100
AcDbPolyline
 90
6
 70
1
 10
30.998002
 20
293.323056
 30
0.0
 10
31.998045
 20
293.323056
 30
0.0
 10
31.998045
 20
294.423007
 30
0.0
 10
30.998002
 20
294.423007
 30
0.0
 10
30.998002
 20
293.323056
 30
0.0
 10
30.998002
 20
293.323056
 30
0.0
  0
LWPOLYLINE
  5
11d
100
AcDbEntity
  8
Layer_1
 62
7
100
AcDbPolyline
 90
6
 70
1
 10
30.998002
 20
291.622985
 30
0.0
 10
31.998045
 20
291.622985
 30
0.0
 10
31.998045
 20
292.723073
 30
0.0
 10
30.998002
 20
292.723073
 30
0.0
 10
30.998002
 20
291.622985
 30
0.0
 10
30.998002
 20
291.622985
 30
0.0
  0
LWPOLYLINE
  5
11e
100
AcDbEntity
  8
Layer_1
 62
7
100
AcDbPolyline
 90
6
 70
1
 10
25.526136
 20
293.031062
 30
0.0
 10
26.626086
 20
293.031062
 30
0.0
 10
26.626086
 20
294.030969
 30
0.0
 10
25.526136
 20
294.030969
 30
0.0
 10
25.526136
 20
293.031062
 30
0.0
 10
25.526136
 20
293.031062
 30
0.0
  0
LWPOLYLINE
  5
11f
100
AcDbEntity
  8
Layer_1
 62
7
100
AcDbPolyline
 90
6
 70
1
 10
27.226101
 20
293.031062
 30
0.0
 10
28.326052
 20
293.031062
 30
0.0
 10
28.326052
 20
294.030969
 30
0.0
 10
27.226101
 20
294.030969
 30
0.0
 10
27.226101
 20
293.031062
 30
0.0
 10
27.226101
 20
293.031062
 30
0.0
  0
LWPOLYLINE
  5
120
100
AcDbEntity
  8
Layer_1
 62
7
100
AcDbPolyline
 90
6
 70
1
 10
25.526136
 20
290.998992
 30
0.0
 10
26.626086
 20
290.998992
 30
0.0
 10
26.626086
 20
291.999035
 30
0.0
 10
25.526136
 20
291.999035
 30
0.0
 10
25.526136
 20
290.998992
 30
0.0
 10
25.526136
 20
290.998992
 30
0.0
  0
LWPOLYLINE
  5
121
100
AcDbEntity
  8
Layer_1
 62
7
100
AcDbPolyline
 90
6
 70
1
 10
27.226101
 20
290.998992
 30
0.0
 10
28.326052
 20
290.998992
 30
0.0
 10
28.326052
 20
291.999035
 30
0.0
 10
27.226101
 20
291.999035
 30
0.0
 10
27.226101
 20
290.998992
 30
0.0
 10
27.226101
 20
290.998992
 30
0.0
  0
LWPOLYLINE
  5
122
100
AcDbEntity
  8
Layer_1
 62
7
100
AcDbPolyline
 90
5
 70
0
 10
9.619033
 20
281.083043
 30
0.0
 10
9.619033
 20
280.533063
 30
0.0
 10
9.769104
 20
280.533063
 30
0.0
 10
9.769104
 20
281.083043
 30
0.0
 10
9.619033
 20
281.083043
 30
0.0
  0
LWPOLYLINE
  5
123
100
AcDbEntity
  8
Layer_1
 62
7
100
AcDbPolyline
 90
6
 70
1
 10
9.593668
 20
280.507592
 30
0.0
 10
9.794448
 20
280.507592
 30
0.0
 10
9.794448
 20
281.108419
 30
0.0
 10
9.593668
 20
281.108419
 30
0.0
 10
9.593668
 20
280.507592
 30
0.0
 10
9.593668
 20
280.507592
 30
0.0
  0
LWPOLYLINE
  5
124
100
AcDbEntity
  8
Layer_1
 62
7
100
AcDbPolyline
 90
5
 70
0
 10
10.119131
 20
281.083043
 30
0.0
 10
10.119131
 20
280.533063
 30
0.0
 10
10.269061
 20
280.533063
 30
0.0
 10
10.269061
 20
281.083043
 30
0.0
 10
10.119131
 20
281.083043
 30
0.0
  0
LWPOLYLINE
  5
125
100
AcDbEntity
  8
Layer_1
 62
7
100
AcDbPolyline
 90
6
 70
1
 10
10.093625
 20
280.507592
 30
0.0
 10
10.294543
 20
280.507592
 30
0.0
 10
10.294543
 20
281.108419
 30
0.0
 10
10.093625
 20
281.108419
 30
0.0
 10
10.093625
 20
280.507592
 30
0.0
 10
10.093625
 20
280.507592
 30
0.0
  0
LWPOLYLINE
  5
126
100
AcDbEntity
  8
Layer_1
 62
7
100
AcDbPolyline
 90
5
 70
0
 10
10.619087
 20
281.083043
 30
0.0
 10
10.619087
 20
280.533063
 30
0.0
 10
10.769159
 20
280.533063
 30
0.0
 10
10.769159
 20
281.083043
 30
0.0
 10
10.619087
 20
281.083043
 30
0.0
  0
LWPOLYLINE
  5
127
100
AcDbEntity
  8
Layer_1
 62
7
100
AcDbPolyline
 90
6
 70
1
 10
10.593722
 20
280.507592
 30
0.0
 10
10.794503
 20
280.507592
 30
0.0
 10
10.794503
 20
281.108419
 30
0.0
 10
10.593722
 20
281.108419
 30
0.0
 10
10.593722
 20
280.507592
 30
0.0
 10
10.593722
 20
280.507592
 30
0.0
  0
LWPOLYLINE
  5
128
100
AcDbEntity
  8
Layer_1
 62
7
100
AcDbPolyline
 90
5
 70
0
 10
11.119044
 20
281.083043
 30
0.0
 10
11.119044
 20
280.533063
 30
0.0
 10
11.269080
 20
280.533063
 30
0.0
 10
11.269080
 20
281.083043
 30
0.0
 10
11.119044
 20
281.083043
 30
0.0
  0
LWPOLYLINE
  5
129
100
AcDbEntity
  8
Layer_1
 62
7
100
AcDbPolyline
 90
6
 70
1
 10
11.093679
 20
280.507592
 30
0.0
 10
11.294459
 20
280.507592
 30
0.0
 10
11.294459
 20
281.108419
 30
0.0
 10
11.093679
 20
281.108419
 30
0.0
 10
11.093679
 20
280.507592
 30
0.0
 10
11.093679
 20
280.507592
 30
0.0
  0
LWPOLYLINE
  5
12a
100
AcDbEntity
  8
Layer_1
 62
7
100
AcDbPolyline
 90
5
 70
0
 10
11.619106
 20
281.083043
 30
0.0
 10
11.619106
 20
280.533063
 30
0.0
 10
11.769037
 20
280.533063
 30
0.0
 10
11.769037
 20
281.083043
 30
0.0
 10
11.619106
 20
281.083043
 30
0.0
  0
LWPOLYLINE
  5
12b
100
AcDbEntity
  8
Layer_1
 62
7
100
AcDbPolyline
 90
6
 70
1
 10
11.593636
 20
280.507592
 30
0.0
 10
11.794554
 20
280.507592
 30
0.0
 10
11.794554
 20
281.108419
 30
0.0
 10
11.593636
 20
281.108419
 30
0.0
 10
11.593636
 20
280.507592
 30
0.0
 10
11.593636
 20
280.507592
 30
0.0
  0
LWPOLYLINE
  5
12c
100
AcDbEntity
  8
Layer_1
 62
7
100
AcDbPolyline
 90
5
 70
0
 10
12.119063
 20
281.083043
 30
0.0
 10
12.119063
 20
280.533063
 30
0.0
 10
12.269135
 20
280.533063
 30
0.0
 10
12.269135
 20
281.083043
 30
0.0
 10
12.119063
 20
281.083043
 30
0.0
  0
LWPOLYLINE
  5
12d
100
AcDbEntity
  8
Layer_1
 62
7
100
AcDbPolyline
 90
6
 70
1
 10
12.093698
 20
280.507592
 30
0.0
 10
12.294479
 20
280.507592
 30
0.0
 10
12.294479
 20
281.108419
 30
0.0
 10
12.093698
 20
281.108419
 30
0.0
 10
12.093698
 20
280.507592
 30
0.0
 10
12.093698
 20
280.507592
 30
0.0
  0
LWPOLYLINE
  5
12e
100
AcDbEntity
  8
Layer_1
 62
7
100
AcDbPolyline
 90
5
 70
0
 10
12.619161
 20
281.083043
 30
0.0
 10
12.619161
 20
280.533063
 30
0.0
 10
12.769091
 20
280.533063
 30
0.0
 10
12.769091
 20
281.083043
 30
0.0
 10
12.619161
 20
281.083043
 30
0.0
  0
LWPOLYLINE
  5
12f
100
AcDbEntity
  8
Layer_1
 62
7
100
AcDbPolyline
 90
6
 70
1
 10
12.593655
 20
280.507592
 30
0.0
 10
12.794435
 20
280.507592
 30
0.0
 10
12.794435
 20
281.108419
 30
0.0
 10
12.593655
 20
281.108419
 30
0.0
 10
12.593655
 20
280.507592
 30
0.0
 10
12.593655
 20
280.507592
 30
0.0
  0
LWPOLYLINE
  5
130
100
AcDbEntity
  8
Layer_1
 62
7
100
AcDbPolyline
 90
5
 70
0
 10
13.119117
 20
281.083043
 30
0.0
 10
13.119117
 20
280.533063
 30
0.0
 10
13.269048
 20
280.533063
 30
0.0
 10
13.269048
 20
281.083043
 30
0.0
 10
13.119117
 20
281.083043
 30
0.0
  0
LWPOLYLINE
  5
131
100
AcDbEntity
  8
Layer_1
 62
7
100
AcDbPolyline
 90
6
 70
1
 10
13.093753
 20
280.507592
 30
0.0
 10
13.294533
 20
280.507592
 30
0.0
 10
13.294533
 20
281.108419
 30
0.0
 10
13.093753
 20
281.108419
 30
0.0
 10
13.093753
 20
280.507592
 30
0.0
 10
13.093753
 20
280.507592
 30
0.0
  0
LWPOLYLINE
  5
132
100
AcDbEntity
  8
Layer_1
 62
7
100
AcDbPolyline
 90
5
 70
0
 10
13.619074
 20
281.083043
 30
0.0
 10
13.619074
 20
280.533063
 30
0.0
 10
13.769146
 20
280.533063
 30
0.0
 10
13.769146
 20
281.083043
 30
0.0
 10
13.619074
 20
281.083043
 30
0.0
  0
LWPOLYLINE
  5
133
100
AcDbEntity
  8
Layer_1
 62
7
100
AcDbPolyline
 90
6
 70
1
 10
13.593709
 20
280.507592
 30
0.0
 10
13.794490
 20
280.507592
 30
0.0
 10
13.794490
 20
281.108419
 30
0.0
 10
13.593709
 20
281.108419
 30
0.0
 10
13.593709
 20
280.507592
 30
0.0
 10
13.593709
 20
280.507592
 30
0.0
  0
LWPOLYLINE
  5
134
100
AcDbEntity
  8
Layer_1
 62
7
100
AcDbPolyline
 90
5
 70
0
 10
14.119172
 20
281.083043
 30
0.0
 10
14.119172
 20
280.533063
 30
0.0
 10
14.269102
 20
280.533063
 30
0.0
 10
14.269102
 20
281.083043
 30
0.0
 10
14.119172
 20
281.083043
 30
0.0
  0
LWPOLYLINE
  5
135
100
AcDbEntity
  8
Layer_1
 62
7
100
AcDbPolyline
 90
6
 70
1
 10
14.093666
 20
280.507592
 30
0.0
 10
14.294446
 20
280.507592
 30
0.0
 10
14.294446
 20
281.108419
 30
0.0
 10
14.093666
 20
281.108419
 30
0.0
 10
14.093666
 20
280.507592
 30
0.0
 10
14.093666
 20
280.507592
 30
0.0
  0
LWPOLYLINE
  5
136
100
AcDbEntity
  8
Layer_1
 62
7
100
AcDbPolyline
 90
5
 70
0
 10
14.619093
 20
281.083043
 30
0.0
 10
14.619093
 20
280.533063
 30
0.0
 10
14.769024
 20
280.533063
 30
0.0
 10
14.769024
 20
281.083043
 30
0.0
 10
14.619093
 20
281.083043
 30
0.0
  0
LWPOLYLINE
  5
137
100
AcDbEntity
  8
Layer_1
 62
7
100
AcDbPolyline
 90
6
 70
1
 10
14.593764
 20
280.507592
 30
0.0
 10
14.794544
 20
280.507592
 30
0.0
 10
14.794544
 20
281.108419
 30
0.0
 10
14.593764
 20
281.108419
 30
0.0
 10
14.593764
 20
280.507592
 30
0.0
 10
14.593764
 20
280.507592
 30
0.0
  0
LWPOLYLINE
  5
138
100
AcDbEntity
  8
Layer_1
 62
7
100
AcDbPolyline
 90
5
 70
0
 10
15.244039
 20
281.707989
 30
0.0
 10
15.244039
 20
281.558059
 30
0.0
 10
15.794161
 20
281.558059
 30
0.0
 10
15.794161
 20
281.707989
 30
0.0
 10
15.244039
 20
281.707989
 30
0.0
  0
LWPOLYLINE
  5
139
100
AcDbEntity
  8
Layer_1
 62
7
100
AcDbPolyline
 90
6
 70
1
 10
15.218710
 20
281.532553
 30
0.0
 10
15.819536
 20
281.532553
 30
0.0
 10
15.819536
 20
281.733333
 30
0.0
 10
15.218710
 20
281.733333
 30
0.0
 10
15.218710
 20
281.532553
 30
0.0
 10
15.218710
 20
281.532553
 30
0.0
  0
LWPOLYLINE
  5
13a
100
AcDbEntity
  8
Layer_1
 62
7
100
AcDbPolyline
 90
5
 70
0
 10
15.244039
 20
282.207946
 30
0.0
 10
15.244039
 20
282.058015
 30
0.0
 10
15.794161
 20
282.058015
 30
0.0
 10
15.794161
 20
282.207946
 30
0.0
 10
15.244039
 20
282.207946
 30
0.0
  0
LWPOLYLINE
  5
13b
100
AcDbEntity
  8
Layer_1
 62
7
100
AcDbPolyline
 90
6
 70
1
 10
15.218710
 20
282.032651
 30
0.0
 10
15.819536
 20
282.032651
 30
0.0
 10
15.819536
 20
282.233431
 30
0.0
 10
15.218710
 20
282.233431
 30
0.0
 10
15.218710
 20
282.032651
 30
0.0
 10
15.218710
 20
282.032651
 30
0.0
  0
LWPOLYLINE
  5
13c
100
AcDbEntity
  8
Layer_1
 62
7
100
AcDbPolyline
 90
5
 70
0
 10
15.244039
 20
282.708044
 30
0.0
 10
15.244039
 20
282.557972
 30
0.0
 10
15.794161
 20
282.557972
 30
0.0
 10
15.794161
 20
282.708044
 30
0.0
 10
15.244039
 20
282.708044
 30
0.0
  0
LWPOLYLINE
  5
13d
100
AcDbEntity
  8
Layer_1
 62
7
100
AcDbPolyline
 90
6
 70
1
 10
15.218710
 20
282.532607
 30
0.0
 10
15.819536
 20
282.532607
 30
0.0
 10
15.819536
 20
282.733388
 30
0.0
 10
15.218710
 20
282.733388
 30
0.0
 10
15.218710
 20
282.532607
 30
0.0
 10
15.218710
 20
282.532607
 30
0.0
  0
LWPOLYLINE
  5
13e
100
AcDbEntity
  8
Layer_1
 62
7
100
AcDbPolyline
 90
5
 70
0
 10
15.244039
 20
283.207965
 30
0.0
 10
15.244039
 20
283.058035
 30
0.0
 10
15.794161
 20
283.058035
 30
0.0
 10
15.794161
 20
283.207965
 30
0.0
 10
15.244039
 20
283.207965
 30
0.0
  0
LWPOLYLINE
  5
13f
100
AcDbEntity
  8
Layer_1
 62
7
100
AcDbPolyline
 90
6
 70
1
 10
15.218710
 20
283.032564
 30
0.0
 10
15.819536
 20
283.032564
 30
0.0
 10
15.819536
 20
283.233344
 30
0.0
 10
15.218710
 20
283.233344
 30
0.0
 10
15.218710
 20
283.032564
 30
0.0
 10
15.218710
 20
283.032564
 30
0.0
  0
LWPOLYLINE
  5
140
100
AcDbEntity
  8
Layer_1
 62
7
100
AcDbPolyline
 90
5
 70
0
 10
15.244039
 20
283.708063
 30
0.0
 10
15.244039
 20
283.557991
 30
0.0
 10
15.794161
 20
283.557991
 30
0.0
 10
15.794161
 20
283.708063
 30
0.0
 10
15.244039
 20
283.708063
 30
0.0
  0
LWPOLYLINE
  5
141
100
AcDbEntity
  8
Layer_1
 62
7
100
AcDbPolyline
 90
6
 70
1
 10
15.218710
 20
283.532662
 30
0.0
 10
15.819536
 20
283.532662
 30
0.0
 10
15.819536
 20
283.733442
 30
0.0
 10
15.218710
 20
283.733442
 30
0.0
 10
15.218710
 20
283.532662
 30
0.0
 10
15.218710
 20
283.532662
 30
0.0
  0
LWPOLYLINE
  5
142
100
AcDbEntity
  8
Layer_1
 62
7
100
AcDbPolyline
 90
5
 70
0
 10
15.244039
 20
284.208020
 30
0.0
 10
15.244039
 20
284.057948
 30
0.0
 10
15.794161
 20
284.057948
 30
0.0
 10
15.794161
 20
284.208020
 30
0.0
 10
15.244039
 20
284.208020
 30
0.0
  0
LWPOLYLINE
  5
143
100
AcDbEntity
  8
Layer_1
 62
7
100
AcDbPolyline
 90
6
 70
1
 10
15.218710
 20
284.032583
 30
0.0
 10
15.819536
 20
284.032583
 30
0.0
 10
15.819536
 20
284.233363
 30
0.0
 10
15.218710
 20
284.233363
 30
0.0
 10
15.218710
 20
284.032583
 30
0.0
 10
15.218710
 20
284.032583
 30
0.0
  0
LWPOLYLINE
  5
144
100
AcDbEntity
  8
Layer_1
 62
7
100
AcDbPolyline
 90
5
 70
0
 10
15.244039
 20
284.707976
 30
0.0
 10
15.244039
 20
284.558046
 30
0.0
 10
15.794161
 20
284.558046
 30
0.0
 10
15.794161
 20
284.707976
 30
0.0
 10
15.244039
 20
284.707976
 30
0.0
  0
LWPOLYLINE
  5
145
100
AcDbEntity
  8
Layer_1
 62
7
100
AcDbPolyline
 90
6
 70
1
 10
15.218710
 20
284.532540
 30
0.0
 10
15.819536
 20
284.532540
 30
0.0
 10
15.819536
 20
284.733458
 30
0.0
 10
15.218710
 20
284.733458
 30
0.0
 10
15.218710
 20
284.532540
 30
0.0
 10
15.218710
 20
284.532540
 30
0.0
  0
LWPOLYLINE
  5
146
100
AcDbEntity
  8
Layer_1
 62
7
100
AcDbPolyline
 90
5
 70
0
 10
15.244039
 20
285.208074
 30
0.0
 10
15.244039
 20
285.058002
 30
0.0
 10
15.794161
 20
285.058002
 30
0.0
 10
15.794161
 20
285.208074
 30
0.0
 10
15.244039
 20
285.208074
 30
0.0
  0
LWPOLYLINE
  5
147
100
AcDbEntity
  8
Layer_1
 62
7
100
AcDbPolyline
 90
6
 70
1
 10
15.218710
 20
285.032638
 30
0.0
 10
15.819536
 20
285.032638
 30
0.0
 10
15.819536
 20
285.233418
 30
0.0
 10
15.218710
 20
285.233418
 30
0.0
 10
15.218710
 20
285.032638
 30
0.0
 10
15.218710
 20
285.032638
 30
0.0
  0
LWPOLYLINE
  5
148
100
AcDbEntity
  8
Layer_1
 62
7
100
AcDbPolyline
 90
5
 70
0
 10
15.244039
 20
285.708031
 30
0.0
 10
15.244039
 20
285.557959
 30
0.0
 10
15.794161
 20
285.557959
 30
0.0
 10
15.794161
 20
285.708031
 30
0.0
 10
15.244039
 20
285.708031
 30
0.0
  0
LWPOLYLINE
  5
149
100
AcDbEntity
  8
Layer_1
 62
7
100
AcDbPolyline
 90
6
 70
1
 10
15.218710
 20
285.532594
 30
0.0
 10
15.819536
 20
285.532594
 30
0.0
 10
15.819536
 20
285.733374
 30
0.0
 10
15.218710
 20
285.733374
 30
0.0
 10
15.218710
 20
285.532594
 30
0.0
 10
15.218710
 20
285.532594
 30
0.0
  0
LWPOLYLINE
  5
14a
100
AcDbEntity
  8
Layer_1
 62
7
100
AcDbPolyline
 90
5
 70
0
 10
15.244039
 20
286.207987
 30
0.0
 10
15.244039
 20
286.058057
 30
0.0
 10
15.794161
 20
286.058057
 30
0.0
 10
15.794161
 20
286.207987
 30
0.0
 10
15.244039
 20
286.207987
 30
0.0
  0
LWPOLYLINE
  5
14b
100
AcDbEntity
  8
Layer_1
 62
7
100
AcDbPolyline
 90
6
 70
1
 10
15.218710
 20
286.032551
 30
0.0
 10
15.819536
 20
286.032551
 30
0.0
 10
15.819536
 20
286.233469
 30
0.0
 10
15.218710
 20
286.233469
 30
0.0
 10
15.218710
 20
286.032551
 30
0.0
 10
15.218710
 20
286.032551
 30
0.0
  0
LWPOLYLINE
  5
14c
100
AcDbEntity
  8
Layer_1
 62
7
100
AcDbPolyline
 90
5
 70
0
 10
15.244039
 20
286.708050
 30
0.0
 10
15.244039
 20
286.557978
 30
0.0
 10
15.794161
 20
286.557978
 30
0.0
 10
15.794161
 20
286.708050
 30
0.0
 10
15.244039
 20
286.708050
 30
0.0
  0
LWPOLYLINE
  5
14d
100
AcDbEntity
  8
Layer_1
 62
7
100
AcDbPolyline
 90
6
 70
1
 10
15.218710
 20
286.532649
 30
0.0
 10
15.819536
 20
286.532649
 30
0.0
 10
15.819536
 20
286.733429
 30
0.0
 10
15.218710
 20
286.733429
 30
0.0
 10
15.218710
 20
286.532649
 30
0.0
 10
15.218710
 20
286.532649
 30
0.0
  0
LWPOLYLINE
  5
14e
100
AcDbEntity
  8
Layer_1
 62
7
100
AcDbPolyline
 90
5
 70
0
 10
14.619093
 20
287.733046
 30
0.0
 10
14.619093
 20
287.183065
 30
0.0
 10
14.769024
 20
287.183065
 30
0.0
 10
14.769024
 20
287.733046
 30
0.0
 10
14.619093
 20
287.733046
 30
0.0
  0
LWPOLYLINE
  5
14f
100
AcDbEntity
  8
Layer_1
 62
7
100
AcDbPolyline
 90
6
 70
1
 10
14.593764
 20
287.157595
 30
0.0
 10
14.794544
 20
287.157595
 30
0.0
 10
14.794544
 20
287.758421
 30
0.0
 10
14.593764
 20
287.758421
 30
0.0
 10
14.593764
 20
287.157595
 30
0.0
 10
14.593764
 20
287.157595
 30
0.0
  0
LWPOLYLINE
  5
150
100
AcDbEntity
  8
Layer_1
 62
7
100
AcDbPolyline
 90
5
 70
0
 10
14.119172
 20
287.733046
 30
0.0
 10
14.119172
 20
287.183065
 30
0.0
 10
14.269102
 20
287.183065
 30
0.0
 10
14.269102
 20
287.733046
 30
0.0
 10
14.119172
 20
287.733046
 30
0.0
  0
LWPOLYLINE
  5
151
100
AcDbEntity
  8
Layer_1
 62
7
100
AcDbPolyline
 90
6
 70
1
 10
14.093666
 20
287.157595
 30
0.0
 10
14.294446
 20
287.157595
 30
0.0
 10
14.294446
 20
287.758421
 30
0.0
 10
14.093666
 20
287.758421
 30
0.0
 10
14.093666
 20
287.157595
 30
0.0
 10
14.093666
 20
287.157595
 30
0.0
  0
LWPOLYLINE
  5
152
100
AcDbEntity
  8
Layer_1
 62
7
100
AcDbPolyline
 90
5
 70
0
 10
13.619074
 20
287.733046
 30
0.0
 10
13.619074
 20
287.183065
 30
0.0
 10
13.769146
 20
287.183065
 30
0.0
 10
13.769146
 20
287.733046
 30
0.0
 10
13.619074
 20
287.733046
 30
0.0
  0
LWPOLYLINE
  5
153
100
AcDbEntity
  8
Layer_1
 62
7
100
AcDbPolyline
 90
6
 70
1
 10
13.593709
 20
287.157595
 30
0.0
 10
13.794490
 20
287.157595
 30
0.0
 10
13.794490
 20
287.758421
 30
0.0
 10
13.593709
 20
287.758421
 30
0.0
 10
13.593709
 20
287.157595
 30
0.0
 10
13.593709
 20
287.157595
 30
0.0
  0
LWPOLYLINE
  5
154
100
AcDbEntity
  8
Layer_1
 62
7
100
AcDbPolyline
 90
5
 70
0
 10
13.119117
 20
287.733046
 30
0.0
 10
13.119117
 20
287.183065
 30
0.0
 10
13.269048
 20
287.183065
 30
0.0
 10
13.269048
 20
287.733046
 30
0.0
 10
13.119117
 20
287.733046
 30
0.0
  0
LWPOLYLINE
  5
155
100
AcDbEntity
  8
Layer_1
 62
7
100
AcDbPolyline
 90
6
 70
1
 10
13.093753
 20
287.157595
 30
0.0
 10
13.294533
 20
287.157595
 30
0.0
 10
13.294533
 20
287.758421
 30
0.0
 10
13.093753
 20
287.758421
 30
0.0
 10
13.093753
 20
287.157595
 30
0.0
 10
13.093753
 20
287.157595
 30
0.0
  0
LWPOLYLINE
  5
156
100
AcDbEntity
  8
Layer_1
 62
7
100
AcDbPolyline
 90
5
 70
0
 10
12.619161
 20
287.733046
 30
0.0
 10
12.619161
 20
287.183065
 30
0.0
 10
12.769091
 20
287.183065
 30
0.0
 10
12.769091
 20
287.733046
 30
0.0
 10
12.619161
 20
287.733046
 30
0.0
  0
LWPOLYLINE
  5
157
100
AcDbEntity
  8
Layer_1
 62
7
100
AcDbPolyline
 90
6
 70
1
 10
12.593655
 20
287.157595
 30
0.0
 10
12.794435
 20
287.157595
 30
0.0
 10
12.794435
 20
287.758421
 30
0.0
 10
12.593655
 20
287.758421
 30
0.0
 10
12.593655
 20
287.157595
 30
0.0
 10
12.593655
 20
287.157595
 30
0.0
  0
LWPOLYLINE
  5
158
100
AcDbEntity
  8
Layer_1
 62
7
100
AcDbPolyline
 90
5
 70
0
 10
12.119063
 20
287.733046
 30
0.0
 10
12.119063
 20
287.183065
 30
0.0
 10
12.269135
 20
287.183065
 30
0.0
 10
12.269135
 20
287.733046
 30
0.0
 10
12.119063
 20
287.733046
 30
0.0
  0
LWPOLYLINE
  5
159
100
AcDbEntity
  8
Layer_1
 62
7
100
AcDbPolyline
 90
6
 70
1
 10
12.093698
 20
287.157595
 30
0.0
 10
12.294479
 20
287.157595
 30
0.0
 10
12.294479
 20
287.758421
 30
0.0
 10
12.093698
 20
287.758421
 30
0.0
 10
12.093698
 20
287.157595
 30
0.0
 10
12.093698
 20
287.157595
 30
0.0
  0
LWPOLYLINE
  5
15a
100
AcDbEntity
  8
Layer_1
 62
7
100
AcDbPolyline
 90
5
 70
0
 10
11.619106
 20
287.733046
 30
0.0
 10
11.619106
 20
287.183065
 30
0.0
 10
11.769037
 20
287.183065
 30
0.0
 10
11.769037
 20
287.733046
 30
0.0
 10
11.619106
 20
287.733046
 30
0.0
  0
LWPOLYLINE
  5
15b
100
AcDbEntity
  8
Layer_1
 62
7
100
AcDbPolyline
 90
6
 70
1
 10
11.593636
 20
287.157595
 30
0.0
 10
11.794554
 20
287.157595
 30
0.0
 10
11.794554
 20
287.758421
 30
0.0
 10
11.593636
 20
287.758421
 30
0.0
 10
11.593636
 20
287.157595
 30
0.0
 10
11.593636
 20
287.157595
 30
0.0
  0
LWPOLYLINE
  5
15c
100
AcDbEntity
  8
Layer_1
 62
7
100
AcDbPolyline
 90
5
 70
0
 10
11.119044
 20
287.733046
 30
0.0
 10
11.119044
 20
287.183065
 30
0.0
 10
11.269080
 20
287.183065
 30
0.0
 10
11.269080
 20
287.733046
 30
0.0
 10
11.119044
 20
287.733046
 30
0.0
  0
LWPOLYLINE
  5
15d
100
AcDbEntity
  8
Layer_1
 62
7
100
AcDbPolyline
 90
6
 70
1
 10
11.093679
 20
287.157595
 30
0.0
 10
11.294459
 20
287.157595
 30
0.0
 10
11.294459
 20
287.758421
 30
0.0
 10
11.093679
 20
287.758421
 30
0.0
 10
11.093679
 20
287.157595
 30
0.0
 10
11.093679
 20
287.157595
 30
0.0
  0
LWPOLYLINE
  5
15e
100
AcDbEntity
  8
Layer_1
 62
7
100
AcDbPolyline
 90
5
 70
0
 10
10.619087
 20
287.733046
 30
0.0
 10
10.619087
 20
287.183065
 30
0.0
 10
10.769159
 20
287.183065
 30
0.0
 10
10.769159
 20
287.733046
 30
0.0
 10
10.619087
 20
287.733046
 30
0.0
  0
LWPOLYLINE
  5
15f
100
AcDbEntity
  8
Layer_1
 62
7
100
AcDbPolyline
 90
6
 70
1
 10
10.593722
 20
287.157595
 30
0.0
 10
10.794503
 20
287.157595
 30
0.0
 10
10.794503
 20
287.758421
 30
0.0
 10
10.593722
 20
287.758421
 30
0.0
 10
10.593722
 20
287.157595
 30
0.0
 10
10.593722
 20
287.157595
 30
0.0
  0
LWPOLYLINE
  5
160
100
AcDbEntity
  8
Layer_1
 62
7
100
AcDbPolyline
 90
5
 70
0
 10
10.119131
 20
287.733046
 30
0.0
 10
10.119131
 20
287.183065
 30
0.0
 10
10.269061
 20
287.183065
 30
0.0
 10
10.269061
 20
287.733046
 30
0.0
 10
10.119131
 20
287.733046
 30
0.0
  0
LWPOLYLINE
  5
161
100
AcDbEntity
  8
Layer_1
 62
7
100
AcDbPolyline
 90
6
 70
1
 10
10.093625
 20
287.157595
 30
0.0
 10
10.294543
 20
287.157595
 30
0.0
 10
10.294543
 20
287.758421
 30
0.0
 10
10.093625
 20
287.758421
 30
0.0
 10
10.093625
 20
287.157595
 30
0.0
 10
10.093625
 20
287.157595
 30
0.0
  0
LWPOLYLINE
  5
162
100
AcDbEntity
  8
Layer_1
 62
7
100
AcDbPolyline
 90
5
 70
0
 10
9.619033
 20
287.733046
 30
0.0
 10
9.619033
 20
287.183065
 30
0.0
 10
9.769104
 20
287.183065
 30
0.0
 10
9.769104
 20
287.733046
 30
0.0
 10
9.619033
 20
287.733046
 30
0.0
  0
LWPOLYLINE
  5
163
100
AcDbEntity
  8
Layer_1
 62
7
100
AcDbPolyline
 90
6
 70
1
 10
9.593668
 20
287.157595
 30
0.0
 10
9.794448
 20
287.157595
 30
0.0
 10
9.794448
 20
287.758421
 30
0.0
 10
9.593668
 20
287.758421
 30
0.0
 10
9.593668
 20
287.157595
 30
0.0
 10
9.593668
 20
287.157595
 30
0.0
  0
LWPOLYLINE
  5
164
100
AcDbEntity
  8
Layer_1
 62
7
100
AcDbPolyline
 90
5
 70
0
 10
8.594037
 20
286.708050
 30
0.0
 10
8.594037
 20
286.557978
 30
0.0
 10
9.144017
 20
286.557978
 30
0.0
 10
9.144017
 20
286.708050
 30
0.0
 10
8.594037
 20
286.708050
 30
0.0
  0
LWPOLYLINE
  5
165
100
AcDbEntity
  8
Layer_1
 62
7
100
AcDbPolyline
 90
6
 70
1
 10
8.568707
 20
286.532649
 30
0.0
 10
9.169534
 20
286.532649
 30
0.0
 10
9.169534
 20
286.733429
 30
0.0
 10
8.568707
 20
286.733429
 30
0.0
 10
8.568707
 20
286.532649
 30
0.0
 10
8.568707
 20
286.532649
 30
0.0
  0
LWPOLYLINE
  5
166
100
AcDbEntity
  8
Layer_1
 62
7
100
AcDbPolyline
 90
5
 70
0
 10
8.594037
 20
286.207987
 30
0.0
 10
8.594037
 20
286.058057
 30
0.0
 10
9.144017
 20
286.058057
 30
0.0
 10
9.144017
 20
286.207987
 30
0.0
 10
8.594037
 20
286.207987
 30
0.0
  0
LWPOLYLINE
  5
167
100
AcDbEntity
  8
Layer_1
 62
7
100
AcDbPolyline
 90
6
 70
1
 10
8.568707
 20
286.032551
 30
0.0
 10
9.169534
 20
286.032551
 30
0.0
 10
9.169534
 20
286.233469
 30
0.0
 10
8.568707
 20
286.233469
 30
0.0
 10
8.568707
 20
286.032551
 30
0.0
 10
8.568707
 20
286.032551
 30
0.0
  0
LWPOLYLINE
  5
168
100
AcDbEntity
  8
Layer_1
 62
7
100
AcDbPolyline
 90
5
 70
0
 10
8.594037
 20
285.708031
 30
0.0
 10
8.594037
 20
285.557959
 30
0.0
 10
9.144017
 20
285.557959
 30
0.0
 10
9.144017
 20
285.708031
 30
0.0
 10
8.594037
 20
285.708031
 30
0.0
  0
LWPOLYLINE
  5
169
100
AcDbEntity
  8
Layer_1
 62
7
100
AcDbPolyline
 90
6
 70
1
 10
8.568707
 20
285.532594
 30
0.0
 10
9.169534
 20
285.532594
 30
0.0
 10
9.169534
 20
285.733374
 30
0.0
 10
8.568707
 20
285.733374
 30
0.0
 10
8.568707
 20
285.532594
 30
0.0
 10
8.568707
 20
285.532594
 30
0.0
  0
LWPOLYLINE
  5
16a
100
AcDbEntity
  8
Layer_1
 62
7
100
AcDbPolyline
 90
5
 70
0
 10
8.594037
 20
285.208074
 30
0.0
 10
8.594037
 20
285.058002
 30
0.0
 10
9.144017
 20
285.058002
 30
0.0
 10
9.144017
 20
285.208074
 30
0.0
 10
8.594037
 20
285.208074
 30
0.0
  0
LWPOLYLINE
  5
16b
100
AcDbEntity
  8
Layer_1
 62
7
100
AcDbPolyline
 90
6
 70
1
 10
8.568707
 20
285.032638
 30
0.0
 10
9.169534
 20
285.032638
 30
0.0
 10
9.169534
 20
285.233418
 30
0.0
 10
8.568707
 20
285.233418
 30
0.0
 10
8.568707
 20
285.032638
 30
0.0
 10
8.568707
 20
285.032638
 30
0.0
  0
LWPOLYLINE
  5
16c
100
AcDbEntity
  8
Layer_1
 62
7
100
AcDbPolyline
 90
5
 70
0
 10
8.594037
 20
284.707976
 30
0.0
 10
8.594037
 20
284.558046
 30
0.0
 10
9.144017
 20
284.558046
 30
0.0
 10
9.144017
 20
284.707976
 30
0.0
 10
8.594037
 20
284.707976
 30
0.0
  0
LWPOLYLINE
  5
16d
100
AcDbEntity
  8
Layer_1
 62
7
100
AcDbPolyline
 90
6
 70
1
 10
8.568707
 20
284.532540
 30
0.0
 10
9.169534
 20
284.532540
 30
0.0
 10
9.169534
 20
284.733458
 30
0.0
 10
8.568707
 20
284.733458
 30
0.0
 10
8.568707
 20
284.532540
 30
0.0
 10
8.568707
 20
284.532540
 30
0.0
  0
LWPOLYLINE
  5
16e
100
AcDbEntity
  8
Layer_1
 62
7
100
AcDbPolyline
 90
5
 70
0
 10
8.594037
 20
284.208020
 30
0.0
 10
8.594037
 20
284.057948
 30
0.0
 10
9.144017
 20
284.057948
 30
0.0
 10
9.144017
 20
284.208020
 30
0.0
 10
8.594037
 20
284.208020
 30
0.0
  0
LWPOLYLINE
  5
16f
100
AcDbEntity
  8
Layer_1
 62
7
100
AcDbPolyline
 90
6
 70
1
 10
8.568707
 20
284.032583
 30
0.0
 10
9.169534
 20
284.032583
 30
0.0
 10
9.169534
 20
284.233363
 30
0.0
 10
8.568707
 20
284.233363
 30
0.0
 10
8.568707
 20
284.032583
 30
0.0
 10
8.568707
 20
284.032583
 30
0.0
  0
LWPOLYLINE
  5
170
100
AcDbEntity
  8
Layer_1
 62
7
100
AcDbPolyline
 90
5
 70
0
 10
8.594037
 20
283.708063
 30
0.0
 10
8.594037
 20
283.557991
 30
0.0
 10
9.144017
 20
283.557991
 30
0.0
 10
9.144017
 20
283.708063
 30
0.0
 10
8.594037
 20
283.708063
 30
0.0
  0
LWPOLYLINE
  5
171
100
AcDbEntity
  8
Layer_1
 62
7
100
AcDbPolyline
 90
6
 70
1
 10
8.568707
 20
283.532662
 30
0.0
 10
9.169534
 20
283.532662
 30
0.0
 10
9.169534
 20
283.733442
 30
0.0
 10
8.568707
 20
283.733442
 30
0.0
 10
8.568707
 20
283.532662
 30
0.0
 10
8.568707
 20
283.532662
 30
0.0
  0
LWPOLYLINE
  5
172
100
AcDbEntity
  8
Layer_1
 62
7
100
AcDbPolyline
 90
5
 70
0
 10
8.594037
 20
283.207965
 30
0.0
 10
8.594037
 20
283.058035
 30
0.0
 10
9.144017
 20
283.058035
 30
0.0
 10
9.144017
 20
283.207965
 30
0.0
 10
8.594037
 20
283.207965
 30
0.0
  0
LWPOLYLINE
  5
173
100
AcDbEntity
  8
Layer_1
 62
7
100
AcDbPolyline
 90
6
 70
1
 10
8.568707
 20
283.032564
 30
0.0
 10
9.169534
 20
283.032564
 30
0.0
 10
9.169534
 20
283.233344
 30
0.0
 10
8.568707
 20
283.233344
 30
0.0
 10
8.568707
 20
283.032564
 30
0.0
 10
8.568707
 20
283.032564
 30
0.0
  0
LWPOLYLINE
  5
174
100
AcDbEntity
  8
Layer_1
 62
7
100
AcDbPolyline
 90
5
 70
0
 10
8.594037
 20
282.708044
 30
0.0
 10
8.594037
 20
282.557972
 30
0.0
 10
9.144017
 20
282.557972
 30
0.0
 10
9.144017
 20
282.708044
 30
0.0
 10
8.594037
 20
282.708044
 30
0.0
  0
LWPOLYLINE
  5
175
100
AcDbEntity
  8
Layer_1
 62
7
100
AcDbPolyline
 90
6
 70
1
 10
8.568707
 20
282.532607
 30
0.0
 10
9.169534
 20
282.532607
 30
0.0
 10
9.169534
 20
282.733388
 30
0.0
 10
8.568707
 20
282.733388
 30
0.0
 10
8.568707
 20
282.532607
 30
0.0
 10
8.568707
 20
282.532607
 30
0.0
  0
LWPOLYLINE
  5
176
100
AcDbEntity
  8
Layer_1
 62
7
100
AcDbPolyline
 90
5
 70
0
 10
8.594037
 20
282.207946
 30
0.0
 10
8.594037
 20
282.058015
 30
0.0
 10
9.144017
 20
282.058015
 30
0.0
 10
9.144017
 20
282.207946
 30
0.0
 10
8.594037
 20
282.207946
 30
0.0
  0
LWPOLYLINE
  5
177
100
AcDbEntity
  8
Layer_1
 62
7
100
AcDbPolyline
 90
6
 70
1
 10
8.568707
 20
282.032651
 30
0.0
 10
9.169534
 20
282.032651
 30
0.0
 10
9.169534
 20
282.233431
 30
0.0
 10
8.568707
 20
282.233431
 30
0.0
 10
8.568707
 20
282.032651
 30
0.0
 10
8.568707
 20
282.032651
 30
0.0
  0
LWPOLYLINE
  5
178
100
AcDbEntity
  8
Layer_1
 62
7
100
AcDbPolyline
 90
5
 70
0
 10
8.594037
 20
281.707989
 30
0.0
 10
8.594037
 20
281.558059
 30
0.0
 10
9.144017
 20
281.558059
 30
0.0
 10
9.144017
 20
281.707989
 30
0.0
 10
8.594037
 20
281.707989
 30
0.0
  0
LWPOLYLINE
  5
179
100
AcDbEntity
  8
Layer_1
 62
7
100
AcDbPolyline
 90
6
 70
1
 10
8.568707
 20
281.532553
 30
0.0
 10
9.169534
 20
281.532553
 30
0.0
 10
9.169534
 20
281.733333
 30
0.0
 10
8.568707
 20
281.733333
 30
0.0
 10
8.568707
 20
281.532553
 30
0.0
 10
8.568707
 20
281.532553
 30
0.0
  0
LWPOLYLINE
  5
17a
100
AcDbEntity
  8
Layer_1
 62
7
100
AcDbPolyline
 90
5
 70
0
 10
9.944117
 20
286.382965
 30
0.0
 10
9.944117
 20
281.883002
 30
0.0
 10
14.444080
 20
281.883002
 30
0.0
 10
14.444080
 20
286.382965
 30
0.0
 10
9.944117
 20
286.382965
 30
0.0
  0
LWPOLYLINE
  5
17b
100
AcDbEntity
  8
Layer_1
 62
7
100
AcDbPolyline
 90
6
 70
1
 10
9.918753
 20
281.857638
 30
0.0
 10
14.469445
 20
281.857638
 30
0.0
 10
14.469445
 20
286.408330
 30
0.0
 10
9.918753
 20
286.408330
 30
0.0
 10
9.918753
 20
281.857638
 30
0.0
 10
9.918753
 20
281.857638
 30
0.0
  0
LWPOLYLINE
  5
17c
100
AcDbEntity
  8
Layer_1
 62
7
100
AcDbPolyline
 90
6
 70
1
 10
33.682641
 20
275.268419
 30
0.0
 10
36.171928
 20
275.268419
 30
0.0
 10
36.171928
 20
277.503598
 30
0.0
 10
33.682641
 20
277.503598
 30
0.0
 10
33.682641
 20
275.268419
 30
0.0
 10
33.682641
 20
275.268419
 30
0.0
  0
LWPOLYLINE
  5
17d
100
AcDbEntity
  8
Layer_1
 62
7
100
AcDbPolyline
 90
6
 70
1
 10
38.415155
 20
289.054022
 30
0.0
 10
38.865220
 20
289.054022
 30
0.0
 10
38.865220
 20
291.403991
 30
0.0
 10
38.415155
 20
291.403991
 30
0.0
 10
38.415155
 20
289.054022
 30
0.0
 10
38.415155
 20
289.054022
 30
0.0
  0
LWPOLYLINE
  5
17e
100
AcDbEntity
  8
Layer_1
 62
7
100
AcDbPolyline
 90
6
 70
1
 10
37.764985
 20
289.054022
 30
0.0
 10
38.215051
 20
289.054022
 30
0.0
 10
38.215051
 20
291.403991
 30
0.0
 10
37.764985
 20
291.403991
 30
0.0
 10
37.764985
 20
289.054022
 30
0.0
 10
37.764985
 20
289.054022
 30
0.0
  0
LWPOLYLINE
  5
17f
100
AcDbEntity
  8
Layer_1
 62
7
100
AcDbPolyline
 90
6
 70
1
 10
37.115169
 20
289.054022
 30
0.0
 10
37.565234
 20
289.054022
 30
0.0
 10
37.565234
 20
291.403991
 30
0.0
 10
37.115169
 20
291.403991
 30
0.0
 10
37.115169
 20
289.054022
 30
0.0
 10
37.115169
 20
289.054022
 30
0.0
  0
LWPOLYLINE
  5
180
100
AcDbEntity
  8
Layer_1
 62
7
100
AcDbPolyline
 90
6
 70
1
 10
36.464999
 20
289.054022
 30
0.0
 10
36.914926
 20
289.054022
 30
0.0
 10
36.914926
 20
291.403991
 30
0.0
 10
36.464999
 20
291.403991
 30
0.0
 10
36.464999
 20
289.054022
 30
0.0
 10
36.464999
 20
289.054022
 30
0.0
  0
LWPOLYLINE
  5
181
100
AcDbEntity
  8
Layer_1
 62
7
100
AcDbPolyline
 90
6
 70
1
 10
35.815183
 20
289.054022
 30
0.0
 10
36.265110
 20
289.054022
 30
0.0
 10
36.265110
 20
291.403991
 30
0.0
 10
35.815183
 20
291.403991
 30
0.0
 10
35.815183
 20
289.054022
 30
0.0
 10
35.815183
 20
289.054022
 30
0.0
  0
LWPOLYLINE
  5
182
100
AcDbEntity
  8
Layer_1
 62
7
100
AcDbPolyline
 90
6
 70
1
 10
37.590008
 20
292.628931
 30
0.0
 10
39.089999
 20
292.628931
 30
0.0
 10
39.089999
 20
294.178948
 30
0.0
 10
37.590008
 20
294.178948
 30
0.0
 10
37.590008
 20
292.628931
 30
0.0
 10
37.590008
 20
292.628931
 30
0.0
  0
LWPOLYLINE
  5
183
100
AcDbEntity
  8
Layer_1
 62
7
100
AcDbPolyline
 90
6
 70
1
 10
35.590110
 20
292.628931
 30
0.0
 10
37.090102
 20
292.628931
 30
0.0
 10
37.090102
 20
294.178948
 30
0.0
 10
35.590110
 20
294.178948
 30
0.0
 10
35.590110
 20
292.628931
 30
0.0
 10
35.590110
 20
292.628931
 30
0.0
  0
LWPOLYLINE
  5
184
100
AcDbEntity
  8
Layer_1
 62
7
100
AcDbPolyline
 90
6
 70
1
 10
39.639999
 20
292.628931
 30
0.0
 10
41.139991
 20
292.628931
 30
0.0
 10
41.139991
 20
294.178948
 30
0.0
 10
39.639999
 20
294.178948
 30
0.0
 10
39.639999
 20
292.628931
 30
0.0
 10
39.639999
 20
292.628931
 30
0.0
  0
LWPOLYLINE
  5
185
100
AcDbEntity
  8
Layer_1
 62
7
100
AcDbPolyline
 90
6
 70
1
 10
33.540119
 20
292.628931
 30
0.0
 10
35.040110
 20
292.628931
 30
0.0
 10
35.040110
 20
294.178948
 30
0.0
 10
33.540119
 20
294.178948
 30
0.0
 10
33.540119
 20
292.628931
 30
0.0
 10
33.540119
 20
292.628931
 30
0.0
  0
LWPOLYLINE
  5
186
100
AcDbEntity
  8
Layer_1
 62
7
100
AcDbPolyline
 90
6
 70
1
 10
38.144221
 20
267.415937
 30
0.0
 10
39.044217
 20
267.415937
 30
0.0
 10
39.044217
 20
268.216029
 30
0.0
 10
38.144221
 20
268.216029
 30
0.0
 10
38.144221
 20
267.415937
 30
0.0
 10
38.144221
 20
267.415937
 30
0.0
  0
LWPOLYLINE
  5
187
100
AcDbEntity
  8
Layer_1
 62
7
100
AcDbPolyline
 90
6
 70
1
 10
38.144221
 20
269.315964
 30
0.0
 10
39.044217
 20
269.315964
 30
0.0
 10
39.044217
 20
270.116054
 30
0.0
 10
38.144221
 20
270.116054
 30
0.0
 10
38.144221
 20
269.315964
 30
0.0
 10
38.144221
 20
269.315964
 30
0.0
  0
LWPOLYLINE
  5
188
100
AcDbEntity
  8
Layer_1
 62
7
100
AcDbPolyline
 90
6
 70
1
 10
36.044135
 20
268.365968
 30
0.0
 10
36.944131
 20
268.365968
 30
0.0
 10
36.944131
 20
269.166058
 30
0.0
 10
36.044135
 20
269.166058
 30
0.0
 10
36.044135
 20
268.365968
 30
0.0
 10
36.044135
 20
268.365968
 30
0.0
  0
LWPOLYLINE
  5
189
100
AcDbEntity
  8
Layer_1
 62
7
100
AcDbPolyline
 90
6
 70
1
 10
36.143971
 20
274.269070
 30
0.0
 10
37.043967
 20
274.269070
 30
0.0
 10
37.043967
 20
275.069022
 30
0.0
 10
36.143971
 20
275.069022
 30
0.0
 10
36.143971
 20
274.269070
 30
0.0
 10
36.143971
 20
274.269070
 30
0.0
  0
LWPOLYLINE
  5
18a
100
AcDbEntity
  8
Layer_1
 62
7
100
AcDbPolyline
 90
6
 70
1
 10
36.143971
 20
272.369009
 30
0.0
 10
37.043967
 20
272.369009
 30
0.0
 10
37.043967
 20
273.168961
 30
0.0
 10
36.143971
 20
273.168961
 30
0.0
 10
36.143971
 20
272.369009
 30
0.0
 10
36.143971
 20
272.369009
 30
0.0
  0
LWPOLYLINE
  5
18b
100
AcDbEntity
  8
Layer_1
 62
7
100
AcDbPolyline
 90
6
 70
1
 10
38.244058
 20
273.319040
 30
0.0
 10
39.144053
 20
273.319040
 30
0.0
 10
39.144053
 20
274.118991
 30
0.0
 10
38.244058
 20
274.118991
 30
0.0
 10
38.244058
 20
273.319040
 30
0.0
 10
38.244058
 20
273.319040
 30
0.0
  0
LWPOLYLINE
  5
18c
100
AcDbEntity
  8
Layer_1
 62
7
100
AcDbPolyline
 90
6
 70
1
 10
28.027259
 20
273.130938
 30
0.0
 10
29.127210
 20
273.130938
 30
0.0
 10
29.127210
 20
274.130982
 30
0.0
 10
28.027259
 20
274.130982
 30
0.0
 10
28.027259
 20
273.130938
 30
0.0
 10
28.027259
 20
273.130938
 30
0.0
  0
LWPOLYLINE
  5
18d
100
AcDbEntity
  8
Layer_1
 62
7
100
AcDbPolyline
 90
6
 70
1
 10
28.027259
 20
274.831010
 30
0.0
 10
29.127210
 20
274.831010
 30
0.0
 10
29.127210
 20
275.831054
 30
0.0
 10
28.027259
 20
275.831054
 30
0.0
 10
28.027259
 20
274.831010
 30
0.0
 10
28.027259
 20
274.831010
 30
0.0
  0
LWPOLYLINE
  5
18e
100
AcDbEntity
  8
Layer_1
 62
7
100
AcDbPolyline
 90
6
 70
1
 10
16.382030
 20
293.031062
 30
0.0
 10
17.482118
 20
293.031062
 30
0.0
 10
17.482118
 20
294.030969
 30
0.0
 10
16.382030
 20
294.030969
 30
0.0
 10
16.382030
 20
293.031062
 30
0.0
 10
16.382030
 20
293.031062
 30
0.0
  0
LWPOLYLINE
  5
18f
100
AcDbEntity
  8
Layer_1
 62
7
100
AcDbPolyline
 90
6
 70
1
 10
18.082101
 20
293.031062
 30
0.0
 10
19.182052
 20
293.031062
 30
0.0
 10
19.182052
 20
294.030969
 30
0.0
 10
18.082101
 20
294.030969
 30
0.0
 10
18.082101
 20
293.031062
 30
0.0
 10
18.082101
 20
293.031062
 30
0.0
  0
LWPOLYLINE
  5
190
100
AcDbEntity
  8
Layer_1
 62
7
100
AcDbPolyline
 90
6
 70
1
 10
6.056118
 20
282.655938
 30
0.0
 10
7.156069
 20
282.655938
 30
0.0
 10
7.156069
 20
283.655982
 30
0.0
 10
6.056118
 20
283.655982
 30
0.0
 10
6.056118
 20
282.655938
 30
0.0
 10
6.056118
 20
282.655938
 30
0.0
  0
LWPOLYLINE
  5
191
100
AcDbEntity
  8
Layer_1
 62
7
100
AcDbPolyline
 90
6
 70
1
 10
6.056118
 20
284.356010
 30
0.0
 10
7.156069
 20
284.356010
 30
0.0
 10
7.156069
 20
285.356054
 30
0.0
 10
6.056118
 20
285.356054
 30
0.0
 10
6.056118
 20
284.356010
 30
0.0
 10
6.056118
 20
284.356010
 30
0.0
  0
LWPOLYLINE
  5
192
100
AcDbEntity
  8
Layer_1
 62
7
100
AcDbPolyline
 90
6
 70
1
 10
36.371160
 20
275.708968
 30
0.0
 10
37.371203
 20
275.708968
 30
0.0
 10
37.371203
 20
276.809056
 30
0.0
 10
36.371160
 20
276.809056
 30
0.0
 10
36.371160
 20
275.708968
 30
0.0
 10
36.371160
 20
275.708968
 30
0.0
  0
LWPOLYLINE
  5
193
100
AcDbEntity
  8
Layer_1
 62
7
100
AcDbPolyline
 90
6
 70
1
 10
38.071196
 20
275.708968
 30
0.0
 10
39.071240
 20
275.708968
 30
0.0
 10
39.071240
 20
276.809056
 30
0.0
 10
38.071196
 20
276.809056
 30
0.0
 10
38.071196
 20
275.708968
 30
0.0
 10
38.071196
 20
275.708968
 30
0.0
  0
LWPOLYLINE
  5
194
100
AcDbEntity
  8
Layer_1
 62
7
100
AcDbPolyline
 90
6
 70
1
 10
8.469048
 20
289.386974
 30
0.0
 10
9.569136
 20
289.386974
 30
0.0
 10
9.569136
 20
290.387018
 30
0.0
 10
8.469048
 20
290.387018
 30
0.0
 10
8.469048
 20
289.386974
 30
0.0
 10
8.469048
 20
289.386974
 30
0.0
  0
LWPOLYLINE
  5
195
100
AcDbEntity
  8
Layer_1
 62
7
100
AcDbPolyline
 90
6
 70
1
 10
8.469048
 20
291.087045
 30
0.0
 10
9.569136
 20
291.087045
 30
0.0
 10
9.569136
 20
292.086951
 30
0.0
 10
8.469048
 20
292.086951
 30
0.0
 10
8.469048
 20
291.087045
 30
0.0
 10
8.469048
 20
291.087045
 30
0.0
  0
LWPOLYLINE
  5
196
100
AcDbEntity
  8
Layer_1
 62
7
100
AcDbPolyline
 90
6
 70
1
 10
12.660083
 20
288.370938
 30
0.0
 10
13.760033
 20
288.370938
 30
0.0
 10
13.760033
 20
289.370982
 30
0.0
 10
12.660083
 20
289.370982
 30
0.0
 10
12.660083
 20
288.370938
 30
0.0
 10
12.660083
 20
288.370938
 30
0.0
  0
LWPOLYLINE
  5
197
100
AcDbEntity
  8
Layer_1
 62
7
100
AcDbPolyline
 90
6
 70
1
 10
12.660083
 20
290.071010
 30
0.0
 10
13.760033
 20
290.071010
 30
0.0
 10
13.760033
 20
291.071054
 30
0.0
 10
12.660083
 20
291.071054
 30
0.0
 10
12.660083
 20
290.071010
 30
0.0
 10
12.660083
 20
290.071010
 30
0.0
  0
LWPOLYLINE
  5
198
100
AcDbEntity
  8
Layer_1
 62
7
100
AcDbPolyline
 90
6
 70
1
 10
5.305090
 20
265.295003
 30
0.0
 10
6.305133
 20
265.295003
 30
0.0
 10
6.305133
 20
266.394953
 30
0.0
 10
5.305090
 20
266.394953
 30
0.0
 10
5.305090
 20
265.295003
 30
0.0
 10
5.305090
 20
265.295003
 30
0.0
  0
LWPOLYLINE
  5
199
100
AcDbEntity
  8
Layer_1
 62
7
100
AcDbPolyline
 90
6
 70
1
 10
3.605124
 20
265.295003
 30
0.0
 10
4.605030
 20
265.295003
 30
0.0
 10
4.605030
 20
266.394953
 30
0.0
 10
3.605124
 20
266.394953
 30
0.0
 10
3.605124
 20
265.295003
 30
0.0
 10
3.605124
 20
265.295003
 30
0.0
  0
LWPOLYLINE
  5
19a
100
AcDbEntity
  8
Layer_1
 62
7
100
AcDbPolyline
 90
6
 70
1
 10
25.576018
 20
286.250003
 30
0.0
 10
26.576062
 20
286.250003
 30
0.0
 10
26.576062
 20
287.349954
 30
0.0
 10
25.576018
 20
287.349954
 30
0.0
 10
25.576018
 20
286.250003
 30
0.0
 10
25.576018
 20
286.250003
 30
0.0
  0
LWPOLYLINE
  5
19b
100
AcDbEntity
  8
Layer_1
 62
7
100
AcDbPolyline
 90
6
 70
1
 10
27.276196
 20
286.250003
 30
0.0
 10
28.276240
 20
286.250003
 30
0.0
 10
28.276240
 20
287.349954
 30
0.0
 10
27.276196
 20
287.349954
 30
0.0
 10
27.276196
 20
286.250003
 30
0.0
 10
27.276196
 20
286.250003
 30
0.0
  0
LWPOLYLINE
  5
19c
100
AcDbEntity
  8
Layer_1
 62
7
100
AcDbPolyline
 90
6
 70
1
 10
10.628048
 20
288.370938
 30
0.0
 10
11.728136
 20
288.370938
 30
0.0
 10
11.728136
 20
289.370982
 30
0.0
 10
10.628048
 20
289.370982
 30
0.0
 10
10.628048
 20
288.370938
 30
0.0
 10
10.628048
 20
288.370938
 30
0.0
  0
LWPOLYLINE
  5
19d
100
AcDbEntity
  8
Layer_1
 62
7
100
AcDbPolyline
 90
6
 70
1
 10
10.628048
 20
290.071010
 30
0.0
 10
11.728136
 20
290.071010
 30
0.0
 10
11.728136
 20
291.071054
 30
0.0
 10
10.628048
 20
291.071054
 30
0.0
 10
10.628048
 20
290.071010
 30
0.0
 10
10.628048
 20
290.071010
 30
0.0
  0
LWPOLYLINE
  5
19e
100
AcDbEntity
  8
Layer_1
 62
7
100
AcDbPolyline
 90
6
 70
1
 10
14.692154
 20
288.370938
 30
0.0
 10
15.792104
 20
288.370938
 30
0.0
 10
15.792104
 20
289.370982
 30
0.0
 10
14.692154
 20
289.370982
 30
0.0
 10
14.692154
 20
288.370938
 30
0.0
 10
14.692154
 20
288.370938
 30
0.0
  0
LWPOLYLINE
  5
19f
100
AcDbEntity
  8
Layer_1
 62
7
100
AcDbPolyline
 90
6
 70
1
 10
14.692154
 20
290.071010
 30
0.0
 10
15.792104
 20
290.071010
 30
0.0
 10
15.792104
 20
291.071054
 30
0.0
 10
14.692154
 20
291.071054
 30
0.0
 10
14.692154
 20
290.071010
 30
0.0
 10
14.692154
 20
290.071010
 30
0.0
  0
LWPOLYLINE
  5
1a0
100
AcDbEntity
  8
Layer_1
 62
7
100
AcDbPolyline
 90
6
 70
1
 10
27.646259
 20
269.448009
 30
0.0
 10
28.746210
 20
269.448009
 30
0.0
 10
28.746210
 20
270.448053
 30
0.0
 10
27.646259
 20
270.448053
 30
0.0
 10
27.646259
 20
269.448009
 30
0.0
 10
27.646259
 20
269.448009
 30
0.0
  0
LWPOLYLINE
  5
1a1
100
AcDbEntity
  8
Layer_1
 62
7
100
AcDbPolyline
 90
6
 70
1
 10
27.646259
 20
271.147939
 30
0.0
 10
28.746210
 20
271.147939
 30
0.0
 10
28.746210
 20
272.147983
 30
0.0
 10
27.646259
 20
272.147983
 30
0.0
 10
27.646259
 20
271.147939
 30
0.0
 10
27.646259
 20
271.147939
 30
0.0
  0
LWPOLYLINE
  5
1a2
100
AcDbEntity
  8
Layer_1
 62
7
100
AcDbPolyline
 90
6
 70
1
 10
27.226101
 20
288.458992
 30
0.0
 10
28.326052
 20
288.458992
 30
0.0
 10
28.326052
 20
289.459035
 30
0.0
 10
27.226101
 20
289.459035
 30
0.0
 10
27.226101
 20
288.458992
 30
0.0
 10
27.226101
 20
288.458992
 30
0.0
  0
LWPOLYLINE
  5
1a3
100
AcDbEntity
  8
Layer_1
 62
7
100
AcDbPolyline
 90
6
 70
1
 10
25.526136
 20
288.458992
 30
0.0
 10
26.626086
 20
288.458992
 30
0.0
 10
26.626086
 20
289.459035
 30
0.0
 10
25.526136
 20
289.459035
 30
0.0
 10
25.526136
 20
288.458992
 30
0.0
 10
25.526136
 20
288.458992
 30
0.0
  0
LWPOLYLINE
  5
1a4
100
AcDbEntity
  8
Layer_1
 62
7
100
AcDbPolyline
 90
6
 70
1
 10
19.430100
 20
293.031062
 30
0.0
 10
20.530051
 20
293.031062
 30
0.0
 10
20.530051
 20
294.030969
 30
0.0
 10
19.430100
 20
294.030969
 30
0.0
 10
19.430100
 20
293.031062
 30
0.0
 10
19.430100
 20
293.031062
 30
0.0
  0
LWPOLYLINE
  5
1a5
100
AcDbEntity
  8
Layer_1
 62
7
100
AcDbPolyline
 90
6
 70
1
 10
21.130066
 20
293.031062
 30
0.0
 10
22.230154
 20
293.031062
 30
0.0
 10
22.230154
 20
294.030969
 30
0.0
 10
21.130066
 20
294.030969
 30
0.0
 10
21.130066
 20
293.031062
 30
0.0
 10
21.130066
 20
293.031062
 30
0.0
  0
LWPOLYLINE
  5
1a6
100
AcDbEntity
  8
Layer_1
 62
7
100
AcDbPolyline
 90
6
 70
1
 10
4.024048
 20
285.830938
 30
0.0
 10
5.124136
 20
285.830938
 30
0.0
 10
5.124136
 20
286.830982
 30
0.0
 10
4.024048
 20
286.830982
 30
0.0
 10
4.024048
 20
285.830938
 30
0.0
 10
4.024048
 20
285.830938
 30
0.0
  0
LWPOLYLINE
  5
1a7
100
AcDbEntity
  8
Layer_1
 62
7
100
AcDbPolyline
 90
6
 70
1
 10
4.024048
 20
287.531010
 30
0.0
 10
5.124136
 20
287.531010
 30
0.0
 10
5.124136
 20
288.531054
 30
0.0
 10
4.024048
 20
288.531054
 30
0.0
 10
4.024048
 20
287.531010
 30
0.0
 10
4.024048
 20
287.531010
 30
0.0
  0
LWPOLYLINE
  5
1a8
100
AcDbEntity
  8
Layer_1
 62
7
100
AcDbPolyline
 90
6
 70
1
 10
16.382030
 20
288.966956
 30
0.0
 10
17.482118
 20
288.966956
 30
0.0
 10
17.482118
 20
289.967000
 30
0.0
 10
16.382030
 20
289.967000
 30
0.0
 10
16.382030
 20
288.966956
 30
0.0
 10
16.382030
 20
288.966956
 30
0.0
  0
LWPOLYLINE
  5
1a9
100
AcDbEntity
  8
Layer_1
 62
7
100
AcDbPolyline
 90
6
 70
1
 10
18.082101
 20
288.966956
 30
0.0
 10
19.182052
 20
288.966956
 30
0.0
 10
19.182052
 20
289.967000
 30
0.0
 10
18.082101
 20
289.967000
 30
0.0
 10
18.082101
 20
288.966956
 30
0.0
 10
18.082101
 20
288.966956
 30
0.0
  0
LWPOLYLINE
  5
1aa
100
AcDbEntity
  8
Layer_1
 62
7
100
AcDbPolyline
 90
6
 70
1
 10
4.024048
 20
282.655938
 30
0.0
 10
5.124136
 20
282.655938
 30
0.0
 10
5.124136
 20
283.655982
 30
0.0
 10
4.024048
 20
283.655982
 30
0.0
 10
4.024048
 20
282.655938
 30
0.0
 10
4.024048
 20
282.655938
 30
0.0
  0
LWPOLYLINE
  5
1ab
100
AcDbEntity
  8
Layer_1
 62
7
100
AcDbPolyline
 90
6
 70
1
 10
4.024048
 20
284.356010
 30
0.0
 10
5.124136
 20
284.356010
 30
0.0
 10
5.124136
 20
285.356054
 30
0.0
 10
4.024048
 20
285.356054
 30
0.0
 10
4.024048
 20
284.356010
 30
0.0
 10
4.024048
 20
284.356010
 30
0.0
  0
LWPOLYLINE
  5
1ac
100
AcDbEntity
  8
Layer_1
 62
7
100
AcDbPolyline
 90
6
 70
1
 10
6.056118
 20
285.830938
 30
0.0
 10
7.156069
 20
285.830938
 30
0.0
 10
7.156069
 20
286.830982
 30
0.0
 10
6.056118
 20
286.830982
 30
0.0
 10
6.056118
 20
285.830938
 30
0.0
 10
6.056118
 20
285.830938
 30
0.0
  0
LWPOLYLINE
  5
1ad
100
AcDbEntity
  8
Layer_1
 62
7
100
AcDbPolyline
 90
6
 70
1
 10
6.056118
 20
287.531010
 30
0.0
 10
7.156069
 20
287.531010
 30
0.0
 10
7.156069
 20
288.531054
 30
0.0
 10
6.056118
 20
288.531054
 30
0.0
 10
6.056118
 20
287.531010
 30
0.0
 10
6.056118
 20
287.531010
 30
0.0
  0
LWPOLYLINE
  5
1ae
100
AcDbEntity
  8
Layer_1
 62
7
100
AcDbPolyline
 90
6
 70
1
 10
21.673132
 20
274.764053
 30
0.0
 10
22.273129
 20
274.764053
 30
0.0
 10
22.273129
 20
275.964047
 30
0.0
 10
21.673132
 20
275.964047
 30
0.0
 10
21.673132
 20
274.764053
 30
0.0
 10
21.673132
 20
274.764053
 30
0.0
  0
LWPOLYLINE
  5
1af
100
AcDbEntity
  8
Layer_1
 62
7
100
AcDbPolyline
 90
6
 70
1
 10
22.943132
 20
274.764053
 30
0.0
 10
23.543129
 20
274.764053
 30
0.0
 10
23.543129
 20
275.964047
 30
0.0
 10
22.943132
 20
275.964047
 30
0.0
 10
22.943132
 20
274.764053
 30
0.0
 10
22.943132
 20
274.764053
 30
0.0
  0
LWPOLYLINE
  5
1b0
100
AcDbEntity
  8
Layer_1
 62
7
100
AcDbPolyline
 90
6
 70
1
 10
24.213132
 20
274.764053
 30
0.0
 10
24.813129
 20
274.764053
 30
0.0
 10
24.813129
 20
275.964047
 30
0.0
 10
24.213132
 20
275.964047
 30
0.0
 10
24.213132
 20
274.764053
 30
0.0
 10
24.213132
 20
274.764053
 30
0.0
  0
LWPOLYLINE
  5
1b1
100
AcDbEntity
  8
Layer_1
 62
7
100
AcDbPolyline
 90
6
 70
1
 10
25.483132
 20
274.764053
 30
0.0
 10
26.083129
 20
274.764053
 30
0.0
 10
26.083129
 20
275.964047
 30
0.0
 10
25.483132
 20
275.964047
 30
0.0
 10
25.483132
 20
274.764053
 30
0.0
 10
25.483132
 20
274.764053
 30
0.0
  0
LWPOLYLINE
  5
1b2
100
AcDbEntity
  8
Layer_1
 62
7
100
AcDbPolyline
 90
6
 70
1
 10
25.483132
 20
280.363976
 30
0.0
 10
26.083129
 20
280.363976
 30
0.0
 10
26.083129
 20
281.563971
 30
0.0
 10
25.483132
 20
281.563971
 30
0.0
 10
25.483132
 20
280.363976
 30
0.0
 10
25.483132
 20
280.363976
 30
0.0
  0
LWPOLYLINE
  5
1b3
100
AcDbEntity
  8
Layer_1
 62
7
100
AcDbPolyline
 90
6
 70
1
 10
24.213132
 20
280.363976
 30
0.0
 10
24.813129
 20
280.363976
 30
0.0
 10
24.813129
 20
281.563971
 30
0.0
 10
24.213132
 20
281.563971
 30
0.0
 10
24.213132
 20
280.363976
 30
0.0
 10
24.213132
 20
280.363976
 30
0.0
  0
LWPOLYLINE
  5
1b4
100
AcDbEntity
  8
Layer_1
 62
7
100
AcDbPolyline
 90
6
 70
1
 10
22.943132
 20
280.363976
 30
0.0
 10
23.543129
 20
280.363976
 30
0.0
 10
23.543129
 20
281.563971
 30
0.0
 10
22.943132
 20
281.563971
 30
0.0
 10
22.943132
 20
280.363976
 30
0.0
 10
22.943132
 20
280.363976
 30
0.0
  0
LWPOLYLINE
  5
1b5
100
AcDbEntity
  8
Layer_1
 62
7
100
AcDbPolyline
 90
6
 70
1
 10
21.673132
 20
280.363976
 30
0.0
 10
22.273129
 20
280.363976
 30
0.0
 10
22.273129
 20
281.563971
 30
0.0
 10
21.673132
 20
281.563971
 30
0.0
 10
21.673132
 20
280.363976
 30
0.0
 10
21.673132
 20
280.363976
 30
0.0
  0
LWPOLYLINE
  5
1b6
100
AcDbEntity
  8
Layer_1
 62
7
100
AcDbPolyline
 90
6
 70
1
 10
13.956118
 20
276.074975
 30
0.0
 10
15.656066
 20
276.074975
 30
0.0
 10
15.656066
 20
278.474968
 30
0.0
 10
13.956118
 20
278.474968
 30
0.0
 10
13.956118
 20
276.074975
 30
0.0
 10
13.956118
 20
276.074975
 30
0.0
  0
LWPOLYLINE
  5
1b7
100
AcDbEntity
  8
Layer_1
 62
7
100
AcDbPolyline
 90
6
 70
1
 10
10.256114
 20
276.074975
 30
0.0
 10
11.956062
 20
276.074975
 30
0.0
 10
11.956062
 20
278.474968
 30
0.0
 10
10.256114
 20
278.474968
 30
0.0
 10
10.256114
 20
276.074975
 30
0.0
 10
10.256114
 20
276.074975
 30
0.0
  0
LWPOLYLINE
  5
1b8
100
AcDbEntity
  8
Layer_1
 62
7
100
AcDbPolyline
 90
6
 70
1
 10
13.883093
 20
291.673009
 30
0.0
 10
15.283042
 20
291.673009
 30
0.0
 10
15.283042
 20
292.772959
 30
0.0
 10
13.883093
 20
292.772959
 30
0.0
 10
13.883093
 20
291.673009
 30
0.0
 10
13.883093
 20
291.673009
 30
0.0
  0
LWPOLYLINE
  5
1b9
100
AcDbEntity
  8
Layer_1
 62
7
100
AcDbPolyline
 90
6
 70
1
 10
10.883106
 20
291.673009
 30
0.0
 10
12.283055
 20
291.673009
 30
0.0
 10
12.283055
 20
292.772959
 30
0.0
 10
10.883106
 20
292.772959
 30
0.0
 10
10.883106
 20
291.673009
 30
0.0
 10
10.883106
 20
291.673009
 30
0.0
  0
LWPOLYLINE
  5
1ba
100
AcDbEntity
  8
Layer_1
 62
7
100
AcDbPolyline
 90
6
 70
1
 10
10.883106
 20
293.273033
 30
0.0
 10
12.283055
 20
293.273033
 30
0.0
 10
12.283055
 20
294.372983
 30
0.0
 10
10.883106
 20
294.372983
 30
0.0
 10
10.883106
 20
293.273033
 30
0.0
 10
10.883106
 20
293.273033
 30
0.0
  0
LWPOLYLINE
  5
1bb
100
AcDbEntity
  8
Layer_1
 62
7
100
AcDbPolyline
 90
6
 70
1
 10
13.883093
 20
293.273033
 30
0.0
 10
15.283042
 20
293.273033
 30
0.0
 10
15.283042
 20
294.372983
 30
0.0
 10
13.883093
 20
294.372983
 30
0.0
 10
13.883093
 20
293.273033
 30
0.0
 10
13.883093
 20
293.273033
 30
0.0
  0
LWPOLYLINE
  5
1bc
100
AcDbEntity
  8
Layer_1
 62
7
100
AcDbPolyline
 90
6
 70
1
 10
28.878160
 20
286.631991
 30
0.0
 10
29.978110
 20
286.631991
 30
0.0
 10
29.978110
 20
288.031940
 30
0.0
 10
28.878160
 20
288.031940
 30
0.0
 10
28.878160
 20
286.631991
 30
0.0
 10
28.878160
 20
286.631991
 30
0.0
  0
LWPOLYLINE
  5
1bd
100
AcDbEntity
  8
Layer_1
 62
7
100
AcDbPolyline
 90
6
 70
1
 10
28.878160
 20
289.631978
 30
0.0
 10
29.978110
 20
289.631978
 30
0.0
 10
29.978110
 20
291.032065
 30
0.0
 10
28.878160
 20
291.032065
 30
0.0
 10
28.878160
 20
289.631978
 30
0.0
 10
28.878160
 20
289.631978
 30
0.0
  0
LWPOLYLINE
  5
1be
100
AcDbEntity
  8
Layer_1
 62
7
100
AcDbPolyline
 90
6
 70
1
 10
30.478008
 20
289.631978
 30
0.0
 10
31.577957
 20
289.631978
 30
0.0
 10
31.577957
 20
291.032065
 30
0.0
 10
30.478008
 20
291.032065
 30
0.0
 10
30.478008
 20
289.631978
 30
0.0
 10
30.478008
 20
289.631978
 30
0.0
  0
LWPOLYLINE
  5
1bf
100
AcDbEntity
  8
Layer_1
 62
7
100
AcDbPolyline
 90
6
 70
1
 10
30.478008
 20
286.631991
 30
0.0
 10
31.577957
 20
286.631991
 30
0.0
 10
31.577957
 20
288.031940
 30
0.0
 10
30.478008
 20
288.031940
 30
0.0
 10
30.478008
 20
286.631991
 30
0.0
 10
30.478008
 20
286.631991
 30
0.0
  0
LWPOLYLINE
  5
1c0
100
AcDbEntity
  8
Layer_1
 62
7
100
AcDbPolyline
 90
6
 70
1
 10
38.144221
 20
265.147011
 30
0.0
 10
38.944172
 20
265.147011
 30
0.0
 10
38.944172
 20
265.497035
 30
0.0
 10
38.144221
 20
265.497035
 30
0.0
 10
38.144221
 20
265.147011
 30
0.0
 10
38.144221
 20
265.147011
 30
0.0
  0
LWPOLYLINE
  5
1c1
100
AcDbEntity
  8
Layer_1
 62
7
100
AcDbPolyline
 90
6
 70
1
 10
38.144221
 20
266.447034
 30
0.0
 10
38.944172
 20
266.447034
 30
0.0
 10
38.944172
 20
266.797055
 30
0.0
 10
38.144221
 20
266.797055
 30
0.0
 10
38.144221
 20
266.447034
 30
0.0
 10
38.144221
 20
266.447034
 30
0.0
  0
LWPOLYLINE
  5
1c2
100
AcDbEntity
  8
Layer_1
 62
7
100
AcDbPolyline
 90
6
 70
1
 10
36.244160
 20
266.447034
 30
0.0
 10
37.044111
 20
266.447034
 30
0.0
 10
37.044111
 20
266.797055
 30
0.0
 10
36.244160
 20
266.797055
 30
0.0
 10
36.244160
 20
266.447034
 30
0.0
 10
36.244160
 20
266.447034
 30
0.0
  0
LWPOLYLINE
  5
1c3
100
AcDbEntity
  8
Layer_1
 62
7
100
AcDbPolyline
 90
6
 70
1
 10
36.244160
 20
265.797006
 30
0.0
 10
37.044111
 20
265.797006
 30
0.0
 10
37.044111
 20
266.147026
 30
0.0
 10
36.244160
 20
266.147026
 30
0.0
 10
36.244160
 20
265.797006
 30
0.0
 10
36.244160
 20
265.797006
 30
0.0
  0
LWPOLYLINE
  5
1c4
100
AcDbEntity
  8
Layer_1
 62
7
100
AcDbPolyline
 90
6
 70
1
 10
36.244160
 20
265.147011
 30
0.0
 10
37.044111
 20
265.147011
 30
0.0
 10
37.044111
 20
265.497035
 30
0.0
 10
36.244160
 20
265.497035
 30
0.0
 10
36.244160
 20
265.147011
 30
0.0
 10
36.244160
 20
265.147011
 30
0.0
  0
LWPOLYLINE
  5
1c5
100
AcDbEntity
  8
Layer_1
 62
7
100
AcDbPolyline
 90
6
 70
1
 10
4.037841
 20
289.153117
 30
0.0
 10
4.850334
 20
289.153117
 30
0.0
 10
4.850334
 20
290.203044
 30
0.0
 10
4.037841
 20
290.203044
 30
0.0
 10
4.037841
 20
289.153117
 30
0.0
 10
4.037841
 20
289.153117
 30
0.0
  0
LWPOLYLINE
  5
1c6
100
AcDbEntity
  8
Layer_1
 62
7
100
AcDbPolyline
 90
6
 70
1
 10
4.037841
 20
293.303089
 30
0.0
 10
4.850334
 20
293.303089
 30
0.0
 10
4.850334
 20
294.353016
 30
0.0
 10
4.037841
 20
294.353016
 30
0.0
 10
4.037841
 20
293.303089
 30
0.0
 10
4.037841
 20
293.303089
 30
0.0
  0
LWPOLYLINE
  5
1c7
100
AcDbEntity
  8
Layer_1
 62
7
100
AcDbPolyline
 90
6
 70
1
 10
6.837874
 20
293.303089
 30
0.0
 10
7.650367
 20
293.303089
 30
0.0
 10
7.650367
 20
294.353016
 30
0.0
 10
6.837874
 20
294.353016
 30
0.0
 10
6.837874
 20
293.303089
 30
0.0
 10
6.837874
 20
293.303089
 30
0.0
  0
LWPOLYLINE
  5
1c8
100
AcDbEntity
  8
Layer_1
 62
7
100
AcDbPolyline
 90
6
 70
1
 10
6.837874
 20
289.153117
 30
0.0
 10
7.650367
 20
289.153117
 30
0.0
 10
7.650367
 20
290.203044
 30
0.0
 10
6.837874
 20
290.203044
 30
0.0
 10
6.837874
 20
289.153117
 30
0.0
 10
6.837874
 20
289.153117
 30
0.0
  0
LWPOLYLINE
  5
1c9
100
AcDbEntity
  8
Layer_1
 62
7
100
AcDbPolyline
 90
6
 70
1
 10
33.370080
 20
274.777000
 30
0.0
 10
33.720100
 20
274.777000
 30
0.0
 10
33.720100
 20
275.576951
 30
0.0
 10
33.370080
 20
275.576951
 30
0.0
 10
33.370080
 20
274.777000
 30
0.0
 10
33.370080
 20
274.777000
 30
0.0
  0
LWPOLYLINE
  5
1ca
100
AcDbEntity
  8
Layer_1
 62
7
100
AcDbPolyline
 90
6
 70
1
 10
32.070094
 20
274.777000
 30
0.0
 10
32.420114
 20
274.777000
 30
0.0
 10
32.420114
 20
275.576951
 30
0.0
 10
32.070094
 20
275.576951
 30
0.0
 10
32.070094
 20
274.777000
 30
0.0
 10
32.070094
 20
274.777000
 30
0.0
  0
LWPOLYLINE
  5
1cb
100
AcDbEntity
  8
Layer_1
 62
7
100
AcDbPolyline
 90
6
 70
1
 10
32.070094
 20
272.876974
 30
0.0
 10
32.420114
 20
272.876974
 30
0.0
 10
32.420114
 20
273.677063
 30
0.0
 10
32.070094
 20
273.677063
 30
0.0
 10
32.070094
 20
272.876974
 30
0.0
 10
32.070094
 20
272.876974
 30
0.0
  0
LWPOLYLINE
  5
1cc
100
AcDbEntity
  8
Layer_1
 62
7
100
AcDbPolyline
 90
6
 70
1
 10
32.719910
 20
272.876974
 30
0.0
 10
33.069931
 20
272.876974
 30
0.0
 10
33.069931
 20
273.677063
 30
0.0
 10
32.719910
 20
273.677063
 30
0.0
 10
32.719910
 20
272.876974
 30
0.0
 10
32.719910
 20
272.876974
 30
0.0
  0
LWPOLYLINE
  5
1cd
100
AcDbEntity
  8
Layer_1
 62
7
100
AcDbPolyline
 90
6
 70
1
 10
33.370080
 20
272.876974
 30
0.0
 10
33.720100
 20
272.876974
 30
0.0
 10
33.720100
 20
273.677063
 30
0.0
 10
33.370080
 20
273.677063
 30
0.0
 10
33.370080
 20
272.876974
 30
0.0
 10
33.370080
 20
272.876974
 30
0.0
  0
LWPOLYLINE
  5
1ce
100
AcDbEntity
  8
Layer_1
 62
7
100
AcDbPolyline
 90
6
 70
1
 10
41.571105
 20
284.960036
 30
0.0
 10
42.121077
 20
284.960036
 30
0.0
 10
42.121077
 20
286.160031
 30
0.0
 10
41.571105
 20
286.160031
 30
0.0
 10
41.571105
 20
284.960036
 30
0.0
 10
41.571105
 20
284.960036
 30
0.0
  0
LWPOLYLINE
  5
1cf
100
AcDbEntity
  8
Layer_1
 62
7
100
AcDbPolyline
 90
6
 70
1
 10
40.621074
 20
284.960036
 30
0.0
 10
41.171187
 20
284.960036
 30
0.0
 10
41.171187
 20
286.160031
 30
0.0
 10
40.621074
 20
286.160031
 30
0.0
 10
40.621074
 20
284.960036
 30
0.0
 10
40.621074
 20
284.960036
 30
0.0
  0
LWPOLYLINE
  5
1d0
100
AcDbEntity
  8
Layer_1
 62
7
100
AcDbPolyline
 90
6
 70
1
 10
39.671044
 20
284.960036
 30
0.0
 10
40.221016
 20
284.960036
 30
0.0
 10
40.221016
 20
286.160031
 30
0.0
 10
39.671044
 20
286.160031
 30
0.0
 10
39.671044
 20
284.960036
 30
0.0
 10
39.671044
 20
284.960036
 30
0.0
  0
LWPOLYLINE
  5
1d1
100
AcDbEntity
  8
Layer_1
 62
7
100
AcDbPolyline
 90
6
 70
1
 10
39.671044
 20
282.360064
 30
0.0
 10
40.221016
 20
282.360064
 30
0.0
 10
40.221016
 20
283.560058
 30
0.0
 10
39.671044
 20
283.560058
 30
0.0
 10
39.671044
 20
282.360064
 30
0.0
 10
39.671044
 20
282.360064
 30
0.0
  0
LWPOLYLINE
  5
1d2
100
AcDbEntity
  8
Layer_1
 62
7
100
AcDbPolyline
 90
6
 70
1
 10
40.621074
 20
282.360064
 30
0.0
 10
41.171187
 20
282.360064
 30
0.0
 10
41.171187
 20
283.560058
 30
0.0
 10
40.621074
 20
283.560058
 30
0.0
 10
40.621074
 20
282.360064
 30
0.0
 10
40.621074
 20
282.360064
 30
0.0
  0
LWPOLYLINE
  5
1d3
100
AcDbEntity
  8
Layer_1
 62
7
100
AcDbPolyline
 90
6
 70
1
 10
41.571105
 20
282.360064
 30
0.0
 10
42.121077
 20
282.360064
 30
0.0
 10
42.121077
 20
283.560058
 30
0.0
 10
41.571105
 20
283.560058
 30
0.0
 10
41.571105
 20
282.360064
 30
0.0
 10
41.571105
 20
282.360064
 30
0.0
  0
LWPOLYLINE
  5
1d4
100
AcDbEntity
  8
Layer_1
 62
7
100
AcDbPolyline
 90
6
 70
1
 10
37.913152
 20
277.701069
 30
0.0
 10
39.113147
 20
277.701069
 30
0.0
 10
39.113147
 20
278.251042
 30
0.0
 10
37.913152
 20
278.251042
 30
0.0
 10
37.913152
 20
277.701069
 30
0.0
 10
37.913152
 20
277.701069
 30
0.0
  0
LWPOLYLINE
  5
1d5
100
AcDbEntity
  8
Layer_1
 62
7
100
AcDbPolyline
 90
6
 70
1
 10
37.913152
 20
278.650958
 30
0.0
 10
39.113147
 20
278.650958
 30
0.0
 10
39.113147
 20
279.201073
 30
0.0
 10
37.913152
 20
279.201073
 30
0.0
 10
37.913152
 20
278.650958
 30
0.0
 10
37.913152
 20
278.650958
 30
0.0
  0
LWPOLYLINE
  5
1d6
100
AcDbEntity
  8
Layer_1
 62
7
100
AcDbPolyline
 90
6
 70
1
 10
37.913152
 20
279.600953
 30
0.0
 10
39.113147
 20
279.600953
 30
0.0
 10
39.113147
 20
280.150927
 30
0.0
 10
37.913152
 20
280.150927
 30
0.0
 10
37.913152
 20
279.600953
 30
0.0
 10
37.913152
 20
279.600953
 30
0.0
  0
LWPOLYLINE
  5
1d7
100
AcDbEntity
  8
Layer_1
 62
7
100
AcDbPolyline
 90
6
 70
1
 10
35.313180
 20
279.600953
 30
0.0
 10
36.513175
 20
279.600953
 30
0.0
 10
36.513175
 20
280.150927
 30
0.0
 10
35.313180
 20
280.150927
 30
0.0
 10
35.313180
 20
279.600953
 30
0.0
 10
35.313180
 20
279.600953
 30
0.0
  0
LWPOLYLINE
  5
1d8
100
AcDbEntity
  8
Layer_1
 62
7
100
AcDbPolyline
 90
6
 70
1
 10
35.313180
 20
278.650958
 30
0.0
 10
36.513175
 20
278.650958
 30
0.0
 10
36.513175
 20
279.201073
 30
0.0
 10
35.313180
 20
279.201073
 30
0.0
 10
35.313180
 20
278.650958
 30
0.0
 10
35.313180
 20
278.650958
 30
0.0
  0
LWPOLYLINE
  5
1d9
100
AcDbEntity
  8
Layer_1
 62
7
100
AcDbPolyline
 90
6
 70
1
 10
35.313180
 20
277.701069
 30
0.0
 10
36.513175
 20
277.701069
 30
0.0
 10
36.513175
 20
278.251042
 30
0.0
 10
35.313180
 20
278.251042
 30
0.0
 10
35.313180
 20
277.701069
 30
0.0
 10
35.313180
 20
277.701069
 30
0.0
  0
LWPOLYLINE
  5
1da
100
AcDbEntity
  8
Layer_1
 62
7
100
AcDbPolyline
 90
6
 70
1
 10
4.037841
 20
274.040047
 30
0.0
 10
4.850334
 20
274.040047
 30
0.0
 10
4.850334
 20
275.090111
 30
0.0
 10
4.037841
 20
275.090111
 30
0.0
 10
4.037841
 20
274.040047
 30
0.0
 10
4.037841
 20
274.040047
 30
0.0
  0
LWPOLYLINE
  5
1db
100
AcDbEntity
  8
Layer_1
 62
7
100
AcDbPolyline
 90
6
 70
1
 10
4.037841
 20
278.189983
 30
0.0
 10
4.850334
 20
278.189983
 30
0.0
 10
4.850334
 20
279.240048
 30
0.0
 10
4.037841
 20
279.240048
 30
0.0
 10
4.037841
 20
278.189983
 30
0.0
 10
4.037841
 20
278.189983
 30
0.0
  0
LWPOLYLINE
  5
1dc
100
AcDbEntity
  8
Layer_1
 62
7
100
AcDbPolyline
 90
6
 70
1
 10
6.837874
 20
278.189983
 30
0.0
 10
7.650367
 20
278.189983
 30
0.0
 10
7.650367
 20
279.240048
 30
0.0
 10
6.837874
 20
279.240048
 30
0.0
 10
6.837874
 20
278.189983
 30
0.0
 10
6.837874
 20
278.189983
 30
0.0
  0
LWPOLYLINE
  5
1dd
100
AcDbEntity
  8
Layer_1
 62
7
100
AcDbPolyline
 90
6
 70
1
 10
6.837874
 20
274.040047
 30
0.0
 10
7.650367
 20
274.040047
 30
0.0
 10
7.650367
 20
275.090111
 30
0.0
 10
6.837874
 20
275.090111
 30
0.0
 10
6.837874
 20
274.040047
 30
0.0
 10
6.837874
 20
274.040047
 30
0.0
  0
LWPOLYLINE
  5
1de
100
AcDbEntity
  8
Layer_1
 62
7
100
AcDbPolyline
 90
6
 70
1
 10
21.261123
 20
287.316062
 30
0.0
 10
21.511099
 20
287.316062
 30
0.0
 10
21.511099
 20
288.315969
 30
0.0
 10
21.261123
 20
288.315969
 30
0.0
 10
21.261123
 20
287.316062
 30
0.0
 10
21.261123
 20
287.316062
 30
0.0
  0
LWPOLYLINE
  5
1df
100
AcDbEntity
  8
Layer_1
 62
7
100
AcDbPolyline
 90
6
 70
1
 10
21.761079
 20
287.316062
 30
0.0
 10
22.011056
 20
287.316062
 30
0.0
 10
22.011056
 20
288.315969
 30
0.0
 10
21.761079
 20
288.315969
 30
0.0
 10
21.761079
 20
287.316062
 30
0.0
 10
21.761079
 20
287.316062
 30
0.0
  0
LWPOLYLINE
  5
1e0
100
AcDbEntity
  8
Layer_1
 62
7
100
AcDbPolyline
 90
6
 70
1
 10
22.261142
 20
287.316062
 30
0.0
 10
22.511118
 20
287.316062
 30
0.0
 10
22.511118
 20
288.315969
 30
0.0
 10
22.261142
 20
288.315969
 30
0.0
 10
22.261142
 20
287.316062
 30
0.0
 10
22.261142
 20
287.316062
 30
0.0
  0
LWPOLYLINE
  5
1e1
100
AcDbEntity
  8
Layer_1
 62
7
100
AcDbPolyline
 90
6
 70
1
 10
22.761099
 20
287.316062
 30
0.0
 10
23.011075
 20
287.316062
 30
0.0
 10
23.011075
 20
288.315969
 30
0.0
 10
22.761099
 20
288.315969
 30
0.0
 10
22.761099
 20
287.316062
 30
0.0
 10
22.761099
 20
287.316062
 30
0.0
  0
LWPOLYLINE
  5
1e2
100
AcDbEntity
  8
Layer_1
 62
7
100
AcDbPolyline
 90
6
 70
1
 10
23.261055
 20
287.316062
 30
0.0
 10
23.511031
 20
287.316062
 30
0.0
 10
23.511031
 20
288.315969
 30
0.0
 10
23.261055
 20
288.315969
 30
0.0
 10
23.261055
 20
287.316062
 30
0.0
 10
23.261055
 20
287.316062
 30
0.0
  0
LWPOLYLINE
  5
1e3
100
AcDbEntity
  8
Layer_1
 62
7
100
AcDbPolyline
 90
6
 70
1
 10
23.886142
 20
288.691049
 30
0.0
 10
24.886048
 20
288.691049
 30
0.0
 10
24.886048
 20
288.941025
 30
0.0
 10
23.886142
 20
288.941025
 30
0.0
 10
23.886142
 20
288.691049
 30
0.0
 10
23.886142
 20
288.691049
 30
0.0
  0
LWPOLYLINE
  5
1e4
100
AcDbEntity
  8
Layer_1
 62
7
100
AcDbPolyline
 90
6
 70
1
 10
23.886142
 20
289.191006
 30
0.0
 10
24.886048
 20
289.191006
 30
0.0
 10
24.886048
 20
289.440982
 30
0.0
 10
23.886142
 20
289.440982
 30
0.0
 10
23.886142
 20
289.191006
 30
0.0
 10
23.886142
 20
289.191006
 30
0.0
  0
LWPOLYLINE
  5
1e5
100
AcDbEntity
  8
Layer_1
 62
7
100
AcDbPolyline
 90
6
 70
1
 10
23.886142
 20
289.690962
 30
0.0
 10
24.886048
 20
289.690962
 30
0.0
 10
24.886048
 20
289.940939
 30
0.0
 10
23.886142
 20
289.940939
 30
0.0
 10
23.886142
 20
289.690962
 30
0.0
 10
23.886142
 20
289.690962
 30
0.0
  0
LWPOLYLINE
  5
1e6
100
AcDbEntity
  8
Layer_1
 62
7
100
AcDbPolyline
 90
6
 70
1
 10
23.886142
 20
290.191060
 30
0.0
 10
24.886048
 20
290.191060
 30
0.0
 10
24.886048
 20
290.441036
 30
0.0
 10
23.886142
 20
290.441036
 30
0.0
 10
23.886142
 20
290.191060
 30
0.0
 10
23.886142
 20
290.191060
 30
0.0
  0
LWPOLYLINE
  5
1e7
100
AcDbEntity
  8
Layer_1
 62
7
100
AcDbPolyline
 90
6
 70
1
 10
23.886142
 20
290.691017
 30
0.0
 10
24.886048
 20
290.691017
 30
0.0
 10
24.886048
 20
290.940993
 30
0.0
 10
23.886142
 20
290.940993
 30
0.0
 10
23.886142
 20
290.691017
 30
0.0
 10
23.886142
 20
290.691017
 30
0.0
  0
LWPOLYLINE
  5
1e8
100
AcDbEntity
  8
Layer_1
 62
7
100
AcDbPolyline
 90
6
 70
1
 10
23.261055
 20
291.315963
 30
0.0
 10
23.511031
 20
291.315963
 30
0.0
 10
23.511031
 20
292.316006
 30
0.0
 10
23.261055
 20
292.316006
 30
0.0
 10
23.261055
 20
291.315963
 30
0.0
 10
23.261055
 20
291.315963
 30
0.0
  0
LWPOLYLINE
  5
1e9
100
AcDbEntity
  8
Layer_1
 62
7
100
AcDbPolyline
 90
6
 70
1
 10
22.761099
 20
291.315963
 30
0.0
 10
23.011075
 20
291.315963
 30
0.0
 10
23.011075
 20
292.316006
 30
0.0
 10
22.761099
 20
292.316006
 30
0.0
 10
22.761099
 20
291.315963
 30
0.0
 10
22.761099
 20
291.315963
 30
0.0
  0
LWPOLYLINE
  5
1ea
100
AcDbEntity
  8
Layer_1
 62
7
100
AcDbPolyline
 90
6
 70
1
 10
22.261142
 20
291.315963
 30
0.0
 10
22.511118
 20
291.315963
 30
0.0
 10
22.511118
 20
292.316006
 30
0.0
 10
22.261142
 20
292.316006
 30
0.0
 10
22.261142
 20
291.315963
 30
0.0
 10
22.261142
 20
291.315963
 30
0.0
  0
LWPOLYLINE
  5
1eb
100
AcDbEntity
  8
Layer_1
 62
7
100
AcDbPolyline
 90
6
 70
1
 10
21.761079
 20
291.315963
 30
0.0
 10
22.011056
 20
291.315963
 30
0.0
 10
22.011056
 20
292.316006
 30
0.0
 10
21.761079
 20
292.316006
 30
0.0
 10
21.761079
 20
291.315963
 30
0.0
 10
21.761079
 20
291.315963
 30
0.0
  0
LWPOLYLINE
  5
1ec
100
AcDbEntity
  8
Layer_1
 62
7
100
AcDbPolyline
 90
6
 70
1
 10
21.261123
 20
291.315963
 30
0.0
 10
21.511099
 20
291.315963
 30
0.0
 10
21.511099
 20
292.316006
 30
0.0
 10
21.261123
 20
292.316006
 30
0.0
 10
21.261123
 20
291.315963
 30
0.0
 10
21.261123
 20
291.315963
 30
0.0
  0
LWPOLYLINE
  5
1ed
100
AcDbEntity
  8
Layer_1
 62
7
100
AcDbPolyline
 90
6
 70
1
 10
19.886101
 20
290.691017
 30
0.0
 10
20.886145
 20
290.691017
 30
0.0
 10
20.886145
 20
290.940993
 30
0.0
 10
19.886101
 20
290.940993
 30
0.0
 10
19.886101
 20
290.691017
 30
0.0
 10
19.886101
 20
290.691017
 30
0.0
  0
LWPOLYLINE
  5
1ee
100
AcDbEntity
  8
Layer_1
 62
7
100
AcDbPolyline
 90
6
 70
1
 10
19.886101
 20
290.191060
 30
0.0
 10
20.886145
 20
290.191060
 30
0.0
 10
20.886145
 20
290.441036
 30
0.0
 10
19.886101
 20
290.441036
 30
0.0
 10
19.886101
 20
290.191060
 30
0.0
 10
19.886101
 20
290.191060
 30
0.0
  0
LWPOLYLINE
  5
1ef
100
AcDbEntity
  8
Layer_1
 62
7
100
AcDbPolyline
 90
6
 70
1
 10
19.886101
 20
289.690962
 30
0.0
 10
20.886145
 20
289.690962
 30
0.0
 10
20.886145
 20
289.940939
 30
0.0
 10
19.886101
 20
289.940939
 30
0.0
 10
19.886101
 20
289.690962
 30
0.0
 10
19.886101
 20
289.690962
 30
0.0
  0
LWPOLYLINE
  5
1f0
100
AcDbEntity
  8
Layer_1
 62
7
100
AcDbPolyline
 90
6
 70
1
 10
19.886101
 20
289.191006
 30
0.0
 10
20.886145
 20
289.191006
 30
0.0
 10
20.886145
 20
289.440982
 30
0.0
 10
19.886101
 20
289.440982
 30
0.0
 10
19.886101
 20
289.191006
 30
0.0
 10
19.886101
 20
289.191006
 30
0.0
  0
LWPOLYLINE
  5
1f1
100
AcDbEntity
  8
Layer_1
 62
7
100
AcDbPolyline
 90
6
 70
1
 10
19.886101
 20
288.691049
 30
0.0
 10
20.886145
 20
288.691049
 30
0.0
 10
20.886145
 20
288.941025
 30
0.0
 10
19.886101
 20
288.941025
 30
0.0
 10
19.886101
 20
288.691049
 30
0.0
 10
19.886101
 20
288.691049
 30
0.0
  0
LWPOLYLINE
  5
1f2
100
AcDbEntity
  8
Layer_1
 62
7
100
AcDbPolyline
 90
6
 70
1
 10
21.386112
 20
288.816038
 30
0.0
 10
23.386059
 20
288.816038
 30
0.0
 10
23.386059
 20
290.815985
 30
0.0
 10
21.386112
 20
290.815985
 30
0.0
 10
21.386112
 20
288.816038
 30
0.0
 10
21.386112
 20
288.816038
 30
0.0
  0
LWPOLYLINE
  5
1f3
100
AcDbEntity
  8
Layer_1
 62
7
100
AcDbPolyline
 90
6
 70
1
 10
35.324116
 20
285.397974
 30
0.0
 10
36.024018
 20
285.397974
 30
0.0
 10
36.024018
 20
286.098019
 30
0.0
 10
35.324116
 20
286.098019
 30
0.0
 10
35.324116
 20
285.397974
 30
0.0
 10
35.324116
 20
285.397974
 30
0.0
  0
LWPOLYLINE
  5
1f4
100
AcDbEntity
  8
Layer_1
 62
7
100
AcDbPolyline
 90
6
 70
1
 10
36.624102
 20
285.397974
 30
0.0
 10
37.324146
 20
285.397974
 30
0.0
 10
37.324146
 20
286.098019
 30
0.0
 10
36.624102
 20
286.098019
 30
0.0
 10
36.624102
 20
285.397974
 30
0.0
 10
36.624102
 20
285.397974
 30
0.0
  0
LWPOLYLINE
  5
1f5
100
AcDbEntity
  8
Layer_1
 62
7
100
AcDbPolyline
 90
6
 70
1
 10
35.974285
 20
287.247976
 30
0.0
 10
36.674188
 20
287.247976
 30
0.0
 10
36.674188
 20
287.948021
 30
0.0
 10
35.974285
 20
287.948021
 30
0.0
 10
35.974285
 20
287.247976
 30
0.0
 10
35.974285
 20
287.247976
 30
0.0
  0
LWPOLYLINE
  5
1f6
100
AcDbEntity
  8
Layer_1
 62
7
100
AcDbPolyline
 90
6
 70
1
 10
32.053160
 20
286.238961
 30
0.0
 10
32.853111
 20
286.238961
 30
0.0
 10
32.853111
 20
287.138957
 30
0.0
 10
32.053160
 20
287.138957
 30
0.0
 10
32.053160
 20
286.238961
 30
0.0
 10
32.053160
 20
286.238961
 30
0.0
  0
LWPOLYLINE
  5
1f7
100
AcDbEntity
  8
Layer_1
 62
7
100
AcDbPolyline
 90
6
 70
1
 10
33.953221
 20
286.238961
 30
0.0
 10
34.753172
 20
286.238961
 30
0.0
 10
34.753172
 20
287.138957
 30
0.0
 10
33.953221
 20
287.138957
 30
0.0
 10
33.953221
 20
286.238961
 30
0.0
 10
33.953221
 20
286.238961
 30
0.0
  0
LWPOLYLINE
  5
1f8
100
AcDbEntity
  8
Layer_1
 62
7
100
AcDbPolyline
 90
6
 70
1
 10
33.003191
 20
288.338977
 30
0.0
 10
33.803141
 20
288.338977
 30
0.0
 10
33.803141
 20
289.238973
 30
0.0
 10
33.003191
 20
289.238973
 30
0.0
 10
33.003191
 20
288.338977
 30
0.0
 10
33.003191
 20
288.338977
 30
0.0
  0
LWPOLYLINE
  5
1f9
100
AcDbEntity
  8
Layer_1
 62
7
100
AcDbPolyline
 90
6
 70
1
 10
33.703102
 20
284.648992
 30
0.0
 10
34.803052
 20
284.648992
 30
0.0
 10
34.803052
 20
285.649035
 30
0.0
 10
33.703102
 20
285.649035
 30
0.0
 10
33.703102
 20
284.648992
 30
0.0
 10
33.703102
 20
284.648992
 30
0.0
  0
LWPOLYLINE
  5
1fa
100
AcDbEntity
  8
Layer_1
 62
7
100
AcDbPolyline
 90
6
 70
1
 10
32.003066
 20
284.648992
 30
0.0
 10
33.103154
 20
284.648992
 30
0.0
 10
33.103154
 20
285.649035
 30
0.0
 10
32.003066
 20
285.649035
 30
0.0
 10
32.003066
 20
284.648992
 30
0.0
 10
32.003066
 20
284.648992
 30
0.0
  0
LWPOLYLINE
  5
1fb
100
AcDbEntity
  8
Layer_1
 62
7
100
AcDbPolyline
 90
6
 70
1
 10
35.443002
 20
282.351950
 30
0.0
 10
36.443045
 20
282.351950
 30
0.0
 10
36.443045
 20
283.452038
 30
0.0
 10
35.443002
 20
283.452038
 30
0.0
 10
35.443002
 20
282.351950
 30
0.0
 10
35.443002
 20
282.351950
 30
0.0
  0
LWPOLYLINE
  5
1fc
100
AcDbEntity
  8
Layer_1
 62
7
100
AcDbPolyline
 90
6
 70
1
 10
35.443002
 20
284.052021
 30
0.0
 10
36.443045
 20
284.052021
 30
0.0
 10
36.443045
 20
285.151972
 30
0.0
 10
35.443002
 20
285.151972
 30
0.0
 10
35.443002
 20
284.052021
 30
0.0
 10
35.443002
 20
284.052021
 30
0.0
  0
LWPOLYLINE
  5
1fd
100
AcDbEntity
  8
Layer_1
 62
7
100
AcDbPolyline
 90
6
 70
1
 10
31.084080
 20
282.143035
 30
0.0
 10
31.434100
 20
282.143035
 30
0.0
 10
31.434100
 20
282.942987
 30
0.0
 10
31.084080
 20
282.942987
 30
0.0
 10
31.084080
 20
282.143035
 30
0.0
 10
31.084080
 20
282.143035
 30
0.0
  0
LWPOLYLINE
  5
1fe
100
AcDbEntity
  8
Layer_1
 62
7
100
AcDbPolyline
 90
6
 70
1
 10
29.784094
 20
282.143035
 30
0.0
 10
30.133979
 20
282.143035
 30
0.0
 10
30.133979
 20
282.942987
 30
0.0
 10
29.784094
 20
282.942987
 30
0.0
 10
29.784094
 20
282.143035
 30
0.0
 10
29.784094
 20
282.143035
 30
0.0
  0
LWPOLYLINE
  5
1ff
100
AcDbEntity
  8
Layer_1
 62
7
100
AcDbPolyline
 90
6
 70
1
 10
29.784094
 20
280.243009
 30
0.0
 10
30.133979
 20
280.243009
 30
0.0
 10
30.133979
 20
281.042961
 30
0.0
 10
29.784094
 20
281.042961
 30
0.0
 10
29.784094
 20
280.243009
 30
0.0
 10
29.784094
 20
280.243009
 30
0.0
  0
LWPOLYLINE
  5
200
100
AcDbEntity
  8
Layer_1
 62
7
100
AcDbPolyline
 90
6
 70
1
 10
30.434263
 20
280.243009
 30
0.0
 10
30.784148
 20
280.243009
 30
0.0
 10
30.784148
 20
281.042961
 30
0.0
 10
30.434263
 20
281.042961
 30
0.0
 10
30.434263
 20
280.243009
 30
0.0
 10
30.434263
 20
280.243009
 30
0.0
  0
LWPOLYLINE
  5
201
100
AcDbEntity
  8
Layer_1
 62
7
100
AcDbPolyline
 90
6
 70
1
 10
31.084080
 20
280.243009
 30
0.0
 10
31.434100
 20
280.243009
 30
0.0
 10
31.434100
 20
281.042961
 30
0.0
 10
31.084080
 20
281.042961
 30
0.0
 10
31.084080
 20
280.243009
 30
0.0
 10
31.084080
 20
280.243009
 30
0.0
  0
LWPOLYLINE
  5
202
100
AcDbEntity
  8
Layer_1
 62
7
100
AcDbPolyline
 90
6
 70
1
 10
32.268002
 20
282.528056
 30
0.0
 10
33.268045
 20
282.528056
 30
0.0
 10
33.268045
 20
283.628007
 30
0.0
 10
32.268002
 20
283.628007
 30
0.0
 10
32.268002
 20
282.528056
 30
0.0
 10
32.268002
 20
282.528056
 30
0.0
  0
LWPOLYLINE
  5
203
100
AcDbEntity
  8
Layer_1
 62
7
100
AcDbPolyline
 90
6
 70
1
 10
32.268002
 20
280.827985
 30
0.0
 10
33.268045
 20
280.827985
 30
0.0
 10
33.268045
 20
281.928073
 30
0.0
 10
32.268002
 20
281.928073
 30
0.0
 10
32.268002
 20
280.827985
 30
0.0
 10
32.268002
 20
280.827985
 30
0.0
  0
LWPOLYLINE
  5
204
100
AcDbEntity
  8
Layer_1
 62
7
100
AcDbPolyline
 90
6
 70
1
 10
27.950001
 20
281.765986
 30
0.0
 10
28.950045
 20
281.765986
 30
0.0
 10
28.950045
 20
282.865937
 30
0.0
 10
27.950001
 20
282.865937
 30
0.0
 10
27.950001
 20
281.765986
 30
0.0
 10
27.950001
 20
281.765986
 30
0.0
  0
LWPOLYLINE
  5
205
100
AcDbEntity
  8
Layer_1
 62
7
100
AcDbPolyline
 90
6
 70
1
 10
27.950001
 20
280.066056
 30
0.0
 10
28.950045
 20
280.066056
 30
0.0
 10
28.950045
 20
281.166006
 30
0.0
 10
27.950001
 20
281.166006
 30
0.0
 10
27.950001
 20
280.066056
 30
0.0
 10
27.950001
 20
280.066056
 30
0.0
  0
LWPOLYLINE
  5
206
100
AcDbEntity
  8
Layer_1
 62
7
100
AcDbPolyline
 90
6
 70
1
 10
31.418160
 20
277.602961
 30
0.0
 10
32.218111
 20
277.602961
 30
0.0
 10
32.218111
 20
278.502957
 30
0.0
 10
31.418160
 20
278.502957
 30
0.0
 10
31.418160
 20
277.602961
 30
0.0
 10
31.418160
 20
277.602961
 30
0.0
  0
LWPOLYLINE
  5
207
100
AcDbEntity
  8
Layer_1
 62
7
100
AcDbPolyline
 90
6
 70
1
 10
33.318221
 20
277.602961
 30
0.0
 10
34.118172
 20
277.602961
 30
0.0
 10
34.118172
 20
278.502957
 30
0.0
 10
33.318221
 20
278.502957
 30
0.0
 10
33.318221
 20
277.602961
 30
0.0
 10
33.318221
 20
277.602961
 30
0.0
  0
LWPOLYLINE
  5
208
100
AcDbEntity
  8
Layer_1
 62
7
100
AcDbPolyline
 90
6
 70
1
 10
32.368191
 20
279.702941
 30
0.0
 10
33.168141
 20
279.702941
 30
0.0
 10
33.168141
 20
280.602937
 30
0.0
 10
32.368191
 20
280.602937
 30
0.0
 10
32.368191
 20
279.702941
 30
0.0
 10
32.368191
 20
279.702941
 30
0.0
  0
LWPOLYLINE
  5
209
100
AcDbEntity
  8
Layer_1
 62
7
100
AcDbPolyline
 90
6
 70
1
 10
30.269869
 20
277.847013
 30
0.0
 10
31.069957
 20
277.847013
 30
0.0
 10
31.069957
 20
278.197035
 30
0.0
 10
30.269869
 20
278.197035
 30
0.0
 10
30.269869
 20
277.847013
 30
0.0
 10
30.269869
 20
277.847013
 30
0.0
  0
LWPOLYLINE
  5
20a
100
AcDbEntity
  8
Layer_1
 62
7
100
AcDbPolyline
 90
6
 70
1
 10
30.269869
 20
279.147034
 30
0.0
 10
31.069957
 20
279.147034
 30
0.0
 10
31.069957
 20
279.497056
 30
0.0
 10
30.269869
 20
279.497056
 30
0.0
 10
30.269869
 20
279.147034
 30
0.0
 10
30.269869
 20
279.147034
 30
0.0
  0
LWPOLYLINE
  5
20b
100
AcDbEntity
  8
Layer_1
 62
7
100
AcDbPolyline
 90
6
 70
1
 10
28.370160
 20
279.147034
 30
0.0
 10
29.170111
 20
279.147034
 30
0.0
 10
29.170111
 20
279.497056
 30
0.0
 10
28.370160
 20
279.497056
 30
0.0
 10
28.370160
 20
279.147034
 30
0.0
 10
28.370160
 20
279.147034
 30
0.0
  0
LWPOLYLINE
  5
20c
100
AcDbEntity
  8
Layer_1
 62
7
100
AcDbPolyline
 90
6
 70
1
 10
28.370160
 20
278.497006
 30
0.0
 10
29.170111
 20
278.497006
 30
0.0
 10
29.170111
 20
278.847028
 30
0.0
 10
28.370160
 20
278.847028
 30
0.0
 10
28.370160
 20
278.497006
 30
0.0
 10
28.370160
 20
278.497006
 30
0.0
  0
LWPOLYLINE
  5
20d
100
AcDbEntity
  8
Layer_1
 62
7
100
AcDbPolyline
 90
6
 70
1
 10
28.370160
 20
277.847013
 30
0.0
 10
29.170111
 20
277.847013
 30
0.0
 10
29.170111
 20
278.197035
 30
0.0
 10
28.370160
 20
278.197035
 30
0.0
 10
28.370160
 20
277.847013
 30
0.0
 10
28.370160
 20
277.847013
 30
0.0
  0
LWPOLYLINE
  5
20e
100
AcDbEntity
  8
Layer_1
 62
7
100
AcDbPolyline
 90
6
 70
1
 10
24.883163
 20
283.737026
 30
0.0
 10
25.333092
 20
283.737026
 30
0.0
 10
25.333092
 20
284.037025
 30
0.0
 10
24.883163
 20
284.037025
 30
0.0
 10
24.883163
 20
283.737026
 30
0.0
 10
24.883163
 20
283.737026
 30
0.0
  0
LWPOLYLINE
  5
20f
100
AcDbEntity
  8
Layer_1
 62
7
100
AcDbPolyline
 90
6
 70
1
 10
24.883163
 20
284.236947
 30
0.0
 10
25.333092
 20
284.236947
 30
0.0
 10
25.333092
 20
284.536946
 30
0.0
 10
24.883163
 20
284.536946
 30
0.0
 10
24.883163
 20
284.236947
 30
0.0
 10
24.883163
 20
284.236947
 30
0.0
  0
LWPOLYLINE
  5
210
100
AcDbEntity
  8
Layer_1
 62
7
100
AcDbPolyline
 90
6
 70
1
 10
24.883163
 20
284.737045
 30
0.0
 10
25.333092
 20
284.737045
 30
0.0
 10
25.333092
 20
285.037044
 30
0.0
 10
24.883163
 20
285.037044
 30
0.0
 10
24.883163
 20
284.737045
 30
0.0
 10
24.883163
 20
284.737045
 30
0.0
  0
LWPOLYLINE
  5
211
100
AcDbEntity
  8
Layer_1
 62
7
100
AcDbPolyline
 90
6
 70
1
 10
26.233067
 20
284.737045
 30
0.0
 10
26.683134
 20
284.737045
 30
0.0
 10
26.683134
 20
285.037044
 30
0.0
 10
26.233067
 20
285.037044
 30
0.0
 10
26.233067
 20
284.737045
 30
0.0
 10
26.233067
 20
284.737045
 30
0.0
  0
LWPOLYLINE
  5
212
100
AcDbEntity
  8
Layer_1
 62
7
100
AcDbPolyline
 90
6
 70
1
 10
26.233067
 20
284.236947
 30
0.0
 10
26.683134
 20
284.236947
 30
0.0
 10
26.683134
 20
284.536946
 30
0.0
 10
26.233067
 20
284.536946
 30
0.0
 10
26.233067
 20
284.236947
 30
0.0
 10
26.233067
 20
284.236947
 30
0.0
  0
LWPOLYLINE
  5
213
100
AcDbEntity
  8
Layer_1
 62
7
100
AcDbPolyline
 90
6
 70
1
 10
26.233067
 20
283.737026
 30
0.0
 10
26.683134
 20
283.737026
 30
0.0
 10
26.683134
 20
284.037025
 30
0.0
 10
26.233067
 20
284.037025
 30
0.0
 10
26.233067
 20
283.737026
 30
0.0
 10
26.233067
 20
283.737026
 30
0.0
  0
LWPOLYLINE
  5
214
100
AcDbEntity
  8
Layer_1
 62
7
100
AcDbPolyline
 90
6
 70
1
 10
6.892025
 20
279.575060
 30
0.0
 10
7.642091
 20
279.575060
 30
0.0
 10
7.642091
 20
279.825036
 30
0.0
 10
6.892025
 20
279.825036
 30
0.0
 10
6.892025
 20
279.575060
 30
0.0
 10
6.892025
 20
279.575060
 30
0.0
  0
LWPOLYLINE
  5
215
100
AcDbEntity
  8
Layer_1
 62
7
100
AcDbPolyline
 90
6
 70
1
 10
6.892025
 20
280.075016
 30
0.0
 10
7.642091
 20
280.075016
 30
0.0
 10
7.642091
 20
280.324993
 30
0.0
 10
6.892025
 20
280.324993
 30
0.0
 10
6.892025
 20
280.075016
 30
0.0
 10
6.892025
 20
280.075016
 30
0.0
  0
LWPOLYLINE
  5
216
100
AcDbEntity
  8
Layer_1
 62
7
100
AcDbPolyline
 90
6
 70
1
 10
6.892025
 20
280.574973
 30
0.0
 10
7.642091
 20
280.574973
 30
0.0
 10
7.642091
 20
280.824949
 30
0.0
 10
6.892025
 20
280.824949
 30
0.0
 10
6.892025
 20
280.574973
 30
0.0
 10
6.892025
 20
280.574973
 30
0.0
  0
LWPOLYLINE
  5
217
100
AcDbEntity
  8
Layer_1
 62
7
100
AcDbPolyline
 90
6
 70
1
 10
6.892025
 20
281.075071
 30
0.0
 10
7.642091
 20
281.075071
 30
0.0
 10
7.642091
 20
281.325047
 30
0.0
 10
6.892025
 20
281.325047
 30
0.0
 10
6.892025
 20
281.075071
 30
0.0
 10
6.892025
 20
281.075071
 30
0.0
  0
LWPOLYLINE
  5
218
100
AcDbEntity
  8
Layer_1
 62
7
100
AcDbPolyline
 90
6
 70
1
 10
3.792132
 20
281.075071
 30
0.0
 10
4.542060
 20
281.075071
 30
0.0
 10
4.542060
 20
281.325047
 30
0.0
 10
3.792132
 20
281.325047
 30
0.0
 10
3.792132
 20
281.075071
 30
0.0
 10
3.792132
 20
281.075071
 30
0.0
  0
LWPOLYLINE
  5
219
100
AcDbEntity
  8
Layer_1
 62
7
100
AcDbPolyline
 90
6
 70
1
 10
3.792132
 20
280.574973
 30
0.0
 10
4.542060
 20
280.574973
 30
0.0
 10
4.542060
 20
280.824949
 30
0.0
 10
3.792132
 20
280.824949
 30
0.0
 10
3.792132
 20
280.574973
 30
0.0
 10
3.792132
 20
280.574973
 30
0.0
  0
LWPOLYLINE
  5
21a
100
AcDbEntity
  8
Layer_1
 62
7
100
AcDbPolyline
 90
6
 70
1
 10
3.792132
 20
280.075016
 30
0.0
 10
4.542060
 20
280.075016
 30
0.0
 10
4.542060
 20
280.324993
 30
0.0
 10
3.792132
 20
280.324993
 30
0.0
 10
3.792132
 20
280.075016
 30
0.0
 10
3.792132
 20
280.075016
 30
0.0
  0
LWPOLYLINE
  5
21b
100
AcDbEntity
  8
Layer_1
 62
7
100
AcDbPolyline
 90
6
 70
1
 10
3.792132
 20
279.575060
 30
0.0
 10
4.542060
 20
279.575060
 30
0.0
 10
4.542060
 20
279.825036
 30
0.0
 10
3.792132
 20
279.825036
 30
0.0
 10
3.792132
 20
279.575060
 30
0.0
 10
3.792132
 20
279.575060
 30
0.0
  0
ENDSEC
  0
SECTION
  2
OBJECTS
  0
DICTIONARY
  5
C
330
0
100
AcDbDictionary
  3
ACAD_GROUP
350
D
  3
ACAD_MLINESTYLE
350
17
  0
DICTIONARY
  5
D
330
C
100
AcDbDictionary
  0
DICTIONARY
  5
1A
330
C
100
AcDbDictionary
  0
DICTIONARY
  5
17
330
C
100
AcDbDictionary
  3
STANDARD
350
18
  0
DICTIONARY
  5
19
330
C
100
AcDbDictionary
  0
ENDSEC
  0
EOF
