G75*
%MOIN*%
%OFA0B0*%
%FSLAX25Y25*%
%IPPOS*%
%LPD*%
%AMOC8*
5,1,8,0,0,1.08239X$1,22.5*
%
%ADD10C,0.00000*%
D10*
X0028072Y0013934D02*
X0209704Y0013976D01*
X0217619Y0020850D02*
X0217619Y0124761D01*
X0217654Y0124942D01*
X0217684Y0125125D01*
X0217709Y0125308D01*
X0217731Y0125491D01*
X0217747Y0125675D01*
X0217759Y0125859D01*
X0217767Y0126044D01*
X0217770Y0126228D01*
X0217768Y0126413D01*
X0217762Y0126598D01*
X0217752Y0126782D01*
X0217737Y0126966D01*
X0217717Y0127150D01*
X0217693Y0127333D01*
X0217665Y0127515D01*
X0217632Y0127697D01*
X0217594Y0127878D01*
X0217552Y0128058D01*
X0217506Y0128237D01*
X0217455Y0128414D01*
X0217400Y0128590D01*
X0217341Y0128765D01*
X0217277Y0128939D01*
X0217210Y0129111D01*
X0217138Y0129281D01*
X0217061Y0129449D01*
X0216981Y0129615D01*
X0216897Y0129779D01*
X0216808Y0129942D01*
X0216716Y0130102D01*
X0216620Y0130259D01*
X0216520Y0130415D01*
X0216416Y0130567D01*
X0216308Y0130717D01*
X0216197Y0130865D01*
X0216083Y0131010D01*
X0215964Y0131151D01*
X0215842Y0131290D01*
X0215717Y0131426D01*
X0215589Y0131559D01*
X0215457Y0131688D01*
X0215323Y0131815D01*
X0215185Y0131938D01*
X0215044Y0132057D01*
X0214900Y0132173D01*
X0214754Y0132286D01*
X0214605Y0132395D01*
X0214453Y0132500D01*
X0214298Y0132601D01*
X0214142Y0132699D01*
X0213982Y0132792D01*
X0213821Y0132882D01*
X0213657Y0132968D01*
X0213492Y0133050D01*
X0213324Y0133127D01*
X0213155Y0133201D01*
X0212984Y0133270D01*
X0212811Y0133335D01*
X0212636Y0133396D01*
X0212461Y0133452D01*
X0212283Y0133505D01*
X0212105Y0133553D01*
X0211926Y0133596D01*
X0211745Y0133635D01*
X0020198Y0133635D01*
X0020198Y0021808D01*
X0020200Y0021618D01*
X0020207Y0021428D01*
X0020219Y0021238D01*
X0020235Y0021048D01*
X0020255Y0020859D01*
X0020281Y0020670D01*
X0020310Y0020482D01*
X0020345Y0020295D01*
X0020384Y0020109D01*
X0020427Y0019924D01*
X0020475Y0019739D01*
X0020527Y0019556D01*
X0020583Y0019375D01*
X0020644Y0019195D01*
X0020710Y0019016D01*
X0020779Y0018839D01*
X0020853Y0018663D01*
X0020931Y0018490D01*
X0021014Y0018318D01*
X0021100Y0018149D01*
X0021190Y0017981D01*
X0021285Y0017816D01*
X0021383Y0017653D01*
X0021486Y0017493D01*
X0021592Y0017335D01*
X0021702Y0017180D01*
X0021815Y0017027D01*
X0021933Y0016877D01*
X0022054Y0016731D01*
X0022178Y0016587D01*
X0022306Y0016446D01*
X0022437Y0016308D01*
X0022572Y0016173D01*
X0022710Y0016042D01*
X0022851Y0015914D01*
X0022995Y0015790D01*
X0023141Y0015669D01*
X0023291Y0015551D01*
X0023444Y0015438D01*
X0023599Y0015328D01*
X0023757Y0015222D01*
X0023917Y0015119D01*
X0024080Y0015021D01*
X0024245Y0014926D01*
X0024413Y0014836D01*
X0024582Y0014750D01*
X0024754Y0014667D01*
X0024927Y0014589D01*
X0025103Y0014515D01*
X0025280Y0014446D01*
X0025459Y0014380D01*
X0025639Y0014319D01*
X0025820Y0014263D01*
X0026003Y0014211D01*
X0026188Y0014163D01*
X0026373Y0014120D01*
X0026559Y0014081D01*
X0026746Y0014046D01*
X0026934Y0014017D01*
X0027123Y0013991D01*
X0027312Y0013971D01*
X0027502Y0013955D01*
X0027692Y0013943D01*
X0027882Y0013936D01*
X0028072Y0013934D01*
X0023777Y0022434D02*
X0023779Y0022574D01*
X0023785Y0022714D01*
X0023795Y0022853D01*
X0023809Y0022992D01*
X0023827Y0023131D01*
X0023848Y0023269D01*
X0023874Y0023407D01*
X0023904Y0023544D01*
X0023937Y0023679D01*
X0023975Y0023814D01*
X0024016Y0023948D01*
X0024061Y0024081D01*
X0024109Y0024212D01*
X0024162Y0024341D01*
X0024218Y0024470D01*
X0024277Y0024596D01*
X0024341Y0024721D01*
X0024407Y0024844D01*
X0024478Y0024965D01*
X0024551Y0025084D01*
X0024628Y0025201D01*
X0024709Y0025315D01*
X0024792Y0025427D01*
X0024879Y0025537D01*
X0024969Y0025645D01*
X0025061Y0025749D01*
X0025157Y0025851D01*
X0025256Y0025951D01*
X0025357Y0026047D01*
X0025461Y0026141D01*
X0025568Y0026231D01*
X0025677Y0026318D01*
X0025789Y0026403D01*
X0025903Y0026484D01*
X0026019Y0026562D01*
X0026137Y0026636D01*
X0026258Y0026707D01*
X0026380Y0026775D01*
X0026505Y0026839D01*
X0026631Y0026900D01*
X0026758Y0026957D01*
X0026888Y0027010D01*
X0027019Y0027060D01*
X0027151Y0027105D01*
X0027284Y0027148D01*
X0027419Y0027186D01*
X0027554Y0027220D01*
X0027691Y0027251D01*
X0027828Y0027278D01*
X0027966Y0027300D01*
X0028105Y0027319D01*
X0028244Y0027334D01*
X0028383Y0027345D01*
X0028523Y0027352D01*
X0028663Y0027355D01*
X0028803Y0027354D01*
X0028943Y0027349D01*
X0029082Y0027340D01*
X0029222Y0027327D01*
X0029361Y0027310D01*
X0029499Y0027289D01*
X0029637Y0027265D01*
X0029774Y0027236D01*
X0029910Y0027204D01*
X0030045Y0027167D01*
X0030179Y0027127D01*
X0030312Y0027083D01*
X0030443Y0027035D01*
X0030573Y0026984D01*
X0030702Y0026929D01*
X0030829Y0026870D01*
X0030954Y0026807D01*
X0031077Y0026742D01*
X0031199Y0026672D01*
X0031318Y0026599D01*
X0031436Y0026523D01*
X0031551Y0026444D01*
X0031664Y0026361D01*
X0031774Y0026275D01*
X0031882Y0026186D01*
X0031987Y0026094D01*
X0032090Y0025999D01*
X0032190Y0025901D01*
X0032287Y0025801D01*
X0032381Y0025697D01*
X0032473Y0025591D01*
X0032561Y0025483D01*
X0032646Y0025372D01*
X0032728Y0025258D01*
X0032807Y0025142D01*
X0032882Y0025025D01*
X0032954Y0024905D01*
X0033022Y0024783D01*
X0033087Y0024659D01*
X0033149Y0024533D01*
X0033207Y0024406D01*
X0033261Y0024277D01*
X0033312Y0024146D01*
X0033358Y0024014D01*
X0033401Y0023881D01*
X0033441Y0023747D01*
X0033476Y0023612D01*
X0033508Y0023475D01*
X0033535Y0023338D01*
X0033559Y0023200D01*
X0033579Y0023062D01*
X0033595Y0022923D01*
X0033607Y0022783D01*
X0033615Y0022644D01*
X0033619Y0022504D01*
X0033619Y0022364D01*
X0033615Y0022224D01*
X0033607Y0022085D01*
X0033595Y0021945D01*
X0033579Y0021806D01*
X0033559Y0021668D01*
X0033535Y0021530D01*
X0033508Y0021393D01*
X0033476Y0021256D01*
X0033441Y0021121D01*
X0033401Y0020987D01*
X0033358Y0020854D01*
X0033312Y0020722D01*
X0033261Y0020591D01*
X0033207Y0020462D01*
X0033149Y0020335D01*
X0033087Y0020209D01*
X0033022Y0020085D01*
X0032954Y0019963D01*
X0032882Y0019843D01*
X0032807Y0019726D01*
X0032728Y0019610D01*
X0032646Y0019496D01*
X0032561Y0019385D01*
X0032473Y0019277D01*
X0032381Y0019171D01*
X0032287Y0019067D01*
X0032190Y0018967D01*
X0032090Y0018869D01*
X0031987Y0018774D01*
X0031882Y0018682D01*
X0031774Y0018593D01*
X0031664Y0018507D01*
X0031551Y0018424D01*
X0031436Y0018345D01*
X0031318Y0018269D01*
X0031199Y0018196D01*
X0031077Y0018126D01*
X0030954Y0018061D01*
X0030829Y0017998D01*
X0030702Y0017939D01*
X0030573Y0017884D01*
X0030443Y0017833D01*
X0030312Y0017785D01*
X0030179Y0017741D01*
X0030045Y0017701D01*
X0029910Y0017664D01*
X0029774Y0017632D01*
X0029637Y0017603D01*
X0029499Y0017579D01*
X0029361Y0017558D01*
X0029222Y0017541D01*
X0029082Y0017528D01*
X0028943Y0017519D01*
X0028803Y0017514D01*
X0028663Y0017513D01*
X0028523Y0017516D01*
X0028383Y0017523D01*
X0028244Y0017534D01*
X0028105Y0017549D01*
X0027966Y0017568D01*
X0027828Y0017590D01*
X0027691Y0017617D01*
X0027554Y0017648D01*
X0027419Y0017682D01*
X0027284Y0017720D01*
X0027151Y0017763D01*
X0027019Y0017808D01*
X0026888Y0017858D01*
X0026758Y0017911D01*
X0026631Y0017968D01*
X0026505Y0018029D01*
X0026380Y0018093D01*
X0026258Y0018161D01*
X0026137Y0018232D01*
X0026019Y0018306D01*
X0025903Y0018384D01*
X0025789Y0018465D01*
X0025677Y0018550D01*
X0025568Y0018637D01*
X0025461Y0018727D01*
X0025357Y0018821D01*
X0025256Y0018917D01*
X0025157Y0019017D01*
X0025061Y0019119D01*
X0024969Y0019223D01*
X0024879Y0019331D01*
X0024792Y0019441D01*
X0024709Y0019553D01*
X0024628Y0019667D01*
X0024551Y0019784D01*
X0024478Y0019903D01*
X0024407Y0020024D01*
X0024341Y0020147D01*
X0024277Y0020272D01*
X0024218Y0020398D01*
X0024162Y0020527D01*
X0024109Y0020656D01*
X0024061Y0020787D01*
X0024016Y0020920D01*
X0023975Y0021054D01*
X0023937Y0021189D01*
X0023904Y0021324D01*
X0023874Y0021461D01*
X0023848Y0021599D01*
X0023827Y0021737D01*
X0023809Y0021876D01*
X0023795Y0022015D01*
X0023785Y0022154D01*
X0023779Y0022294D01*
X0023777Y0022434D01*
X0049364Y0043202D02*
X0049366Y0043295D01*
X0049372Y0043387D01*
X0049382Y0043479D01*
X0049396Y0043570D01*
X0049413Y0043661D01*
X0049435Y0043751D01*
X0049460Y0043840D01*
X0049489Y0043928D01*
X0049522Y0044014D01*
X0049559Y0044099D01*
X0049599Y0044183D01*
X0049643Y0044264D01*
X0049690Y0044344D01*
X0049740Y0044422D01*
X0049794Y0044497D01*
X0049851Y0044570D01*
X0049911Y0044640D01*
X0049974Y0044708D01*
X0050040Y0044773D01*
X0050108Y0044835D01*
X0050179Y0044895D01*
X0050253Y0044951D01*
X0050329Y0045004D01*
X0050407Y0045053D01*
X0050487Y0045100D01*
X0050569Y0045142D01*
X0050653Y0045182D01*
X0050738Y0045217D01*
X0050825Y0045249D01*
X0050913Y0045278D01*
X0051002Y0045302D01*
X0051092Y0045323D01*
X0051183Y0045339D01*
X0051275Y0045352D01*
X0051367Y0045361D01*
X0051460Y0045366D01*
X0051552Y0045367D01*
X0051645Y0045364D01*
X0051737Y0045357D01*
X0051829Y0045346D01*
X0051920Y0045331D01*
X0052011Y0045313D01*
X0052101Y0045290D01*
X0052189Y0045264D01*
X0052277Y0045234D01*
X0052363Y0045200D01*
X0052447Y0045163D01*
X0052530Y0045121D01*
X0052611Y0045077D01*
X0052691Y0045029D01*
X0052768Y0044978D01*
X0052842Y0044923D01*
X0052915Y0044865D01*
X0052985Y0044805D01*
X0053052Y0044741D01*
X0053116Y0044675D01*
X0053178Y0044605D01*
X0053236Y0044534D01*
X0053291Y0044460D01*
X0053343Y0044383D01*
X0053392Y0044304D01*
X0053438Y0044224D01*
X0053480Y0044141D01*
X0053518Y0044057D01*
X0053553Y0043971D01*
X0053584Y0043884D01*
X0053611Y0043796D01*
X0053634Y0043706D01*
X0053654Y0043616D01*
X0053670Y0043525D01*
X0053682Y0043433D01*
X0053690Y0043341D01*
X0053694Y0043248D01*
X0053694Y0043156D01*
X0053690Y0043063D01*
X0053682Y0042971D01*
X0053670Y0042879D01*
X0053654Y0042788D01*
X0053634Y0042698D01*
X0053611Y0042608D01*
X0053584Y0042520D01*
X0053553Y0042433D01*
X0053518Y0042347D01*
X0053480Y0042263D01*
X0053438Y0042180D01*
X0053392Y0042100D01*
X0053343Y0042021D01*
X0053291Y0041944D01*
X0053236Y0041870D01*
X0053178Y0041799D01*
X0053116Y0041729D01*
X0053052Y0041663D01*
X0052985Y0041599D01*
X0052915Y0041539D01*
X0052842Y0041481D01*
X0052768Y0041426D01*
X0052691Y0041375D01*
X0052612Y0041327D01*
X0052530Y0041283D01*
X0052447Y0041241D01*
X0052363Y0041204D01*
X0052277Y0041170D01*
X0052189Y0041140D01*
X0052101Y0041114D01*
X0052011Y0041091D01*
X0051920Y0041073D01*
X0051829Y0041058D01*
X0051737Y0041047D01*
X0051645Y0041040D01*
X0051552Y0041037D01*
X0051460Y0041038D01*
X0051367Y0041043D01*
X0051275Y0041052D01*
X0051183Y0041065D01*
X0051092Y0041081D01*
X0051002Y0041102D01*
X0050913Y0041126D01*
X0050825Y0041155D01*
X0050738Y0041187D01*
X0050653Y0041222D01*
X0050569Y0041262D01*
X0050487Y0041304D01*
X0050407Y0041351D01*
X0050329Y0041400D01*
X0050253Y0041453D01*
X0050179Y0041509D01*
X0050108Y0041569D01*
X0050040Y0041631D01*
X0049974Y0041696D01*
X0049911Y0041764D01*
X0049851Y0041834D01*
X0049794Y0041907D01*
X0049740Y0041982D01*
X0049690Y0042060D01*
X0049643Y0042140D01*
X0049599Y0042221D01*
X0049559Y0042305D01*
X0049522Y0042390D01*
X0049489Y0042476D01*
X0049460Y0042564D01*
X0049435Y0042653D01*
X0049413Y0042743D01*
X0049396Y0042834D01*
X0049382Y0042925D01*
X0049372Y0043017D01*
X0049366Y0043109D01*
X0049364Y0043202D01*
X0131450Y0043202D02*
X0131452Y0043314D01*
X0131458Y0043425D01*
X0131468Y0043537D01*
X0131482Y0043648D01*
X0131499Y0043758D01*
X0131521Y0043868D01*
X0131547Y0043977D01*
X0131576Y0044085D01*
X0131609Y0044191D01*
X0131646Y0044297D01*
X0131687Y0044401D01*
X0131732Y0044504D01*
X0131780Y0044605D01*
X0131831Y0044704D01*
X0131886Y0044801D01*
X0131945Y0044896D01*
X0132006Y0044990D01*
X0132071Y0045081D01*
X0132140Y0045169D01*
X0132211Y0045255D01*
X0132285Y0045339D01*
X0132363Y0045419D01*
X0132443Y0045497D01*
X0132526Y0045573D01*
X0132611Y0045645D01*
X0132699Y0045714D01*
X0132789Y0045780D01*
X0132882Y0045842D01*
X0132977Y0045902D01*
X0133074Y0045958D01*
X0133172Y0046010D01*
X0133273Y0046059D01*
X0133375Y0046104D01*
X0133479Y0046146D01*
X0133584Y0046184D01*
X0133691Y0046218D01*
X0133798Y0046248D01*
X0133907Y0046275D01*
X0134016Y0046297D01*
X0134127Y0046316D01*
X0134237Y0046331D01*
X0134349Y0046342D01*
X0134460Y0046349D01*
X0134572Y0046352D01*
X0134684Y0046351D01*
X0134796Y0046346D01*
X0134907Y0046337D01*
X0135018Y0046324D01*
X0135129Y0046307D01*
X0135239Y0046287D01*
X0135348Y0046262D01*
X0135456Y0046234D01*
X0135563Y0046201D01*
X0135669Y0046165D01*
X0135773Y0046125D01*
X0135876Y0046082D01*
X0135978Y0046035D01*
X0136077Y0045984D01*
X0136175Y0045930D01*
X0136271Y0045872D01*
X0136365Y0045811D01*
X0136456Y0045747D01*
X0136545Y0045680D01*
X0136632Y0045609D01*
X0136716Y0045535D01*
X0136798Y0045459D01*
X0136876Y0045379D01*
X0136952Y0045297D01*
X0137025Y0045212D01*
X0137095Y0045125D01*
X0137161Y0045035D01*
X0137225Y0044943D01*
X0137285Y0044849D01*
X0137342Y0044753D01*
X0137395Y0044654D01*
X0137445Y0044554D01*
X0137491Y0044453D01*
X0137534Y0044349D01*
X0137573Y0044244D01*
X0137608Y0044138D01*
X0137639Y0044031D01*
X0137667Y0043922D01*
X0137690Y0043813D01*
X0137710Y0043703D01*
X0137726Y0043592D01*
X0137738Y0043481D01*
X0137746Y0043370D01*
X0137750Y0043258D01*
X0137750Y0043146D01*
X0137746Y0043034D01*
X0137738Y0042923D01*
X0137726Y0042812D01*
X0137710Y0042701D01*
X0137690Y0042591D01*
X0137667Y0042482D01*
X0137639Y0042373D01*
X0137608Y0042266D01*
X0137573Y0042160D01*
X0137534Y0042055D01*
X0137491Y0041951D01*
X0137445Y0041850D01*
X0137395Y0041750D01*
X0137342Y0041651D01*
X0137285Y0041555D01*
X0137225Y0041461D01*
X0137161Y0041369D01*
X0137095Y0041279D01*
X0137025Y0041192D01*
X0136952Y0041107D01*
X0136876Y0041025D01*
X0136798Y0040945D01*
X0136716Y0040869D01*
X0136632Y0040795D01*
X0136545Y0040724D01*
X0136456Y0040657D01*
X0136365Y0040593D01*
X0136271Y0040532D01*
X0136175Y0040474D01*
X0136077Y0040420D01*
X0135978Y0040369D01*
X0135876Y0040322D01*
X0135773Y0040279D01*
X0135669Y0040239D01*
X0135563Y0040203D01*
X0135456Y0040170D01*
X0135348Y0040142D01*
X0135239Y0040117D01*
X0135129Y0040097D01*
X0135018Y0040080D01*
X0134907Y0040067D01*
X0134796Y0040058D01*
X0134684Y0040053D01*
X0134572Y0040052D01*
X0134460Y0040055D01*
X0134349Y0040062D01*
X0134237Y0040073D01*
X0134127Y0040088D01*
X0134016Y0040107D01*
X0133907Y0040129D01*
X0133798Y0040156D01*
X0133691Y0040186D01*
X0133584Y0040220D01*
X0133479Y0040258D01*
X0133375Y0040300D01*
X0133273Y0040345D01*
X0133172Y0040394D01*
X0133074Y0040446D01*
X0132977Y0040502D01*
X0132882Y0040562D01*
X0132789Y0040624D01*
X0132699Y0040690D01*
X0132611Y0040759D01*
X0132526Y0040831D01*
X0132443Y0040907D01*
X0132363Y0040985D01*
X0132285Y0041065D01*
X0132211Y0041149D01*
X0132140Y0041235D01*
X0132071Y0041323D01*
X0132006Y0041414D01*
X0131945Y0041508D01*
X0131886Y0041603D01*
X0131831Y0041700D01*
X0131780Y0041799D01*
X0131732Y0041900D01*
X0131687Y0042003D01*
X0131646Y0042107D01*
X0131609Y0042213D01*
X0131576Y0042319D01*
X0131547Y0042427D01*
X0131521Y0042536D01*
X0131499Y0042646D01*
X0131482Y0042756D01*
X0131468Y0042867D01*
X0131458Y0042979D01*
X0131452Y0043090D01*
X0131450Y0043202D01*
X0209704Y0013977D02*
X0209883Y0013966D01*
X0210062Y0013959D01*
X0210241Y0013957D01*
X0210420Y0013959D01*
X0210599Y0013966D01*
X0210778Y0013976D01*
X0210957Y0013992D01*
X0211135Y0014011D01*
X0211313Y0014035D01*
X0211490Y0014063D01*
X0211666Y0014095D01*
X0211842Y0014132D01*
X0212016Y0014173D01*
X0212190Y0014218D01*
X0212362Y0014267D01*
X0212533Y0014321D01*
X0212703Y0014378D01*
X0212871Y0014440D01*
X0213038Y0014506D01*
X0213203Y0014576D01*
X0213367Y0014649D01*
X0213528Y0014727D01*
X0213688Y0014809D01*
X0213845Y0014894D01*
X0214001Y0014983D01*
X0214154Y0015076D01*
X0214305Y0015173D01*
X0214454Y0015273D01*
X0214600Y0015377D01*
X0214743Y0015485D01*
X0214884Y0015595D01*
X0215022Y0015710D01*
X0215158Y0015827D01*
X0215290Y0015948D01*
X0215420Y0016072D01*
X0215546Y0016199D01*
X0215670Y0016329D01*
X0215790Y0016462D01*
X0215907Y0016598D01*
X0216020Y0016737D01*
X0216130Y0016878D01*
X0216237Y0017022D01*
X0216340Y0017169D01*
X0216440Y0017318D01*
X0216536Y0017469D01*
X0216628Y0017623D01*
X0216716Y0017779D01*
X0216801Y0017937D01*
X0216882Y0018097D01*
X0216959Y0018259D01*
X0217032Y0018423D01*
X0217101Y0018588D01*
X0217166Y0018755D01*
X0217227Y0018924D01*
X0217283Y0019094D01*
X0217336Y0019265D01*
X0217384Y0019438D01*
X0217429Y0019612D01*
X0217469Y0019786D01*
X0217505Y0019962D01*
X0217536Y0020139D01*
X0217563Y0020316D01*
X0217586Y0020493D01*
X0217605Y0020672D01*
X0217619Y0020851D01*
X0204277Y0124934D02*
X0204279Y0125074D01*
X0204285Y0125214D01*
X0204295Y0125353D01*
X0204309Y0125492D01*
X0204327Y0125631D01*
X0204348Y0125769D01*
X0204374Y0125907D01*
X0204404Y0126044D01*
X0204437Y0126179D01*
X0204475Y0126314D01*
X0204516Y0126448D01*
X0204561Y0126581D01*
X0204609Y0126712D01*
X0204662Y0126841D01*
X0204718Y0126970D01*
X0204777Y0127096D01*
X0204841Y0127221D01*
X0204907Y0127344D01*
X0204978Y0127465D01*
X0205051Y0127584D01*
X0205128Y0127701D01*
X0205209Y0127815D01*
X0205292Y0127927D01*
X0205379Y0128037D01*
X0205469Y0128145D01*
X0205561Y0128249D01*
X0205657Y0128351D01*
X0205756Y0128451D01*
X0205857Y0128547D01*
X0205961Y0128641D01*
X0206068Y0128731D01*
X0206177Y0128818D01*
X0206289Y0128903D01*
X0206403Y0128984D01*
X0206519Y0129062D01*
X0206637Y0129136D01*
X0206758Y0129207D01*
X0206880Y0129275D01*
X0207005Y0129339D01*
X0207131Y0129400D01*
X0207258Y0129457D01*
X0207388Y0129510D01*
X0207519Y0129560D01*
X0207651Y0129605D01*
X0207784Y0129648D01*
X0207919Y0129686D01*
X0208054Y0129720D01*
X0208191Y0129751D01*
X0208328Y0129778D01*
X0208466Y0129800D01*
X0208605Y0129819D01*
X0208744Y0129834D01*
X0208883Y0129845D01*
X0209023Y0129852D01*
X0209163Y0129855D01*
X0209303Y0129854D01*
X0209443Y0129849D01*
X0209582Y0129840D01*
X0209722Y0129827D01*
X0209861Y0129810D01*
X0209999Y0129789D01*
X0210137Y0129765D01*
X0210274Y0129736D01*
X0210410Y0129704D01*
X0210545Y0129667D01*
X0210679Y0129627D01*
X0210812Y0129583D01*
X0210943Y0129535D01*
X0211073Y0129484D01*
X0211202Y0129429D01*
X0211329Y0129370D01*
X0211454Y0129307D01*
X0211577Y0129242D01*
X0211699Y0129172D01*
X0211818Y0129099D01*
X0211936Y0129023D01*
X0212051Y0128944D01*
X0212164Y0128861D01*
X0212274Y0128775D01*
X0212382Y0128686D01*
X0212487Y0128594D01*
X0212590Y0128499D01*
X0212690Y0128401D01*
X0212787Y0128301D01*
X0212881Y0128197D01*
X0212973Y0128091D01*
X0213061Y0127983D01*
X0213146Y0127872D01*
X0213228Y0127758D01*
X0213307Y0127642D01*
X0213382Y0127525D01*
X0213454Y0127405D01*
X0213522Y0127283D01*
X0213587Y0127159D01*
X0213649Y0127033D01*
X0213707Y0126906D01*
X0213761Y0126777D01*
X0213812Y0126646D01*
X0213858Y0126514D01*
X0213901Y0126381D01*
X0213941Y0126247D01*
X0213976Y0126112D01*
X0214008Y0125975D01*
X0214035Y0125838D01*
X0214059Y0125700D01*
X0214079Y0125562D01*
X0214095Y0125423D01*
X0214107Y0125283D01*
X0214115Y0125144D01*
X0214119Y0125004D01*
X0214119Y0124864D01*
X0214115Y0124724D01*
X0214107Y0124585D01*
X0214095Y0124445D01*
X0214079Y0124306D01*
X0214059Y0124168D01*
X0214035Y0124030D01*
X0214008Y0123893D01*
X0213976Y0123756D01*
X0213941Y0123621D01*
X0213901Y0123487D01*
X0213858Y0123354D01*
X0213812Y0123222D01*
X0213761Y0123091D01*
X0213707Y0122962D01*
X0213649Y0122835D01*
X0213587Y0122709D01*
X0213522Y0122585D01*
X0213454Y0122463D01*
X0213382Y0122343D01*
X0213307Y0122226D01*
X0213228Y0122110D01*
X0213146Y0121996D01*
X0213061Y0121885D01*
X0212973Y0121777D01*
X0212881Y0121671D01*
X0212787Y0121567D01*
X0212690Y0121467D01*
X0212590Y0121369D01*
X0212487Y0121274D01*
X0212382Y0121182D01*
X0212274Y0121093D01*
X0212164Y0121007D01*
X0212051Y0120924D01*
X0211936Y0120845D01*
X0211818Y0120769D01*
X0211699Y0120696D01*
X0211577Y0120626D01*
X0211454Y0120561D01*
X0211329Y0120498D01*
X0211202Y0120439D01*
X0211073Y0120384D01*
X0210943Y0120333D01*
X0210812Y0120285D01*
X0210679Y0120241D01*
X0210545Y0120201D01*
X0210410Y0120164D01*
X0210274Y0120132D01*
X0210137Y0120103D01*
X0209999Y0120079D01*
X0209861Y0120058D01*
X0209722Y0120041D01*
X0209582Y0120028D01*
X0209443Y0120019D01*
X0209303Y0120014D01*
X0209163Y0120013D01*
X0209023Y0120016D01*
X0208883Y0120023D01*
X0208744Y0120034D01*
X0208605Y0120049D01*
X0208466Y0120068D01*
X0208328Y0120090D01*
X0208191Y0120117D01*
X0208054Y0120148D01*
X0207919Y0120182D01*
X0207784Y0120220D01*
X0207651Y0120263D01*
X0207519Y0120308D01*
X0207388Y0120358D01*
X0207258Y0120411D01*
X0207131Y0120468D01*
X0207005Y0120529D01*
X0206880Y0120593D01*
X0206758Y0120661D01*
X0206637Y0120732D01*
X0206519Y0120806D01*
X0206403Y0120884D01*
X0206289Y0120965D01*
X0206177Y0121050D01*
X0206068Y0121137D01*
X0205961Y0121227D01*
X0205857Y0121321D01*
X0205756Y0121417D01*
X0205657Y0121517D01*
X0205561Y0121619D01*
X0205469Y0121723D01*
X0205379Y0121831D01*
X0205292Y0121941D01*
X0205209Y0122053D01*
X0205128Y0122167D01*
X0205051Y0122284D01*
X0204978Y0122403D01*
X0204907Y0122524D01*
X0204841Y0122647D01*
X0204777Y0122772D01*
X0204718Y0122898D01*
X0204662Y0123027D01*
X0204609Y0123156D01*
X0204561Y0123287D01*
X0204516Y0123420D01*
X0204475Y0123554D01*
X0204437Y0123689D01*
X0204404Y0123824D01*
X0204374Y0123961D01*
X0204348Y0124099D01*
X0204327Y0124237D01*
X0204309Y0124376D01*
X0204295Y0124515D01*
X0204285Y0124654D01*
X0204279Y0124794D01*
X0204277Y0124934D01*
M02*
