G75*
%MOIN*%
%OFA0B0*%
%FSLAX25Y25*%
%IPPOS*%
%LPD*%
%AMOC8*
5,1,8,0,0,1.08239X$1,22.5*
%
%ADD10C,0.06400*%
%ADD11C,0.06000*%
%ADD12R,0.06000X0.06000*%
%ADD13R,0.05000X0.02500*%
%ADD14C,0.05315*%
%ADD15C,0.07087*%
%ADD16R,0.07874X0.11024*%
%ADD17R,0.02756X0.15748*%
%ADD18R,0.04724X0.15748*%
%ADD19C,0.02181*%
%ADD20C,0.01000*%
%ADD21C,0.01600*%
%ADD22C,0.01200*%
%ADD23C,0.02378*%
D10*
X0145000Y0016214D03*
X0155000Y0016214D03*
X0155000Y0026214D03*
X0145000Y0026214D03*
X0145000Y0036214D03*
X0155000Y0036214D03*
D11*
X0022500Y0033714D03*
X0022500Y0043714D03*
X0022500Y0053714D03*
X0022500Y0063714D03*
X0022500Y0073714D03*
X0022500Y0083714D03*
X0022500Y0093714D03*
X0022500Y0103714D03*
X0022500Y0113714D03*
X0022500Y0123714D03*
D12*
X0192000Y0073714D03*
X0192000Y0063714D03*
X0192000Y0053714D03*
X0192000Y0043714D03*
X0192000Y0033714D03*
X0192000Y0023714D03*
D13*
X0181000Y0031014D03*
X0181000Y0034214D03*
X0181000Y0037414D03*
D14*
X0180343Y0113584D03*
X0160657Y0113584D03*
D15*
X0156720Y0124214D03*
X0184280Y0124214D03*
D16*
X0142012Y0117041D03*
X0032169Y0117041D03*
X0031776Y0035151D03*
X0132563Y0034758D03*
D17*
X0048311Y0027671D03*
X0043193Y0027671D03*
X0038469Y0027671D03*
D18*
X0054610Y0027671D03*
X0064453Y0027671D03*
X0074295Y0027671D03*
X0084138Y0027671D03*
X0093980Y0027671D03*
X0103823Y0027671D03*
X0113665Y0027671D03*
X0123508Y0027671D03*
D19*
X0128500Y0026714D03*
X0132500Y0026714D03*
X0132500Y0042214D03*
X0131000Y0049214D03*
X0116500Y0048214D03*
X0116500Y0044714D03*
X0103823Y0045392D03*
X0099119Y0053333D03*
X0113500Y0066214D03*
X0117631Y0060346D03*
X0132000Y0064214D03*
X0138589Y0064714D03*
X0144500Y0071714D03*
X0151419Y0077795D03*
X0153550Y0079925D03*
X0163189Y0074525D03*
X0167000Y0074714D03*
X0160000Y0071214D03*
X0155673Y0057388D03*
X0148500Y0055714D03*
X0125000Y0070214D03*
X0125000Y0079714D03*
X0127500Y0083714D03*
X0134131Y0079846D03*
X0118000Y0087714D03*
X0110000Y0088714D03*
X0106500Y0092214D03*
X0102119Y0092333D03*
X0093500Y0096214D03*
X0096000Y0099214D03*
X0091000Y0100214D03*
X0096500Y0104714D03*
X0093089Y0108714D03*
X0093500Y0113292D03*
X0083500Y0109303D03*
X0075500Y0109303D03*
X0067500Y0109303D03*
X0062578Y0103972D03*
X0058000Y0105503D03*
X0055000Y0103214D03*
X0046500Y0114214D03*
X0035500Y0099714D03*
X0055000Y0089214D03*
X0055000Y0084636D03*
X0054543Y0079520D03*
X0051500Y0078510D03*
X0058000Y0073892D03*
X0058000Y0070914D03*
X0068500Y0069214D03*
X0084500Y0074214D03*
X0087179Y0075534D03*
X0090500Y0075925D03*
X0092000Y0080714D03*
X0089743Y0082714D03*
X0088000Y0085425D03*
X0101000Y0072214D03*
X0059500Y0045214D03*
X0046500Y0058214D03*
X0036500Y0051425D03*
X0043089Y0073214D03*
X0103500Y0103714D03*
X0103000Y0120714D03*
X0090000Y0120714D03*
X0086000Y0120714D03*
X0117909Y0121306D03*
X0127500Y0122714D03*
X0136104Y0108714D03*
X0145500Y0100714D03*
X0145500Y0095714D03*
X0184500Y0088214D03*
X0171000Y0030714D03*
X0167500Y0021714D03*
X0035000Y0024214D03*
X0032500Y0022214D03*
D20*
X0027775Y0026940D01*
X0026220Y0026940D01*
X0025445Y0027714D01*
X0019702Y0027714D01*
X0011500Y0035916D01*
X0011500Y0088513D01*
X0020802Y0097814D01*
X0026841Y0097814D01*
X0040019Y0084636D01*
X0055000Y0084636D01*
X0057500Y0083899D02*
X0057500Y0086714D01*
X0055000Y0089214D01*
X0055000Y0096394D01*
X0062578Y0103972D01*
X0060289Y0104555D02*
X0060289Y0120003D01*
X0064401Y0124115D01*
X0090988Y0124115D01*
X0100478Y0114625D01*
X0102589Y0114625D01*
X0144500Y0072714D01*
X0144500Y0071714D01*
X0144500Y0068561D01*
X0155673Y0057388D01*
X0138589Y0064714D02*
X0138589Y0069125D01*
X0128000Y0079714D01*
X0125000Y0079714D01*
X0126637Y0081314D02*
X0128663Y0081314D01*
X0130131Y0079846D01*
X0134131Y0079846D01*
X0126637Y0081314D02*
X0125948Y0082003D01*
X0116711Y0082003D01*
X0110000Y0088714D01*
X0106500Y0092214D02*
X0106500Y0100714D01*
X0103500Y0103714D01*
X0102500Y0104714D01*
X0096500Y0104714D01*
X0094037Y0106425D02*
X0093811Y0106425D01*
X0088600Y0101214D01*
X0088600Y0095640D01*
X0095889Y0088351D01*
X0095889Y0075270D01*
X0086045Y0065425D01*
X0082789Y0065425D01*
X0080119Y0068096D01*
X0079170Y0070885D02*
X0073952Y0065666D01*
X0040462Y0065666D01*
X0032414Y0073714D01*
X0022500Y0073714D01*
X0018400Y0075413D02*
X0018400Y0052016D01*
X0020802Y0049614D01*
X0035074Y0049614D01*
X0035552Y0049136D01*
X0074500Y0049136D01*
X0074500Y0027876D01*
X0074295Y0027671D01*
X0064453Y0027671D02*
X0064453Y0018762D01*
X0067000Y0016214D01*
X0079000Y0016214D01*
X0080000Y0017214D01*
X0080000Y0037714D01*
X0081000Y0038714D01*
X0092466Y0038714D01*
X0093483Y0037697D01*
X0093483Y0028168D01*
X0093980Y0027671D01*
X0103823Y0027671D02*
X0103823Y0045392D01*
X0097789Y0051425D01*
X0036500Y0051425D01*
X0032500Y0053714D02*
X0022500Y0053714D01*
X0024198Y0047814D02*
X0018400Y0047814D01*
X0013500Y0052714D01*
X0013500Y0084714D01*
X0022500Y0093714D01*
X0028678Y0093714D01*
X0048500Y0073892D01*
X0058000Y0073892D01*
X0056363Y0075492D02*
X0050500Y0075492D01*
X0049000Y0076992D01*
X0049000Y0079248D01*
X0051561Y0081809D01*
X0055410Y0081809D01*
X0057500Y0083899D01*
X0054543Y0079520D02*
X0086906Y0079520D01*
X0090500Y0075925D01*
X0087179Y0075534D02*
X0084794Y0077920D01*
X0056180Y0077920D01*
X0055491Y0077231D01*
X0053594Y0077231D01*
X0052315Y0078510D01*
X0051500Y0078510D01*
X0056363Y0075492D02*
X0057052Y0076181D01*
X0058948Y0076181D01*
X0060289Y0074840D01*
X0060289Y0069966D01*
X0067748Y0069966D01*
X0068500Y0069214D01*
X0060289Y0069966D02*
X0058948Y0068625D01*
X0058911Y0068625D01*
X0058500Y0068214D01*
X0047589Y0068214D01*
X0043089Y0073214D01*
X0048052Y0071603D02*
X0035941Y0083714D01*
X0022500Y0083714D01*
X0022500Y0079513D01*
X0018400Y0075413D01*
X0022500Y0063714D02*
X0086596Y0063714D01*
X0097489Y0074607D01*
X0097489Y0089014D01*
X0093500Y0093003D01*
X0093500Y0096214D01*
X0096000Y0099214D02*
X0096000Y0092765D01*
X0099089Y0089676D01*
X0099089Y0073944D01*
X0087259Y0062114D01*
X0040900Y0062114D01*
X0032500Y0053714D01*
X0026565Y0045447D02*
X0024198Y0047814D01*
X0026565Y0045447D02*
X0054500Y0045447D01*
X0054610Y0045337D01*
X0054610Y0027671D01*
X0043193Y0027671D02*
X0043193Y0020407D01*
X0041500Y0018714D01*
X0040319Y0018714D01*
X0040302Y0018697D01*
X0036635Y0018697D01*
X0033118Y0022214D01*
X0032500Y0022214D01*
X0035000Y0024214D02*
X0030675Y0028540D01*
X0026883Y0028540D01*
X0026108Y0029314D01*
X0021102Y0029314D01*
X0018400Y0032016D01*
X0018400Y0036114D01*
X0022500Y0040214D01*
X0022500Y0043714D01*
X0046500Y0058214D02*
X0051381Y0053333D01*
X0099119Y0053333D01*
X0095078Y0049136D02*
X0100361Y0043854D01*
X0100361Y0019341D01*
X0101005Y0018697D01*
X0126326Y0018697D01*
X0126970Y0019341D01*
X0126970Y0025184D01*
X0128500Y0026714D01*
X0128570Y0022784D02*
X0132500Y0026714D01*
X0128570Y0022784D02*
X0128570Y0018679D01*
X0126206Y0016314D01*
X0100600Y0016314D01*
X0097869Y0019046D01*
X0097869Y0044083D01*
X0094415Y0047536D01*
X0082822Y0047536D01*
X0077757Y0042472D01*
X0077757Y0019341D01*
X0077113Y0018697D01*
X0071477Y0018697D01*
X0070833Y0019341D01*
X0070833Y0042381D01*
X0065711Y0047503D01*
X0058552Y0047503D01*
X0056496Y0045447D01*
X0054500Y0045447D01*
X0074500Y0049136D02*
X0095078Y0049136D01*
X0113665Y0059549D02*
X0113665Y0027671D01*
X0116500Y0044714D02*
X0136500Y0044714D01*
X0140700Y0040514D01*
X0140700Y0034433D01*
X0143219Y0031914D01*
X0149300Y0031914D01*
X0155000Y0026214D01*
X0156781Y0030514D02*
X0152963Y0030514D01*
X0149300Y0034177D01*
X0149300Y0037995D01*
X0135792Y0051503D01*
X0123237Y0051503D01*
X0115342Y0059398D01*
X0115342Y0064372D01*
X0113500Y0066214D01*
X0113665Y0059549D02*
X0101000Y0072214D01*
X0094289Y0075932D02*
X0086571Y0068214D01*
X0083597Y0068214D01*
X0081170Y0070885D02*
X0079170Y0070885D01*
X0081170Y0070885D02*
X0084500Y0074214D01*
X0092000Y0080714D02*
X0092000Y0081735D01*
X0092600Y0082335D01*
X0092600Y0087114D01*
X0083500Y0096214D01*
X0083500Y0109303D01*
X0090000Y0112714D02*
X0091711Y0111003D01*
X0094037Y0111003D01*
X0095378Y0109662D01*
X0095378Y0107766D01*
X0094037Y0106425D01*
X0093089Y0108714D02*
X0093000Y0108714D01*
X0087000Y0102714D01*
X0087000Y0094977D01*
X0094289Y0087688D01*
X0094289Y0075932D01*
X0089743Y0082714D02*
X0091000Y0083972D01*
X0091000Y0085714D01*
X0075500Y0101214D01*
X0075500Y0109303D01*
X0067500Y0109303D02*
X0067500Y0105925D01*
X0088000Y0085425D01*
X0098289Y0092925D02*
X0098289Y0100162D01*
X0096948Y0101503D01*
X0095052Y0101503D01*
X0093763Y0100214D01*
X0091000Y0100214D01*
X0098289Y0092925D02*
X0127000Y0064214D01*
X0132000Y0064214D01*
X0151419Y0077795D02*
X0152443Y0077795D01*
X0152602Y0077636D01*
X0160078Y0077636D01*
X0163189Y0074525D01*
X0167000Y0074714D02*
X0161789Y0079925D01*
X0153550Y0079925D01*
X0131263Y0088214D02*
X0103252Y0116225D01*
X0101141Y0116225D01*
X0091651Y0125715D01*
X0062500Y0125715D01*
X0058000Y0121215D01*
X0058000Y0105503D01*
X0060289Y0104555D02*
X0058948Y0103214D01*
X0055000Y0103214D01*
X0046500Y0110714D02*
X0046500Y0114214D01*
X0046500Y0110714D02*
X0035500Y0099714D01*
X0048052Y0071603D02*
X0057311Y0071603D01*
X0058000Y0070914D01*
X0103500Y0103714D02*
X0104500Y0102714D01*
X0090000Y0112714D02*
X0090000Y0120714D01*
X0093500Y0113292D02*
X0097922Y0113292D01*
X0127500Y0083714D01*
X0131263Y0088214D02*
X0184500Y0088214D01*
X0145500Y0095714D02*
X0122198Y0119017D01*
X0116961Y0119017D01*
X0115263Y0120714D01*
X0103000Y0120714D01*
X0117500Y0049214D02*
X0116500Y0048214D01*
X0117500Y0049214D02*
X0131000Y0049214D01*
X0156781Y0030514D02*
X0165581Y0021714D01*
X0167500Y0021714D01*
D21*
X0155000Y0016214D02*
X0184500Y0016214D01*
X0192000Y0023714D01*
X0185300Y0031014D02*
X0181000Y0031014D01*
X0181000Y0034214D02*
X0174500Y0034214D01*
X0171000Y0030714D01*
X0168500Y0036214D02*
X0155000Y0036214D01*
X0168500Y0036214D02*
X0169700Y0037414D01*
X0181000Y0037414D01*
X0186500Y0032214D02*
X0186500Y0048214D01*
X0192000Y0053714D01*
X0177161Y0071214D02*
X0187089Y0081142D01*
X0187089Y0089287D01*
X0185072Y0091303D01*
X0179572Y0091303D01*
X0179500Y0091303D01*
X0142411Y0091303D01*
X0115089Y0118125D01*
X0101928Y0118125D01*
X0092438Y0127615D01*
X0043000Y0127615D01*
X0037506Y0122121D01*
X0037506Y0110949D01*
X0036686Y0110129D01*
X0027652Y0110129D01*
X0024067Y0113714D01*
X0022500Y0113714D01*
X0127500Y0122714D02*
X0136256Y0122714D01*
X0137495Y0123953D01*
X0146529Y0123953D01*
X0147349Y0123133D01*
X0147349Y0110949D01*
X0145500Y0109101D01*
X0145500Y0100714D01*
X0160000Y0071214D02*
X0177161Y0071214D01*
X0186500Y0032214D02*
X0185300Y0031014D01*
D22*
X0155000Y0036214D02*
X0155000Y0049214D01*
X0148500Y0055714D01*
X0147707Y0061603D02*
X0155812Y0053499D01*
X0158663Y0053499D01*
X0160062Y0054898D01*
X0160062Y0069277D01*
X0160000Y0071214D01*
X0147707Y0061603D02*
X0141010Y0061603D01*
X0139753Y0060346D01*
X0117631Y0060346D01*
X0125000Y0070214D02*
X0102881Y0092333D01*
X0102119Y0092333D01*
X0106500Y0092214D02*
X0109879Y0092214D01*
X0114379Y0087714D01*
X0118000Y0087714D01*
X0136104Y0108714D02*
X0123513Y0121306D01*
X0117909Y0121306D01*
X0086000Y0120714D02*
X0075532Y0120714D01*
X0065111Y0110293D01*
X0065111Y0106505D01*
X0062578Y0103972D01*
X0032169Y0117041D02*
X0032169Y0123045D01*
X0031500Y0123714D01*
X0022500Y0123714D01*
X0059500Y0045214D02*
X0064453Y0040262D01*
X0064453Y0027671D01*
X0050889Y0036042D02*
X0043184Y0043747D01*
X0039064Y0043747D01*
X0039031Y0043714D01*
X0022500Y0043714D01*
X0050889Y0036042D02*
X0050889Y0015325D01*
X0053000Y0013214D01*
X0082500Y0013214D01*
X0084138Y0014852D01*
X0084138Y0027671D01*
X0093980Y0027671D02*
X0093980Y0017734D01*
X0098000Y0013714D01*
X0128500Y0013714D01*
X0135000Y0020214D01*
X0135000Y0021214D01*
X0149000Y0021214D01*
X0154000Y0016214D01*
X0155000Y0016214D01*
X0135000Y0021214D02*
X0135000Y0027714D01*
X0132500Y0030214D01*
X0132500Y0034821D01*
X0132500Y0042214D01*
X0132500Y0034821D02*
X0132563Y0034758D01*
X0132000Y0034195D01*
D23*
X0083597Y0068214D03*
X0080119Y0068096D03*
M02*
