G75*
%MOIN*%
%OFA0B0*%
%FSLAX25Y25*%
%IPPOS*%
%LPD*%
%AMOC8*
5,1,8,0,0,1.08239X$1,22.5*
%
%ADD10R,0.10000X0.20000*%
%ADD11R,0.03937X0.04331*%
%ADD12R,0.05906X0.05118*%
%ADD13R,0.04331X0.03937*%
%ADD14C,0.00591*%
%ADD15C,0.01969*%
%ADD16R,0.09800X0.08800*%
%ADD17R,0.01772X0.09252*%
%ADD18R,0.05906X0.06102*%
%ADD19R,0.03543X0.03150*%
%ADD20R,0.02362X0.04724*%
%ADD21R,0.06693X0.09449*%
%ADD22R,0.05512X0.04331*%
%ADD23R,0.04331X0.05512*%
%ADD24R,0.03150X0.01378*%
%ADD25R,0.03199X0.04134*%
%ADD26R,0.01378X0.03150*%
%ADD27R,0.02165X0.04724*%
%ADD28R,0.04724X0.02165*%
%ADD29R,0.00984X0.03937*%
%ADD30R,0.03937X0.00984*%
%ADD31R,0.07874X0.07874*%
%ADD32R,0.02756X0.02756*%
%ADD33R,0.03150X0.03543*%
%ADD34R,0.01772X0.01181*%
%ADD35R,0.02953X0.00984*%
D10*
X0060198Y0035934D03*
X0120198Y0035934D03*
D11*
X0050352Y0019434D03*
X0057045Y0019434D03*
X0070198Y0060588D03*
X0070198Y0067281D03*
X0100198Y0067281D03*
X0100198Y0060588D03*
X0104198Y0089088D03*
X0104198Y0095781D03*
X0136852Y0101934D03*
X0143545Y0101934D03*
X0163198Y0087281D03*
X0163198Y0080588D03*
X0175698Y0086588D03*
X0175698Y0093281D03*
X0184698Y0093281D03*
X0184698Y0086588D03*
X0205698Y0088588D03*
X0213698Y0088588D03*
X0213698Y0095281D03*
X0205698Y0095281D03*
X0201198Y0106588D03*
X0201198Y0113281D03*
X0158198Y0123088D03*
X0150198Y0123088D03*
X0150198Y0129781D03*
X0158198Y0129781D03*
X0146198Y0084281D03*
X0146198Y0077588D03*
X0154698Y0056781D03*
X0154698Y0050088D03*
X0172198Y0047088D03*
X0172198Y0053781D03*
X0179352Y0060434D03*
X0186045Y0060434D03*
D12*
X0209198Y0104194D03*
X0209198Y0111675D03*
D13*
X0169045Y0095434D03*
X0162352Y0095434D03*
X0143545Y0110434D03*
X0136852Y0110434D03*
X0136852Y0120434D03*
X0143545Y0120434D03*
X0143545Y0128434D03*
X0136852Y0128434D03*
X0131545Y0128434D03*
X0124852Y0128434D03*
X0119545Y0128434D03*
X0112852Y0128434D03*
X0107545Y0128434D03*
X0100852Y0128434D03*
X0100852Y0120434D03*
X0094198Y0116781D03*
X0100852Y0112434D03*
X0094198Y0110088D03*
X0086198Y0110088D03*
X0078198Y0110088D03*
X0069698Y0114088D03*
X0078198Y0116781D03*
X0069698Y0120781D03*
X0086198Y0116781D03*
X0107545Y0120434D03*
X0107545Y0112434D03*
X0060198Y0106781D03*
X0052198Y0106781D03*
X0052198Y0100088D03*
X0060198Y0100088D03*
X0060198Y0094281D03*
X0052198Y0094281D03*
X0052198Y0087588D03*
X0060198Y0087588D03*
X0145198Y0042281D03*
X0145198Y0035588D03*
X0146698Y0050088D03*
X0146698Y0056781D03*
D14*
X0096372Y0081297D02*
X0096372Y0081887D01*
X0096372Y0081297D02*
X0094206Y0081297D01*
X0094206Y0081887D01*
X0096372Y0081887D01*
X0094206Y0081887D01*
X0096372Y0083265D02*
X0096372Y0083855D01*
X0096372Y0083265D02*
X0094206Y0083265D01*
X0094206Y0083855D01*
X0096372Y0083855D01*
X0094206Y0083855D01*
X0096372Y0085234D02*
X0096372Y0085824D01*
X0096372Y0085234D02*
X0094206Y0085234D01*
X0094206Y0085824D01*
X0096372Y0085824D01*
X0094206Y0085824D01*
X0096372Y0087202D02*
X0096372Y0087792D01*
X0096372Y0087202D02*
X0094206Y0087202D01*
X0094206Y0087792D01*
X0096372Y0087792D01*
X0094206Y0087792D01*
X0096372Y0089171D02*
X0096372Y0089761D01*
X0096372Y0089171D02*
X0094206Y0089171D01*
X0094206Y0089761D01*
X0096372Y0089761D01*
X0094206Y0089761D01*
X0096372Y0091139D02*
X0096372Y0091729D01*
X0096372Y0091139D02*
X0094206Y0091139D01*
X0094206Y0091729D01*
X0096372Y0091729D01*
X0094206Y0091729D01*
X0096372Y0093108D02*
X0096372Y0093698D01*
X0096372Y0093108D02*
X0094206Y0093108D01*
X0094206Y0093698D01*
X0096372Y0093698D01*
X0094206Y0093698D01*
X0096372Y0095076D02*
X0096372Y0095666D01*
X0096372Y0095076D02*
X0094206Y0095076D01*
X0094206Y0095666D01*
X0096372Y0095666D01*
X0094206Y0095666D01*
X0096372Y0097045D02*
X0096372Y0097635D01*
X0096372Y0097045D02*
X0094206Y0097045D01*
X0094206Y0097635D01*
X0096372Y0097635D01*
X0094206Y0097635D01*
X0096372Y0099013D02*
X0096372Y0099603D01*
X0096372Y0099013D02*
X0094206Y0099013D01*
X0094206Y0099603D01*
X0096372Y0099603D01*
X0094206Y0099603D01*
X0096372Y0100982D02*
X0096372Y0101572D01*
X0096372Y0100982D02*
X0094206Y0100982D01*
X0094206Y0101572D01*
X0096372Y0101572D01*
X0094206Y0101572D01*
X0092336Y0103442D02*
X0092336Y0105608D01*
X0092336Y0103442D02*
X0091746Y0103442D01*
X0091746Y0105608D01*
X0092336Y0105608D01*
X0092336Y0104032D02*
X0091746Y0104032D01*
X0091746Y0104622D02*
X0092336Y0104622D01*
X0092336Y0105212D02*
X0091746Y0105212D01*
X0090367Y0105608D02*
X0090367Y0103442D01*
X0089777Y0103442D01*
X0089777Y0105608D01*
X0090367Y0105608D01*
X0090367Y0104032D02*
X0089777Y0104032D01*
X0089777Y0104622D02*
X0090367Y0104622D01*
X0090367Y0105212D02*
X0089777Y0105212D01*
X0088399Y0105608D02*
X0088399Y0103442D01*
X0087809Y0103442D01*
X0087809Y0105608D01*
X0088399Y0105608D01*
X0088399Y0104032D02*
X0087809Y0104032D01*
X0087809Y0104622D02*
X0088399Y0104622D01*
X0088399Y0105212D02*
X0087809Y0105212D01*
X0086430Y0105608D02*
X0086430Y0103442D01*
X0085840Y0103442D01*
X0085840Y0105608D01*
X0086430Y0105608D01*
X0086430Y0104032D02*
X0085840Y0104032D01*
X0085840Y0104622D02*
X0086430Y0104622D01*
X0086430Y0105212D02*
X0085840Y0105212D01*
X0084462Y0105608D02*
X0084462Y0103442D01*
X0083872Y0103442D01*
X0083872Y0105608D01*
X0084462Y0105608D01*
X0084462Y0104032D02*
X0083872Y0104032D01*
X0083872Y0104622D02*
X0084462Y0104622D01*
X0084462Y0105212D02*
X0083872Y0105212D01*
X0082493Y0105608D02*
X0082493Y0103442D01*
X0081903Y0103442D01*
X0081903Y0105608D01*
X0082493Y0105608D01*
X0082493Y0104032D02*
X0081903Y0104032D01*
X0081903Y0104622D02*
X0082493Y0104622D01*
X0082493Y0105212D02*
X0081903Y0105212D01*
X0080525Y0105608D02*
X0080525Y0103442D01*
X0079935Y0103442D01*
X0079935Y0105608D01*
X0080525Y0105608D01*
X0080525Y0104032D02*
X0079935Y0104032D01*
X0079935Y0104622D02*
X0080525Y0104622D01*
X0080525Y0105212D02*
X0079935Y0105212D01*
X0078556Y0105608D02*
X0078556Y0103442D01*
X0077966Y0103442D01*
X0077966Y0105608D01*
X0078556Y0105608D01*
X0078556Y0104032D02*
X0077966Y0104032D01*
X0077966Y0104622D02*
X0078556Y0104622D01*
X0078556Y0105212D02*
X0077966Y0105212D01*
X0076588Y0105608D02*
X0076588Y0103442D01*
X0075998Y0103442D01*
X0075998Y0105608D01*
X0076588Y0105608D01*
X0076588Y0104032D02*
X0075998Y0104032D01*
X0075998Y0104622D02*
X0076588Y0104622D01*
X0076588Y0105212D02*
X0075998Y0105212D01*
X0074619Y0105608D02*
X0074619Y0103442D01*
X0074029Y0103442D01*
X0074029Y0105608D01*
X0074619Y0105608D01*
X0074619Y0104032D02*
X0074029Y0104032D01*
X0074029Y0104622D02*
X0074619Y0104622D01*
X0074619Y0105212D02*
X0074029Y0105212D01*
X0072651Y0105608D02*
X0072651Y0103442D01*
X0072061Y0103442D01*
X0072061Y0105608D01*
X0072651Y0105608D01*
X0072651Y0104032D02*
X0072061Y0104032D01*
X0072061Y0104622D02*
X0072651Y0104622D01*
X0072651Y0105212D02*
X0072061Y0105212D01*
X0070191Y0101572D02*
X0070191Y0100982D01*
X0068025Y0100982D01*
X0068025Y0101572D01*
X0070191Y0101572D01*
X0068025Y0101572D01*
X0070191Y0099603D02*
X0070191Y0099013D01*
X0068025Y0099013D01*
X0068025Y0099603D01*
X0070191Y0099603D01*
X0068025Y0099603D01*
X0070191Y0097635D02*
X0070191Y0097045D01*
X0068025Y0097045D01*
X0068025Y0097635D01*
X0070191Y0097635D01*
X0068025Y0097635D01*
X0070191Y0095666D02*
X0070191Y0095076D01*
X0068025Y0095076D01*
X0068025Y0095666D01*
X0070191Y0095666D01*
X0068025Y0095666D01*
X0070191Y0093698D02*
X0070191Y0093108D01*
X0068025Y0093108D01*
X0068025Y0093698D01*
X0070191Y0093698D01*
X0068025Y0093698D01*
X0070191Y0091729D02*
X0070191Y0091139D01*
X0068025Y0091139D01*
X0068025Y0091729D01*
X0070191Y0091729D01*
X0068025Y0091729D01*
X0070191Y0089761D02*
X0070191Y0089171D01*
X0068025Y0089171D01*
X0068025Y0089761D01*
X0070191Y0089761D01*
X0068025Y0089761D01*
X0070191Y0087792D02*
X0070191Y0087202D01*
X0068025Y0087202D01*
X0068025Y0087792D01*
X0070191Y0087792D01*
X0068025Y0087792D01*
X0070191Y0085824D02*
X0070191Y0085234D01*
X0068025Y0085234D01*
X0068025Y0085824D01*
X0070191Y0085824D01*
X0068025Y0085824D01*
X0070191Y0083855D02*
X0070191Y0083265D01*
X0068025Y0083265D01*
X0068025Y0083855D01*
X0070191Y0083855D01*
X0068025Y0083855D01*
X0070191Y0081887D02*
X0070191Y0081297D01*
X0068025Y0081297D01*
X0068025Y0081887D01*
X0070191Y0081887D01*
X0068025Y0081887D01*
X0072651Y0079427D02*
X0072651Y0077261D01*
X0072061Y0077261D01*
X0072061Y0079427D01*
X0072651Y0079427D01*
X0072651Y0077851D02*
X0072061Y0077851D01*
X0072061Y0078441D02*
X0072651Y0078441D01*
X0072651Y0079031D02*
X0072061Y0079031D01*
X0074619Y0079427D02*
X0074619Y0077261D01*
X0074029Y0077261D01*
X0074029Y0079427D01*
X0074619Y0079427D01*
X0074619Y0077851D02*
X0074029Y0077851D01*
X0074029Y0078441D02*
X0074619Y0078441D01*
X0074619Y0079031D02*
X0074029Y0079031D01*
X0076588Y0079427D02*
X0076588Y0077261D01*
X0075998Y0077261D01*
X0075998Y0079427D01*
X0076588Y0079427D01*
X0076588Y0077851D02*
X0075998Y0077851D01*
X0075998Y0078441D02*
X0076588Y0078441D01*
X0076588Y0079031D02*
X0075998Y0079031D01*
X0078556Y0079427D02*
X0078556Y0077261D01*
X0077966Y0077261D01*
X0077966Y0079427D01*
X0078556Y0079427D01*
X0078556Y0077851D02*
X0077966Y0077851D01*
X0077966Y0078441D02*
X0078556Y0078441D01*
X0078556Y0079031D02*
X0077966Y0079031D01*
X0080525Y0079427D02*
X0080525Y0077261D01*
X0079935Y0077261D01*
X0079935Y0079427D01*
X0080525Y0079427D01*
X0080525Y0077851D02*
X0079935Y0077851D01*
X0079935Y0078441D02*
X0080525Y0078441D01*
X0080525Y0079031D02*
X0079935Y0079031D01*
X0082493Y0079427D02*
X0082493Y0077261D01*
X0081903Y0077261D01*
X0081903Y0079427D01*
X0082493Y0079427D01*
X0082493Y0077851D02*
X0081903Y0077851D01*
X0081903Y0078441D02*
X0082493Y0078441D01*
X0082493Y0079031D02*
X0081903Y0079031D01*
X0084462Y0079427D02*
X0084462Y0077261D01*
X0083872Y0077261D01*
X0083872Y0079427D01*
X0084462Y0079427D01*
X0084462Y0077851D02*
X0083872Y0077851D01*
X0083872Y0078441D02*
X0084462Y0078441D01*
X0084462Y0079031D02*
X0083872Y0079031D01*
X0086430Y0079427D02*
X0086430Y0077261D01*
X0085840Y0077261D01*
X0085840Y0079427D01*
X0086430Y0079427D01*
X0086430Y0077851D02*
X0085840Y0077851D01*
X0085840Y0078441D02*
X0086430Y0078441D01*
X0086430Y0079031D02*
X0085840Y0079031D01*
X0088399Y0079427D02*
X0088399Y0077261D01*
X0087809Y0077261D01*
X0087809Y0079427D01*
X0088399Y0079427D01*
X0088399Y0077851D02*
X0087809Y0077851D01*
X0087809Y0078441D02*
X0088399Y0078441D01*
X0088399Y0079031D02*
X0087809Y0079031D01*
X0090367Y0079427D02*
X0090367Y0077261D01*
X0089777Y0077261D01*
X0089777Y0079427D01*
X0090367Y0079427D01*
X0090367Y0077851D02*
X0089777Y0077851D01*
X0089777Y0078441D02*
X0090367Y0078441D01*
X0090367Y0079031D02*
X0089777Y0079031D01*
X0092336Y0079427D02*
X0092336Y0077261D01*
X0091746Y0077261D01*
X0091746Y0079427D01*
X0092336Y0079427D01*
X0092336Y0077851D02*
X0091746Y0077851D01*
X0091746Y0078441D02*
X0092336Y0078441D01*
X0092336Y0079031D02*
X0091746Y0079031D01*
D15*
X0091056Y0082576D02*
X0091056Y0100292D01*
X0091056Y0082576D02*
X0073340Y0082576D01*
X0073340Y0100292D01*
X0091056Y0100292D01*
X0091056Y0084544D02*
X0073340Y0084544D01*
X0073340Y0086512D02*
X0091056Y0086512D01*
X0091056Y0088480D02*
X0073340Y0088480D01*
X0073340Y0090448D02*
X0091056Y0090448D01*
X0091056Y0092416D02*
X0073340Y0092416D01*
X0073340Y0094384D02*
X0091056Y0094384D01*
X0091056Y0096352D02*
X0073340Y0096352D01*
X0073340Y0098320D02*
X0091056Y0098320D01*
X0091056Y0100288D02*
X0073340Y0100288D01*
D16*
X0171698Y0060934D03*
D17*
X0176080Y0115434D03*
X0178639Y0115434D03*
X0181198Y0115434D03*
X0183757Y0115434D03*
X0186316Y0115434D03*
D18*
X0185135Y0127934D03*
X0177261Y0127934D03*
X0169190Y0127934D03*
X0193206Y0127934D03*
D19*
X0178261Y0054175D03*
X0186529Y0050434D03*
X0178261Y0046694D03*
X0186135Y0034675D03*
X0177867Y0030934D03*
X0186135Y0027194D03*
D20*
X0135698Y0056911D03*
X0130698Y0056911D03*
X0125698Y0056911D03*
X0120698Y0056911D03*
X0120698Y0078958D03*
X0125698Y0078958D03*
X0130698Y0078958D03*
X0135698Y0078958D03*
D21*
X0092482Y0064434D03*
X0077915Y0064434D03*
D22*
X0079793Y0123285D03*
X0079793Y0129584D03*
X0091604Y0129584D03*
X0091604Y0123285D03*
D23*
X0150048Y0115840D03*
X0156348Y0115840D03*
X0156348Y0104029D03*
X0150048Y0104029D03*
D24*
X0147458Y0072493D03*
X0147458Y0069934D03*
X0147458Y0067375D03*
X0154938Y0067375D03*
X0154938Y0072493D03*
X0178458Y0022493D03*
X0178458Y0019934D03*
X0178458Y0017375D03*
X0185938Y0017375D03*
X0185938Y0022493D03*
D25*
X0062710Y0053765D03*
X0051686Y0053765D03*
X0051686Y0070104D03*
X0062710Y0070104D03*
X0062710Y0113265D03*
X0051686Y0113265D03*
X0051686Y0129604D03*
X0062710Y0129604D03*
D26*
X0152139Y0085175D03*
X0157257Y0085175D03*
X0157257Y0077694D03*
X0154698Y0077694D03*
X0152139Y0077694D03*
X0161139Y0056175D03*
X0166257Y0056175D03*
X0166257Y0048694D03*
X0163698Y0048694D03*
X0161139Y0048694D03*
D27*
X0191458Y0086816D03*
X0195198Y0086816D03*
X0198938Y0086816D03*
X0198938Y0097052D03*
X0195198Y0097052D03*
X0191458Y0097052D03*
D28*
X0185816Y0074675D03*
X0185816Y0070934D03*
X0185816Y0067194D03*
X0175580Y0067194D03*
X0175580Y0070934D03*
X0175580Y0074675D03*
D29*
X0126261Y0105934D03*
X0124293Y0105934D03*
X0122324Y0105934D03*
X0120356Y0105934D03*
X0118387Y0105934D03*
X0118387Y0121682D03*
X0120356Y0121682D03*
X0122324Y0121682D03*
X0124293Y0121682D03*
X0126261Y0121682D03*
D30*
X0130198Y0117745D03*
X0130198Y0115777D03*
X0130198Y0113808D03*
X0130198Y0111840D03*
X0130198Y0109871D03*
X0114450Y0109871D03*
X0114450Y0111840D03*
X0114450Y0113808D03*
X0114450Y0115777D03*
X0114450Y0117745D03*
D31*
X0122324Y0113808D03*
D32*
X0174639Y0097793D03*
X0179757Y0097793D03*
X0177198Y0105076D03*
D33*
X0169438Y0101497D03*
X0161958Y0101497D03*
X0165698Y0109765D03*
X0163198Y0075765D03*
X0159458Y0067497D03*
X0166938Y0067497D03*
D34*
X0138356Y0090466D03*
X0138356Y0092434D03*
X0138356Y0094403D03*
X0133041Y0094403D03*
X0133041Y0092434D03*
X0133041Y0090466D03*
D35*
X0062800Y0079887D03*
X0062800Y0077919D03*
X0062800Y0075950D03*
X0062800Y0073982D03*
X0050596Y0073982D03*
X0050596Y0075950D03*
X0050596Y0077919D03*
X0050596Y0079887D03*
M02*
