%
M48
M72
T01C0.01181
T02C0.01378
T03C0.03543
T04C0.04000
T05C0.04016
T06C0.04331
T07C0.04724
T08C0.06299
T09C0.09843
%
T01
X43198Y25934
X55198Y48934
X54976Y56256
X59198Y56434
X60419Y59434
X58291Y61841
X54198Y63644
X45198Y60934
X42297Y63335
X47773Y71577
X45198Y72934
X43474Y80158
X59198Y75422
X67698Y71577
X68698Y77612
X65741Y83740
X65698Y88356
X65698Y92934
X46198Y103434
X65698Y106434
X68698Y109223
X73276Y107692
X78198Y113023
X86198Y113023
X94198Y113023
X104198Y117012
X100698Y124434
X96698Y124434
X113698Y124434
X128107Y125026
X107198Y108434
X101698Y103934
X104198Y99934
X113317Y95553
X117198Y95934
X119228Y93644
X121698Y91434
X113247Y88885
X102698Y84434
X100441Y86434
X98698Y89145
X101198Y79645
X99198Y77625
X95198Y77934
X79698Y73434
X105198Y59243
X109198Y59434
X114817Y57053
X115198Y64934
X124198Y69934
X128231Y64025
X142698Y67934
X135698Y73934
X135698Y83547
X137889Y85434
X139619Y87638
X156198Y91434
X172198Y89934
X188198Y79934
X195198Y79934
X195198Y91934
X173887Y78245
X168027Y71434
X159198Y59434
X140698Y52934
X139342Y46578
X127198Y48934
X127198Y51934
X139198Y30434
X143198Y30434
X178198Y25434
X191698Y30925
X181698Y34434
X112198Y73934
X74198Y53434
X70198Y48934
X66000Y53934
X122198Y100434
X57198Y117934
T02
X98409Y116434
X114676Y107412
X127461Y102197
X134934Y106677
X148198Y96434
X141830Y93303
X156459Y94723
X153013Y108645
X161698Y109934
X179198Y101434
X184698Y82434
X177600Y78197
X180330Y72303
X167059Y60934
X162948Y67184
X142698Y74314
X125698Y74434
X118198Y83934
X127198Y95345
X132080Y120316
X94295Y71934
X90817Y71816
T03
X171356Y117304
X191041Y117304
T04
X202698Y77434
X202698Y67434
X202698Y57434
X202698Y47434
X202698Y37434
X202698Y27434
X33198Y37434
X33198Y47434
X33198Y57434
X33198Y67434
X33198Y77434
X33198Y87434
X33198Y97434
X33198Y107434
X33198Y117434
X33198Y127434
T05
X155698Y39934
X165698Y39934
X165698Y29934
X155698Y29934
X155698Y19934
X165698Y19934
T06
X51529Y43202
T07
X167419Y127934
X194978Y127934
T08
X134600Y43202
T09
X28698Y22434
X209198Y124934
M30
