G75*
%MOIN*%
%OFA0B0*%
%FSLAX25Y25*%
%IPPOS*%
%LPD*%
%AMOC8*
5,1,8,0,0,1.08239X$1,22.5*
%
%ADD10C,0.10343*%
%ADD11C,0.06900*%
%ADD12C,0.06500*%
%ADD13R,0.06500X0.06500*%
%ADD14R,0.05500X0.03000*%
%ADD15C,0.05815*%
%ADD16C,0.07587*%
%ADD17R,0.08374X0.11524*%
%ADD18R,0.03256X0.16248*%
%ADD19R,0.05224X0.16248*%
%ADD20C,0.04831*%
%ADD21C,0.06799*%
%ADD22C,0.02681*%
%ADD23C,0.02878*%
D10*
X0028698Y0022434D03*
X0209198Y0124934D03*
D11*
X0165698Y0039934D03*
X0155698Y0039934D03*
X0155698Y0029934D03*
X0165698Y0029934D03*
X0165698Y0019934D03*
X0155698Y0019934D03*
D12*
X0033198Y0037434D03*
X0033198Y0047434D03*
X0033198Y0057434D03*
X0033198Y0067434D03*
X0033198Y0077434D03*
X0033198Y0087434D03*
X0033198Y0097434D03*
X0033198Y0107434D03*
X0033198Y0117434D03*
X0033198Y0127434D03*
D13*
X0202698Y0077434D03*
X0202698Y0067434D03*
X0202698Y0057434D03*
X0202698Y0047434D03*
X0202698Y0037434D03*
X0202698Y0027434D03*
D14*
X0191698Y0034734D03*
X0191698Y0037934D03*
X0191698Y0041134D03*
X0158698Y0082834D03*
X0158698Y0086034D03*
D15*
X0171356Y0117304D03*
X0191041Y0117304D03*
D16*
X0194978Y0127934D03*
X0167419Y0127934D03*
D17*
X0152710Y0120761D03*
X0042867Y0120761D03*
X0042474Y0038871D03*
X0143261Y0038478D03*
D18*
X0059009Y0031391D03*
X0053891Y0031391D03*
X0049167Y0031391D03*
D19*
X0065308Y0031391D03*
X0075151Y0031391D03*
X0084993Y0031391D03*
X0094836Y0031391D03*
X0104678Y0031391D03*
X0114521Y0031391D03*
X0124363Y0031391D03*
X0134206Y0031391D03*
D20*
X0051529Y0043202D03*
D21*
X0134600Y0043202D03*
D22*
X0139342Y0046578D03*
X0140698Y0052934D03*
X0127198Y0051934D03*
X0127198Y0048934D03*
X0114817Y0057053D03*
X0109198Y0059434D03*
X0105198Y0059243D03*
X0115198Y0064934D03*
X0124198Y0069934D03*
X0128231Y0064025D03*
X0142698Y0067934D03*
X0135698Y0073934D03*
X0135698Y0083547D03*
X0137889Y0085434D03*
X0139619Y0087638D03*
X0156198Y0091434D03*
X0172198Y0089934D03*
X0188198Y0079934D03*
X0195198Y0079934D03*
X0195198Y0091934D03*
X0173887Y0078245D03*
X0168027Y0071434D03*
X0159198Y0059434D03*
X0181698Y0034434D03*
X0191698Y0030925D03*
X0178198Y0025434D03*
X0143198Y0030434D03*
X0139198Y0030434D03*
X0074198Y0053434D03*
X0070198Y0048934D03*
X0066000Y0053934D03*
X0059198Y0056434D03*
X0060419Y0059434D03*
X0058291Y0061841D03*
X0054198Y0063644D03*
X0045198Y0060934D03*
X0042297Y0063335D03*
X0047773Y0071577D03*
X0045198Y0072934D03*
X0043474Y0080158D03*
X0059198Y0075422D03*
X0067698Y0071577D03*
X0068698Y0077612D03*
X0065741Y0083740D03*
X0065698Y0088356D03*
X0065698Y0092934D03*
X0046198Y0103434D03*
X0065698Y0106434D03*
X0068698Y0109223D03*
X0073276Y0107692D03*
X0078198Y0113023D03*
X0086198Y0113023D03*
X0094198Y0113023D03*
X0104198Y0117012D03*
X0100698Y0124434D03*
X0096698Y0124434D03*
X0113698Y0124434D03*
X0128107Y0125026D03*
X0107198Y0108434D03*
X0101698Y0103934D03*
X0104198Y0099934D03*
X0113317Y0095553D03*
X0117198Y0095934D03*
X0119228Y0093644D03*
X0121698Y0091434D03*
X0113247Y0088885D03*
X0102698Y0084434D03*
X0100441Y0086434D03*
X0098698Y0089145D03*
X0101198Y0079645D03*
X0099198Y0077625D03*
X0095198Y0077934D03*
X0079698Y0073434D03*
X0054976Y0056256D03*
X0055198Y0048934D03*
X0043198Y0025934D03*
X0112198Y0073934D03*
X0122198Y0100434D03*
X0057198Y0117934D03*
D23*
X0098409Y0116434D03*
X0114676Y0107412D03*
X0127461Y0102197D03*
X0134934Y0106677D03*
X0148198Y0096434D03*
X0141830Y0093303D03*
X0156459Y0094723D03*
X0153013Y0108645D03*
X0161698Y0109934D03*
X0179198Y0101434D03*
X0184698Y0082434D03*
X0177600Y0078197D03*
X0180330Y0072303D03*
X0167059Y0060934D03*
X0162948Y0067184D03*
X0142698Y0074314D03*
X0125698Y0074434D03*
X0118198Y0083934D03*
X0127198Y0095345D03*
X0132080Y0120316D03*
X0094295Y0071934D03*
X0090817Y0071816D03*
M02*
