G75*
%MOIN*%
%OFA0B0*%
%FSLAX25Y25*%
%IPPOS*%
%LPD*%
%AMOC8*
5,1,8,0,0,1.08239X$1,22.5*
%
%ADD10C,0.00500*%
%ADD11C,0.00400*%
%ADD12R,0.03740X0.01969*%
%ADD13R,0.05709X0.02953*%
%ADD14R,0.01969X0.03740*%
%ADD15C,0.00600*%
%ADD16R,0.01600X0.03400*%
%ADD17C,0.01000*%
%ADD18R,0.00984X0.01969*%
%ADD19R,0.01969X0.00984*%
%ADD20R,0.02000X0.02000*%
%ADD21C,0.00800*%
%ADD22R,0.03400X0.01600*%
%ADD23R,0.02000X0.04050*%
%ADD24R,0.02000X0.04000*%
%ADD25C,0.00010*%
%ADD26R,0.02067X0.01181*%
%ADD27R,0.02000X0.03500*%
%ADD28R,0.01181X0.02067*%
%ADD29R,0.03500X0.02000*%
%ADD30R,0.01969X0.02559*%
%ADD31R,0.02559X0.01969*%
%ADD32R,0.02500X0.01000*%
%ADD33C,0.00787*%
%ADD34R,0.04134X0.04134*%
%ADD35R,0.03937X0.03740*%
%ADD36R,0.01722X0.00984*%
D10*
X0053774Y0048084D02*
X0053774Y0050784D01*
X0054524Y0050784D01*
X0054578Y0050782D01*
X0054631Y0050776D01*
X0054683Y0050767D01*
X0054735Y0050754D01*
X0054786Y0050737D01*
X0054836Y0050716D01*
X0054883Y0050692D01*
X0054929Y0050665D01*
X0054973Y0050634D01*
X0055015Y0050601D01*
X0055054Y0050564D01*
X0055091Y0050525D01*
X0055124Y0050483D01*
X0055155Y0050439D01*
X0055182Y0050393D01*
X0055206Y0050346D01*
X0055227Y0050296D01*
X0055244Y0050245D01*
X0055257Y0050193D01*
X0055266Y0050141D01*
X0055272Y0050088D01*
X0055274Y0050034D01*
X0055272Y0049980D01*
X0055266Y0049927D01*
X0055257Y0049875D01*
X0055244Y0049823D01*
X0055227Y0049772D01*
X0055206Y0049722D01*
X0055182Y0049675D01*
X0055155Y0049629D01*
X0055124Y0049585D01*
X0055091Y0049543D01*
X0055054Y0049504D01*
X0055015Y0049467D01*
X0054973Y0049434D01*
X0054929Y0049403D01*
X0054883Y0049376D01*
X0054836Y0049352D01*
X0054786Y0049331D01*
X0054735Y0049314D01*
X0054683Y0049301D01*
X0054631Y0049292D01*
X0054578Y0049286D01*
X0054524Y0049284D01*
X0053774Y0049284D01*
X0054674Y0049284D02*
X0055274Y0048084D01*
X0057730Y0049209D02*
X0057771Y0049182D01*
X0057810Y0049153D01*
X0057846Y0049120D01*
X0057879Y0049085D01*
X0057910Y0049047D01*
X0057937Y0049007D01*
X0057961Y0048965D01*
X0057982Y0048921D01*
X0057999Y0048875D01*
X0058013Y0048829D01*
X0058022Y0048781D01*
X0058028Y0048733D01*
X0058030Y0048684D01*
X0058028Y0048637D01*
X0058023Y0048590D01*
X0058013Y0048544D01*
X0058001Y0048499D01*
X0057984Y0048454D01*
X0057965Y0048412D01*
X0057942Y0048371D01*
X0057915Y0048331D01*
X0057886Y0048294D01*
X0057854Y0048260D01*
X0057820Y0048228D01*
X0057783Y0048199D01*
X0057743Y0048172D01*
X0057702Y0048149D01*
X0057660Y0048130D01*
X0057615Y0048113D01*
X0057570Y0048101D01*
X0057524Y0048091D01*
X0057477Y0048086D01*
X0057430Y0048084D01*
X0057730Y0049209D02*
X0056905Y0049659D01*
X0057205Y0050784D02*
X0057271Y0050782D01*
X0057336Y0050776D01*
X0057401Y0050767D01*
X0057466Y0050753D01*
X0057529Y0050736D01*
X0057592Y0050715D01*
X0057653Y0050691D01*
X0057712Y0050663D01*
X0057770Y0050632D01*
X0057826Y0050597D01*
X0057880Y0050559D01*
X0056906Y0049659D02*
X0056865Y0049686D01*
X0056826Y0049715D01*
X0056790Y0049748D01*
X0056757Y0049783D01*
X0056726Y0049821D01*
X0056699Y0049861D01*
X0056675Y0049903D01*
X0056654Y0049947D01*
X0056637Y0049993D01*
X0056623Y0050039D01*
X0056614Y0050087D01*
X0056608Y0050135D01*
X0056606Y0050184D01*
X0056605Y0050184D02*
X0056607Y0050231D01*
X0056612Y0050278D01*
X0056622Y0050324D01*
X0056634Y0050369D01*
X0056651Y0050414D01*
X0056670Y0050456D01*
X0056693Y0050497D01*
X0056720Y0050537D01*
X0056749Y0050574D01*
X0056781Y0050608D01*
X0056815Y0050640D01*
X0056852Y0050669D01*
X0056892Y0050696D01*
X0056933Y0050719D01*
X0056975Y0050738D01*
X0057020Y0050755D01*
X0057065Y0050767D01*
X0057111Y0050777D01*
X0057158Y0050782D01*
X0057205Y0050784D01*
X0056530Y0048460D02*
X0056579Y0048414D01*
X0056629Y0048370D01*
X0056682Y0048329D01*
X0056737Y0048292D01*
X0056793Y0048257D01*
X0056852Y0048225D01*
X0056912Y0048196D01*
X0056974Y0048170D01*
X0057036Y0048148D01*
X0057100Y0048129D01*
X0057165Y0048113D01*
X0057231Y0048101D01*
X0057297Y0048092D01*
X0057363Y0048087D01*
X0057430Y0048085D01*
X0059872Y0048084D02*
X0059872Y0050784D01*
X0059122Y0050784D02*
X0060622Y0050784D01*
X0063497Y0052879D02*
X0063497Y0070989D01*
X0050899Y0070989D01*
X0050899Y0052879D01*
X0063497Y0052879D01*
X0075356Y0058135D02*
X0095041Y0058135D01*
X0095041Y0070734D01*
X0075356Y0070734D01*
X0075356Y0058135D01*
X0071799Y0062533D02*
X0071799Y0065336D01*
X0068648Y0065336D02*
X0068648Y0062533D01*
X0098597Y0062533D02*
X0098597Y0065336D01*
X0101748Y0065336D02*
X0101748Y0062533D01*
X0133139Y0089088D02*
X0138257Y0089088D01*
X0138257Y0095781D01*
X0133139Y0095781D01*
X0133139Y0089088D01*
X0138698Y0087934D02*
X0138700Y0087978D01*
X0138706Y0088022D01*
X0138716Y0088065D01*
X0138729Y0088107D01*
X0138746Y0088148D01*
X0138767Y0088187D01*
X0138791Y0088224D01*
X0138818Y0088259D01*
X0138848Y0088291D01*
X0138881Y0088321D01*
X0138917Y0088347D01*
X0138954Y0088371D01*
X0138994Y0088390D01*
X0139035Y0088407D01*
X0139078Y0088419D01*
X0139121Y0088428D01*
X0139165Y0088433D01*
X0139209Y0088434D01*
X0139253Y0088431D01*
X0139297Y0088424D01*
X0139340Y0088413D01*
X0139382Y0088399D01*
X0139422Y0088381D01*
X0139461Y0088359D01*
X0139497Y0088335D01*
X0139531Y0088307D01*
X0139563Y0088276D01*
X0139592Y0088242D01*
X0139618Y0088206D01*
X0139640Y0088168D01*
X0139659Y0088128D01*
X0139674Y0088086D01*
X0139686Y0088044D01*
X0139694Y0088000D01*
X0139698Y0087956D01*
X0139698Y0087912D01*
X0139694Y0087868D01*
X0139686Y0087824D01*
X0139674Y0087782D01*
X0139659Y0087740D01*
X0139640Y0087700D01*
X0139618Y0087662D01*
X0139592Y0087626D01*
X0139563Y0087592D01*
X0139531Y0087561D01*
X0139497Y0087533D01*
X0139461Y0087509D01*
X0139422Y0087487D01*
X0139382Y0087469D01*
X0139340Y0087455D01*
X0139297Y0087444D01*
X0139253Y0087437D01*
X0139209Y0087434D01*
X0139165Y0087435D01*
X0139121Y0087440D01*
X0139078Y0087449D01*
X0139035Y0087461D01*
X0138994Y0087478D01*
X0138954Y0087497D01*
X0138917Y0087521D01*
X0138881Y0087547D01*
X0138848Y0087577D01*
X0138818Y0087609D01*
X0138791Y0087644D01*
X0138767Y0087681D01*
X0138746Y0087720D01*
X0138729Y0087761D01*
X0138716Y0087803D01*
X0138706Y0087846D01*
X0138700Y0087890D01*
X0138698Y0087934D01*
X0149322Y0097584D02*
X0150222Y0100284D01*
X0151122Y0097584D01*
X0150897Y0098259D02*
X0149547Y0098259D01*
X0152448Y0098334D02*
X0152448Y0100284D01*
X0153948Y0100284D02*
X0153948Y0098334D01*
X0153946Y0098280D01*
X0153940Y0098227D01*
X0153931Y0098175D01*
X0153918Y0098123D01*
X0153901Y0098072D01*
X0153880Y0098022D01*
X0153856Y0097975D01*
X0153829Y0097929D01*
X0153798Y0097885D01*
X0153765Y0097843D01*
X0153728Y0097804D01*
X0153689Y0097767D01*
X0153647Y0097734D01*
X0153603Y0097703D01*
X0153557Y0097676D01*
X0153510Y0097652D01*
X0153460Y0097631D01*
X0153409Y0097614D01*
X0153357Y0097601D01*
X0153305Y0097592D01*
X0153252Y0097586D01*
X0153198Y0097584D01*
X0153144Y0097586D01*
X0153091Y0097592D01*
X0153039Y0097601D01*
X0152987Y0097614D01*
X0152936Y0097631D01*
X0152886Y0097652D01*
X0152839Y0097676D01*
X0152793Y0097703D01*
X0152749Y0097734D01*
X0152707Y0097767D01*
X0152668Y0097804D01*
X0152631Y0097843D01*
X0152598Y0097885D01*
X0152567Y0097929D01*
X0152540Y0097975D01*
X0152516Y0098022D01*
X0152495Y0098072D01*
X0152478Y0098123D01*
X0152465Y0098175D01*
X0152456Y0098227D01*
X0152450Y0098280D01*
X0152448Y0098334D01*
X0155274Y0097584D02*
X0157074Y0100284D01*
X0155274Y0100284D02*
X0157074Y0097584D01*
X0158710Y0103635D02*
X0151198Y0103635D01*
X0147698Y0106934D01*
X0147686Y0103635D02*
X0147686Y0116234D01*
X0158710Y0116234D01*
X0158710Y0103635D01*
X0151198Y0103635D02*
X0147686Y0103635D01*
X0130198Y0105934D02*
X0130198Y0107903D01*
X0130198Y0105934D02*
X0128230Y0105934D01*
X0116419Y0105934D02*
X0114450Y0105934D01*
X0114450Y0107903D01*
X0105600Y0118834D02*
X0102796Y0118834D01*
X0102796Y0121984D02*
X0105600Y0121984D01*
X0114450Y0121682D02*
X0114450Y0119714D01*
X0114450Y0121682D02*
X0116419Y0121682D01*
X0126796Y0126834D02*
X0129600Y0126834D01*
X0129600Y0129984D02*
X0126796Y0129984D01*
X0128230Y0121682D02*
X0130198Y0121682D01*
X0130198Y0119714D01*
X0148648Y0125033D02*
X0148648Y0127836D01*
X0151799Y0127836D02*
X0151799Y0125033D01*
X0156648Y0125033D02*
X0156648Y0127836D01*
X0159799Y0127836D02*
X0159799Y0125033D01*
X0167419Y0123013D02*
X0167419Y0117108D01*
X0167419Y0116714D02*
X0194978Y0116714D01*
X0194978Y0117108D02*
X0194978Y0123013D01*
X0194978Y0132856D02*
X0194978Y0136202D01*
X0194978Y0136399D01*
X0193402Y0136202D02*
X0193404Y0136312D01*
X0193410Y0136422D01*
X0193419Y0136531D01*
X0193433Y0136640D01*
X0193450Y0136749D01*
X0193471Y0136857D01*
X0193496Y0136964D01*
X0193524Y0137070D01*
X0193556Y0137175D01*
X0193592Y0137279D01*
X0193631Y0137382D01*
X0193674Y0137483D01*
X0193721Y0137583D01*
X0193771Y0137681D01*
X0193824Y0137777D01*
X0193881Y0137871D01*
X0193941Y0137963D01*
X0194004Y0138054D01*
X0194070Y0138141D01*
X0194139Y0138227D01*
X0194211Y0138310D01*
X0194286Y0138390D01*
X0194364Y0138468D01*
X0194444Y0138543D01*
X0194527Y0138615D01*
X0194613Y0138684D01*
X0194700Y0138750D01*
X0194791Y0138813D01*
X0194883Y0138873D01*
X0194977Y0138930D01*
X0195073Y0138983D01*
X0195171Y0139033D01*
X0195271Y0139080D01*
X0195372Y0139123D01*
X0195475Y0139162D01*
X0195579Y0139198D01*
X0195684Y0139230D01*
X0195790Y0139258D01*
X0195897Y0139283D01*
X0196005Y0139304D01*
X0196114Y0139321D01*
X0196223Y0139335D01*
X0196332Y0139344D01*
X0196442Y0139350D01*
X0196552Y0139352D01*
X0196946Y0138171D01*
X0196860Y0138169D01*
X0196774Y0138164D01*
X0196689Y0138154D01*
X0196604Y0138141D01*
X0196520Y0138124D01*
X0196436Y0138104D01*
X0196354Y0138080D01*
X0196273Y0138052D01*
X0196192Y0138021D01*
X0196114Y0137987D01*
X0196037Y0137949D01*
X0195962Y0137907D01*
X0195888Y0137863D01*
X0195817Y0137815D01*
X0195747Y0137764D01*
X0195680Y0137710D01*
X0195616Y0137654D01*
X0195554Y0137594D01*
X0195494Y0137532D01*
X0195438Y0137468D01*
X0195384Y0137401D01*
X0195333Y0137331D01*
X0195285Y0137260D01*
X0195241Y0137187D01*
X0195199Y0137111D01*
X0195161Y0137034D01*
X0195127Y0136956D01*
X0195096Y0136875D01*
X0195068Y0136794D01*
X0195044Y0136712D01*
X0195024Y0136628D01*
X0195007Y0136544D01*
X0194994Y0136459D01*
X0194984Y0136374D01*
X0194979Y0136288D01*
X0194977Y0136202D01*
X0193403Y0136202D02*
X0193403Y0135021D01*
X0192222Y0135021D01*
X0192220Y0135098D01*
X0192214Y0135175D01*
X0192205Y0135252D01*
X0192192Y0135328D01*
X0192175Y0135404D01*
X0192154Y0135478D01*
X0192130Y0135552D01*
X0192102Y0135624D01*
X0192071Y0135694D01*
X0192036Y0135763D01*
X0191998Y0135831D01*
X0191957Y0135896D01*
X0191912Y0135959D01*
X0191864Y0136020D01*
X0191814Y0136079D01*
X0191761Y0136135D01*
X0191705Y0136188D01*
X0191646Y0136238D01*
X0191585Y0136286D01*
X0191522Y0136331D01*
X0191457Y0136372D01*
X0191389Y0136410D01*
X0191320Y0136445D01*
X0191250Y0136476D01*
X0191178Y0136504D01*
X0191104Y0136528D01*
X0191030Y0136549D01*
X0190954Y0136566D01*
X0190878Y0136579D01*
X0190801Y0136588D01*
X0190724Y0136594D01*
X0190647Y0136596D01*
X0171749Y0136596D01*
X0171672Y0136594D01*
X0171595Y0136588D01*
X0171518Y0136579D01*
X0171442Y0136566D01*
X0171366Y0136549D01*
X0171292Y0136528D01*
X0171218Y0136504D01*
X0171146Y0136476D01*
X0171076Y0136445D01*
X0171007Y0136410D01*
X0170939Y0136372D01*
X0170874Y0136331D01*
X0170811Y0136286D01*
X0170750Y0136238D01*
X0170691Y0136188D01*
X0170635Y0136135D01*
X0170582Y0136079D01*
X0170532Y0136020D01*
X0170484Y0135959D01*
X0170439Y0135896D01*
X0170398Y0135831D01*
X0170360Y0135763D01*
X0170325Y0135694D01*
X0170294Y0135624D01*
X0170266Y0135552D01*
X0170242Y0135478D01*
X0170221Y0135404D01*
X0170204Y0135328D01*
X0170191Y0135252D01*
X0170182Y0135175D01*
X0170176Y0135098D01*
X0170174Y0135021D01*
X0168993Y0135021D01*
X0168993Y0136202D01*
X0167419Y0136202D02*
X0167419Y0136399D01*
X0167419Y0136202D02*
X0167419Y0132856D01*
X0163482Y0133643D02*
X0201867Y0133643D01*
X0202748Y0111336D02*
X0202748Y0108533D01*
X0199597Y0108533D02*
X0199597Y0111336D01*
X0206600Y0109434D02*
X0206600Y0106434D01*
X0211796Y0106533D02*
X0211796Y0109434D01*
X0186248Y0091336D02*
X0186248Y0088533D01*
X0183097Y0088533D02*
X0183097Y0091336D01*
X0164477Y0061684D02*
X0163277Y0060184D01*
X0163877Y0059584D02*
X0163923Y0059586D01*
X0163968Y0059592D01*
X0164013Y0059601D01*
X0164057Y0059614D01*
X0164100Y0059631D01*
X0164141Y0059651D01*
X0164181Y0059674D01*
X0164218Y0059701D01*
X0164253Y0059731D01*
X0164285Y0059763D01*
X0164315Y0059798D01*
X0164342Y0059836D01*
X0164365Y0059875D01*
X0164385Y0059916D01*
X0164402Y0059959D01*
X0163877Y0059584D02*
X0163831Y0059586D01*
X0163786Y0059592D01*
X0163741Y0059601D01*
X0163697Y0059614D01*
X0163654Y0059631D01*
X0163613Y0059651D01*
X0163573Y0059674D01*
X0163536Y0059701D01*
X0163501Y0059731D01*
X0163469Y0059763D01*
X0163439Y0059798D01*
X0163412Y0059836D01*
X0163389Y0059875D01*
X0163369Y0059916D01*
X0163352Y0059959D01*
X0164402Y0059959D02*
X0164440Y0060042D01*
X0164476Y0060127D01*
X0164507Y0060213D01*
X0164535Y0060301D01*
X0164559Y0060389D01*
X0164580Y0060478D01*
X0164597Y0060569D01*
X0164610Y0060659D01*
X0164619Y0060751D01*
X0164625Y0060842D01*
X0164627Y0060934D01*
X0163127Y0060934D02*
X0163129Y0060842D01*
X0163135Y0060751D01*
X0163144Y0060659D01*
X0163157Y0060569D01*
X0163174Y0060478D01*
X0163195Y0060389D01*
X0163219Y0060301D01*
X0163247Y0060213D01*
X0163278Y0060127D01*
X0163314Y0060042D01*
X0163352Y0059959D01*
X0164627Y0060934D02*
X0164625Y0061026D01*
X0164619Y0061117D01*
X0164610Y0061209D01*
X0164597Y0061299D01*
X0164580Y0061390D01*
X0164559Y0061479D01*
X0164535Y0061567D01*
X0164507Y0061655D01*
X0164476Y0061741D01*
X0164440Y0061826D01*
X0164402Y0061909D01*
X0164385Y0061952D01*
X0164365Y0061993D01*
X0164342Y0062032D01*
X0164315Y0062070D01*
X0164285Y0062105D01*
X0164253Y0062137D01*
X0164218Y0062167D01*
X0164181Y0062194D01*
X0164141Y0062217D01*
X0164100Y0062237D01*
X0164057Y0062254D01*
X0164013Y0062267D01*
X0163968Y0062276D01*
X0163923Y0062282D01*
X0163877Y0062284D01*
X0163831Y0062282D01*
X0163786Y0062276D01*
X0163741Y0062267D01*
X0163697Y0062254D01*
X0163654Y0062237D01*
X0163613Y0062217D01*
X0163573Y0062194D01*
X0163536Y0062167D01*
X0163501Y0062137D01*
X0163469Y0062105D01*
X0163439Y0062070D01*
X0163412Y0062032D01*
X0163389Y0061993D01*
X0163369Y0061952D01*
X0163352Y0061909D01*
X0161669Y0062284D02*
X0161669Y0060184D01*
X0161667Y0060137D01*
X0161662Y0060090D01*
X0161652Y0060044D01*
X0161640Y0059999D01*
X0161623Y0059954D01*
X0161604Y0059912D01*
X0161581Y0059871D01*
X0161554Y0059831D01*
X0161525Y0059794D01*
X0161493Y0059760D01*
X0161459Y0059728D01*
X0161422Y0059699D01*
X0161382Y0059672D01*
X0161341Y0059649D01*
X0161299Y0059630D01*
X0161254Y0059613D01*
X0161209Y0059601D01*
X0161163Y0059591D01*
X0161116Y0059586D01*
X0161069Y0059584D01*
X0160769Y0059584D01*
X0163127Y0060934D02*
X0163129Y0061026D01*
X0163135Y0061117D01*
X0163144Y0061209D01*
X0163157Y0061299D01*
X0163174Y0061390D01*
X0163195Y0061479D01*
X0163219Y0061567D01*
X0163247Y0061655D01*
X0163278Y0061741D01*
X0163314Y0061826D01*
X0163352Y0061909D01*
X0167698Y0044934D02*
X0153698Y0044934D01*
X0150698Y0041934D01*
X0150698Y0036934D01*
X0152698Y0034934D01*
X0150698Y0032934D01*
X0150698Y0026934D01*
X0152698Y0024934D01*
X0150698Y0022934D01*
X0150698Y0017934D01*
X0153698Y0014934D01*
X0167698Y0014934D01*
X0170698Y0017934D01*
X0170698Y0022934D01*
X0168698Y0024934D01*
X0170698Y0026934D01*
X0170698Y0032934D01*
X0168698Y0034934D01*
X0170698Y0036934D01*
X0170698Y0041934D01*
X0167698Y0044934D01*
X0105748Y0091033D02*
X0105748Y0093836D01*
X0102597Y0093836D02*
X0102597Y0091033D01*
X0063497Y0112379D02*
X0063497Y0130489D01*
X0050899Y0130489D01*
X0050899Y0112379D01*
X0063497Y0112379D01*
X0073973Y0123075D02*
X0074423Y0123900D01*
X0075548Y0123600D02*
X0075546Y0123533D01*
X0075541Y0123467D01*
X0075532Y0123401D01*
X0075520Y0123335D01*
X0075504Y0123270D01*
X0075485Y0123206D01*
X0075463Y0123144D01*
X0075437Y0123082D01*
X0075408Y0123022D01*
X0075376Y0122963D01*
X0075341Y0122907D01*
X0075304Y0122852D01*
X0075263Y0122799D01*
X0075219Y0122749D01*
X0075173Y0122700D01*
X0074423Y0123900D02*
X0074450Y0123941D01*
X0074479Y0123980D01*
X0074512Y0124016D01*
X0074547Y0124049D01*
X0074585Y0124080D01*
X0074625Y0124107D01*
X0074667Y0124131D01*
X0074711Y0124152D01*
X0074757Y0124169D01*
X0074803Y0124183D01*
X0074851Y0124192D01*
X0074899Y0124198D01*
X0074948Y0124200D01*
X0074995Y0124198D01*
X0075042Y0124193D01*
X0075088Y0124183D01*
X0075133Y0124171D01*
X0075178Y0124154D01*
X0075220Y0124135D01*
X0075261Y0124112D01*
X0075301Y0124085D01*
X0075338Y0124056D01*
X0075372Y0124024D01*
X0075404Y0123990D01*
X0075433Y0123953D01*
X0075460Y0123913D01*
X0075483Y0123872D01*
X0075502Y0123830D01*
X0075519Y0123785D01*
X0075531Y0123740D01*
X0075541Y0123694D01*
X0075546Y0123647D01*
X0075548Y0123600D01*
X0073073Y0124050D02*
X0073035Y0123996D01*
X0073000Y0123940D01*
X0072969Y0123882D01*
X0072941Y0123823D01*
X0072917Y0123762D01*
X0072896Y0123699D01*
X0072879Y0123636D01*
X0072865Y0123571D01*
X0072856Y0123506D01*
X0072850Y0123441D01*
X0072848Y0123375D01*
X0072850Y0123328D01*
X0072855Y0123281D01*
X0072865Y0123235D01*
X0072877Y0123190D01*
X0072894Y0123145D01*
X0072913Y0123103D01*
X0072936Y0123062D01*
X0072963Y0123022D01*
X0072992Y0122985D01*
X0073024Y0122951D01*
X0073058Y0122919D01*
X0073095Y0122890D01*
X0073135Y0122863D01*
X0073176Y0122840D01*
X0073218Y0122821D01*
X0073263Y0122804D01*
X0073308Y0122792D01*
X0073354Y0122782D01*
X0073401Y0122777D01*
X0073448Y0122775D01*
X0073448Y0122776D02*
X0073497Y0122778D01*
X0073545Y0122784D01*
X0073593Y0122793D01*
X0073639Y0122807D01*
X0073685Y0122824D01*
X0073729Y0122845D01*
X0073771Y0122869D01*
X0073811Y0122896D01*
X0073849Y0122927D01*
X0073884Y0122960D01*
X0073917Y0122996D01*
X0073946Y0123035D01*
X0073973Y0123076D01*
X0072848Y0125292D02*
X0072848Y0126792D01*
X0072848Y0126042D02*
X0075548Y0126042D01*
X0075548Y0127830D02*
X0072848Y0128730D01*
X0075548Y0129630D01*
X0074873Y0129405D02*
X0074873Y0128055D01*
X0072848Y0130668D02*
X0072848Y0132168D01*
X0072848Y0131418D02*
X0075548Y0131418D01*
X0079399Y0131946D02*
X0079399Y0120923D01*
X0091997Y0120923D01*
X0091997Y0124434D01*
X0088698Y0120934D01*
X0091997Y0124434D02*
X0091997Y0131946D01*
X0079399Y0131946D01*
X0068548Y0130868D02*
X0068548Y0129968D01*
X0068546Y0129921D01*
X0068541Y0129874D01*
X0068531Y0129828D01*
X0068519Y0129783D01*
X0068502Y0129738D01*
X0068483Y0129696D01*
X0068460Y0129655D01*
X0068433Y0129615D01*
X0068404Y0129578D01*
X0068372Y0129544D01*
X0068338Y0129512D01*
X0068301Y0129483D01*
X0068261Y0129456D01*
X0068220Y0129433D01*
X0068178Y0129414D01*
X0068133Y0129397D01*
X0068088Y0129385D01*
X0068042Y0129375D01*
X0067995Y0129370D01*
X0067948Y0129368D01*
X0066448Y0129368D01*
X0066401Y0129370D01*
X0066354Y0129375D01*
X0066308Y0129385D01*
X0066263Y0129397D01*
X0066218Y0129414D01*
X0066176Y0129433D01*
X0066135Y0129456D01*
X0066095Y0129483D01*
X0066058Y0129512D01*
X0066024Y0129544D01*
X0065992Y0129578D01*
X0065963Y0129615D01*
X0065936Y0129655D01*
X0065913Y0129696D01*
X0065894Y0129738D01*
X0065877Y0129783D01*
X0065865Y0129828D01*
X0065855Y0129874D01*
X0065850Y0129921D01*
X0065848Y0129968D01*
X0065848Y0130868D01*
X0067048Y0130868D02*
X0068548Y0130868D01*
X0067048Y0130868D02*
X0067048Y0130418D01*
X0066598Y0127892D02*
X0067798Y0127892D01*
X0067852Y0127890D01*
X0067905Y0127884D01*
X0067957Y0127875D01*
X0068009Y0127862D01*
X0068060Y0127845D01*
X0068110Y0127824D01*
X0068157Y0127800D01*
X0068203Y0127773D01*
X0068247Y0127742D01*
X0068289Y0127709D01*
X0068328Y0127672D01*
X0068365Y0127633D01*
X0068398Y0127591D01*
X0068429Y0127547D01*
X0068456Y0127501D01*
X0068480Y0127454D01*
X0068501Y0127404D01*
X0068518Y0127353D01*
X0068531Y0127301D01*
X0068540Y0127249D01*
X0068546Y0127196D01*
X0068548Y0127142D01*
X0068546Y0127088D01*
X0068540Y0127035D01*
X0068531Y0126983D01*
X0068518Y0126931D01*
X0068501Y0126880D01*
X0068480Y0126830D01*
X0068456Y0126783D01*
X0068429Y0126737D01*
X0068398Y0126693D01*
X0068365Y0126651D01*
X0068328Y0126612D01*
X0068289Y0126575D01*
X0068247Y0126542D01*
X0068203Y0126511D01*
X0068157Y0126484D01*
X0068110Y0126460D01*
X0068060Y0126439D01*
X0068009Y0126422D01*
X0067957Y0126409D01*
X0067905Y0126400D01*
X0067852Y0126394D01*
X0067798Y0126392D01*
X0066598Y0126392D01*
X0066544Y0126394D01*
X0066491Y0126400D01*
X0066439Y0126409D01*
X0066387Y0126422D01*
X0066336Y0126439D01*
X0066286Y0126460D01*
X0066239Y0126484D01*
X0066193Y0126511D01*
X0066149Y0126542D01*
X0066107Y0126575D01*
X0066068Y0126612D01*
X0066031Y0126651D01*
X0065998Y0126693D01*
X0065967Y0126737D01*
X0065940Y0126783D01*
X0065916Y0126830D01*
X0065895Y0126880D01*
X0065878Y0126931D01*
X0065865Y0126983D01*
X0065856Y0127035D01*
X0065850Y0127088D01*
X0065848Y0127142D01*
X0065850Y0127196D01*
X0065856Y0127249D01*
X0065865Y0127301D01*
X0065878Y0127353D01*
X0065895Y0127404D01*
X0065916Y0127454D01*
X0065940Y0127501D01*
X0065967Y0127547D01*
X0065998Y0127591D01*
X0066031Y0127633D01*
X0066068Y0127672D01*
X0066107Y0127709D01*
X0066149Y0127742D01*
X0066193Y0127773D01*
X0066239Y0127800D01*
X0066286Y0127824D01*
X0066336Y0127845D01*
X0066387Y0127862D01*
X0066439Y0127875D01*
X0066491Y0127884D01*
X0066544Y0127890D01*
X0066598Y0127892D01*
X0068548Y0125201D02*
X0068548Y0124001D01*
X0065848Y0124001D01*
X0165450Y0138171D02*
X0165536Y0138169D01*
X0165622Y0138164D01*
X0165707Y0138154D01*
X0165792Y0138141D01*
X0165876Y0138124D01*
X0165960Y0138104D01*
X0166042Y0138080D01*
X0166123Y0138052D01*
X0166204Y0138021D01*
X0166282Y0137987D01*
X0166359Y0137949D01*
X0166435Y0137907D01*
X0166508Y0137863D01*
X0166579Y0137815D01*
X0166649Y0137764D01*
X0166716Y0137710D01*
X0166780Y0137654D01*
X0166842Y0137594D01*
X0166902Y0137532D01*
X0166958Y0137468D01*
X0167012Y0137401D01*
X0167063Y0137331D01*
X0167111Y0137260D01*
X0167155Y0137187D01*
X0167197Y0137111D01*
X0167235Y0137034D01*
X0167269Y0136956D01*
X0167300Y0136875D01*
X0167328Y0136794D01*
X0167352Y0136712D01*
X0167372Y0136628D01*
X0167389Y0136544D01*
X0167402Y0136459D01*
X0167412Y0136374D01*
X0167417Y0136288D01*
X0167419Y0136202D01*
X0168994Y0136202D02*
X0168992Y0136312D01*
X0168986Y0136422D01*
X0168977Y0136531D01*
X0168963Y0136640D01*
X0168946Y0136749D01*
X0168925Y0136857D01*
X0168900Y0136964D01*
X0168872Y0137070D01*
X0168840Y0137175D01*
X0168804Y0137279D01*
X0168765Y0137382D01*
X0168722Y0137483D01*
X0168675Y0137583D01*
X0168625Y0137681D01*
X0168572Y0137777D01*
X0168515Y0137871D01*
X0168455Y0137963D01*
X0168392Y0138054D01*
X0168326Y0138141D01*
X0168257Y0138227D01*
X0168185Y0138310D01*
X0168110Y0138390D01*
X0168032Y0138468D01*
X0167952Y0138543D01*
X0167869Y0138615D01*
X0167783Y0138684D01*
X0167696Y0138750D01*
X0167605Y0138813D01*
X0167513Y0138873D01*
X0167419Y0138930D01*
X0167323Y0138983D01*
X0167225Y0139033D01*
X0167125Y0139080D01*
X0167024Y0139123D01*
X0166921Y0139162D01*
X0166817Y0139198D01*
X0166712Y0139230D01*
X0166606Y0139258D01*
X0166499Y0139283D01*
X0166391Y0139304D01*
X0166282Y0139321D01*
X0166173Y0139335D01*
X0166064Y0139344D01*
X0165954Y0139350D01*
X0165844Y0139352D01*
X0165450Y0138171D01*
D11*
X0203997Y0093336D02*
X0203997Y0090533D01*
X0207348Y0090533D02*
X0207348Y0093336D01*
X0211997Y0093336D02*
X0211997Y0090533D01*
X0215348Y0090533D02*
X0215348Y0093336D01*
X0164899Y0085336D02*
X0164899Y0082533D01*
X0161548Y0082533D02*
X0161548Y0085336D01*
X0147899Y0082336D02*
X0147899Y0079533D01*
X0144548Y0079533D02*
X0144548Y0082336D01*
X0153048Y0054836D02*
X0153048Y0052033D01*
X0156399Y0052033D02*
X0156399Y0054836D01*
X0170548Y0051836D02*
X0170548Y0049033D01*
X0173899Y0049033D02*
X0173899Y0051836D01*
D12*
X0172218Y0052750D03*
X0172218Y0048150D03*
X0154718Y0051150D03*
X0154718Y0055750D03*
X0146218Y0078650D03*
X0146218Y0083250D03*
X0163218Y0081650D03*
X0163218Y0086250D03*
X0184678Y0087619D03*
X0184678Y0092219D03*
X0205678Y0094219D03*
X0205678Y0089619D03*
X0213678Y0089619D03*
X0213678Y0094219D03*
X0201178Y0107619D03*
X0201178Y0112219D03*
X0158218Y0124150D03*
X0158218Y0128750D03*
X0150218Y0128750D03*
X0150218Y0124150D03*
X0104178Y0094719D03*
X0104178Y0090119D03*
X0100178Y0066219D03*
X0100178Y0061619D03*
X0070218Y0061650D03*
X0070218Y0066250D03*
D13*
X0209194Y0105111D03*
X0209194Y0110811D03*
D14*
X0130514Y0128414D03*
X0125914Y0128414D03*
X0106514Y0120414D03*
X0101914Y0120414D03*
D15*
X0095600Y0115135D02*
X0095600Y0111734D01*
X0092796Y0111734D02*
X0092796Y0115135D01*
X0087600Y0115135D02*
X0087600Y0111734D01*
X0084796Y0111734D02*
X0084796Y0115135D01*
X0079600Y0115135D02*
X0079600Y0111734D01*
X0076796Y0111734D02*
X0076796Y0115135D01*
X0071100Y0115734D02*
X0071100Y0119135D01*
X0068296Y0119135D02*
X0068296Y0115734D01*
X0061600Y0105135D02*
X0061600Y0101734D01*
X0058796Y0101734D02*
X0058796Y0105135D01*
X0053600Y0105135D02*
X0053600Y0101734D01*
X0050796Y0101734D02*
X0050796Y0105135D01*
X0050796Y0092635D02*
X0050796Y0089234D01*
X0053600Y0089234D02*
X0053600Y0092635D01*
X0058796Y0092635D02*
X0058796Y0089234D01*
X0061600Y0089234D02*
X0061600Y0092635D01*
X0102497Y0111033D02*
X0105899Y0111033D01*
X0105899Y0113836D02*
X0102497Y0113836D01*
X0102497Y0127033D02*
X0105899Y0127033D01*
X0105899Y0129836D02*
X0102497Y0129836D01*
X0114497Y0129836D02*
X0117899Y0129836D01*
X0117899Y0127033D02*
X0114497Y0127033D01*
X0138497Y0127033D02*
X0141899Y0127033D01*
X0141899Y0129836D02*
X0138497Y0129836D01*
X0138497Y0121836D02*
X0141899Y0121836D01*
X0141899Y0119033D02*
X0138497Y0119033D01*
X0138497Y0111836D02*
X0141899Y0111836D01*
X0141899Y0109033D02*
X0138497Y0109033D01*
X0138497Y0103336D02*
X0141899Y0103336D01*
X0141899Y0100533D02*
X0138497Y0100533D01*
X0160098Y0102834D02*
X0160098Y0108034D01*
X0171298Y0108034D01*
X0171298Y0102834D01*
X0160098Y0102834D01*
X0163997Y0096836D02*
X0167399Y0096836D01*
X0167399Y0094033D02*
X0163997Y0094033D01*
X0172779Y0098834D02*
X0172779Y0104034D01*
X0181617Y0104034D01*
X0181617Y0098834D01*
X0172779Y0098834D01*
X0174296Y0091635D02*
X0174296Y0088234D01*
X0177100Y0088234D02*
X0177100Y0091635D01*
X0189600Y0088745D02*
X0189970Y0088745D01*
X0189600Y0088745D02*
X0200796Y0088745D01*
X0200426Y0088745D01*
X0200796Y0088745D02*
X0200796Y0095123D01*
X0200426Y0095123D01*
X0200796Y0095123D02*
X0189600Y0095123D01*
X0189970Y0095123D01*
X0189600Y0095123D02*
X0189600Y0088745D01*
X0193143Y0088745D02*
X0193513Y0088745D01*
X0196883Y0088745D02*
X0197253Y0088745D01*
X0198741Y0093706D02*
X0198743Y0093745D01*
X0198749Y0093784D01*
X0198759Y0093822D01*
X0198772Y0093859D01*
X0198789Y0093894D01*
X0198809Y0093928D01*
X0198833Y0093959D01*
X0198860Y0093988D01*
X0198889Y0094014D01*
X0198921Y0094037D01*
X0198955Y0094057D01*
X0198991Y0094073D01*
X0199028Y0094085D01*
X0199067Y0094094D01*
X0199106Y0094099D01*
X0199145Y0094100D01*
X0199184Y0094097D01*
X0199223Y0094090D01*
X0199260Y0094079D01*
X0199297Y0094065D01*
X0199332Y0094047D01*
X0199365Y0094026D01*
X0199396Y0094001D01*
X0199424Y0093974D01*
X0199449Y0093944D01*
X0199471Y0093911D01*
X0199490Y0093877D01*
X0199505Y0093841D01*
X0199517Y0093803D01*
X0199525Y0093765D01*
X0199529Y0093726D01*
X0199529Y0093686D01*
X0199525Y0093647D01*
X0199517Y0093609D01*
X0199505Y0093571D01*
X0199490Y0093535D01*
X0199471Y0093501D01*
X0199449Y0093468D01*
X0199424Y0093438D01*
X0199396Y0093411D01*
X0199365Y0093386D01*
X0199332Y0093365D01*
X0199297Y0093347D01*
X0199260Y0093333D01*
X0199223Y0093322D01*
X0199184Y0093315D01*
X0199145Y0093312D01*
X0199106Y0093313D01*
X0199067Y0093318D01*
X0199028Y0093327D01*
X0198991Y0093339D01*
X0198955Y0093355D01*
X0198921Y0093375D01*
X0198889Y0093398D01*
X0198860Y0093424D01*
X0198833Y0093453D01*
X0198809Y0093484D01*
X0198789Y0093518D01*
X0198772Y0093553D01*
X0198759Y0093590D01*
X0198749Y0093628D01*
X0198743Y0093667D01*
X0198741Y0093706D01*
X0197253Y0095123D02*
X0196883Y0095123D01*
X0193513Y0095123D02*
X0193143Y0095123D01*
X0183887Y0076533D02*
X0177509Y0076533D01*
X0177509Y0076163D01*
X0177509Y0076533D02*
X0177509Y0065336D01*
X0177509Y0065706D01*
X0177509Y0065336D02*
X0183887Y0065336D01*
X0183887Y0065706D01*
X0183887Y0065336D02*
X0183887Y0076533D01*
X0183887Y0076163D01*
X0183887Y0072989D02*
X0183887Y0072619D01*
X0183887Y0069249D02*
X0183887Y0068879D01*
X0182076Y0066997D02*
X0182078Y0067036D01*
X0182084Y0067075D01*
X0182094Y0067113D01*
X0182107Y0067150D01*
X0182124Y0067185D01*
X0182144Y0067219D01*
X0182168Y0067250D01*
X0182195Y0067279D01*
X0182224Y0067305D01*
X0182256Y0067328D01*
X0182290Y0067348D01*
X0182326Y0067364D01*
X0182363Y0067376D01*
X0182402Y0067385D01*
X0182441Y0067390D01*
X0182480Y0067391D01*
X0182519Y0067388D01*
X0182558Y0067381D01*
X0182595Y0067370D01*
X0182632Y0067356D01*
X0182667Y0067338D01*
X0182700Y0067317D01*
X0182731Y0067292D01*
X0182759Y0067265D01*
X0182784Y0067235D01*
X0182806Y0067202D01*
X0182825Y0067168D01*
X0182840Y0067132D01*
X0182852Y0067094D01*
X0182860Y0067056D01*
X0182864Y0067017D01*
X0182864Y0066977D01*
X0182860Y0066938D01*
X0182852Y0066900D01*
X0182840Y0066862D01*
X0182825Y0066826D01*
X0182806Y0066792D01*
X0182784Y0066759D01*
X0182759Y0066729D01*
X0182731Y0066702D01*
X0182700Y0066677D01*
X0182667Y0066656D01*
X0182632Y0066638D01*
X0182595Y0066624D01*
X0182558Y0066613D01*
X0182519Y0066606D01*
X0182480Y0066603D01*
X0182441Y0066604D01*
X0182402Y0066609D01*
X0182363Y0066618D01*
X0182326Y0066630D01*
X0182290Y0066646D01*
X0182256Y0066666D01*
X0182224Y0066689D01*
X0182195Y0066715D01*
X0182168Y0066744D01*
X0182144Y0066775D01*
X0182124Y0066809D01*
X0182107Y0066844D01*
X0182094Y0066881D01*
X0182084Y0066919D01*
X0182078Y0066958D01*
X0182076Y0066997D01*
X0177509Y0068879D02*
X0177509Y0069249D01*
X0177509Y0072619D02*
X0177509Y0072989D01*
X0168798Y0074034D02*
X0168798Y0068834D01*
X0157598Y0068834D01*
X0157598Y0074034D01*
X0168798Y0074034D01*
X0168298Y0064934D02*
X0175098Y0064934D01*
X0175158Y0064932D01*
X0175219Y0064927D01*
X0175278Y0064918D01*
X0175337Y0064905D01*
X0175396Y0064889D01*
X0175453Y0064869D01*
X0175508Y0064846D01*
X0175563Y0064819D01*
X0175615Y0064790D01*
X0175666Y0064757D01*
X0175715Y0064721D01*
X0175761Y0064683D01*
X0175805Y0064641D01*
X0175847Y0064597D01*
X0175885Y0064551D01*
X0175921Y0064502D01*
X0175954Y0064451D01*
X0175983Y0064399D01*
X0176010Y0064344D01*
X0176033Y0064289D01*
X0176053Y0064232D01*
X0176069Y0064173D01*
X0176082Y0064114D01*
X0176091Y0064055D01*
X0176096Y0063994D01*
X0176098Y0063934D01*
X0176098Y0057934D01*
X0176096Y0057874D01*
X0176091Y0057813D01*
X0176082Y0057754D01*
X0176069Y0057695D01*
X0176053Y0057636D01*
X0176033Y0057579D01*
X0176010Y0057524D01*
X0175983Y0057469D01*
X0175954Y0057417D01*
X0175921Y0057366D01*
X0175885Y0057317D01*
X0175847Y0057271D01*
X0175805Y0057227D01*
X0175761Y0057185D01*
X0175715Y0057147D01*
X0175666Y0057111D01*
X0175615Y0057078D01*
X0175563Y0057049D01*
X0175508Y0057022D01*
X0175453Y0056999D01*
X0175396Y0056979D01*
X0175337Y0056963D01*
X0175278Y0056950D01*
X0175219Y0056941D01*
X0175158Y0056936D01*
X0175098Y0056934D01*
X0168298Y0056934D01*
X0168238Y0056936D01*
X0168177Y0056941D01*
X0168118Y0056950D01*
X0168059Y0056963D01*
X0168000Y0056979D01*
X0167943Y0056999D01*
X0167888Y0057022D01*
X0167833Y0057049D01*
X0167781Y0057078D01*
X0167730Y0057111D01*
X0167681Y0057147D01*
X0167635Y0057185D01*
X0167591Y0057227D01*
X0167549Y0057271D01*
X0167511Y0057317D01*
X0167475Y0057366D01*
X0167442Y0057417D01*
X0167413Y0057469D01*
X0167386Y0057524D01*
X0167363Y0057579D01*
X0167343Y0057636D01*
X0167327Y0057695D01*
X0167314Y0057754D01*
X0167305Y0057813D01*
X0167300Y0057874D01*
X0167298Y0057934D01*
X0167298Y0063934D01*
X0167300Y0063994D01*
X0167305Y0064055D01*
X0167314Y0064114D01*
X0167327Y0064173D01*
X0167343Y0064232D01*
X0167363Y0064289D01*
X0167386Y0064344D01*
X0167413Y0064399D01*
X0167442Y0064451D01*
X0167475Y0064502D01*
X0167511Y0064551D01*
X0167549Y0064597D01*
X0167591Y0064641D01*
X0167635Y0064683D01*
X0167681Y0064721D01*
X0167730Y0064757D01*
X0167781Y0064790D01*
X0167833Y0064819D01*
X0167888Y0064846D01*
X0167943Y0064869D01*
X0168000Y0064889D01*
X0168059Y0064905D01*
X0168118Y0064918D01*
X0168177Y0064927D01*
X0168238Y0064932D01*
X0168298Y0064934D01*
X0180997Y0061836D02*
X0184399Y0061836D01*
X0184399Y0059033D02*
X0180997Y0059033D01*
X0179598Y0056034D02*
X0184798Y0056034D01*
X0184798Y0044834D01*
X0179598Y0044834D01*
X0179598Y0056034D01*
X0150442Y0044234D02*
X0148998Y0044234D01*
X0149720Y0044234D02*
X0149720Y0046834D01*
X0148998Y0046257D01*
X0148100Y0051734D02*
X0148100Y0055135D01*
X0145296Y0055135D02*
X0145296Y0051734D01*
X0146600Y0040635D02*
X0146600Y0037234D01*
X0143796Y0037234D02*
X0143796Y0040635D01*
X0179598Y0036534D02*
X0179598Y0025334D01*
X0184798Y0025334D01*
X0184798Y0036534D01*
X0179598Y0036534D01*
X0055399Y0020836D02*
X0051997Y0020836D01*
X0051997Y0018033D02*
X0055399Y0018033D01*
D16*
X0056198Y0019434D03*
X0051198Y0019434D03*
X0163198Y0095434D03*
X0168198Y0095434D03*
X0142698Y0101934D03*
X0137698Y0101934D03*
X0137698Y0110434D03*
X0142698Y0110434D03*
X0142698Y0120434D03*
X0137698Y0120434D03*
X0137698Y0128434D03*
X0142698Y0128434D03*
X0118698Y0128434D03*
X0113698Y0128434D03*
X0106698Y0128434D03*
X0101698Y0128434D03*
X0101698Y0112434D03*
X0106698Y0112434D03*
X0180198Y0060434D03*
X0185198Y0060434D03*
D17*
X0043198Y0031529D02*
X0020600Y0031529D01*
X0020600Y0073340D01*
X0043198Y0073340D01*
X0043198Y0031529D01*
X0046190Y0031529D01*
X0046190Y0073340D01*
X0043198Y0073340D01*
X0043198Y0071529D02*
X0043198Y0133340D01*
X0046190Y0133340D01*
X0046190Y0071529D01*
X0043198Y0071529D01*
X0020600Y0071529D01*
X0020600Y0133340D01*
X0043198Y0133340D01*
X0068812Y0104820D02*
X0071174Y0104820D01*
X0093222Y0104820D01*
X0095584Y0104820D01*
X0095584Y0102458D01*
X0095584Y0080411D01*
X0095584Y0078049D01*
X0093222Y0078049D01*
X0071174Y0078049D01*
X0068812Y0078049D01*
X0068812Y0080411D01*
X0068812Y0102458D01*
X0068812Y0104820D01*
X0072718Y0082576D02*
X0072720Y0082625D01*
X0072726Y0082675D01*
X0072736Y0082723D01*
X0072749Y0082771D01*
X0072767Y0082817D01*
X0072787Y0082862D01*
X0072812Y0082905D01*
X0072840Y0082946D01*
X0072871Y0082984D01*
X0072905Y0083020D01*
X0072941Y0083053D01*
X0072980Y0083084D01*
X0073022Y0083110D01*
X0073065Y0083134D01*
X0073111Y0083154D01*
X0073157Y0083171D01*
X0073205Y0083183D01*
X0073254Y0083192D01*
X0073303Y0083197D01*
X0073352Y0083198D01*
X0073402Y0083195D01*
X0073451Y0083188D01*
X0073499Y0083177D01*
X0073546Y0083163D01*
X0073592Y0083145D01*
X0073637Y0083123D01*
X0073679Y0083097D01*
X0073719Y0083069D01*
X0073757Y0083037D01*
X0073793Y0083003D01*
X0073825Y0082965D01*
X0073855Y0082925D01*
X0073881Y0082883D01*
X0073903Y0082839D01*
X0073923Y0082794D01*
X0073938Y0082747D01*
X0073950Y0082699D01*
X0073958Y0082650D01*
X0073962Y0082601D01*
X0073962Y0082551D01*
X0073958Y0082502D01*
X0073950Y0082453D01*
X0073938Y0082405D01*
X0073923Y0082358D01*
X0073903Y0082313D01*
X0073881Y0082269D01*
X0073855Y0082227D01*
X0073825Y0082187D01*
X0073793Y0082149D01*
X0073757Y0082115D01*
X0073719Y0082083D01*
X0073679Y0082055D01*
X0073637Y0082029D01*
X0073592Y0082007D01*
X0073546Y0081989D01*
X0073499Y0081975D01*
X0073451Y0081964D01*
X0073402Y0081957D01*
X0073352Y0081954D01*
X0073303Y0081955D01*
X0073254Y0081960D01*
X0073205Y0081969D01*
X0073157Y0081981D01*
X0073111Y0081998D01*
X0073065Y0082018D01*
X0073022Y0082042D01*
X0072980Y0082068D01*
X0072941Y0082099D01*
X0072905Y0082132D01*
X0072871Y0082168D01*
X0072840Y0082206D01*
X0072812Y0082247D01*
X0072787Y0082290D01*
X0072767Y0082335D01*
X0072749Y0082381D01*
X0072736Y0082429D01*
X0072726Y0082477D01*
X0072720Y0082527D01*
X0072718Y0082576D01*
D18*
X0072356Y0078639D03*
X0074324Y0078639D03*
X0076293Y0078639D03*
X0078261Y0078639D03*
X0080230Y0078639D03*
X0082198Y0078639D03*
X0084167Y0078639D03*
X0086135Y0078639D03*
X0088104Y0078639D03*
X0090072Y0078639D03*
X0092041Y0078639D03*
X0092041Y0104230D03*
X0090072Y0104230D03*
X0088104Y0104230D03*
X0086135Y0104230D03*
X0084167Y0104230D03*
X0082198Y0104230D03*
X0080230Y0104230D03*
X0078261Y0104230D03*
X0076293Y0104230D03*
X0074324Y0104230D03*
X0072356Y0104230D03*
D19*
X0069403Y0101277D03*
X0069403Y0099308D03*
X0069403Y0097340D03*
X0069403Y0095371D03*
X0069403Y0093403D03*
X0069403Y0091434D03*
X0069403Y0089466D03*
X0069403Y0087497D03*
X0069403Y0085529D03*
X0069403Y0083560D03*
X0069403Y0081592D03*
X0094993Y0081592D03*
X0094993Y0083560D03*
X0094993Y0085529D03*
X0094993Y0087497D03*
X0094993Y0089466D03*
X0094993Y0091434D03*
X0094993Y0093403D03*
X0094993Y0095371D03*
X0094993Y0097340D03*
X0094993Y0099308D03*
X0094993Y0101277D03*
D20*
X0033198Y0097434D03*
X0033198Y0087434D03*
X0033198Y0077434D03*
X0033198Y0067434D03*
X0033198Y0057434D03*
X0033198Y0047434D03*
X0033198Y0037434D03*
X0033198Y0107434D03*
X0033198Y0117434D03*
X0033198Y0127434D03*
D21*
X0117498Y0073653D02*
X0117498Y0070334D01*
X0117698Y0070334D02*
X0117796Y0070332D01*
X0117894Y0070326D01*
X0117992Y0070317D01*
X0118089Y0070303D01*
X0118186Y0070286D01*
X0118282Y0070265D01*
X0118377Y0070240D01*
X0118471Y0070212D01*
X0118563Y0070179D01*
X0118655Y0070144D01*
X0118745Y0070104D01*
X0118833Y0070062D01*
X0118920Y0070015D01*
X0119004Y0069966D01*
X0119087Y0069913D01*
X0119167Y0069857D01*
X0119246Y0069797D01*
X0119322Y0069735D01*
X0119395Y0069670D01*
X0119466Y0069602D01*
X0119534Y0069531D01*
X0119599Y0069458D01*
X0119661Y0069382D01*
X0119721Y0069303D01*
X0119777Y0069223D01*
X0119830Y0069140D01*
X0119879Y0069056D01*
X0119926Y0068969D01*
X0119968Y0068881D01*
X0120008Y0068791D01*
X0120043Y0068699D01*
X0120076Y0068607D01*
X0120104Y0068513D01*
X0120129Y0068418D01*
X0120150Y0068322D01*
X0120167Y0068225D01*
X0120181Y0068128D01*
X0120190Y0068030D01*
X0120196Y0067932D01*
X0120198Y0067834D01*
X0120196Y0067736D01*
X0120190Y0067638D01*
X0120181Y0067540D01*
X0120167Y0067443D01*
X0120150Y0067346D01*
X0120129Y0067250D01*
X0120104Y0067155D01*
X0120076Y0067061D01*
X0120043Y0066969D01*
X0120008Y0066877D01*
X0119968Y0066787D01*
X0119926Y0066699D01*
X0119879Y0066612D01*
X0119830Y0066528D01*
X0119777Y0066445D01*
X0119721Y0066365D01*
X0119661Y0066286D01*
X0119599Y0066210D01*
X0119534Y0066137D01*
X0119466Y0066066D01*
X0119395Y0065998D01*
X0119322Y0065933D01*
X0119246Y0065871D01*
X0119167Y0065811D01*
X0119087Y0065755D01*
X0119004Y0065702D01*
X0118920Y0065653D01*
X0118833Y0065606D01*
X0118745Y0065564D01*
X0118655Y0065524D01*
X0118563Y0065489D01*
X0118471Y0065456D01*
X0118377Y0065428D01*
X0118282Y0065403D01*
X0118186Y0065382D01*
X0118089Y0065365D01*
X0117992Y0065351D01*
X0117894Y0065342D01*
X0117796Y0065336D01*
X0117698Y0065334D01*
X0117498Y0065334D02*
X0117498Y0061378D01*
X0117499Y0061378D02*
X0117511Y0061308D01*
X0117528Y0061238D01*
X0117548Y0061170D01*
X0117571Y0061102D01*
X0117599Y0061036D01*
X0117630Y0060972D01*
X0117664Y0060910D01*
X0117702Y0060849D01*
X0117742Y0060790D01*
X0117786Y0060734D01*
X0117833Y0060681D01*
X0117883Y0060629D01*
X0117936Y0060581D01*
X0117991Y0060536D01*
X0118048Y0060493D01*
X0118108Y0060454D01*
X0118170Y0060418D01*
X0118233Y0060386D01*
X0118298Y0060357D01*
X0118365Y0060331D01*
X0118433Y0060309D01*
X0118502Y0060291D01*
X0118572Y0060277D01*
X0118643Y0060267D01*
X0118714Y0060260D01*
X0118785Y0060257D01*
X0118856Y0060258D01*
X0118928Y0060263D01*
X0118998Y0060272D01*
X0137792Y0060272D01*
X0137862Y0060284D01*
X0137932Y0060301D01*
X0138000Y0060321D01*
X0138067Y0060345D01*
X0138133Y0060372D01*
X0138198Y0060403D01*
X0138260Y0060437D01*
X0138321Y0060475D01*
X0138379Y0060516D01*
X0138436Y0060560D01*
X0138489Y0060607D01*
X0138540Y0060657D01*
X0138589Y0060709D01*
X0138634Y0060764D01*
X0138677Y0060822D01*
X0138716Y0060881D01*
X0138752Y0060943D01*
X0138784Y0061007D01*
X0138813Y0061072D01*
X0138839Y0061138D01*
X0138860Y0061206D01*
X0138879Y0061276D01*
X0138893Y0061345D01*
X0138903Y0061416D01*
X0138910Y0061487D01*
X0138913Y0061558D01*
X0138912Y0061630D01*
X0138907Y0061701D01*
X0138898Y0061772D01*
X0138898Y0074097D01*
X0138896Y0074173D01*
X0138890Y0074248D01*
X0138881Y0074324D01*
X0138867Y0074399D01*
X0138850Y0074473D01*
X0138829Y0074546D01*
X0138805Y0074618D01*
X0138777Y0074688D01*
X0138745Y0074757D01*
X0138710Y0074825D01*
X0138671Y0074890D01*
X0138629Y0074954D01*
X0138584Y0075015D01*
X0138536Y0075074D01*
X0138485Y0075130D01*
X0138431Y0075184D01*
X0138375Y0075235D01*
X0138316Y0075283D01*
X0138255Y0075328D01*
X0138191Y0075370D01*
X0138126Y0075409D01*
X0138058Y0075444D01*
X0137989Y0075476D01*
X0137919Y0075504D01*
X0137847Y0075528D01*
X0137774Y0075549D01*
X0137700Y0075566D01*
X0137625Y0075580D01*
X0137549Y0075589D01*
X0137474Y0075595D01*
X0137398Y0075597D01*
X0118998Y0075597D01*
X0118999Y0075597D02*
X0118918Y0075585D01*
X0118838Y0075570D01*
X0118759Y0075551D01*
X0118681Y0075529D01*
X0118604Y0075502D01*
X0118528Y0075473D01*
X0118454Y0075439D01*
X0118382Y0075402D01*
X0118311Y0075362D01*
X0118243Y0075318D01*
X0118176Y0075271D01*
X0118112Y0075221D01*
X0118051Y0075168D01*
X0117992Y0075112D01*
X0117935Y0075053D01*
X0117882Y0074992D01*
X0117831Y0074928D01*
X0117784Y0074862D01*
X0117740Y0074794D01*
X0117699Y0074724D01*
X0117661Y0074652D01*
X0117627Y0074578D01*
X0117597Y0074502D01*
X0117570Y0074426D01*
X0117547Y0074348D01*
X0117527Y0074269D01*
X0117512Y0074189D01*
X0117500Y0074108D01*
X0117492Y0074028D01*
X0117488Y0073946D01*
X0117487Y0073865D01*
X0117491Y0073784D01*
X0117498Y0073703D01*
X0148836Y0073773D02*
X0148836Y0066096D01*
X0153560Y0066096D01*
X0153560Y0073773D01*
X0148836Y0073773D01*
X0150859Y0079072D02*
X0150859Y0083797D01*
X0158537Y0083797D01*
X0158537Y0079072D01*
X0150859Y0079072D01*
X0157686Y0074190D02*
X0157686Y0071041D01*
X0157686Y0074190D02*
X0160048Y0074190D01*
X0166348Y0074190D02*
X0168710Y0074190D01*
X0168710Y0071041D01*
X0189903Y0063340D02*
X0212541Y0063340D01*
X0212541Y0041686D01*
X0189903Y0041686D01*
X0189903Y0063340D01*
X0189903Y0061686D02*
X0189903Y0083340D01*
X0212541Y0083340D01*
X0212541Y0061686D01*
X0189903Y0061686D01*
X0184954Y0055946D02*
X0181804Y0055946D01*
X0184954Y0055946D02*
X0184954Y0053584D01*
X0184954Y0047285D02*
X0184954Y0044923D01*
X0181804Y0044923D01*
X0189903Y0043340D02*
X0212541Y0043340D01*
X0212541Y0021686D01*
X0189903Y0021686D01*
X0189903Y0043340D01*
X0182592Y0036446D02*
X0179442Y0036446D01*
X0179442Y0034084D01*
X0179442Y0027785D02*
X0179442Y0025423D01*
X0182592Y0025423D01*
X0184560Y0023773D02*
X0179836Y0023773D01*
X0179836Y0016096D01*
X0184560Y0016096D01*
X0184560Y0023773D01*
X0212541Y0021686D02*
X0215493Y0021686D01*
X0215493Y0043340D01*
X0212541Y0043340D01*
X0212541Y0041686D02*
X0215493Y0041686D01*
X0215493Y0063340D01*
X0212541Y0063340D01*
X0212541Y0061686D02*
X0215493Y0061686D01*
X0215493Y0083340D01*
X0212541Y0083340D01*
X0181529Y0100041D02*
X0181529Y0104190D01*
X0179848Y0104190D01*
X0174548Y0104190D02*
X0172867Y0104190D01*
X0172867Y0100041D01*
X0171210Y0105041D02*
X0171210Y0108190D01*
X0168848Y0108190D01*
X0162548Y0108190D02*
X0160186Y0108190D01*
X0160186Y0105041D01*
X0159859Y0054797D02*
X0167537Y0054797D01*
X0167537Y0050072D01*
X0159859Y0050072D01*
X0159859Y0054797D01*
D22*
X0146698Y0055934D03*
X0146698Y0050934D03*
X0145198Y0041434D03*
X0145198Y0036434D03*
X0175698Y0087434D03*
X0175698Y0092434D03*
X0094198Y0110934D03*
X0094198Y0115934D03*
X0086198Y0115934D03*
X0086198Y0110934D03*
X0078198Y0110934D03*
X0078198Y0115934D03*
X0069698Y0114934D03*
X0069698Y0119934D03*
X0060198Y0105934D03*
X0060198Y0100934D03*
X0052198Y0100934D03*
X0052198Y0105934D03*
X0052198Y0093434D03*
X0052198Y0088434D03*
X0060198Y0088434D03*
X0060198Y0093434D03*
D23*
X0120698Y0056959D03*
X0125698Y0056959D03*
X0130698Y0056959D03*
X0135698Y0056959D03*
D24*
X0135698Y0078934D03*
X0130698Y0078934D03*
X0125698Y0078934D03*
X0120698Y0078934D03*
D25*
X0116601Y0059778D02*
X0116323Y0059809D01*
X0116045Y0059778D01*
X0115781Y0059686D01*
X0115544Y0059537D01*
X0115346Y0059339D01*
X0115197Y0059102D01*
X0115104Y0058837D01*
X0115073Y0058559D01*
X0115104Y0058281D01*
X0115197Y0058017D01*
X0115346Y0057780D01*
X0115544Y0057582D01*
X0115781Y0057433D01*
X0116045Y0057341D01*
X0116323Y0057309D01*
X0116601Y0057341D01*
X0116865Y0057433D01*
X0117102Y0057582D01*
X0117300Y0057780D01*
X0117449Y0058017D01*
X0117542Y0058281D01*
X0117573Y0058559D01*
X0117542Y0058837D01*
X0117449Y0059102D01*
X0117300Y0059339D01*
X0117102Y0059537D01*
X0116865Y0059686D01*
X0116601Y0059778D01*
X0116617Y0059773D02*
X0116029Y0059773D01*
X0116005Y0059764D02*
X0116641Y0059764D01*
X0116666Y0059756D02*
X0115981Y0059756D01*
X0115956Y0059747D02*
X0116690Y0059747D01*
X0116714Y0059738D02*
X0115932Y0059738D01*
X0115908Y0059730D02*
X0116738Y0059730D01*
X0116763Y0059721D02*
X0115883Y0059721D01*
X0115859Y0059713D02*
X0116787Y0059713D01*
X0116811Y0059704D02*
X0115835Y0059704D01*
X0115810Y0059696D02*
X0116836Y0059696D01*
X0116860Y0059687D02*
X0115786Y0059687D01*
X0115770Y0059679D02*
X0116876Y0059679D01*
X0116890Y0059670D02*
X0115757Y0059670D01*
X0115743Y0059662D02*
X0116903Y0059662D01*
X0116917Y0059653D02*
X0115729Y0059653D01*
X0115716Y0059645D02*
X0116930Y0059645D01*
X0116944Y0059636D02*
X0115702Y0059636D01*
X0115689Y0059628D02*
X0116957Y0059628D01*
X0116971Y0059619D02*
X0115675Y0059619D01*
X0115662Y0059611D02*
X0116984Y0059611D01*
X0116998Y0059602D02*
X0115648Y0059602D01*
X0115635Y0059594D02*
X0117012Y0059594D01*
X0117025Y0059585D02*
X0115621Y0059585D01*
X0115607Y0059577D02*
X0117039Y0059577D01*
X0117052Y0059568D02*
X0115594Y0059568D01*
X0115580Y0059560D02*
X0117066Y0059560D01*
X0117079Y0059551D02*
X0115567Y0059551D01*
X0115553Y0059543D02*
X0117093Y0059543D01*
X0117105Y0059534D02*
X0115541Y0059534D01*
X0115533Y0059526D02*
X0117113Y0059526D01*
X0117122Y0059517D02*
X0115524Y0059517D01*
X0115516Y0059509D02*
X0117130Y0059509D01*
X0117139Y0059500D02*
X0115507Y0059500D01*
X0115499Y0059492D02*
X0117147Y0059492D01*
X0117156Y0059483D02*
X0115490Y0059483D01*
X0115482Y0059475D02*
X0117165Y0059475D01*
X0117173Y0059466D02*
X0115473Y0059466D01*
X0115465Y0059458D02*
X0117182Y0059458D01*
X0117190Y0059449D02*
X0115456Y0059449D01*
X0115448Y0059441D02*
X0117199Y0059441D01*
X0117207Y0059432D02*
X0115439Y0059432D01*
X0115431Y0059423D02*
X0117216Y0059423D01*
X0117224Y0059415D02*
X0115422Y0059415D01*
X0115413Y0059406D02*
X0117233Y0059406D01*
X0117241Y0059398D02*
X0115405Y0059398D01*
X0115396Y0059389D02*
X0117250Y0059389D01*
X0117258Y0059381D02*
X0115388Y0059381D01*
X0115379Y0059372D02*
X0117267Y0059372D01*
X0117275Y0059364D02*
X0115371Y0059364D01*
X0115362Y0059355D02*
X0117284Y0059355D01*
X0117292Y0059347D02*
X0115354Y0059347D01*
X0115346Y0059338D02*
X0117301Y0059338D01*
X0117306Y0059330D02*
X0115340Y0059330D01*
X0115335Y0059321D02*
X0117311Y0059321D01*
X0117317Y0059313D02*
X0115329Y0059313D01*
X0115324Y0059304D02*
X0117322Y0059304D01*
X0117327Y0059296D02*
X0115319Y0059296D01*
X0115313Y0059287D02*
X0117333Y0059287D01*
X0117338Y0059279D02*
X0115308Y0059279D01*
X0115303Y0059270D02*
X0117343Y0059270D01*
X0117349Y0059262D02*
X0115297Y0059262D01*
X0115292Y0059253D02*
X0117354Y0059253D01*
X0117359Y0059245D02*
X0115287Y0059245D01*
X0115281Y0059236D02*
X0117365Y0059236D01*
X0117370Y0059228D02*
X0115276Y0059228D01*
X0115271Y0059219D02*
X0117375Y0059219D01*
X0117381Y0059211D02*
X0115265Y0059211D01*
X0115260Y0059202D02*
X0117386Y0059202D01*
X0117392Y0059194D02*
X0115255Y0059194D01*
X0115249Y0059185D02*
X0117397Y0059185D01*
X0117402Y0059177D02*
X0115244Y0059177D01*
X0115239Y0059168D02*
X0117408Y0059168D01*
X0117413Y0059160D02*
X0115233Y0059160D01*
X0115228Y0059151D02*
X0117418Y0059151D01*
X0117424Y0059143D02*
X0115223Y0059143D01*
X0115217Y0059134D02*
X0117429Y0059134D01*
X0117434Y0059125D02*
X0115212Y0059125D01*
X0115206Y0059117D02*
X0117440Y0059117D01*
X0117445Y0059108D02*
X0115201Y0059108D01*
X0115196Y0059100D02*
X0117450Y0059100D01*
X0117453Y0059091D02*
X0115193Y0059091D01*
X0115190Y0059083D02*
X0117456Y0059083D01*
X0117459Y0059074D02*
X0115187Y0059074D01*
X0115184Y0059066D02*
X0117462Y0059066D01*
X0117465Y0059057D02*
X0115181Y0059057D01*
X0115178Y0059049D02*
X0117468Y0059049D01*
X0117471Y0059040D02*
X0115175Y0059040D01*
X0115172Y0059032D02*
X0117474Y0059032D01*
X0117477Y0059023D02*
X0115169Y0059023D01*
X0115166Y0059015D02*
X0117480Y0059015D01*
X0117483Y0059006D02*
X0115163Y0059006D01*
X0115160Y0058998D02*
X0117486Y0058998D01*
X0117489Y0058989D02*
X0115158Y0058989D01*
X0115155Y0058981D02*
X0117492Y0058981D01*
X0117495Y0058972D02*
X0115152Y0058972D01*
X0115149Y0058964D02*
X0117498Y0058964D01*
X0117501Y0058955D02*
X0115146Y0058955D01*
X0115143Y0058947D02*
X0117504Y0058947D01*
X0117506Y0058938D02*
X0115140Y0058938D01*
X0115137Y0058930D02*
X0117509Y0058930D01*
X0117512Y0058921D02*
X0115134Y0058921D01*
X0115131Y0058913D02*
X0117515Y0058913D01*
X0117518Y0058904D02*
X0115128Y0058904D01*
X0115125Y0058896D02*
X0117521Y0058896D01*
X0117524Y0058887D02*
X0115122Y0058887D01*
X0115119Y0058879D02*
X0117527Y0058879D01*
X0117530Y0058870D02*
X0115116Y0058870D01*
X0115113Y0058862D02*
X0117533Y0058862D01*
X0117536Y0058853D02*
X0115110Y0058853D01*
X0115107Y0058845D02*
X0117539Y0058845D01*
X0117542Y0058836D02*
X0115104Y0058836D01*
X0115103Y0058828D02*
X0117543Y0058828D01*
X0117544Y0058819D02*
X0115102Y0058819D01*
X0115101Y0058810D02*
X0117545Y0058810D01*
X0117546Y0058802D02*
X0115100Y0058802D01*
X0115099Y0058793D02*
X0117547Y0058793D01*
X0117548Y0058785D02*
X0115098Y0058785D01*
X0115098Y0058776D02*
X0117549Y0058776D01*
X0117550Y0058768D02*
X0115097Y0058768D01*
X0115096Y0058759D02*
X0117551Y0058759D01*
X0117551Y0058751D02*
X0115095Y0058751D01*
X0115094Y0058742D02*
X0117552Y0058742D01*
X0117553Y0058734D02*
X0115093Y0058734D01*
X0115092Y0058725D02*
X0117554Y0058725D01*
X0117555Y0058717D02*
X0115091Y0058717D01*
X0115090Y0058708D02*
X0117556Y0058708D01*
X0117557Y0058700D02*
X0115089Y0058700D01*
X0115088Y0058691D02*
X0117558Y0058691D01*
X0117559Y0058683D02*
X0115087Y0058683D01*
X0115086Y0058674D02*
X0117560Y0058674D01*
X0117561Y0058666D02*
X0115085Y0058666D01*
X0115084Y0058657D02*
X0117562Y0058657D01*
X0117563Y0058649D02*
X0115083Y0058649D01*
X0115082Y0058640D02*
X0117564Y0058640D01*
X0117565Y0058632D02*
X0115081Y0058632D01*
X0115080Y0058623D02*
X0117566Y0058623D01*
X0117567Y0058615D02*
X0115079Y0058615D01*
X0115078Y0058606D02*
X0117568Y0058606D01*
X0117569Y0058598D02*
X0115077Y0058598D01*
X0115076Y0058589D02*
X0117570Y0058589D01*
X0117571Y0058581D02*
X0115075Y0058581D01*
X0115074Y0058572D02*
X0117572Y0058572D01*
X0117573Y0058564D02*
X0115074Y0058564D01*
X0115074Y0058555D02*
X0117573Y0058555D01*
X0117572Y0058547D02*
X0115074Y0058547D01*
X0115075Y0058538D02*
X0117571Y0058538D01*
X0117570Y0058530D02*
X0115076Y0058530D01*
X0115077Y0058521D02*
X0117569Y0058521D01*
X0117568Y0058512D02*
X0115078Y0058512D01*
X0115079Y0058504D02*
X0117567Y0058504D01*
X0117566Y0058495D02*
X0115080Y0058495D01*
X0115081Y0058487D02*
X0117565Y0058487D01*
X0117564Y0058478D02*
X0115082Y0058478D01*
X0115083Y0058470D02*
X0117563Y0058470D01*
X0117562Y0058461D02*
X0115084Y0058461D01*
X0115085Y0058453D02*
X0117561Y0058453D01*
X0117560Y0058444D02*
X0115086Y0058444D01*
X0115087Y0058436D02*
X0117559Y0058436D01*
X0117558Y0058427D02*
X0115088Y0058427D01*
X0115089Y0058419D02*
X0117557Y0058419D01*
X0117556Y0058410D02*
X0115090Y0058410D01*
X0115091Y0058402D02*
X0117555Y0058402D01*
X0117554Y0058393D02*
X0115092Y0058393D01*
X0115093Y0058385D02*
X0117553Y0058385D01*
X0117552Y0058376D02*
X0115094Y0058376D01*
X0115095Y0058368D02*
X0117551Y0058368D01*
X0117551Y0058359D02*
X0115096Y0058359D01*
X0115097Y0058351D02*
X0117550Y0058351D01*
X0117549Y0058342D02*
X0115098Y0058342D01*
X0115098Y0058334D02*
X0117548Y0058334D01*
X0117547Y0058325D02*
X0115099Y0058325D01*
X0115100Y0058317D02*
X0117546Y0058317D01*
X0117545Y0058308D02*
X0115101Y0058308D01*
X0115102Y0058300D02*
X0117544Y0058300D01*
X0117543Y0058291D02*
X0115103Y0058291D01*
X0115104Y0058283D02*
X0117542Y0058283D01*
X0117539Y0058274D02*
X0115107Y0058274D01*
X0115110Y0058266D02*
X0117536Y0058266D01*
X0117533Y0058257D02*
X0115113Y0058257D01*
X0115116Y0058249D02*
X0117530Y0058249D01*
X0117527Y0058240D02*
X0115119Y0058240D01*
X0115122Y0058232D02*
X0117524Y0058232D01*
X0117521Y0058223D02*
X0115125Y0058223D01*
X0115128Y0058215D02*
X0117518Y0058215D01*
X0117515Y0058206D02*
X0115131Y0058206D01*
X0115134Y0058197D02*
X0117512Y0058197D01*
X0117509Y0058189D02*
X0115137Y0058189D01*
X0115140Y0058180D02*
X0117506Y0058180D01*
X0117503Y0058172D02*
X0115143Y0058172D01*
X0115146Y0058163D02*
X0117501Y0058163D01*
X0117498Y0058155D02*
X0115149Y0058155D01*
X0115152Y0058146D02*
X0117495Y0058146D01*
X0117492Y0058138D02*
X0115155Y0058138D01*
X0115158Y0058129D02*
X0117489Y0058129D01*
X0117486Y0058121D02*
X0115160Y0058121D01*
X0115163Y0058112D02*
X0117483Y0058112D01*
X0117480Y0058104D02*
X0115166Y0058104D01*
X0115169Y0058095D02*
X0117477Y0058095D01*
X0117474Y0058087D02*
X0115172Y0058087D01*
X0115175Y0058078D02*
X0117471Y0058078D01*
X0117468Y0058070D02*
X0115178Y0058070D01*
X0115181Y0058061D02*
X0117465Y0058061D01*
X0117462Y0058053D02*
X0115184Y0058053D01*
X0115187Y0058044D02*
X0117459Y0058044D01*
X0117456Y0058036D02*
X0115190Y0058036D01*
X0115193Y0058027D02*
X0117453Y0058027D01*
X0117450Y0058019D02*
X0115196Y0058019D01*
X0115201Y0058010D02*
X0117445Y0058010D01*
X0117440Y0058002D02*
X0115206Y0058002D01*
X0115212Y0057993D02*
X0117434Y0057993D01*
X0117429Y0057985D02*
X0115217Y0057985D01*
X0115223Y0057976D02*
X0117424Y0057976D01*
X0117418Y0057968D02*
X0115228Y0057968D01*
X0115233Y0057959D02*
X0117413Y0057959D01*
X0117408Y0057951D02*
X0115239Y0057951D01*
X0115244Y0057942D02*
X0117402Y0057942D01*
X0117397Y0057934D02*
X0115249Y0057934D01*
X0115255Y0057925D02*
X0117391Y0057925D01*
X0117386Y0057917D02*
X0115260Y0057917D01*
X0115265Y0057908D02*
X0117381Y0057908D01*
X0117375Y0057900D02*
X0115271Y0057900D01*
X0115276Y0057891D02*
X0117370Y0057891D01*
X0117365Y0057882D02*
X0115281Y0057882D01*
X0115287Y0057874D02*
X0117359Y0057874D01*
X0117354Y0057865D02*
X0115292Y0057865D01*
X0115297Y0057857D02*
X0117349Y0057857D01*
X0117343Y0057848D02*
X0115303Y0057848D01*
X0115308Y0057840D02*
X0117338Y0057840D01*
X0117333Y0057831D02*
X0115313Y0057831D01*
X0115319Y0057823D02*
X0117327Y0057823D01*
X0117322Y0057814D02*
X0115324Y0057814D01*
X0115330Y0057806D02*
X0117317Y0057806D01*
X0117311Y0057797D02*
X0115335Y0057797D01*
X0115340Y0057789D02*
X0117306Y0057789D01*
X0117301Y0057780D02*
X0115346Y0057780D01*
X0115354Y0057772D02*
X0117292Y0057772D01*
X0117284Y0057763D02*
X0115362Y0057763D01*
X0115371Y0057755D02*
X0117275Y0057755D01*
X0117267Y0057746D02*
X0115379Y0057746D01*
X0115388Y0057738D02*
X0117258Y0057738D01*
X0117250Y0057729D02*
X0115397Y0057729D01*
X0115405Y0057721D02*
X0117241Y0057721D01*
X0117233Y0057712D02*
X0115414Y0057712D01*
X0115422Y0057704D02*
X0117224Y0057704D01*
X0117216Y0057695D02*
X0115431Y0057695D01*
X0115439Y0057687D02*
X0117207Y0057687D01*
X0117199Y0057678D02*
X0115448Y0057678D01*
X0115456Y0057670D02*
X0117190Y0057670D01*
X0117181Y0057661D02*
X0115465Y0057661D01*
X0115473Y0057653D02*
X0117173Y0057653D01*
X0117164Y0057644D02*
X0115482Y0057644D01*
X0115490Y0057636D02*
X0117156Y0057636D01*
X0117147Y0057627D02*
X0115499Y0057627D01*
X0115507Y0057619D02*
X0117139Y0057619D01*
X0117130Y0057610D02*
X0115516Y0057610D01*
X0115524Y0057602D02*
X0117122Y0057602D01*
X0117113Y0057593D02*
X0115533Y0057593D01*
X0115541Y0057584D02*
X0117105Y0057584D01*
X0117093Y0057576D02*
X0115553Y0057576D01*
X0115567Y0057567D02*
X0117079Y0057567D01*
X0117066Y0057559D02*
X0115580Y0057559D01*
X0115594Y0057550D02*
X0117052Y0057550D01*
X0117039Y0057542D02*
X0115608Y0057542D01*
X0115621Y0057533D02*
X0117025Y0057533D01*
X0117011Y0057525D02*
X0115635Y0057525D01*
X0115648Y0057516D02*
X0116998Y0057516D01*
X0116984Y0057508D02*
X0115662Y0057508D01*
X0115675Y0057499D02*
X0116971Y0057499D01*
X0116957Y0057491D02*
X0115689Y0057491D01*
X0115702Y0057482D02*
X0116944Y0057482D01*
X0116930Y0057474D02*
X0115716Y0057474D01*
X0115730Y0057465D02*
X0116917Y0057465D01*
X0116903Y0057457D02*
X0115743Y0057457D01*
X0115757Y0057448D02*
X0116889Y0057448D01*
X0116876Y0057440D02*
X0115770Y0057440D01*
X0115786Y0057431D02*
X0116860Y0057431D01*
X0116836Y0057423D02*
X0115810Y0057423D01*
X0115835Y0057414D02*
X0116811Y0057414D01*
X0116787Y0057406D02*
X0115859Y0057406D01*
X0115883Y0057397D02*
X0116763Y0057397D01*
X0116738Y0057389D02*
X0115908Y0057389D01*
X0115932Y0057380D02*
X0116714Y0057380D01*
X0116690Y0057372D02*
X0115956Y0057372D01*
X0115981Y0057363D02*
X0116665Y0057363D01*
X0116641Y0057355D02*
X0116005Y0057355D01*
X0116029Y0057346D02*
X0116617Y0057346D01*
X0116574Y0057338D02*
X0116072Y0057338D01*
X0116148Y0057329D02*
X0116498Y0057329D01*
X0116423Y0057321D02*
X0116223Y0057321D01*
X0116299Y0057312D02*
X0116347Y0057312D01*
X0116574Y0059781D02*
X0116072Y0059781D01*
X0116147Y0059790D02*
X0116499Y0059790D01*
X0116423Y0059798D02*
X0116223Y0059798D01*
X0116299Y0059807D02*
X0116348Y0059807D01*
D26*
X0147507Y0067375D03*
X0147507Y0069934D03*
X0147507Y0072493D03*
X0154889Y0072493D03*
X0154889Y0067375D03*
X0178507Y0022493D03*
X0178507Y0019934D03*
X0178507Y0017375D03*
X0185889Y0017375D03*
X0185889Y0022493D03*
D27*
X0181198Y0022184D03*
X0150198Y0072184D03*
D28*
X0152139Y0077743D03*
X0154698Y0077743D03*
X0157257Y0077743D03*
X0157257Y0085125D03*
X0152139Y0085125D03*
X0161139Y0056125D03*
X0166257Y0056125D03*
X0166257Y0048743D03*
X0163698Y0048743D03*
X0161139Y0048743D03*
D29*
X0161448Y0051434D03*
X0152448Y0080434D03*
D30*
X0191458Y0087308D03*
X0195198Y0087308D03*
X0198938Y0087308D03*
X0198938Y0096560D03*
X0195198Y0096560D03*
X0191458Y0096560D03*
D31*
X0185324Y0074675D03*
X0185324Y0070934D03*
X0185324Y0067194D03*
X0176072Y0067194D03*
X0176072Y0070934D03*
X0176072Y0074675D03*
D32*
X0118448Y0102934D03*
D33*
X0061029Y0080675D02*
X0061029Y0073194D01*
X0052417Y0073194D01*
X0052417Y0080675D01*
X0061029Y0080675D01*
X0060241Y0080675D02*
X0053204Y0080675D01*
X0053204Y0073194D02*
X0060241Y0073194D01*
D34*
X0058765Y0074867D03*
D35*
X0058667Y0075064D03*
D36*
X0062136Y0075950D03*
X0062136Y0073982D03*
X0062136Y0077919D03*
X0062136Y0079887D03*
X0051260Y0079887D03*
X0051260Y0077919D03*
X0051260Y0075950D03*
X0051260Y0073982D03*
M02*
