G75*
%MOIN*%
%OFA0B0*%
%FSLAX25Y25*%
%IPPOS*%
%LPD*%
%AMOC8*
5,1,8,0,0,1.08239X$1,22.5*
%
%ADD10C,0.10343*%
%ADD11C,0.06900*%
%ADD12C,0.06500*%
%ADD13R,0.06500X0.06500*%
%ADD14R,0.05500X0.03000*%
%ADD15C,0.05815*%
%ADD16C,0.07587*%
%ADD17R,0.08374X0.11524*%
%ADD18R,0.03256X0.16248*%
%ADD19R,0.05224X0.16248*%
%ADD20C,0.04831*%
%ADD21C,0.06799*%
%ADD22C,0.02681*%
%ADD23C,0.02878*%
D10*
X0018000Y0018714D03*
X0198500Y0121214D03*
D11*
X0155000Y0036214D03*
X0145000Y0036214D03*
X0145000Y0026214D03*
X0155000Y0026214D03*
X0155000Y0016214D03*
X0145000Y0016214D03*
D12*
X0022500Y0033714D03*
X0022500Y0043714D03*
X0022500Y0053714D03*
X0022500Y0063714D03*
X0022500Y0073714D03*
X0022500Y0083714D03*
X0022500Y0093714D03*
X0022500Y0103714D03*
X0022500Y0113714D03*
X0022500Y0123714D03*
D13*
X0192000Y0073714D03*
X0192000Y0063714D03*
X0192000Y0053714D03*
X0192000Y0043714D03*
X0192000Y0033714D03*
X0192000Y0023714D03*
D14*
X0181000Y0031014D03*
X0181000Y0034214D03*
X0181000Y0037414D03*
D15*
X0180343Y0113584D03*
X0160657Y0113584D03*
D16*
X0156720Y0124214D03*
X0184280Y0124214D03*
D17*
X0142012Y0117041D03*
X0032169Y0117041D03*
X0031776Y0035151D03*
X0132563Y0034758D03*
D18*
X0048311Y0027671D03*
X0043193Y0027671D03*
X0038469Y0027671D03*
D19*
X0054610Y0027671D03*
X0064453Y0027671D03*
X0074295Y0027671D03*
X0084138Y0027671D03*
X0093980Y0027671D03*
X0103823Y0027671D03*
X0113665Y0027671D03*
X0123508Y0027671D03*
D20*
X0040831Y0039482D03*
D21*
X0123902Y0039482D03*
D22*
X0132500Y0042214D03*
X0131000Y0049214D03*
X0116500Y0048214D03*
X0116500Y0044714D03*
X0103823Y0045392D03*
X0099119Y0053333D03*
X0113500Y0066214D03*
X0117631Y0060346D03*
X0132000Y0064214D03*
X0138589Y0064714D03*
X0144500Y0071714D03*
X0151419Y0077795D03*
X0153550Y0079925D03*
X0163189Y0074525D03*
X0167000Y0074714D03*
X0160000Y0071214D03*
X0155673Y0057388D03*
X0148500Y0055714D03*
X0125000Y0070214D03*
X0125000Y0079714D03*
X0127500Y0083714D03*
X0134131Y0079846D03*
X0118000Y0087714D03*
X0110000Y0088714D03*
X0106500Y0092214D03*
X0102119Y0092333D03*
X0093500Y0096214D03*
X0096000Y0099214D03*
X0091000Y0100214D03*
X0096500Y0104714D03*
X0093089Y0108714D03*
X0093500Y0113292D03*
X0083500Y0109303D03*
X0075500Y0109303D03*
X0067500Y0109303D03*
X0062578Y0103972D03*
X0058000Y0105503D03*
X0055000Y0103214D03*
X0046500Y0114214D03*
X0035500Y0099714D03*
X0055000Y0089214D03*
X0055000Y0084636D03*
X0054543Y0079520D03*
X0051500Y0078510D03*
X0058000Y0073892D03*
X0058000Y0070914D03*
X0068500Y0069214D03*
X0084500Y0074214D03*
X0087179Y0075534D03*
X0090500Y0075925D03*
X0092000Y0080714D03*
X0089743Y0082714D03*
X0088000Y0085425D03*
X0101000Y0072214D03*
X0059500Y0045214D03*
X0046500Y0058214D03*
X0036500Y0051425D03*
X0043089Y0073214D03*
X0103500Y0103714D03*
X0103000Y0120714D03*
X0090000Y0120714D03*
X0086000Y0120714D03*
X0117909Y0121306D03*
X0127500Y0122714D03*
X0136104Y0108714D03*
X0145500Y0100714D03*
X0145500Y0095714D03*
X0184500Y0088214D03*
X0171000Y0030714D03*
X0167500Y0021714D03*
X0132500Y0026714D03*
X0128500Y0026714D03*
X0035000Y0024214D03*
X0032500Y0022214D03*
D23*
X0080119Y0068096D03*
X0083597Y0068214D03*
M02*
