G75*
%MOIN*%
%OFA0B0*%
%FSLAX25Y25*%
%IPPOS*%
%LPD*%
%AMOC8*
5,1,8,0,0,1.08239X$1,22.5*
%
%ADD10C,0.10343*%
%ADD11C,0.40500*%
%ADD12R,0.10500X0.20500*%
%ADD13R,0.04437X0.04831*%
%ADD14R,0.06406X0.05618*%
%ADD15R,0.04831X0.04437*%
%ADD16C,0.00841*%
%ADD17C,0.02019*%
%ADD18C,0.06900*%
%ADD19C,0.06500*%
%ADD20R,0.06500X0.06500*%
%ADD21R,0.03000X0.05500*%
%ADD22R,0.02272X0.09752*%
%ADD23C,0.05815*%
%ADD24C,0.07587*%
%ADD25R,0.06406X0.06602*%
%ADD26R,0.04043X0.03650*%
%ADD27R,0.02862X0.05224*%
%ADD28R,0.07193X0.09949*%
%ADD29R,0.06012X0.04831*%
%ADD30R,0.01878X0.03650*%
%ADD31C,0.04831*%
%ADD32C,0.06799*%
%ADD33R,0.03650X0.01878*%
%ADD34R,0.03699X0.04634*%
%ADD35R,0.02665X0.05224*%
%ADD36R,0.05224X0.02665*%
%ADD37R,0.01484X0.04437*%
%ADD38R,0.04437X0.01484*%
%ADD39R,0.08374X0.08374*%
%ADD40C,0.02681*%
%ADD41C,0.02878*%
D10*
X0018000Y0018714D03*
X0198500Y0121214D03*
D11*
X0079500Y0032214D03*
D12*
X0049500Y0032214D03*
X0109500Y0032214D03*
D13*
X0144000Y0051368D03*
X0144000Y0058061D03*
X0161500Y0050061D03*
X0161500Y0043368D03*
X0168654Y0056714D03*
X0175346Y0056714D03*
X0174000Y0084868D03*
X0174000Y0091561D03*
X0190000Y0102868D03*
X0190000Y0109561D03*
X0195000Y0091561D03*
X0203000Y0091561D03*
X0203000Y0084868D03*
X0195000Y0084868D03*
X0147500Y0119368D03*
X0139500Y0119368D03*
X0132346Y0116714D03*
X0125654Y0116714D03*
X0125654Y0108714D03*
X0132346Y0108714D03*
X0132346Y0100714D03*
X0125654Y0100714D03*
X0125654Y0092214D03*
X0132346Y0092214D03*
X0096846Y0108714D03*
X0090154Y0108714D03*
X0090154Y0124714D03*
X0096846Y0124714D03*
X0102154Y0124714D03*
X0108846Y0124714D03*
X0139500Y0126061D03*
X0147500Y0126061D03*
X0093500Y0092061D03*
X0093500Y0085368D03*
X0089500Y0063561D03*
X0089500Y0056868D03*
X0059500Y0056868D03*
X0059500Y0063561D03*
X0046846Y0073214D03*
X0040154Y0073214D03*
X0039654Y0015714D03*
X0046346Y0015714D03*
D14*
X0199000Y0100474D03*
X0199000Y0107955D03*
D15*
X0136000Y0058061D03*
X0136000Y0051368D03*
X0083500Y0106368D03*
X0083500Y0113061D03*
X0090154Y0116714D03*
X0096846Y0116714D03*
X0114654Y0124714D03*
X0121346Y0124714D03*
X0075500Y0113061D03*
X0075500Y0106368D03*
X0067500Y0106368D03*
X0067500Y0113061D03*
X0059000Y0110368D03*
X0059000Y0117061D03*
X0049500Y0103061D03*
X0041500Y0103061D03*
X0041500Y0096368D03*
X0041500Y0090561D03*
X0049500Y0090561D03*
X0049500Y0096368D03*
X0049500Y0083868D03*
X0041500Y0083868D03*
D16*
X0059617Y0084197D02*
X0059617Y0083357D01*
X0057201Y0083357D01*
X0057201Y0084197D01*
X0059617Y0084197D01*
X0057201Y0084197D01*
X0059617Y0082229D02*
X0059617Y0081389D01*
X0057201Y0081389D01*
X0057201Y0082229D01*
X0059617Y0082229D01*
X0057201Y0082229D01*
X0059617Y0080260D02*
X0059617Y0079420D01*
X0057201Y0079420D01*
X0057201Y0080260D01*
X0059617Y0080260D01*
X0057201Y0080260D01*
X0059617Y0078292D02*
X0059617Y0077452D01*
X0057201Y0077452D01*
X0057201Y0078292D01*
X0059617Y0078292D01*
X0057201Y0078292D01*
X0062077Y0075832D02*
X0062077Y0073416D01*
X0061237Y0073416D01*
X0061237Y0075832D01*
X0062077Y0075832D01*
X0062077Y0074256D02*
X0061237Y0074256D01*
X0061237Y0075096D02*
X0062077Y0075096D01*
X0064046Y0075832D02*
X0064046Y0073416D01*
X0063206Y0073416D01*
X0063206Y0075832D01*
X0064046Y0075832D01*
X0064046Y0074256D02*
X0063206Y0074256D01*
X0063206Y0075096D02*
X0064046Y0075096D01*
X0066014Y0075832D02*
X0066014Y0073416D01*
X0065174Y0073416D01*
X0065174Y0075832D01*
X0066014Y0075832D01*
X0066014Y0074256D02*
X0065174Y0074256D01*
X0065174Y0075096D02*
X0066014Y0075096D01*
X0067983Y0075832D02*
X0067983Y0073416D01*
X0067143Y0073416D01*
X0067143Y0075832D01*
X0067983Y0075832D01*
X0067983Y0074256D02*
X0067143Y0074256D01*
X0067143Y0075096D02*
X0067983Y0075096D01*
X0069951Y0075832D02*
X0069951Y0073416D01*
X0069111Y0073416D01*
X0069111Y0075832D01*
X0069951Y0075832D01*
X0069951Y0074256D02*
X0069111Y0074256D01*
X0069111Y0075096D02*
X0069951Y0075096D01*
X0071920Y0075832D02*
X0071920Y0073416D01*
X0071080Y0073416D01*
X0071080Y0075832D01*
X0071920Y0075832D01*
X0071920Y0074256D02*
X0071080Y0074256D01*
X0071080Y0075096D02*
X0071920Y0075096D01*
X0073889Y0075832D02*
X0073889Y0073416D01*
X0073049Y0073416D01*
X0073049Y0075832D01*
X0073889Y0075832D01*
X0073889Y0074256D02*
X0073049Y0074256D01*
X0073049Y0075096D02*
X0073889Y0075096D01*
X0075857Y0075832D02*
X0075857Y0073416D01*
X0075017Y0073416D01*
X0075017Y0075832D01*
X0075857Y0075832D01*
X0075857Y0074256D02*
X0075017Y0074256D01*
X0075017Y0075096D02*
X0075857Y0075096D01*
X0077826Y0075832D02*
X0077826Y0073416D01*
X0076986Y0073416D01*
X0076986Y0075832D01*
X0077826Y0075832D01*
X0077826Y0074256D02*
X0076986Y0074256D01*
X0076986Y0075096D02*
X0077826Y0075096D01*
X0079794Y0075832D02*
X0079794Y0073416D01*
X0078954Y0073416D01*
X0078954Y0075832D01*
X0079794Y0075832D01*
X0079794Y0074256D02*
X0078954Y0074256D01*
X0078954Y0075096D02*
X0079794Y0075096D01*
X0081763Y0075832D02*
X0081763Y0073416D01*
X0080923Y0073416D01*
X0080923Y0075832D01*
X0081763Y0075832D01*
X0081763Y0074256D02*
X0080923Y0074256D01*
X0080923Y0075096D02*
X0081763Y0075096D01*
X0085799Y0077452D02*
X0085799Y0078292D01*
X0085799Y0077452D02*
X0083383Y0077452D01*
X0083383Y0078292D01*
X0085799Y0078292D01*
X0083383Y0078292D01*
X0085799Y0079420D02*
X0085799Y0080260D01*
X0085799Y0079420D02*
X0083383Y0079420D01*
X0083383Y0080260D01*
X0085799Y0080260D01*
X0083383Y0080260D01*
X0085799Y0081389D02*
X0085799Y0082229D01*
X0085799Y0081389D02*
X0083383Y0081389D01*
X0083383Y0082229D01*
X0085799Y0082229D01*
X0083383Y0082229D01*
X0085799Y0083357D02*
X0085799Y0084197D01*
X0085799Y0083357D02*
X0083383Y0083357D01*
X0083383Y0084197D01*
X0085799Y0084197D01*
X0083383Y0084197D01*
X0085799Y0085326D02*
X0085799Y0086166D01*
X0085799Y0085326D02*
X0083383Y0085326D01*
X0083383Y0086166D01*
X0085799Y0086166D01*
X0083383Y0086166D01*
X0085799Y0087294D02*
X0085799Y0088134D01*
X0085799Y0087294D02*
X0083383Y0087294D01*
X0083383Y0088134D01*
X0085799Y0088134D01*
X0083383Y0088134D01*
X0085799Y0089263D02*
X0085799Y0090103D01*
X0085799Y0089263D02*
X0083383Y0089263D01*
X0083383Y0090103D01*
X0085799Y0090103D01*
X0083383Y0090103D01*
X0085799Y0091231D02*
X0085799Y0092071D01*
X0085799Y0091231D02*
X0083383Y0091231D01*
X0083383Y0092071D01*
X0085799Y0092071D01*
X0083383Y0092071D01*
X0085799Y0093200D02*
X0085799Y0094040D01*
X0085799Y0093200D02*
X0083383Y0093200D01*
X0083383Y0094040D01*
X0085799Y0094040D01*
X0083383Y0094040D01*
X0085799Y0095168D02*
X0085799Y0096008D01*
X0085799Y0095168D02*
X0083383Y0095168D01*
X0083383Y0096008D01*
X0085799Y0096008D01*
X0083383Y0096008D01*
X0085799Y0097137D02*
X0085799Y0097977D01*
X0085799Y0097137D02*
X0083383Y0097137D01*
X0083383Y0097977D01*
X0085799Y0097977D01*
X0083383Y0097977D01*
X0081763Y0099597D02*
X0081763Y0102013D01*
X0081763Y0099597D02*
X0080923Y0099597D01*
X0080923Y0102013D01*
X0081763Y0102013D01*
X0081763Y0100437D02*
X0080923Y0100437D01*
X0080923Y0101277D02*
X0081763Y0101277D01*
X0079794Y0102013D02*
X0079794Y0099597D01*
X0078954Y0099597D01*
X0078954Y0102013D01*
X0079794Y0102013D01*
X0079794Y0100437D02*
X0078954Y0100437D01*
X0078954Y0101277D02*
X0079794Y0101277D01*
X0077826Y0102013D02*
X0077826Y0099597D01*
X0076986Y0099597D01*
X0076986Y0102013D01*
X0077826Y0102013D01*
X0077826Y0100437D02*
X0076986Y0100437D01*
X0076986Y0101277D02*
X0077826Y0101277D01*
X0075857Y0102013D02*
X0075857Y0099597D01*
X0075017Y0099597D01*
X0075017Y0102013D01*
X0075857Y0102013D01*
X0075857Y0100437D02*
X0075017Y0100437D01*
X0075017Y0101277D02*
X0075857Y0101277D01*
X0073889Y0102013D02*
X0073889Y0099597D01*
X0073049Y0099597D01*
X0073049Y0102013D01*
X0073889Y0102013D01*
X0073889Y0100437D02*
X0073049Y0100437D01*
X0073049Y0101277D02*
X0073889Y0101277D01*
X0071920Y0102013D02*
X0071920Y0099597D01*
X0071080Y0099597D01*
X0071080Y0102013D01*
X0071920Y0102013D01*
X0071920Y0100437D02*
X0071080Y0100437D01*
X0071080Y0101277D02*
X0071920Y0101277D01*
X0069951Y0102013D02*
X0069951Y0099597D01*
X0069111Y0099597D01*
X0069111Y0102013D01*
X0069951Y0102013D01*
X0069951Y0100437D02*
X0069111Y0100437D01*
X0069111Y0101277D02*
X0069951Y0101277D01*
X0067983Y0102013D02*
X0067983Y0099597D01*
X0067143Y0099597D01*
X0067143Y0102013D01*
X0067983Y0102013D01*
X0067983Y0100437D02*
X0067143Y0100437D01*
X0067143Y0101277D02*
X0067983Y0101277D01*
X0066014Y0102013D02*
X0066014Y0099597D01*
X0065174Y0099597D01*
X0065174Y0102013D01*
X0066014Y0102013D01*
X0066014Y0100437D02*
X0065174Y0100437D01*
X0065174Y0101277D02*
X0066014Y0101277D01*
X0064046Y0102013D02*
X0064046Y0099597D01*
X0063206Y0099597D01*
X0063206Y0102013D01*
X0064046Y0102013D01*
X0064046Y0100437D02*
X0063206Y0100437D01*
X0063206Y0101277D02*
X0064046Y0101277D01*
X0062077Y0102013D02*
X0062077Y0099597D01*
X0061237Y0099597D01*
X0061237Y0102013D01*
X0062077Y0102013D01*
X0062077Y0100437D02*
X0061237Y0100437D01*
X0061237Y0101277D02*
X0062077Y0101277D01*
X0059617Y0097977D02*
X0059617Y0097137D01*
X0057201Y0097137D01*
X0057201Y0097977D01*
X0059617Y0097977D01*
X0057201Y0097977D01*
X0059617Y0096008D02*
X0059617Y0095168D01*
X0057201Y0095168D01*
X0057201Y0096008D01*
X0059617Y0096008D01*
X0057201Y0096008D01*
X0059617Y0094040D02*
X0059617Y0093200D01*
X0057201Y0093200D01*
X0057201Y0094040D01*
X0059617Y0094040D01*
X0057201Y0094040D01*
X0059617Y0092071D02*
X0059617Y0091231D01*
X0057201Y0091231D01*
X0057201Y0092071D01*
X0059617Y0092071D01*
X0057201Y0092071D01*
X0059617Y0090103D02*
X0059617Y0089263D01*
X0057201Y0089263D01*
X0057201Y0090103D01*
X0059617Y0090103D01*
X0057201Y0090103D01*
X0059617Y0088134D02*
X0059617Y0087294D01*
X0057201Y0087294D01*
X0057201Y0088134D01*
X0059617Y0088134D01*
X0057201Y0088134D01*
X0059617Y0086166D02*
X0059617Y0085326D01*
X0057201Y0085326D01*
X0057201Y0086166D01*
X0059617Y0086166D01*
X0057201Y0086166D01*
D17*
X0080583Y0078631D02*
X0080583Y0096797D01*
X0080583Y0078631D02*
X0062417Y0078631D01*
X0062417Y0096797D01*
X0080583Y0096797D01*
X0080583Y0080649D02*
X0062417Y0080649D01*
X0062417Y0082667D02*
X0080583Y0082667D01*
X0080583Y0084685D02*
X0062417Y0084685D01*
X0062417Y0086703D02*
X0080583Y0086703D01*
X0080583Y0088721D02*
X0062417Y0088721D01*
X0062417Y0090739D02*
X0080583Y0090739D01*
X0080583Y0092757D02*
X0062417Y0092757D01*
X0062417Y0094775D02*
X0080583Y0094775D01*
X0080583Y0096793D02*
X0062417Y0096793D01*
D18*
X0145000Y0036214D03*
X0155000Y0036214D03*
X0155000Y0026214D03*
X0145000Y0026214D03*
X0145000Y0016214D03*
X0155000Y0016214D03*
D19*
X0022500Y0033714D03*
X0022500Y0043714D03*
X0022500Y0053714D03*
X0022500Y0063714D03*
X0022500Y0073714D03*
X0022500Y0083714D03*
X0022500Y0093714D03*
X0022500Y0103714D03*
X0022500Y0113714D03*
X0022500Y0123714D03*
D20*
X0192000Y0073714D03*
X0192000Y0063714D03*
X0192000Y0053714D03*
X0192000Y0043714D03*
X0192000Y0033714D03*
X0192000Y0023714D03*
D21*
X0162600Y0057214D03*
X0159400Y0057214D03*
D22*
X0165382Y0111714D03*
X0167941Y0111714D03*
X0170500Y0111714D03*
X0173059Y0111714D03*
X0175618Y0111714D03*
D23*
X0180343Y0113584D03*
X0160657Y0113584D03*
D24*
X0156720Y0124214D03*
X0184280Y0124214D03*
D25*
X0182508Y0124214D03*
X0174437Y0124214D03*
X0166563Y0124214D03*
X0158492Y0124214D03*
D26*
X0151563Y0071455D03*
X0159831Y0067714D03*
X0151563Y0063974D03*
X0167563Y0050455D03*
X0175831Y0046714D03*
X0167563Y0042974D03*
X0175437Y0030955D03*
X0167169Y0027214D03*
X0175437Y0023474D03*
D27*
X0125000Y0053191D03*
X0120000Y0053191D03*
X0115000Y0053191D03*
X0110000Y0053191D03*
X0110000Y0075238D03*
X0115000Y0075238D03*
X0120000Y0075238D03*
X0125000Y0075238D03*
D28*
X0081783Y0060714D03*
X0067217Y0060714D03*
D29*
X0139594Y0092565D03*
X0139594Y0098864D03*
X0151406Y0098864D03*
X0151406Y0092565D03*
X0080906Y0119565D03*
X0080906Y0125864D03*
X0069094Y0125864D03*
X0069094Y0119565D03*
D30*
X0141941Y0070955D03*
X0147059Y0070955D03*
X0147059Y0063474D03*
X0144500Y0063474D03*
X0141941Y0063474D03*
X0150441Y0052455D03*
X0155559Y0052455D03*
X0155559Y0044974D03*
X0153000Y0044974D03*
X0150441Y0044974D03*
D31*
X0040831Y0039482D03*
D32*
X0123902Y0039482D03*
D33*
X0167760Y0018773D03*
X0167760Y0016214D03*
X0167760Y0013655D03*
X0175240Y0013655D03*
X0175240Y0018773D03*
D34*
X0052012Y0050045D03*
X0040988Y0050045D03*
X0040988Y0066384D03*
X0052012Y0066384D03*
X0052012Y0109545D03*
X0040988Y0109545D03*
X0040988Y0125884D03*
X0052012Y0125884D03*
D35*
X0180760Y0093332D03*
X0184500Y0093332D03*
X0188240Y0093332D03*
X0188240Y0083096D03*
X0184500Y0083096D03*
X0180760Y0083096D03*
D36*
X0175118Y0070955D03*
X0175118Y0067214D03*
X0175118Y0063474D03*
X0164882Y0063474D03*
X0164882Y0067214D03*
X0164882Y0070955D03*
D37*
X0115563Y0102214D03*
X0113594Y0102214D03*
X0111626Y0102214D03*
X0109657Y0102214D03*
X0107689Y0102214D03*
X0107689Y0117962D03*
X0109657Y0117962D03*
X0111626Y0117962D03*
X0113594Y0117962D03*
X0115563Y0117962D03*
D38*
X0119500Y0114025D03*
X0119500Y0112057D03*
X0119500Y0110088D03*
X0119500Y0108120D03*
X0119500Y0106151D03*
X0103752Y0106151D03*
X0103752Y0108120D03*
X0103752Y0110088D03*
X0103752Y0112057D03*
X0103752Y0114025D03*
D39*
X0111626Y0110088D03*
D40*
X0103500Y0103714D03*
X0096500Y0104714D03*
X0093089Y0108714D03*
X0093500Y0113292D03*
X0083500Y0109303D03*
X0075500Y0109303D03*
X0067500Y0109303D03*
X0062578Y0103972D03*
X0058000Y0105503D03*
X0055000Y0103214D03*
X0046500Y0114214D03*
X0035500Y0099714D03*
X0055000Y0089214D03*
X0055000Y0084636D03*
X0054543Y0079520D03*
X0051500Y0078510D03*
X0058000Y0073892D03*
X0058000Y0070914D03*
X0068500Y0069214D03*
X0084500Y0074214D03*
X0087179Y0075534D03*
X0090500Y0075925D03*
X0092000Y0080714D03*
X0089743Y0082714D03*
X0088000Y0085425D03*
X0102119Y0092333D03*
X0106500Y0092214D03*
X0110000Y0088714D03*
X0118000Y0087714D03*
X0127500Y0083714D03*
X0125000Y0079714D03*
X0134131Y0079846D03*
X0144500Y0071714D03*
X0138589Y0064714D03*
X0132000Y0064214D03*
X0125000Y0070214D03*
X0113500Y0066214D03*
X0117631Y0060346D03*
X0131000Y0049214D03*
X0132500Y0042214D03*
X0116500Y0044714D03*
X0116500Y0048214D03*
X0103823Y0045392D03*
X0099119Y0053333D03*
X0101000Y0072214D03*
X0093500Y0096214D03*
X0096000Y0099214D03*
X0091000Y0100214D03*
X0090000Y0120714D03*
X0086000Y0120714D03*
X0103000Y0120714D03*
X0117909Y0121306D03*
X0127500Y0122714D03*
X0136104Y0108714D03*
X0145500Y0100714D03*
X0145500Y0095714D03*
X0153550Y0079925D03*
X0151419Y0077795D03*
X0160000Y0071214D03*
X0163189Y0074525D03*
X0167000Y0074714D03*
X0184500Y0088214D03*
X0155673Y0057388D03*
X0148500Y0055714D03*
X0171000Y0030714D03*
X0167500Y0021714D03*
X0132500Y0026714D03*
X0128500Y0026714D03*
X0059500Y0045214D03*
X0046500Y0058214D03*
X0036500Y0051425D03*
X0043089Y0073214D03*
X0035000Y0024214D03*
X0032500Y0022214D03*
D41*
X0080119Y0068096D03*
X0083597Y0068214D03*
M02*
