<svg width="7.274998425196852in" height="5.286973228346456in" viewBox="0 0 7.274998425196852 5.286973228346456" xmlns="http://www.w3.org/2000/svg" xmlnsXlink="http://www.w3.org/1999/xlink">
        <g transform="translate(0 5.286973228346456)">
          <g data-reactroot="" transform="scale(1, -1)"><g fill="none" stroke="rgb(0,0,0)"><g transform="matrix(1,0,0,1,3.637499212598426,2.643486614173228)"><path class="outline" d="M -3.4283867440944884 -2.643486614173228 C -3.4283867440944884 -2.643486614173228 3.4283867440944884 -2.643486614173228 3.4283867440944884 -2.643486614173228 C 3.5438763714422454 -2.643486614173228 3.6374992125984256 -2.549863773017048 3.6374992125984256 -2.434374145669291 C 3.6374992125984256 -2.434374145669291 3.6374992125984256 2.434374145669291 3.6374992125984256 2.434374145669291 C 3.6374992125984256 2.549863773017048 3.5438763714422454 2.643486614173228 3.4283867440944884 2.643486614173228 C 3.4283867440944884 2.643486614173228 -3.4283867440944884 2.643486614173228 -3.4283867440944884 2.643486614173228 C -3.5438763714422454 2.643486614173228 -3.6374992125984256 2.549863773017048 -3.6374992125984256 2.434374145669291 C -3.6374992125984256 2.434374145669291 -3.6374992125984256 -2.434374145669291 -3.6374992125984256 -2.434374145669291 C -3.6374992125984256 -2.549863773017048 -3.5438763714422454 -2.643486614173228 -3.4283867440944884 -2.643486614173228" stroke-width="0.01"></path></g></g><g fill="none" stroke="rgb(0,0,0)"><g transform="matrix(1,0,0,1,0.4841352755905538,2.6420279527559054)"><path class="outline" d="M 0 0.11314588188976378 C 0.06255483659501421 0.11314588188976378 0.11326555118110236 0.06248874507038854 0.11326555118110236 0 C 0.11326555118110236 -0.06248874507038854 0.06255483659501421 -0.11314588188976378 0 -0.11314588188976378 C -0.06255483659501421 -0.11314588188976378 -0.11326555118110236 -0.06248874507038854 -0.11326555118110236 0 C -0.11326555118110236 0.06248874507038854 -0.06255483659501421 0.11314588188976378 0 0.11314588188976378" stroke-width="0.01"></path></g></g><g fill="none" stroke="rgb(0,0,0)"><g transform="matrix(1,0,0,1,6.80035948818898,2.6420279527559054)"><path class="outline" d="M 0 0.11314588188976378 C 0.06255483659501421 0.11314588188976378 0.11326555118110236 0.06248874507038854 0.11326555118110236 0 C 0.11326555118110236 -0.06248874507038854 0.06255483659501421 -0.11314588188976378 0 -0.11314588188976378 C -0.06255483659501421 -0.11314588188976378 -0.11326555118110236 -0.06248874507038854 -0.11326555118110236 0 C -0.11326555118110236 0.06248874507038854 -0.06255483659501421 0.11314588188976378 0 0.11314588188976378" stroke-width="0.01"></path></g></g><g fill="none" stroke="rgb(0,0,0)"><g transform="matrix(1,0,0,-1,2.3414561614156133,2.6302531105311666)"><path class="outline" d="M -1.3391110433053746 -1.4010811414373385 C -1.3734220669274217 -1.4008055508861572 -1.4010832873998629 -1.372893346161747 -1.401082066927422 -1.3385811414373394 C -1.401082066927422 -1.3040634249019056 -1.3730998622030124 -1.2760811414373403 -1.338582066927422 -1.2760811414373403 C -1.3040642716518314 -1.2760811414373403 -1.276082066927422 -1.304063424901908 -1.276082066927422 -1.3385811414373394 C -1.2760808070849023 -1.3733063382877335 -1.3043868307069495 -1.4013748422247416 -1.3391110433053746 -1.4010811414373385 C -1.3391110433053746 -1.4010811414373385 -1.3391110433053746 -1.4010811414373385 -1.3391110433053746 -1.4010811414373385 M 1.338053326773366 -1.4010811414373385 C 1.303742303151319 -1.4008055508861572 1.2760808858284842 -1.372893346161747 1.2760820669308461 -1.3385811414373394 C 1.2760820669308461 -1.3040634249019056 1.3040643503954132 -1.2760811414373403 1.3385820669308464 -1.2760811414373403 C 1.3730997834662795 -1.2760811414373403 1.4010820669308466 -1.304063424901908 1.4010820669308466 -1.3385811414373394 C 1.4010832480332085 -1.3733063382877335 1.3727773425213976 -1.4013748422247416 1.338053326773366 -1.4010811414373385 C 1.338053326773366 -1.4010811414373385 1.338053326773366 -1.4010811414373385 1.338053326773366 -1.4010811414373385 M -0.5910844685022246 -0.052651613878283106 C -0.6253954921242718 -0.052376023327101805 -0.6530567519667915 -0.024464212303480136 -0.6530554921242719 0.009848386121716 C -0.6530554921242719 0.04436610265714968 -0.6250733267699413 0.07234838612171511 -0.5905554921242719 0.07234838612171511 C -0.5560376968486813 0.07234838612171511 -0.528055492124272 0.04436610265714744 -0.528055492124272 0.009848386121716 C -0.5280542716518312 -0.024877204429464554 -0.5563602952738782 -0.052945708366472555 -0.5910844685022246 -0.052651613878283106 C -0.5910844685022246 -0.052651613878283106 -0.5910844685022246 -0.052651613878283106 -0.5910844685022246 -0.052651613878283106 M 0.5900270669308465 -0.052651613878283106 C 0.5557081299229725 -0.052376023327101805 0.5280345866158861 -0.024471692618439782 0.5280357283481695 0.009848386121716 C 0.5280357283481695 0.04436610265714968 0.5560179330725787 0.07234838612171511 0.5905357283481697 0.07234838612171511 C 0.6250535236237601 0.07234838612171511 0.6530358070883272 0.04436610265714744 0.6530358070883272 0.009848386121716 C 0.6530369881906892 -0.024868936712929855 0.6247433267733669 -0.052934291043637643 0.590027066930847 -0.052651613878283106 C 0.590027066930847 -0.052651613878283106 0.5900270669308465 -0.052651613878283106 0.5900270669308465 -0.052651613878283106 M -1.339111043305374 1.2760834254917952 C -1.373422066927421 1.2763590160429765 -1.401083287399862 1.3042712207673868 -1.401082066927421 1.3385834254917943 C -1.401082066927421 1.3731015357280145 -1.3730998622030115 1.4010834254917932 -1.338582066927421 1.4010834254917932 C -1.3040642716518305 1.4010834254917932 -1.276082066927421 1.3731015357280145 -1.276082066927421 1.3385834254917943 C -1.2760808070849015 1.3038582286414002 -1.3043868307069488 1.2757897247043921 -1.339111043305374 1.2760834254917952 C -1.339111043305374 1.2760834254917952 -1.339111043305374 1.2760834254917952 -1.339111043305374 1.2760834254917952 M 1.3380533267733665 1.2760834254917952 C 1.3037423031513193 1.2763590160429765 1.2760808858284847 1.3042712207673868 1.2760820669308466 1.3385834254917943 C 1.2760820669308466 1.3731015357280145 1.3040643503954137 1.4010834254917932 1.3385820669308468 1.4010834254917932 C 1.37309978346628 1.4010834254917932 1.401082066930847 1.3731015357280145 1.401082066930847 1.3385834254917943 C 1.401083248033209 1.3038582286414002 1.372777342521398 1.2757897247043921 1.3380533267733665 1.2760834254917952 C 1.3380533267733665 1.2760834254917952 1.3380533267733665 1.2760834254917952 1.3380533267733665 1.2760834254917952" stroke-width="0.01"></path></g></g><g fill="none" stroke="rgb(0,0,0)"><g transform="matrix(6.123233995736766e-17,1,-1,6.123233995736766e-17,5.292026732283467,1.7395269685039363)"><path class="outline" d="M 0 0.06299212598425197 C 0.034789590538582674 0.06299212598425197 0.06299212598425197 0.034789590538582674 0.06299212598425197 0 C 0.06299212598425197 -0.034789590538582674 0.034789590538582674 -0.06299212598425197 0 -0.06299212598425197 C -0.034789590538582674 -0.06299212598425197 -0.06299212598425197 -0.034789590538582674 -0.06299212598425197 0 C -0.06299212598425197 0.034789590538582674 -0.034789590538582674 0.06299212598425197 0 0.06299212598425197" stroke-width="0.01"></path></g></g><g fill="none" stroke="rgb(0,0,0)"><g transform="matrix(6.123233995736766e-17,1,-1,6.123233995736766e-17,4.267026614173232,3.544526968503938)"><path class="outline" d="M 0 0.06299212598425197 C 0.034789590538582674 0.06299212598425197 0.06299212598425197 0.034789590538582674 0.06299212598425197 0 C 0.06299212598425197 -0.034789590538582674 0.034789590538582674 -0.06299212598425197 0 -0.06299212598425197 C -0.034789590538582674 -0.06299212598425197 -0.06299212598425197 -0.034789590538582674 -0.06299212598425197 0 C -0.06299212598425197 0.034789590538582674 -0.034789590538582674 0.06299212598425197 0 0.06299212598425197" stroke-width="0.01"></path></g></g><g fill="none" stroke="rgb(255,255,255)"><g transform="matrix(1,0,0,1,3.984974055118114,1.2728854330708648)"><path class="outline" d="M 0 0.0006441964173228347 C 0.00035577985716319814 0.0006441964173228347 0.0006441964173228347 0.00035577985716319814 0.0006441964173228347 0 C 0.0006441964173228347 -0.00035577985716319814 0.00035577985716319814 -0.0006441964173228347 0 -0.0006441964173228347 C -0.00035577985716319814 -0.0006441964173228347 -0.0006441964173228347 -0.00035577985716319814 -0.0006441964173228347 0 C -0.0006441964173228347 0.00035577985716319814 -0.00035577985716319814 0.0006441964173228347 0 0.0006441964173228347" stroke-width="0.01"></path></g></g></g>
        </g>
      </svg>