%
M48
M72
T01C0.01181
T02C0.01378
T03C0.03543
T04C0.04000
T05C0.04016
T06C0.04331
T07C0.04724
T08C0.06299
T09C0.09843
%
T01
X32500Y22214
X35000Y24214
X59500Y45214
X46500Y58214
X36500Y51425
X58000Y70914
X58000Y73892
X51500Y78510
X54543Y79520
X55000Y84636
X55000Y89214
X35500Y99714
X55000Y103214
X58000Y105503
X62578Y103972
X67500Y109303
X75500Y109303
X83500Y109303
X93089Y108714
X96500Y104714
X103500Y103714
X96000Y99214
X93500Y96214
X91000Y100214
X102119Y92333
X106500Y92214
X110000Y88714
X118000Y87714
X127500Y83714
X125000Y79714
X134131Y79846
X144500Y71714
X138589Y64714
X132000Y64214
X125000Y70214
X113500Y66214
X117631Y60346
X131000Y49214
X132500Y42214
X116500Y44714
X116500Y48214
X103823Y45392
X99119Y53333
X101000Y72214
X90500Y75925
X87179Y75534
X84500Y74214
X92000Y80714
X89743Y82714
X88000Y85425
X68500Y69214
X43089Y73214
X46500Y114214
X86000Y120714
X90000Y120714
X93500Y113292
X103000Y120714
X117909Y121306
X127500Y122714
X136104Y108714
X145500Y100714
X145500Y95714
X153550Y79925
X151419Y77795
X160000Y71214
X163189Y74525
X167000Y74714
X184500Y88214
X155673Y57388
X148500Y55714
X171000Y30714
X167500Y21714
X132500Y26714
X128500Y26714
T02
X83597Y68214
X80119Y68096
T03
X160657Y113584
X180343Y113584
T04
X192000Y73714
X192000Y63714
X192000Y53714
X192000Y43714
X192000Y33714
X192000Y23714
X22500Y33714
X22500Y43714
X22500Y53714
X22500Y63714
X22500Y73714
X22500Y83714
X22500Y93714
X22500Y103714
X22500Y113714
X22500Y123714
T05
X145000Y36214
X155000Y36214
X155000Y26214
X145000Y26214
X145000Y16214
X155000Y16214
T06
X40831Y39482
T07
X156720Y124214
X184280Y124214
T08
X123902Y39482
T09
X18000Y18714
X198500Y121214
M30
