G75*
%MOIN*%
%OFA0B0*%
%FSLAX25Y25*%
%IPPOS*%
%LPD*%
%AMOC8*
5,1,8,0,0,1.08239X$1,22.5*
%
%ADD10C,0.40000*%
%ADD11R,0.10000X0.20000*%
%ADD12R,0.03937X0.04331*%
%ADD13R,0.05906X0.05118*%
%ADD14R,0.04331X0.03937*%
%ADD15C,0.00591*%
%ADD16C,0.01969*%
%ADD17R,0.01772X0.09252*%
%ADD18R,0.05906X0.06102*%
%ADD19R,0.03543X0.03150*%
%ADD20R,0.02362X0.04724*%
%ADD21R,0.06693X0.09449*%
%ADD22R,0.05512X0.04331*%
%ADD23R,0.01378X0.03150*%
%ADD24R,0.03150X0.01378*%
%ADD25R,0.03199X0.04134*%
%ADD26R,0.02165X0.04724*%
%ADD27R,0.04724X0.02165*%
%ADD28R,0.00984X0.03937*%
%ADD29R,0.03937X0.00984*%
%ADD30R,0.07874X0.07874*%
D10*
X0079500Y0060933D03*
D11*
X0049500Y0060933D03*
X0109500Y0060933D03*
D12*
X0039654Y0044433D03*
X0046346Y0044433D03*
X0059500Y0085587D03*
X0059500Y0092280D03*
X0046846Y0101933D03*
X0040154Y0101933D03*
X0089500Y0092280D03*
X0089500Y0085587D03*
X0093500Y0114087D03*
X0093500Y0120780D03*
X0090154Y0137433D03*
X0096846Y0137433D03*
X0096846Y0153433D03*
X0102154Y0153433D03*
X0108846Y0153433D03*
X0125654Y0145433D03*
X0132346Y0145433D03*
X0139500Y0148087D03*
X0139500Y0154780D03*
X0147500Y0154780D03*
X0147500Y0148087D03*
X0132346Y0137433D03*
X0125654Y0137433D03*
X0125654Y0129433D03*
X0132346Y0129433D03*
X0132346Y0120933D03*
X0125654Y0120933D03*
X0090154Y0153433D03*
X0144000Y0086780D03*
X0144000Y0080087D03*
X0161500Y0078780D03*
X0161500Y0072087D03*
X0168654Y0085433D03*
X0175346Y0085433D03*
X0174000Y0113587D03*
X0174000Y0120280D03*
X0190000Y0131587D03*
X0190000Y0138280D03*
X0195000Y0120280D03*
X0195000Y0113587D03*
X0203000Y0113587D03*
X0203000Y0120280D03*
D13*
X0199000Y0129193D03*
X0199000Y0136673D03*
D14*
X0136000Y0086780D03*
X0136000Y0080087D03*
X0083500Y0135087D03*
X0075500Y0135087D03*
X0067500Y0135087D03*
X0059000Y0139087D03*
X0059000Y0145780D03*
X0067500Y0141780D03*
X0075500Y0141780D03*
X0083500Y0141780D03*
X0090154Y0145433D03*
X0096846Y0145433D03*
X0114654Y0153433D03*
X0121346Y0153433D03*
X0049500Y0131780D03*
X0049500Y0125087D03*
X0049500Y0119280D03*
X0049500Y0112587D03*
X0041500Y0112587D03*
X0041500Y0119280D03*
X0041500Y0125087D03*
X0041500Y0131780D03*
D15*
X0059492Y0126571D02*
X0059492Y0125981D01*
X0057326Y0125981D01*
X0057326Y0126571D01*
X0059492Y0126571D01*
X0057326Y0126571D01*
X0059492Y0124602D02*
X0059492Y0124012D01*
X0057326Y0124012D01*
X0057326Y0124602D01*
X0059492Y0124602D01*
X0057326Y0124602D01*
X0059492Y0122634D02*
X0059492Y0122044D01*
X0057326Y0122044D01*
X0057326Y0122634D01*
X0059492Y0122634D01*
X0057326Y0122634D01*
X0059492Y0120665D02*
X0059492Y0120075D01*
X0057326Y0120075D01*
X0057326Y0120665D01*
X0059492Y0120665D01*
X0057326Y0120665D01*
X0059492Y0118697D02*
X0059492Y0118107D01*
X0057326Y0118107D01*
X0057326Y0118697D01*
X0059492Y0118697D01*
X0057326Y0118697D01*
X0059492Y0116728D02*
X0059492Y0116138D01*
X0057326Y0116138D01*
X0057326Y0116728D01*
X0059492Y0116728D01*
X0057326Y0116728D01*
X0059492Y0114760D02*
X0059492Y0114170D01*
X0057326Y0114170D01*
X0057326Y0114760D01*
X0059492Y0114760D01*
X0057326Y0114760D01*
X0059492Y0112791D02*
X0059492Y0112201D01*
X0057326Y0112201D01*
X0057326Y0112791D01*
X0059492Y0112791D01*
X0057326Y0112791D01*
X0059492Y0110823D02*
X0059492Y0110233D01*
X0057326Y0110233D01*
X0057326Y0110823D01*
X0059492Y0110823D01*
X0057326Y0110823D01*
X0059492Y0108854D02*
X0059492Y0108264D01*
X0057326Y0108264D01*
X0057326Y0108854D01*
X0059492Y0108854D01*
X0057326Y0108854D01*
X0059492Y0106886D02*
X0059492Y0106296D01*
X0057326Y0106296D01*
X0057326Y0106886D01*
X0059492Y0106886D01*
X0057326Y0106886D01*
X0061952Y0104426D02*
X0061952Y0102260D01*
X0061362Y0102260D01*
X0061362Y0104426D01*
X0061952Y0104426D01*
X0061952Y0102850D02*
X0061362Y0102850D01*
X0061362Y0103440D02*
X0061952Y0103440D01*
X0061952Y0104030D02*
X0061362Y0104030D01*
X0063921Y0104426D02*
X0063921Y0102260D01*
X0063331Y0102260D01*
X0063331Y0104426D01*
X0063921Y0104426D01*
X0063921Y0102850D02*
X0063331Y0102850D01*
X0063331Y0103440D02*
X0063921Y0103440D01*
X0063921Y0104030D02*
X0063331Y0104030D01*
X0065889Y0104426D02*
X0065889Y0102260D01*
X0065299Y0102260D01*
X0065299Y0104426D01*
X0065889Y0104426D01*
X0065889Y0102850D02*
X0065299Y0102850D01*
X0065299Y0103440D02*
X0065889Y0103440D01*
X0065889Y0104030D02*
X0065299Y0104030D01*
X0067858Y0104426D02*
X0067858Y0102260D01*
X0067268Y0102260D01*
X0067268Y0104426D01*
X0067858Y0104426D01*
X0067858Y0102850D02*
X0067268Y0102850D01*
X0067268Y0103440D02*
X0067858Y0103440D01*
X0067858Y0104030D02*
X0067268Y0104030D01*
X0069826Y0104426D02*
X0069826Y0102260D01*
X0069236Y0102260D01*
X0069236Y0104426D01*
X0069826Y0104426D01*
X0069826Y0102850D02*
X0069236Y0102850D01*
X0069236Y0103440D02*
X0069826Y0103440D01*
X0069826Y0104030D02*
X0069236Y0104030D01*
X0071795Y0104426D02*
X0071795Y0102260D01*
X0071205Y0102260D01*
X0071205Y0104426D01*
X0071795Y0104426D01*
X0071795Y0102850D02*
X0071205Y0102850D01*
X0071205Y0103440D02*
X0071795Y0103440D01*
X0071795Y0104030D02*
X0071205Y0104030D01*
X0073764Y0104426D02*
X0073764Y0102260D01*
X0073174Y0102260D01*
X0073174Y0104426D01*
X0073764Y0104426D01*
X0073764Y0102850D02*
X0073174Y0102850D01*
X0073174Y0103440D02*
X0073764Y0103440D01*
X0073764Y0104030D02*
X0073174Y0104030D01*
X0075732Y0104426D02*
X0075732Y0102260D01*
X0075142Y0102260D01*
X0075142Y0104426D01*
X0075732Y0104426D01*
X0075732Y0102850D02*
X0075142Y0102850D01*
X0075142Y0103440D02*
X0075732Y0103440D01*
X0075732Y0104030D02*
X0075142Y0104030D01*
X0077701Y0104426D02*
X0077701Y0102260D01*
X0077111Y0102260D01*
X0077111Y0104426D01*
X0077701Y0104426D01*
X0077701Y0102850D02*
X0077111Y0102850D01*
X0077111Y0103440D02*
X0077701Y0103440D01*
X0077701Y0104030D02*
X0077111Y0104030D01*
X0079669Y0104426D02*
X0079669Y0102260D01*
X0079079Y0102260D01*
X0079079Y0104426D01*
X0079669Y0104426D01*
X0079669Y0102850D02*
X0079079Y0102850D01*
X0079079Y0103440D02*
X0079669Y0103440D01*
X0079669Y0104030D02*
X0079079Y0104030D01*
X0081638Y0104426D02*
X0081638Y0102260D01*
X0081048Y0102260D01*
X0081048Y0104426D01*
X0081638Y0104426D01*
X0081638Y0102850D02*
X0081048Y0102850D01*
X0081048Y0103440D02*
X0081638Y0103440D01*
X0081638Y0104030D02*
X0081048Y0104030D01*
X0085674Y0106296D02*
X0085674Y0106886D01*
X0085674Y0106296D02*
X0083508Y0106296D01*
X0083508Y0106886D01*
X0085674Y0106886D01*
X0083508Y0106886D01*
X0085674Y0108264D02*
X0085674Y0108854D01*
X0085674Y0108264D02*
X0083508Y0108264D01*
X0083508Y0108854D01*
X0085674Y0108854D01*
X0083508Y0108854D01*
X0085674Y0110233D02*
X0085674Y0110823D01*
X0085674Y0110233D02*
X0083508Y0110233D01*
X0083508Y0110823D01*
X0085674Y0110823D01*
X0083508Y0110823D01*
X0085674Y0112201D02*
X0085674Y0112791D01*
X0085674Y0112201D02*
X0083508Y0112201D01*
X0083508Y0112791D01*
X0085674Y0112791D01*
X0083508Y0112791D01*
X0085674Y0114170D02*
X0085674Y0114760D01*
X0085674Y0114170D02*
X0083508Y0114170D01*
X0083508Y0114760D01*
X0085674Y0114760D01*
X0083508Y0114760D01*
X0085674Y0116138D02*
X0085674Y0116728D01*
X0085674Y0116138D02*
X0083508Y0116138D01*
X0083508Y0116728D01*
X0085674Y0116728D01*
X0083508Y0116728D01*
X0085674Y0118107D02*
X0085674Y0118697D01*
X0085674Y0118107D02*
X0083508Y0118107D01*
X0083508Y0118697D01*
X0085674Y0118697D01*
X0083508Y0118697D01*
X0085674Y0120075D02*
X0085674Y0120665D01*
X0085674Y0120075D02*
X0083508Y0120075D01*
X0083508Y0120665D01*
X0085674Y0120665D01*
X0083508Y0120665D01*
X0085674Y0122044D02*
X0085674Y0122634D01*
X0085674Y0122044D02*
X0083508Y0122044D01*
X0083508Y0122634D01*
X0085674Y0122634D01*
X0083508Y0122634D01*
X0085674Y0124012D02*
X0085674Y0124602D01*
X0085674Y0124012D02*
X0083508Y0124012D01*
X0083508Y0124602D01*
X0085674Y0124602D01*
X0083508Y0124602D01*
X0085674Y0125981D02*
X0085674Y0126571D01*
X0085674Y0125981D02*
X0083508Y0125981D01*
X0083508Y0126571D01*
X0085674Y0126571D01*
X0083508Y0126571D01*
X0081638Y0128441D02*
X0081638Y0130607D01*
X0081638Y0128441D02*
X0081048Y0128441D01*
X0081048Y0130607D01*
X0081638Y0130607D01*
X0081638Y0129031D02*
X0081048Y0129031D01*
X0081048Y0129621D02*
X0081638Y0129621D01*
X0081638Y0130211D02*
X0081048Y0130211D01*
X0079669Y0130607D02*
X0079669Y0128441D01*
X0079079Y0128441D01*
X0079079Y0130607D01*
X0079669Y0130607D01*
X0079669Y0129031D02*
X0079079Y0129031D01*
X0079079Y0129621D02*
X0079669Y0129621D01*
X0079669Y0130211D02*
X0079079Y0130211D01*
X0077701Y0130607D02*
X0077701Y0128441D01*
X0077111Y0128441D01*
X0077111Y0130607D01*
X0077701Y0130607D01*
X0077701Y0129031D02*
X0077111Y0129031D01*
X0077111Y0129621D02*
X0077701Y0129621D01*
X0077701Y0130211D02*
X0077111Y0130211D01*
X0075732Y0130607D02*
X0075732Y0128441D01*
X0075142Y0128441D01*
X0075142Y0130607D01*
X0075732Y0130607D01*
X0075732Y0129031D02*
X0075142Y0129031D01*
X0075142Y0129621D02*
X0075732Y0129621D01*
X0075732Y0130211D02*
X0075142Y0130211D01*
X0073764Y0130607D02*
X0073764Y0128441D01*
X0073174Y0128441D01*
X0073174Y0130607D01*
X0073764Y0130607D01*
X0073764Y0129031D02*
X0073174Y0129031D01*
X0073174Y0129621D02*
X0073764Y0129621D01*
X0073764Y0130211D02*
X0073174Y0130211D01*
X0071795Y0130607D02*
X0071795Y0128441D01*
X0071205Y0128441D01*
X0071205Y0130607D01*
X0071795Y0130607D01*
X0071795Y0129031D02*
X0071205Y0129031D01*
X0071205Y0129621D02*
X0071795Y0129621D01*
X0071795Y0130211D02*
X0071205Y0130211D01*
X0069826Y0130607D02*
X0069826Y0128441D01*
X0069236Y0128441D01*
X0069236Y0130607D01*
X0069826Y0130607D01*
X0069826Y0129031D02*
X0069236Y0129031D01*
X0069236Y0129621D02*
X0069826Y0129621D01*
X0069826Y0130211D02*
X0069236Y0130211D01*
X0067858Y0130607D02*
X0067858Y0128441D01*
X0067268Y0128441D01*
X0067268Y0130607D01*
X0067858Y0130607D01*
X0067858Y0129031D02*
X0067268Y0129031D01*
X0067268Y0129621D02*
X0067858Y0129621D01*
X0067858Y0130211D02*
X0067268Y0130211D01*
X0065889Y0130607D02*
X0065889Y0128441D01*
X0065299Y0128441D01*
X0065299Y0130607D01*
X0065889Y0130607D01*
X0065889Y0129031D02*
X0065299Y0129031D01*
X0065299Y0129621D02*
X0065889Y0129621D01*
X0065889Y0130211D02*
X0065299Y0130211D01*
X0063921Y0130607D02*
X0063921Y0128441D01*
X0063331Y0128441D01*
X0063331Y0130607D01*
X0063921Y0130607D01*
X0063921Y0129031D02*
X0063331Y0129031D01*
X0063331Y0129621D02*
X0063921Y0129621D01*
X0063921Y0130211D02*
X0063331Y0130211D01*
X0061952Y0130607D02*
X0061952Y0128441D01*
X0061362Y0128441D01*
X0061362Y0130607D01*
X0061952Y0130607D01*
X0061952Y0129031D02*
X0061362Y0129031D01*
X0061362Y0129621D02*
X0061952Y0129621D01*
X0061952Y0130211D02*
X0061362Y0130211D01*
D16*
X0080358Y0125291D02*
X0080358Y0107575D01*
X0062642Y0107575D01*
X0062642Y0125291D01*
X0080358Y0125291D01*
X0080358Y0109543D02*
X0062642Y0109543D01*
X0062642Y0111511D02*
X0080358Y0111511D01*
X0080358Y0113479D02*
X0062642Y0113479D01*
X0062642Y0115447D02*
X0080358Y0115447D01*
X0080358Y0117415D02*
X0062642Y0117415D01*
X0062642Y0119383D02*
X0080358Y0119383D01*
X0080358Y0121351D02*
X0062642Y0121351D01*
X0062642Y0123319D02*
X0080358Y0123319D01*
X0080358Y0125287D02*
X0062642Y0125287D01*
D17*
X0165382Y0140433D03*
X0167941Y0140433D03*
X0170500Y0140433D03*
X0173059Y0140433D03*
X0175618Y0140433D03*
D18*
X0174437Y0152933D03*
X0166563Y0152933D03*
X0158492Y0152933D03*
X0182508Y0152933D03*
D19*
X0151563Y0100173D03*
X0159831Y0096433D03*
X0151563Y0092693D03*
X0167563Y0079173D03*
X0175831Y0075433D03*
X0167563Y0071693D03*
X0175437Y0059673D03*
X0175437Y0052193D03*
X0167169Y0055933D03*
D20*
X0125000Y0081909D03*
X0120000Y0081909D03*
X0115000Y0081909D03*
X0110000Y0081909D03*
X0110000Y0103957D03*
X0115000Y0103957D03*
X0120000Y0103957D03*
X0125000Y0103957D03*
D21*
X0081783Y0089433D03*
X0067217Y0089433D03*
D22*
X0139594Y0121283D03*
X0139594Y0127583D03*
X0151406Y0127583D03*
X0151406Y0121283D03*
X0080906Y0148283D03*
X0080906Y0154583D03*
X0069094Y0154583D03*
X0069094Y0148283D03*
D23*
X0141941Y0099673D03*
X0147059Y0099673D03*
X0147059Y0092193D03*
X0144500Y0092193D03*
X0141941Y0092193D03*
X0150441Y0081173D03*
X0155559Y0081173D03*
X0155559Y0073693D03*
X0153000Y0073693D03*
X0150441Y0073693D03*
D24*
X0167760Y0047492D03*
X0167760Y0044933D03*
X0167760Y0042374D03*
X0175240Y0042374D03*
X0175240Y0047492D03*
D25*
X0052012Y0078764D03*
X0040988Y0078764D03*
X0040988Y0095102D03*
X0052012Y0095102D03*
X0052012Y0138264D03*
X0040988Y0138264D03*
X0040988Y0154602D03*
X0052012Y0154602D03*
D26*
X0180760Y0122051D03*
X0184500Y0122051D03*
X0188240Y0122051D03*
X0188240Y0111815D03*
X0184500Y0111815D03*
X0180760Y0111815D03*
D27*
X0175118Y0099673D03*
X0175118Y0095933D03*
X0175118Y0092193D03*
X0164882Y0092193D03*
X0164882Y0095933D03*
X0164882Y0099673D03*
D28*
X0115563Y0130933D03*
X0113594Y0130933D03*
X0111626Y0130933D03*
X0109657Y0130933D03*
X0107689Y0130933D03*
X0107689Y0146681D03*
X0109657Y0146681D03*
X0111626Y0146681D03*
X0113594Y0146681D03*
X0115563Y0146681D03*
D29*
X0119500Y0142744D03*
X0119500Y0140776D03*
X0119500Y0138807D03*
X0119500Y0136839D03*
X0119500Y0134870D03*
X0103752Y0134870D03*
X0103752Y0136839D03*
X0103752Y0138807D03*
X0103752Y0140776D03*
X0103752Y0142744D03*
D30*
X0111626Y0138807D03*
M02*
