G75*
%MOIN*%
%OFA0B0*%
%FSLAX25Y25*%
%IPPOS*%
%LPD*%
%AMOC8*
5,1,8,0,0,1.08239X$1,22.5*
%
%ADD10C,0.00500*%
%ADD11C,0.00400*%
%ADD12R,0.03740X0.01969*%
%ADD13R,0.05709X0.02953*%
%ADD14R,0.01969X0.03740*%
%ADD15C,0.00600*%
%ADD16R,0.01600X0.03400*%
%ADD17C,0.01000*%
%ADD18R,0.00984X0.01969*%
%ADD19R,0.01969X0.00984*%
%ADD20R,0.02000X0.02000*%
%ADD21C,0.00800*%
%ADD22R,0.03400X0.01600*%
%ADD23R,0.02000X0.04050*%
%ADD24R,0.02000X0.04000*%
%ADD25C,0.00010*%
%ADD26R,0.01181X0.02067*%
%ADD27R,0.03500X0.02000*%
%ADD28R,0.02067X0.01181*%
%ADD29R,0.02000X0.03500*%
%ADD30R,0.01969X0.02559*%
%ADD31R,0.02559X0.01969*%
%ADD32R,0.02500X0.01000*%
D10*
X0009705Y0027809D02*
X0032500Y0027809D01*
X0032500Y0069620D01*
X0035295Y0069620D01*
X0035295Y0027809D01*
X0032500Y0027809D01*
X0009705Y0027809D02*
X0009705Y0069620D01*
X0032500Y0069620D01*
X0040201Y0067269D02*
X0040201Y0049159D01*
X0052799Y0049159D01*
X0052799Y0067269D01*
X0040201Y0067269D01*
X0057950Y0061616D02*
X0057950Y0058813D01*
X0061101Y0058813D02*
X0061101Y0061616D01*
X0064657Y0067014D02*
X0084343Y0067014D01*
X0084343Y0054415D01*
X0064657Y0054415D01*
X0064657Y0067014D01*
X0087899Y0061616D02*
X0087899Y0058813D01*
X0091050Y0058813D02*
X0091050Y0061616D01*
X0091899Y0087313D02*
X0091899Y0090116D01*
X0095050Y0090116D02*
X0095050Y0087313D01*
X0103752Y0102214D02*
X0103752Y0104183D01*
X0103752Y0102214D02*
X0105720Y0102214D01*
X0117531Y0102214D02*
X0119500Y0102214D01*
X0119500Y0104183D01*
X0119500Y0115994D02*
X0119500Y0117962D01*
X0117531Y0117962D01*
X0116598Y0123114D02*
X0119402Y0123114D01*
X0119402Y0126264D02*
X0116598Y0126264D01*
X0105720Y0117962D02*
X0103752Y0117962D01*
X0103752Y0115994D01*
X0094902Y0115114D02*
X0092098Y0115114D01*
X0092098Y0118264D02*
X0094902Y0118264D01*
X0081299Y0117203D02*
X0068701Y0117203D01*
X0068701Y0128226D01*
X0081299Y0128226D01*
X0081299Y0120714D01*
X0078000Y0117214D01*
X0081299Y0117203D02*
X0081299Y0120714D01*
X0064850Y0122322D02*
X0062150Y0122322D01*
X0062150Y0121572D02*
X0062150Y0123072D01*
X0062150Y0125010D02*
X0064850Y0125910D01*
X0064175Y0125685D02*
X0064175Y0124335D01*
X0064850Y0124110D02*
X0062150Y0125010D01*
X0062150Y0126948D02*
X0062150Y0128448D01*
X0062150Y0127698D02*
X0064850Y0127698D01*
X0057850Y0127148D02*
X0057850Y0126248D01*
X0057848Y0126201D01*
X0057843Y0126154D01*
X0057833Y0126108D01*
X0057821Y0126063D01*
X0057804Y0126018D01*
X0057785Y0125976D01*
X0057762Y0125935D01*
X0057735Y0125895D01*
X0057706Y0125858D01*
X0057674Y0125824D01*
X0057640Y0125792D01*
X0057603Y0125763D01*
X0057563Y0125736D01*
X0057522Y0125713D01*
X0057480Y0125694D01*
X0057435Y0125677D01*
X0057390Y0125665D01*
X0057344Y0125655D01*
X0057297Y0125650D01*
X0057250Y0125648D01*
X0055750Y0125648D01*
X0055703Y0125650D01*
X0055656Y0125655D01*
X0055610Y0125665D01*
X0055565Y0125677D01*
X0055520Y0125694D01*
X0055478Y0125713D01*
X0055437Y0125736D01*
X0055397Y0125763D01*
X0055360Y0125792D01*
X0055326Y0125824D01*
X0055294Y0125858D01*
X0055265Y0125895D01*
X0055238Y0125935D01*
X0055215Y0125976D01*
X0055196Y0126018D01*
X0055179Y0126063D01*
X0055167Y0126108D01*
X0055157Y0126154D01*
X0055152Y0126201D01*
X0055150Y0126248D01*
X0055150Y0127148D01*
X0056350Y0127148D02*
X0056350Y0126698D01*
X0056350Y0127148D02*
X0057850Y0127148D01*
X0057100Y0124172D02*
X0055900Y0124172D01*
X0055846Y0124170D01*
X0055793Y0124164D01*
X0055741Y0124155D01*
X0055689Y0124142D01*
X0055638Y0124125D01*
X0055588Y0124104D01*
X0055541Y0124080D01*
X0055495Y0124053D01*
X0055451Y0124022D01*
X0055409Y0123989D01*
X0055370Y0123952D01*
X0055333Y0123913D01*
X0055300Y0123871D01*
X0055269Y0123827D01*
X0055242Y0123781D01*
X0055218Y0123734D01*
X0055197Y0123684D01*
X0055180Y0123633D01*
X0055167Y0123581D01*
X0055158Y0123529D01*
X0055152Y0123476D01*
X0055150Y0123422D01*
X0055152Y0123368D01*
X0055158Y0123315D01*
X0055167Y0123263D01*
X0055180Y0123211D01*
X0055197Y0123160D01*
X0055218Y0123110D01*
X0055242Y0123063D01*
X0055269Y0123017D01*
X0055300Y0122973D01*
X0055333Y0122931D01*
X0055370Y0122892D01*
X0055409Y0122855D01*
X0055451Y0122822D01*
X0055495Y0122791D01*
X0055541Y0122764D01*
X0055588Y0122740D01*
X0055638Y0122719D01*
X0055689Y0122702D01*
X0055741Y0122689D01*
X0055793Y0122680D01*
X0055846Y0122674D01*
X0055900Y0122672D01*
X0057100Y0122672D01*
X0057154Y0122674D01*
X0057207Y0122680D01*
X0057259Y0122689D01*
X0057311Y0122702D01*
X0057362Y0122719D01*
X0057412Y0122740D01*
X0057459Y0122764D01*
X0057505Y0122791D01*
X0057549Y0122822D01*
X0057591Y0122855D01*
X0057630Y0122892D01*
X0057667Y0122931D01*
X0057700Y0122973D01*
X0057731Y0123017D01*
X0057758Y0123063D01*
X0057782Y0123110D01*
X0057803Y0123160D01*
X0057820Y0123211D01*
X0057833Y0123263D01*
X0057842Y0123315D01*
X0057848Y0123368D01*
X0057850Y0123422D01*
X0057848Y0123476D01*
X0057842Y0123529D01*
X0057833Y0123581D01*
X0057820Y0123633D01*
X0057803Y0123684D01*
X0057782Y0123734D01*
X0057758Y0123781D01*
X0057731Y0123827D01*
X0057700Y0123871D01*
X0057667Y0123913D01*
X0057630Y0123952D01*
X0057591Y0123989D01*
X0057549Y0124022D01*
X0057505Y0124053D01*
X0057459Y0124080D01*
X0057412Y0124104D01*
X0057362Y0124125D01*
X0057311Y0124142D01*
X0057259Y0124155D01*
X0057207Y0124164D01*
X0057154Y0124170D01*
X0057100Y0124172D01*
X0057850Y0121481D02*
X0057850Y0120281D01*
X0055150Y0120281D01*
X0052799Y0126769D02*
X0040201Y0126769D01*
X0040201Y0108659D01*
X0052799Y0108659D01*
X0052799Y0126769D01*
X0062750Y0119056D02*
X0062799Y0119058D01*
X0062847Y0119064D01*
X0062895Y0119073D01*
X0062941Y0119087D01*
X0062987Y0119104D01*
X0063031Y0119125D01*
X0063073Y0119149D01*
X0063113Y0119176D01*
X0063151Y0119207D01*
X0063186Y0119240D01*
X0063219Y0119276D01*
X0063248Y0119315D01*
X0063275Y0119356D01*
X0063275Y0119355D02*
X0063725Y0120180D01*
X0064850Y0119880D02*
X0064848Y0119813D01*
X0064843Y0119747D01*
X0064834Y0119681D01*
X0064822Y0119615D01*
X0064806Y0119550D01*
X0064787Y0119486D01*
X0064765Y0119424D01*
X0064739Y0119362D01*
X0064710Y0119302D01*
X0064678Y0119243D01*
X0064643Y0119187D01*
X0064606Y0119132D01*
X0064565Y0119079D01*
X0064521Y0119029D01*
X0064475Y0118980D01*
X0063725Y0120180D02*
X0063752Y0120221D01*
X0063781Y0120260D01*
X0063814Y0120296D01*
X0063849Y0120329D01*
X0063887Y0120360D01*
X0063927Y0120387D01*
X0063969Y0120411D01*
X0064013Y0120432D01*
X0064059Y0120449D01*
X0064105Y0120463D01*
X0064153Y0120472D01*
X0064201Y0120478D01*
X0064250Y0120480D01*
X0064297Y0120478D01*
X0064344Y0120473D01*
X0064390Y0120463D01*
X0064435Y0120451D01*
X0064480Y0120434D01*
X0064522Y0120415D01*
X0064563Y0120392D01*
X0064603Y0120365D01*
X0064640Y0120336D01*
X0064674Y0120304D01*
X0064706Y0120270D01*
X0064735Y0120233D01*
X0064762Y0120193D01*
X0064785Y0120152D01*
X0064804Y0120110D01*
X0064821Y0120065D01*
X0064833Y0120020D01*
X0064843Y0119974D01*
X0064848Y0119927D01*
X0064850Y0119880D01*
X0062375Y0120330D02*
X0062337Y0120276D01*
X0062302Y0120220D01*
X0062271Y0120162D01*
X0062243Y0120103D01*
X0062219Y0120042D01*
X0062198Y0119979D01*
X0062181Y0119916D01*
X0062167Y0119851D01*
X0062158Y0119786D01*
X0062152Y0119721D01*
X0062150Y0119655D01*
X0062152Y0119608D01*
X0062157Y0119561D01*
X0062167Y0119515D01*
X0062179Y0119470D01*
X0062196Y0119425D01*
X0062215Y0119383D01*
X0062238Y0119342D01*
X0062265Y0119302D01*
X0062294Y0119265D01*
X0062326Y0119231D01*
X0062360Y0119199D01*
X0062397Y0119170D01*
X0062437Y0119143D01*
X0062478Y0119120D01*
X0062520Y0119101D01*
X0062565Y0119084D01*
X0062610Y0119072D01*
X0062656Y0119062D01*
X0062703Y0119057D01*
X0062750Y0119055D01*
X0137950Y0121313D02*
X0137950Y0124116D01*
X0141101Y0124116D02*
X0141101Y0121313D01*
X0145950Y0121313D02*
X0145950Y0124116D01*
X0149101Y0124116D02*
X0149101Y0121313D01*
X0156720Y0119293D02*
X0156720Y0113388D01*
X0156720Y0112994D02*
X0184280Y0112994D01*
X0184280Y0113388D02*
X0184280Y0119293D01*
X0184280Y0129136D02*
X0184280Y0132482D01*
X0184280Y0132679D01*
X0182704Y0132482D02*
X0182706Y0132592D01*
X0182712Y0132702D01*
X0182721Y0132811D01*
X0182735Y0132920D01*
X0182752Y0133029D01*
X0182773Y0133137D01*
X0182798Y0133244D01*
X0182826Y0133350D01*
X0182858Y0133455D01*
X0182894Y0133559D01*
X0182933Y0133662D01*
X0182976Y0133763D01*
X0183023Y0133863D01*
X0183073Y0133961D01*
X0183126Y0134057D01*
X0183183Y0134151D01*
X0183243Y0134243D01*
X0183306Y0134334D01*
X0183372Y0134421D01*
X0183441Y0134507D01*
X0183513Y0134590D01*
X0183588Y0134670D01*
X0183666Y0134748D01*
X0183746Y0134823D01*
X0183829Y0134895D01*
X0183915Y0134964D01*
X0184002Y0135030D01*
X0184093Y0135093D01*
X0184185Y0135153D01*
X0184279Y0135210D01*
X0184375Y0135263D01*
X0184473Y0135313D01*
X0184573Y0135360D01*
X0184674Y0135403D01*
X0184777Y0135442D01*
X0184881Y0135478D01*
X0184986Y0135510D01*
X0185092Y0135538D01*
X0185199Y0135563D01*
X0185307Y0135584D01*
X0185416Y0135601D01*
X0185525Y0135615D01*
X0185634Y0135624D01*
X0185744Y0135630D01*
X0185854Y0135632D01*
X0186248Y0134451D01*
X0186162Y0134449D01*
X0186076Y0134444D01*
X0185991Y0134434D01*
X0185906Y0134421D01*
X0185822Y0134404D01*
X0185738Y0134384D01*
X0185656Y0134360D01*
X0185575Y0134332D01*
X0185494Y0134301D01*
X0185416Y0134267D01*
X0185339Y0134229D01*
X0185264Y0134187D01*
X0185190Y0134143D01*
X0185119Y0134095D01*
X0185049Y0134044D01*
X0184982Y0133990D01*
X0184918Y0133934D01*
X0184856Y0133874D01*
X0184796Y0133812D01*
X0184740Y0133748D01*
X0184686Y0133681D01*
X0184635Y0133611D01*
X0184587Y0133540D01*
X0184543Y0133467D01*
X0184501Y0133391D01*
X0184463Y0133314D01*
X0184429Y0133236D01*
X0184398Y0133155D01*
X0184370Y0133074D01*
X0184346Y0132992D01*
X0184326Y0132908D01*
X0184309Y0132824D01*
X0184296Y0132739D01*
X0184286Y0132654D01*
X0184281Y0132568D01*
X0184279Y0132482D01*
X0182705Y0132482D02*
X0182705Y0131301D01*
X0181524Y0131301D01*
X0181522Y0131378D01*
X0181516Y0131455D01*
X0181507Y0131532D01*
X0181494Y0131608D01*
X0181477Y0131684D01*
X0181456Y0131758D01*
X0181432Y0131832D01*
X0181404Y0131904D01*
X0181373Y0131974D01*
X0181338Y0132043D01*
X0181300Y0132111D01*
X0181259Y0132176D01*
X0181214Y0132239D01*
X0181166Y0132300D01*
X0181116Y0132359D01*
X0181063Y0132415D01*
X0181007Y0132468D01*
X0180948Y0132518D01*
X0180887Y0132566D01*
X0180824Y0132611D01*
X0180759Y0132652D01*
X0180691Y0132690D01*
X0180622Y0132725D01*
X0180552Y0132756D01*
X0180480Y0132784D01*
X0180406Y0132808D01*
X0180332Y0132829D01*
X0180256Y0132846D01*
X0180180Y0132859D01*
X0180103Y0132868D01*
X0180026Y0132874D01*
X0179949Y0132876D01*
X0161051Y0132876D01*
X0160974Y0132874D01*
X0160897Y0132868D01*
X0160820Y0132859D01*
X0160744Y0132846D01*
X0160668Y0132829D01*
X0160594Y0132808D01*
X0160520Y0132784D01*
X0160448Y0132756D01*
X0160378Y0132725D01*
X0160309Y0132690D01*
X0160241Y0132652D01*
X0160176Y0132611D01*
X0160113Y0132566D01*
X0160052Y0132518D01*
X0159993Y0132468D01*
X0159937Y0132415D01*
X0159884Y0132359D01*
X0159834Y0132300D01*
X0159786Y0132239D01*
X0159741Y0132176D01*
X0159700Y0132111D01*
X0159662Y0132043D01*
X0159627Y0131974D01*
X0159596Y0131904D01*
X0159568Y0131832D01*
X0159544Y0131758D01*
X0159523Y0131684D01*
X0159506Y0131608D01*
X0159493Y0131532D01*
X0159484Y0131455D01*
X0159478Y0131378D01*
X0159476Y0131301D01*
X0158295Y0131301D01*
X0158295Y0132482D01*
X0156720Y0132482D02*
X0156720Y0132679D01*
X0156720Y0132482D02*
X0156720Y0129136D01*
X0158296Y0132482D02*
X0158294Y0132592D01*
X0158288Y0132702D01*
X0158279Y0132811D01*
X0158265Y0132920D01*
X0158248Y0133029D01*
X0158227Y0133137D01*
X0158202Y0133244D01*
X0158174Y0133350D01*
X0158142Y0133455D01*
X0158106Y0133559D01*
X0158067Y0133662D01*
X0158024Y0133763D01*
X0157977Y0133863D01*
X0157927Y0133961D01*
X0157874Y0134057D01*
X0157817Y0134151D01*
X0157757Y0134243D01*
X0157694Y0134334D01*
X0157628Y0134421D01*
X0157559Y0134507D01*
X0157487Y0134590D01*
X0157412Y0134670D01*
X0157334Y0134748D01*
X0157254Y0134823D01*
X0157171Y0134895D01*
X0157085Y0134964D01*
X0156998Y0135030D01*
X0156907Y0135093D01*
X0156815Y0135153D01*
X0156721Y0135210D01*
X0156625Y0135263D01*
X0156527Y0135313D01*
X0156427Y0135360D01*
X0156326Y0135403D01*
X0156223Y0135442D01*
X0156119Y0135478D01*
X0156014Y0135510D01*
X0155908Y0135538D01*
X0155801Y0135563D01*
X0155693Y0135584D01*
X0155584Y0135601D01*
X0155475Y0135615D01*
X0155366Y0135624D01*
X0155256Y0135630D01*
X0155146Y0135632D01*
X0154752Y0134451D01*
X0154838Y0134449D01*
X0154924Y0134444D01*
X0155009Y0134434D01*
X0155094Y0134421D01*
X0155178Y0134404D01*
X0155262Y0134384D01*
X0155344Y0134360D01*
X0155425Y0134332D01*
X0155506Y0134301D01*
X0155584Y0134267D01*
X0155661Y0134229D01*
X0155737Y0134187D01*
X0155810Y0134143D01*
X0155881Y0134095D01*
X0155951Y0134044D01*
X0156018Y0133990D01*
X0156082Y0133934D01*
X0156144Y0133874D01*
X0156204Y0133812D01*
X0156260Y0133748D01*
X0156314Y0133681D01*
X0156365Y0133611D01*
X0156413Y0133540D01*
X0156457Y0133467D01*
X0156499Y0133391D01*
X0156537Y0133314D01*
X0156571Y0133236D01*
X0156602Y0133155D01*
X0156630Y0133074D01*
X0156654Y0132992D01*
X0156674Y0132908D01*
X0156691Y0132824D01*
X0156704Y0132739D01*
X0156714Y0132654D01*
X0156719Y0132568D01*
X0156721Y0132482D01*
X0152783Y0129923D02*
X0191169Y0129923D01*
X0191550Y0107616D02*
X0191550Y0104813D01*
X0188399Y0104813D02*
X0188399Y0107616D01*
X0196402Y0105714D02*
X0196402Y0102714D01*
X0201598Y0102813D02*
X0201598Y0105714D01*
X0175550Y0089616D02*
X0175550Y0086813D01*
X0172399Y0086813D02*
X0172399Y0089616D01*
X0151799Y0090203D02*
X0139201Y0090203D01*
X0139201Y0101226D01*
X0151799Y0101226D01*
X0151799Y0093714D01*
X0148500Y0090214D01*
X0149376Y0088564D02*
X0147576Y0085864D01*
X0146250Y0086614D02*
X0146250Y0088564D01*
X0147576Y0088564D02*
X0149376Y0085864D01*
X0146250Y0086614D02*
X0146248Y0086560D01*
X0146242Y0086507D01*
X0146233Y0086455D01*
X0146220Y0086403D01*
X0146203Y0086352D01*
X0146182Y0086302D01*
X0146158Y0086255D01*
X0146131Y0086209D01*
X0146100Y0086165D01*
X0146067Y0086123D01*
X0146030Y0086084D01*
X0145991Y0086047D01*
X0145949Y0086014D01*
X0145905Y0085983D01*
X0145859Y0085956D01*
X0145812Y0085932D01*
X0145762Y0085911D01*
X0145711Y0085894D01*
X0145659Y0085881D01*
X0145607Y0085872D01*
X0145554Y0085866D01*
X0145500Y0085864D01*
X0145446Y0085866D01*
X0145393Y0085872D01*
X0145341Y0085881D01*
X0145289Y0085894D01*
X0145238Y0085911D01*
X0145188Y0085932D01*
X0145141Y0085956D01*
X0145095Y0085983D01*
X0145051Y0086014D01*
X0145009Y0086047D01*
X0144970Y0086084D01*
X0144933Y0086123D01*
X0144900Y0086165D01*
X0144869Y0086209D01*
X0144842Y0086255D01*
X0144818Y0086302D01*
X0144797Y0086352D01*
X0144780Y0086403D01*
X0144767Y0086455D01*
X0144758Y0086507D01*
X0144752Y0086560D01*
X0144750Y0086614D01*
X0144750Y0088564D01*
X0142524Y0088564D02*
X0143424Y0085864D01*
X0143199Y0086539D02*
X0141849Y0086539D01*
X0141624Y0085864D02*
X0142524Y0088564D01*
X0151799Y0090203D02*
X0151799Y0093714D01*
X0150971Y0058564D02*
X0150971Y0056464D01*
X0150969Y0056417D01*
X0150964Y0056370D01*
X0150954Y0056324D01*
X0150942Y0056279D01*
X0150925Y0056234D01*
X0150906Y0056192D01*
X0150883Y0056151D01*
X0150856Y0056111D01*
X0150827Y0056074D01*
X0150795Y0056040D01*
X0150761Y0056008D01*
X0150724Y0055979D01*
X0150684Y0055952D01*
X0150643Y0055929D01*
X0150601Y0055910D01*
X0150556Y0055893D01*
X0150511Y0055881D01*
X0150465Y0055871D01*
X0150418Y0055866D01*
X0150371Y0055864D01*
X0150071Y0055864D01*
X0153704Y0056239D02*
X0153742Y0056322D01*
X0153778Y0056407D01*
X0153809Y0056493D01*
X0153837Y0056581D01*
X0153861Y0056669D01*
X0153882Y0056758D01*
X0153899Y0056849D01*
X0153912Y0056939D01*
X0153921Y0057031D01*
X0153927Y0057122D01*
X0153929Y0057214D01*
X0152429Y0057214D02*
X0152431Y0057122D01*
X0152437Y0057031D01*
X0152446Y0056939D01*
X0152459Y0056849D01*
X0152476Y0056758D01*
X0152497Y0056669D01*
X0152521Y0056581D01*
X0152549Y0056493D01*
X0152580Y0056407D01*
X0152616Y0056322D01*
X0152654Y0056239D01*
X0152579Y0056464D02*
X0153779Y0057964D01*
X0153704Y0058189D02*
X0153687Y0058232D01*
X0153667Y0058273D01*
X0153644Y0058312D01*
X0153617Y0058350D01*
X0153587Y0058385D01*
X0153555Y0058417D01*
X0153520Y0058447D01*
X0153483Y0058474D01*
X0153443Y0058497D01*
X0153402Y0058517D01*
X0153359Y0058534D01*
X0153315Y0058547D01*
X0153270Y0058556D01*
X0153225Y0058562D01*
X0153179Y0058564D01*
X0153133Y0058562D01*
X0153088Y0058556D01*
X0153043Y0058547D01*
X0152999Y0058534D01*
X0152956Y0058517D01*
X0152915Y0058497D01*
X0152875Y0058474D01*
X0152838Y0058447D01*
X0152803Y0058417D01*
X0152771Y0058385D01*
X0152741Y0058350D01*
X0152714Y0058312D01*
X0152691Y0058273D01*
X0152671Y0058232D01*
X0152654Y0058189D01*
X0153704Y0058189D02*
X0153742Y0058106D01*
X0153778Y0058021D01*
X0153809Y0057935D01*
X0153837Y0057847D01*
X0153861Y0057759D01*
X0153882Y0057670D01*
X0153899Y0057579D01*
X0153912Y0057489D01*
X0153921Y0057397D01*
X0153927Y0057306D01*
X0153929Y0057214D01*
X0152429Y0057214D02*
X0152431Y0057306D01*
X0152437Y0057397D01*
X0152446Y0057489D01*
X0152459Y0057579D01*
X0152476Y0057670D01*
X0152497Y0057759D01*
X0152521Y0057847D01*
X0152549Y0057935D01*
X0152580Y0058021D01*
X0152616Y0058106D01*
X0152654Y0058189D01*
X0153704Y0056239D02*
X0153687Y0056196D01*
X0153667Y0056155D01*
X0153644Y0056116D01*
X0153617Y0056078D01*
X0153587Y0056043D01*
X0153555Y0056011D01*
X0153520Y0055981D01*
X0153483Y0055954D01*
X0153443Y0055931D01*
X0153402Y0055911D01*
X0153359Y0055894D01*
X0153315Y0055881D01*
X0153270Y0055872D01*
X0153225Y0055866D01*
X0153179Y0055864D01*
X0153133Y0055866D01*
X0153088Y0055872D01*
X0153043Y0055881D01*
X0152999Y0055894D01*
X0152956Y0055911D01*
X0152915Y0055931D01*
X0152875Y0055954D01*
X0152838Y0055981D01*
X0152803Y0056011D01*
X0152771Y0056043D01*
X0152741Y0056078D01*
X0152714Y0056116D01*
X0152691Y0056155D01*
X0152671Y0056196D01*
X0152654Y0056239D01*
X0157000Y0041214D02*
X0143000Y0041214D01*
X0140000Y0038214D01*
X0140000Y0033214D01*
X0142000Y0031214D01*
X0140000Y0029214D01*
X0140000Y0023214D01*
X0142000Y0021214D01*
X0140000Y0019214D01*
X0140000Y0014214D01*
X0143000Y0011214D01*
X0157000Y0011214D01*
X0160000Y0014214D01*
X0160000Y0019214D01*
X0158000Y0021214D01*
X0160000Y0023214D01*
X0160000Y0029214D01*
X0158000Y0031214D01*
X0160000Y0033214D01*
X0160000Y0038214D01*
X0157000Y0041214D01*
X0049924Y0047064D02*
X0048424Y0047064D01*
X0049174Y0047064D02*
X0049174Y0044364D01*
X0047032Y0045489D02*
X0046207Y0045939D01*
X0046507Y0047064D02*
X0046573Y0047062D01*
X0046638Y0047056D01*
X0046703Y0047047D01*
X0046768Y0047033D01*
X0046831Y0047016D01*
X0046894Y0046995D01*
X0046955Y0046971D01*
X0047014Y0046943D01*
X0047072Y0046912D01*
X0047128Y0046877D01*
X0047182Y0046839D01*
X0046208Y0045939D02*
X0046167Y0045966D01*
X0046128Y0045995D01*
X0046092Y0046028D01*
X0046059Y0046063D01*
X0046028Y0046101D01*
X0046001Y0046141D01*
X0045977Y0046183D01*
X0045956Y0046227D01*
X0045939Y0046273D01*
X0045925Y0046319D01*
X0045916Y0046367D01*
X0045910Y0046415D01*
X0045908Y0046464D01*
X0045907Y0046464D02*
X0045909Y0046511D01*
X0045914Y0046558D01*
X0045924Y0046604D01*
X0045936Y0046649D01*
X0045953Y0046694D01*
X0045972Y0046736D01*
X0045995Y0046777D01*
X0046022Y0046817D01*
X0046051Y0046854D01*
X0046083Y0046888D01*
X0046117Y0046920D01*
X0046154Y0046949D01*
X0046194Y0046976D01*
X0046235Y0046999D01*
X0046277Y0047018D01*
X0046322Y0047035D01*
X0046367Y0047047D01*
X0046413Y0047057D01*
X0046460Y0047062D01*
X0046507Y0047064D01*
X0045832Y0044740D02*
X0045881Y0044694D01*
X0045931Y0044650D01*
X0045984Y0044609D01*
X0046039Y0044572D01*
X0046095Y0044537D01*
X0046154Y0044505D01*
X0046214Y0044476D01*
X0046276Y0044450D01*
X0046338Y0044428D01*
X0046402Y0044409D01*
X0046467Y0044393D01*
X0046533Y0044381D01*
X0046599Y0044372D01*
X0046665Y0044367D01*
X0046732Y0044365D01*
X0046732Y0044364D02*
X0046779Y0044366D01*
X0046826Y0044371D01*
X0046872Y0044381D01*
X0046917Y0044393D01*
X0046962Y0044410D01*
X0047004Y0044429D01*
X0047045Y0044452D01*
X0047085Y0044479D01*
X0047122Y0044508D01*
X0047156Y0044540D01*
X0047188Y0044574D01*
X0047217Y0044611D01*
X0047244Y0044651D01*
X0047267Y0044692D01*
X0047286Y0044734D01*
X0047303Y0044779D01*
X0047315Y0044824D01*
X0047325Y0044870D01*
X0047330Y0044917D01*
X0047332Y0044964D01*
X0047330Y0045013D01*
X0047324Y0045061D01*
X0047315Y0045109D01*
X0047301Y0045155D01*
X0047284Y0045201D01*
X0047263Y0045245D01*
X0047239Y0045287D01*
X0047212Y0045327D01*
X0047181Y0045365D01*
X0047148Y0045400D01*
X0047112Y0045433D01*
X0047073Y0045462D01*
X0047032Y0045489D01*
X0044576Y0044364D02*
X0043976Y0045564D01*
X0043826Y0045564D02*
X0043076Y0045564D01*
X0043826Y0045564D02*
X0043880Y0045566D01*
X0043933Y0045572D01*
X0043985Y0045581D01*
X0044037Y0045594D01*
X0044088Y0045611D01*
X0044138Y0045632D01*
X0044185Y0045656D01*
X0044231Y0045683D01*
X0044275Y0045714D01*
X0044317Y0045747D01*
X0044356Y0045784D01*
X0044393Y0045823D01*
X0044426Y0045865D01*
X0044457Y0045909D01*
X0044484Y0045955D01*
X0044508Y0046002D01*
X0044529Y0046052D01*
X0044546Y0046103D01*
X0044559Y0046155D01*
X0044568Y0046207D01*
X0044574Y0046260D01*
X0044576Y0046314D01*
X0044574Y0046368D01*
X0044568Y0046421D01*
X0044559Y0046473D01*
X0044546Y0046525D01*
X0044529Y0046576D01*
X0044508Y0046626D01*
X0044484Y0046673D01*
X0044457Y0046719D01*
X0044426Y0046763D01*
X0044393Y0046805D01*
X0044356Y0046844D01*
X0044317Y0046881D01*
X0044275Y0046914D01*
X0044231Y0046945D01*
X0044185Y0046972D01*
X0044138Y0046996D01*
X0044088Y0047017D01*
X0044037Y0047034D01*
X0043985Y0047047D01*
X0043933Y0047056D01*
X0043880Y0047062D01*
X0043826Y0047064D01*
X0043076Y0047064D01*
X0043076Y0044364D01*
D11*
X0142350Y0053313D02*
X0142350Y0056116D01*
X0145701Y0056116D02*
X0145701Y0053313D01*
X0159850Y0048116D02*
X0159850Y0045313D01*
X0163201Y0045313D02*
X0163201Y0048116D01*
X0193299Y0086813D02*
X0193299Y0089616D01*
X0196650Y0089616D02*
X0196650Y0086813D01*
X0201299Y0086813D02*
X0201299Y0089616D01*
X0204650Y0089616D02*
X0204650Y0086813D01*
D12*
X0202980Y0085899D03*
X0202980Y0090499D03*
X0194980Y0090499D03*
X0194980Y0085899D03*
X0173980Y0085899D03*
X0173980Y0090499D03*
X0189980Y0103899D03*
X0189980Y0108499D03*
X0147520Y0120430D03*
X0147520Y0125030D03*
X0139520Y0125030D03*
X0139520Y0120430D03*
X0093480Y0090999D03*
X0093480Y0086399D03*
X0089480Y0062499D03*
X0089480Y0057899D03*
X0059520Y0057930D03*
X0059520Y0062530D03*
X0144020Y0057030D03*
X0144020Y0052430D03*
X0161520Y0049030D03*
X0161520Y0044430D03*
D13*
X0198995Y0101391D03*
X0198995Y0107091D03*
D14*
X0120316Y0124694D03*
X0115716Y0124694D03*
X0095816Y0116694D03*
X0091216Y0116694D03*
D15*
X0084902Y0111415D02*
X0084902Y0108014D01*
X0082098Y0108014D02*
X0082098Y0111415D01*
X0076902Y0111415D02*
X0076902Y0108014D01*
X0074098Y0108014D02*
X0074098Y0111415D01*
X0068902Y0111415D02*
X0068902Y0108014D01*
X0066098Y0108014D02*
X0066098Y0111415D01*
X0060402Y0112014D02*
X0060402Y0115415D01*
X0057598Y0115415D02*
X0057598Y0112014D01*
X0050902Y0101415D02*
X0050902Y0098014D01*
X0048098Y0098014D02*
X0048098Y0101415D01*
X0042902Y0101415D02*
X0042902Y0098014D01*
X0040098Y0098014D02*
X0040098Y0101415D01*
X0040098Y0088915D02*
X0040098Y0085514D01*
X0042902Y0085514D02*
X0042902Y0088915D01*
X0048098Y0088915D02*
X0048098Y0085514D01*
X0050902Y0085514D02*
X0050902Y0088915D01*
X0045201Y0074616D02*
X0041799Y0074616D01*
X0041799Y0071813D02*
X0045201Y0071813D01*
X0091799Y0107313D02*
X0095201Y0107313D01*
X0095201Y0110116D02*
X0091799Y0110116D01*
X0091799Y0123313D02*
X0095201Y0123313D01*
X0095201Y0126116D02*
X0091799Y0126116D01*
X0103799Y0126116D02*
X0107201Y0126116D01*
X0107201Y0123313D02*
X0103799Y0123313D01*
X0127299Y0118116D02*
X0130701Y0118116D01*
X0130701Y0115313D02*
X0127299Y0115313D01*
X0127299Y0110116D02*
X0130701Y0110116D01*
X0130701Y0107313D02*
X0127299Y0107313D01*
X0127299Y0102116D02*
X0130701Y0102116D01*
X0130701Y0099313D02*
X0127299Y0099313D01*
X0127299Y0093616D02*
X0130701Y0093616D01*
X0130701Y0090813D02*
X0127299Y0090813D01*
X0152900Y0073314D02*
X0158100Y0073314D01*
X0158100Y0062114D01*
X0152900Y0062114D01*
X0152900Y0073314D01*
X0166811Y0072813D02*
X0166811Y0072443D01*
X0166811Y0072813D02*
X0166811Y0061616D01*
X0166811Y0061986D01*
X0166811Y0061616D02*
X0173189Y0061616D01*
X0173189Y0061986D01*
X0173189Y0061616D02*
X0173189Y0072813D01*
X0173189Y0072443D01*
X0173189Y0072813D02*
X0166811Y0072813D01*
X0166811Y0069269D02*
X0166811Y0068899D01*
X0166811Y0065529D02*
X0166811Y0065159D01*
X0171378Y0063277D02*
X0171380Y0063316D01*
X0171386Y0063355D01*
X0171396Y0063393D01*
X0171409Y0063430D01*
X0171426Y0063465D01*
X0171446Y0063499D01*
X0171470Y0063530D01*
X0171497Y0063559D01*
X0171526Y0063585D01*
X0171558Y0063608D01*
X0171592Y0063628D01*
X0171628Y0063644D01*
X0171665Y0063656D01*
X0171704Y0063665D01*
X0171743Y0063670D01*
X0171782Y0063671D01*
X0171821Y0063668D01*
X0171860Y0063661D01*
X0171897Y0063650D01*
X0171934Y0063636D01*
X0171969Y0063618D01*
X0172002Y0063597D01*
X0172033Y0063572D01*
X0172061Y0063545D01*
X0172086Y0063515D01*
X0172108Y0063482D01*
X0172127Y0063448D01*
X0172142Y0063412D01*
X0172154Y0063374D01*
X0172162Y0063336D01*
X0172166Y0063297D01*
X0172166Y0063257D01*
X0172162Y0063218D01*
X0172154Y0063180D01*
X0172142Y0063142D01*
X0172127Y0063106D01*
X0172108Y0063072D01*
X0172086Y0063039D01*
X0172061Y0063009D01*
X0172033Y0062982D01*
X0172002Y0062957D01*
X0171969Y0062936D01*
X0171934Y0062918D01*
X0171897Y0062904D01*
X0171860Y0062893D01*
X0171821Y0062886D01*
X0171782Y0062883D01*
X0171743Y0062884D01*
X0171704Y0062889D01*
X0171665Y0062898D01*
X0171628Y0062910D01*
X0171592Y0062926D01*
X0171558Y0062946D01*
X0171526Y0062969D01*
X0171497Y0062995D01*
X0171470Y0063024D01*
X0171446Y0063055D01*
X0171426Y0063089D01*
X0171409Y0063124D01*
X0171396Y0063161D01*
X0171386Y0063199D01*
X0171380Y0063238D01*
X0171378Y0063277D01*
X0173189Y0065159D02*
X0173189Y0065529D01*
X0173189Y0068899D02*
X0173189Y0069269D01*
X0164400Y0061214D02*
X0157600Y0061214D01*
X0157540Y0061212D01*
X0157479Y0061207D01*
X0157420Y0061198D01*
X0157361Y0061185D01*
X0157302Y0061169D01*
X0157245Y0061149D01*
X0157190Y0061126D01*
X0157135Y0061099D01*
X0157083Y0061070D01*
X0157032Y0061037D01*
X0156983Y0061001D01*
X0156937Y0060963D01*
X0156893Y0060921D01*
X0156851Y0060877D01*
X0156813Y0060831D01*
X0156777Y0060782D01*
X0156744Y0060731D01*
X0156715Y0060679D01*
X0156688Y0060624D01*
X0156665Y0060569D01*
X0156645Y0060512D01*
X0156629Y0060453D01*
X0156616Y0060394D01*
X0156607Y0060335D01*
X0156602Y0060274D01*
X0156600Y0060214D01*
X0156600Y0054214D01*
X0156602Y0054154D01*
X0156607Y0054093D01*
X0156616Y0054034D01*
X0156629Y0053975D01*
X0156645Y0053916D01*
X0156665Y0053859D01*
X0156688Y0053804D01*
X0156715Y0053749D01*
X0156744Y0053697D01*
X0156777Y0053646D01*
X0156813Y0053597D01*
X0156851Y0053551D01*
X0156893Y0053507D01*
X0156937Y0053465D01*
X0156983Y0053427D01*
X0157032Y0053391D01*
X0157083Y0053358D01*
X0157135Y0053329D01*
X0157190Y0053302D01*
X0157245Y0053279D01*
X0157302Y0053259D01*
X0157361Y0053243D01*
X0157420Y0053230D01*
X0157479Y0053221D01*
X0157540Y0053216D01*
X0157600Y0053214D01*
X0164400Y0053214D01*
X0164460Y0053216D01*
X0164521Y0053221D01*
X0164580Y0053230D01*
X0164639Y0053243D01*
X0164698Y0053259D01*
X0164755Y0053279D01*
X0164810Y0053302D01*
X0164865Y0053329D01*
X0164917Y0053358D01*
X0164968Y0053391D01*
X0165017Y0053427D01*
X0165063Y0053465D01*
X0165107Y0053507D01*
X0165149Y0053551D01*
X0165187Y0053597D01*
X0165223Y0053646D01*
X0165256Y0053697D01*
X0165285Y0053749D01*
X0165312Y0053804D01*
X0165335Y0053859D01*
X0165355Y0053916D01*
X0165371Y0053975D01*
X0165384Y0054034D01*
X0165393Y0054093D01*
X0165398Y0054154D01*
X0165400Y0054214D01*
X0165400Y0060214D01*
X0165398Y0060274D01*
X0165393Y0060335D01*
X0165384Y0060394D01*
X0165371Y0060453D01*
X0165355Y0060512D01*
X0165335Y0060569D01*
X0165312Y0060624D01*
X0165285Y0060679D01*
X0165256Y0060731D01*
X0165223Y0060782D01*
X0165187Y0060831D01*
X0165149Y0060877D01*
X0165107Y0060921D01*
X0165063Y0060963D01*
X0165017Y0061001D01*
X0164968Y0061037D01*
X0164917Y0061070D01*
X0164865Y0061099D01*
X0164810Y0061126D01*
X0164755Y0061149D01*
X0164698Y0061169D01*
X0164639Y0061185D01*
X0164580Y0061198D01*
X0164521Y0061207D01*
X0164460Y0061212D01*
X0164400Y0061214D01*
X0170299Y0058116D02*
X0173701Y0058116D01*
X0173701Y0055313D02*
X0170299Y0055313D01*
X0168900Y0052314D02*
X0174100Y0052314D01*
X0174100Y0041114D01*
X0168900Y0041114D01*
X0168900Y0052314D01*
X0168900Y0032814D02*
X0168900Y0021614D01*
X0174100Y0021614D01*
X0174100Y0032814D01*
X0168900Y0032814D01*
X0139744Y0040514D02*
X0138300Y0040514D01*
X0139022Y0040514D02*
X0139022Y0043114D01*
X0138300Y0042537D01*
X0137402Y0053014D02*
X0137402Y0056415D01*
X0134598Y0056415D02*
X0134598Y0053014D01*
X0178902Y0085025D02*
X0179272Y0085025D01*
X0178902Y0085025D02*
X0190098Y0085025D01*
X0189728Y0085025D01*
X0190098Y0085025D02*
X0190098Y0091403D01*
X0189728Y0091403D01*
X0190098Y0091403D02*
X0178902Y0091403D01*
X0179272Y0091403D01*
X0178902Y0091403D02*
X0178902Y0085025D01*
X0182445Y0085025D02*
X0182815Y0085025D01*
X0186185Y0085025D02*
X0186555Y0085025D01*
X0188043Y0089986D02*
X0188045Y0090025D01*
X0188051Y0090064D01*
X0188061Y0090102D01*
X0188074Y0090139D01*
X0188091Y0090174D01*
X0188111Y0090208D01*
X0188135Y0090239D01*
X0188162Y0090268D01*
X0188191Y0090294D01*
X0188223Y0090317D01*
X0188257Y0090337D01*
X0188293Y0090353D01*
X0188330Y0090365D01*
X0188369Y0090374D01*
X0188408Y0090379D01*
X0188447Y0090380D01*
X0188486Y0090377D01*
X0188525Y0090370D01*
X0188562Y0090359D01*
X0188599Y0090345D01*
X0188634Y0090327D01*
X0188667Y0090306D01*
X0188698Y0090281D01*
X0188726Y0090254D01*
X0188751Y0090224D01*
X0188773Y0090191D01*
X0188792Y0090157D01*
X0188807Y0090121D01*
X0188819Y0090083D01*
X0188827Y0090045D01*
X0188831Y0090006D01*
X0188831Y0089966D01*
X0188827Y0089927D01*
X0188819Y0089889D01*
X0188807Y0089851D01*
X0188792Y0089815D01*
X0188773Y0089781D01*
X0188751Y0089748D01*
X0188726Y0089718D01*
X0188698Y0089691D01*
X0188667Y0089666D01*
X0188634Y0089645D01*
X0188599Y0089627D01*
X0188562Y0089613D01*
X0188525Y0089602D01*
X0188486Y0089595D01*
X0188447Y0089592D01*
X0188408Y0089593D01*
X0188369Y0089598D01*
X0188330Y0089607D01*
X0188293Y0089619D01*
X0188257Y0089635D01*
X0188223Y0089655D01*
X0188191Y0089678D01*
X0188162Y0089704D01*
X0188135Y0089733D01*
X0188111Y0089764D01*
X0188091Y0089798D01*
X0188074Y0089833D01*
X0188061Y0089870D01*
X0188051Y0089908D01*
X0188045Y0089947D01*
X0188043Y0089986D01*
X0186555Y0091403D02*
X0186185Y0091403D01*
X0182815Y0091403D02*
X0182445Y0091403D01*
X0044701Y0017116D02*
X0041299Y0017116D01*
X0041299Y0014313D02*
X0044701Y0014313D01*
D16*
X0040500Y0015714D03*
X0045500Y0015714D03*
X0046000Y0073214D03*
X0041000Y0073214D03*
X0091000Y0108714D03*
X0096000Y0108714D03*
X0096000Y0124714D03*
X0091000Y0124714D03*
X0103000Y0124714D03*
X0108000Y0124714D03*
X0126500Y0116714D03*
X0131500Y0116714D03*
X0131500Y0108714D03*
X0126500Y0108714D03*
X0126500Y0100714D03*
X0131500Y0100714D03*
X0131500Y0092214D03*
X0126500Y0092214D03*
X0169500Y0056714D03*
X0174500Y0056714D03*
D17*
X0084886Y0074329D02*
X0082524Y0074329D01*
X0060476Y0074329D01*
X0058114Y0074329D01*
X0058114Y0076691D01*
X0058114Y0098738D01*
X0058114Y0101100D01*
X0060476Y0101100D01*
X0082524Y0101100D01*
X0084886Y0101100D01*
X0084886Y0098738D01*
X0084886Y0076691D01*
X0084886Y0074329D01*
X0062020Y0078856D02*
X0062022Y0078905D01*
X0062028Y0078955D01*
X0062038Y0079003D01*
X0062051Y0079051D01*
X0062069Y0079097D01*
X0062089Y0079142D01*
X0062114Y0079185D01*
X0062142Y0079226D01*
X0062173Y0079264D01*
X0062207Y0079300D01*
X0062243Y0079333D01*
X0062282Y0079364D01*
X0062324Y0079390D01*
X0062367Y0079414D01*
X0062413Y0079434D01*
X0062459Y0079451D01*
X0062507Y0079463D01*
X0062556Y0079472D01*
X0062605Y0079477D01*
X0062654Y0079478D01*
X0062704Y0079475D01*
X0062753Y0079468D01*
X0062801Y0079457D01*
X0062848Y0079443D01*
X0062894Y0079425D01*
X0062939Y0079403D01*
X0062981Y0079377D01*
X0063021Y0079349D01*
X0063059Y0079317D01*
X0063095Y0079283D01*
X0063127Y0079245D01*
X0063157Y0079205D01*
X0063183Y0079163D01*
X0063205Y0079119D01*
X0063225Y0079074D01*
X0063240Y0079027D01*
X0063252Y0078979D01*
X0063260Y0078930D01*
X0063264Y0078881D01*
X0063264Y0078831D01*
X0063260Y0078782D01*
X0063252Y0078733D01*
X0063240Y0078685D01*
X0063225Y0078638D01*
X0063205Y0078593D01*
X0063183Y0078549D01*
X0063157Y0078507D01*
X0063127Y0078467D01*
X0063095Y0078429D01*
X0063059Y0078395D01*
X0063021Y0078363D01*
X0062981Y0078335D01*
X0062939Y0078309D01*
X0062894Y0078287D01*
X0062848Y0078269D01*
X0062801Y0078255D01*
X0062753Y0078244D01*
X0062704Y0078237D01*
X0062654Y0078234D01*
X0062605Y0078235D01*
X0062556Y0078240D01*
X0062507Y0078249D01*
X0062459Y0078261D01*
X0062413Y0078278D01*
X0062367Y0078298D01*
X0062324Y0078322D01*
X0062282Y0078348D01*
X0062243Y0078379D01*
X0062207Y0078412D01*
X0062173Y0078448D01*
X0062142Y0078486D01*
X0062114Y0078527D01*
X0062089Y0078570D01*
X0062069Y0078615D01*
X0062051Y0078661D01*
X0062038Y0078709D01*
X0062028Y0078757D01*
X0062022Y0078807D01*
X0062020Y0078856D01*
X0035492Y0067809D02*
X0032500Y0067809D01*
X0032500Y0129620D01*
X0035492Y0129620D01*
X0035492Y0067809D01*
X0032500Y0067809D02*
X0009902Y0067809D01*
X0009902Y0129620D01*
X0032500Y0129620D01*
D18*
X0061657Y0100510D03*
X0063626Y0100510D03*
X0065594Y0100510D03*
X0067563Y0100510D03*
X0069531Y0100510D03*
X0071500Y0100510D03*
X0073469Y0100510D03*
X0075437Y0100510D03*
X0077406Y0100510D03*
X0079374Y0100510D03*
X0081343Y0100510D03*
X0081343Y0074919D03*
X0079374Y0074919D03*
X0077406Y0074919D03*
X0075437Y0074919D03*
X0073469Y0074919D03*
X0071500Y0074919D03*
X0069531Y0074919D03*
X0067563Y0074919D03*
X0065594Y0074919D03*
X0063626Y0074919D03*
X0061657Y0074919D03*
D19*
X0058705Y0077872D03*
X0058705Y0079840D03*
X0058705Y0081809D03*
X0058705Y0083777D03*
X0058705Y0085746D03*
X0058705Y0087714D03*
X0058705Y0089683D03*
X0058705Y0091651D03*
X0058705Y0093620D03*
X0058705Y0095588D03*
X0058705Y0097557D03*
X0084295Y0097557D03*
X0084295Y0095588D03*
X0084295Y0093620D03*
X0084295Y0091651D03*
X0084295Y0089683D03*
X0084295Y0087714D03*
X0084295Y0085746D03*
X0084295Y0083777D03*
X0084295Y0081809D03*
X0084295Y0079840D03*
X0084295Y0077872D03*
D20*
X0022500Y0073714D03*
X0022500Y0063714D03*
X0022500Y0053714D03*
X0022500Y0043714D03*
X0022500Y0033714D03*
X0022500Y0083714D03*
X0022500Y0093714D03*
X0022500Y0103714D03*
X0022500Y0113714D03*
X0022500Y0123714D03*
D21*
X0106800Y0069933D02*
X0106800Y0066614D01*
X0107000Y0066614D02*
X0107098Y0066612D01*
X0107196Y0066606D01*
X0107294Y0066597D01*
X0107391Y0066583D01*
X0107488Y0066566D01*
X0107584Y0066545D01*
X0107679Y0066520D01*
X0107773Y0066492D01*
X0107865Y0066459D01*
X0107957Y0066424D01*
X0108047Y0066384D01*
X0108135Y0066342D01*
X0108222Y0066295D01*
X0108306Y0066246D01*
X0108389Y0066193D01*
X0108469Y0066137D01*
X0108548Y0066077D01*
X0108624Y0066015D01*
X0108697Y0065950D01*
X0108768Y0065882D01*
X0108836Y0065811D01*
X0108901Y0065738D01*
X0108963Y0065662D01*
X0109023Y0065583D01*
X0109079Y0065503D01*
X0109132Y0065420D01*
X0109181Y0065336D01*
X0109228Y0065249D01*
X0109270Y0065161D01*
X0109310Y0065071D01*
X0109345Y0064979D01*
X0109378Y0064887D01*
X0109406Y0064793D01*
X0109431Y0064698D01*
X0109452Y0064602D01*
X0109469Y0064505D01*
X0109483Y0064408D01*
X0109492Y0064310D01*
X0109498Y0064212D01*
X0109500Y0064114D01*
X0109498Y0064016D01*
X0109492Y0063918D01*
X0109483Y0063820D01*
X0109469Y0063723D01*
X0109452Y0063626D01*
X0109431Y0063530D01*
X0109406Y0063435D01*
X0109378Y0063341D01*
X0109345Y0063249D01*
X0109310Y0063157D01*
X0109270Y0063067D01*
X0109228Y0062979D01*
X0109181Y0062892D01*
X0109132Y0062808D01*
X0109079Y0062725D01*
X0109023Y0062645D01*
X0108963Y0062566D01*
X0108901Y0062490D01*
X0108836Y0062417D01*
X0108768Y0062346D01*
X0108697Y0062278D01*
X0108624Y0062213D01*
X0108548Y0062151D01*
X0108469Y0062091D01*
X0108389Y0062035D01*
X0108306Y0061982D01*
X0108222Y0061933D01*
X0108135Y0061886D01*
X0108047Y0061844D01*
X0107957Y0061804D01*
X0107865Y0061769D01*
X0107773Y0061736D01*
X0107679Y0061708D01*
X0107584Y0061683D01*
X0107488Y0061662D01*
X0107391Y0061645D01*
X0107294Y0061631D01*
X0107196Y0061622D01*
X0107098Y0061616D01*
X0107000Y0061614D01*
X0106800Y0061614D02*
X0106800Y0057658D01*
X0106801Y0057658D02*
X0106813Y0057588D01*
X0106830Y0057518D01*
X0106850Y0057450D01*
X0106873Y0057382D01*
X0106901Y0057316D01*
X0106932Y0057252D01*
X0106966Y0057190D01*
X0107004Y0057129D01*
X0107044Y0057070D01*
X0107088Y0057014D01*
X0107135Y0056961D01*
X0107185Y0056909D01*
X0107238Y0056861D01*
X0107293Y0056816D01*
X0107350Y0056773D01*
X0107410Y0056734D01*
X0107472Y0056698D01*
X0107535Y0056666D01*
X0107600Y0056637D01*
X0107667Y0056611D01*
X0107735Y0056589D01*
X0107804Y0056571D01*
X0107874Y0056557D01*
X0107945Y0056547D01*
X0108016Y0056540D01*
X0108087Y0056537D01*
X0108158Y0056538D01*
X0108230Y0056543D01*
X0108300Y0056552D01*
X0127094Y0056552D01*
X0127164Y0056564D01*
X0127234Y0056581D01*
X0127302Y0056601D01*
X0127369Y0056625D01*
X0127435Y0056652D01*
X0127500Y0056683D01*
X0127562Y0056717D01*
X0127623Y0056755D01*
X0127681Y0056796D01*
X0127738Y0056840D01*
X0127791Y0056887D01*
X0127842Y0056937D01*
X0127891Y0056989D01*
X0127936Y0057044D01*
X0127979Y0057102D01*
X0128018Y0057161D01*
X0128054Y0057223D01*
X0128086Y0057287D01*
X0128115Y0057352D01*
X0128141Y0057418D01*
X0128162Y0057486D01*
X0128181Y0057556D01*
X0128195Y0057625D01*
X0128205Y0057696D01*
X0128212Y0057767D01*
X0128215Y0057838D01*
X0128214Y0057910D01*
X0128209Y0057981D01*
X0128200Y0058052D01*
X0128200Y0070377D01*
X0128198Y0070453D01*
X0128192Y0070528D01*
X0128183Y0070604D01*
X0128169Y0070679D01*
X0128152Y0070753D01*
X0128131Y0070826D01*
X0128107Y0070898D01*
X0128079Y0070968D01*
X0128047Y0071037D01*
X0128012Y0071105D01*
X0127973Y0071170D01*
X0127931Y0071234D01*
X0127886Y0071295D01*
X0127838Y0071354D01*
X0127787Y0071410D01*
X0127733Y0071464D01*
X0127677Y0071515D01*
X0127618Y0071563D01*
X0127557Y0071608D01*
X0127493Y0071650D01*
X0127428Y0071689D01*
X0127360Y0071724D01*
X0127291Y0071756D01*
X0127221Y0071784D01*
X0127149Y0071808D01*
X0127076Y0071829D01*
X0127002Y0071846D01*
X0126927Y0071860D01*
X0126851Y0071869D01*
X0126776Y0071875D01*
X0126700Y0071877D01*
X0108300Y0071877D01*
X0108219Y0071865D01*
X0108139Y0071850D01*
X0108060Y0071831D01*
X0107982Y0071809D01*
X0107905Y0071782D01*
X0107829Y0071753D01*
X0107755Y0071719D01*
X0107683Y0071682D01*
X0107612Y0071642D01*
X0107544Y0071598D01*
X0107477Y0071551D01*
X0107413Y0071501D01*
X0107352Y0071448D01*
X0107293Y0071392D01*
X0107236Y0071333D01*
X0107183Y0071272D01*
X0107132Y0071208D01*
X0107085Y0071142D01*
X0107041Y0071074D01*
X0107000Y0071004D01*
X0106962Y0070932D01*
X0106928Y0070858D01*
X0106898Y0070782D01*
X0106871Y0070706D01*
X0106848Y0070628D01*
X0106828Y0070549D01*
X0106813Y0070469D01*
X0106801Y0070388D01*
X0106793Y0070308D01*
X0106789Y0070226D01*
X0106788Y0070145D01*
X0106792Y0070064D01*
X0106799Y0069983D01*
X0140661Y0069577D02*
X0140661Y0064852D01*
X0148339Y0064852D01*
X0148339Y0069577D01*
X0140661Y0069577D01*
X0155106Y0073226D02*
X0158256Y0073226D01*
X0158256Y0070864D01*
X0158256Y0064565D02*
X0158256Y0062203D01*
X0155106Y0062203D01*
X0171106Y0052226D02*
X0174256Y0052226D01*
X0174256Y0049864D01*
X0174256Y0043565D02*
X0174256Y0041203D01*
X0171106Y0041203D01*
X0179205Y0039620D02*
X0201843Y0039620D01*
X0201843Y0017966D01*
X0179205Y0017966D01*
X0179205Y0039620D01*
X0179205Y0037966D02*
X0179205Y0059620D01*
X0201843Y0059620D01*
X0201843Y0037966D01*
X0179205Y0037966D01*
X0171894Y0032726D02*
X0168744Y0032726D01*
X0168744Y0030364D01*
X0168744Y0024065D02*
X0168744Y0021703D01*
X0171894Y0021703D01*
X0173862Y0020053D02*
X0169138Y0020053D01*
X0169138Y0012376D01*
X0173862Y0012376D01*
X0173862Y0020053D01*
X0201843Y0017966D02*
X0204795Y0017966D01*
X0204795Y0039620D01*
X0201843Y0039620D01*
X0201843Y0037966D02*
X0204795Y0037966D01*
X0204795Y0059620D01*
X0201843Y0059620D01*
X0201843Y0057966D02*
X0201843Y0079620D01*
X0204795Y0079620D01*
X0204795Y0057966D01*
X0201843Y0057966D01*
X0179205Y0057966D01*
X0179205Y0079620D01*
X0201843Y0079620D01*
X0156839Y0051077D02*
X0156839Y0046352D01*
X0149161Y0046352D01*
X0149161Y0051077D01*
X0156839Y0051077D01*
D22*
X0136000Y0052214D03*
X0136000Y0057214D03*
X0083500Y0107214D03*
X0083500Y0112214D03*
X0075500Y0112214D03*
X0075500Y0107214D03*
X0067500Y0107214D03*
X0067500Y0112214D03*
X0059000Y0111214D03*
X0059000Y0116214D03*
X0049500Y0102214D03*
X0049500Y0097214D03*
X0041500Y0097214D03*
X0041500Y0102214D03*
X0041500Y0089714D03*
X0041500Y0084714D03*
X0049500Y0084714D03*
X0049500Y0089714D03*
D23*
X0110000Y0053239D03*
X0115000Y0053239D03*
X0120000Y0053239D03*
X0125000Y0053239D03*
D24*
X0125000Y0075214D03*
X0120000Y0075214D03*
X0115000Y0075214D03*
X0110000Y0075214D03*
D25*
X0105903Y0056058D02*
X0105625Y0056089D01*
X0105347Y0056058D01*
X0105083Y0055966D01*
X0104846Y0055817D01*
X0104648Y0055619D01*
X0104499Y0055382D01*
X0104406Y0055118D01*
X0104375Y0054839D01*
X0104406Y0054561D01*
X0104499Y0054297D01*
X0104648Y0054060D01*
X0104846Y0053862D01*
X0105083Y0053713D01*
X0105347Y0053621D01*
X0105625Y0053589D01*
X0105903Y0053621D01*
X0106167Y0053713D01*
X0106404Y0053862D01*
X0106602Y0054060D01*
X0106751Y0054297D01*
X0106844Y0054561D01*
X0106875Y0054839D01*
X0106844Y0055118D01*
X0106751Y0055382D01*
X0106602Y0055619D01*
X0106404Y0055817D01*
X0106167Y0055966D01*
X0105903Y0056058D01*
X0105919Y0056053D02*
X0105331Y0056053D01*
X0105307Y0056044D02*
X0105943Y0056044D01*
X0105967Y0056036D02*
X0105283Y0056036D01*
X0105258Y0056027D02*
X0105992Y0056027D01*
X0106016Y0056018D02*
X0105234Y0056018D01*
X0105210Y0056010D02*
X0106040Y0056010D01*
X0106065Y0056001D02*
X0105185Y0056001D01*
X0105161Y0055993D02*
X0106089Y0055993D01*
X0106113Y0055984D02*
X0105137Y0055984D01*
X0105112Y0055976D02*
X0106138Y0055976D01*
X0106162Y0055967D02*
X0105088Y0055967D01*
X0105072Y0055959D02*
X0106178Y0055959D01*
X0106192Y0055950D02*
X0105058Y0055950D01*
X0105045Y0055942D02*
X0106205Y0055942D01*
X0106219Y0055933D02*
X0105031Y0055933D01*
X0105018Y0055925D02*
X0106232Y0055925D01*
X0106246Y0055916D02*
X0105004Y0055916D01*
X0104991Y0055908D02*
X0106259Y0055908D01*
X0106273Y0055899D02*
X0104977Y0055899D01*
X0104964Y0055891D02*
X0106286Y0055891D01*
X0106300Y0055882D02*
X0104950Y0055882D01*
X0104937Y0055874D02*
X0106313Y0055874D01*
X0106327Y0055865D02*
X0104923Y0055865D01*
X0104909Y0055857D02*
X0106341Y0055857D01*
X0106354Y0055848D02*
X0104896Y0055848D01*
X0104882Y0055840D02*
X0106368Y0055840D01*
X0106381Y0055831D02*
X0104869Y0055831D01*
X0104855Y0055823D02*
X0106395Y0055823D01*
X0106407Y0055814D02*
X0104843Y0055814D01*
X0104835Y0055806D02*
X0106415Y0055806D01*
X0106424Y0055797D02*
X0104826Y0055797D01*
X0104818Y0055789D02*
X0106432Y0055789D01*
X0106441Y0055780D02*
X0104809Y0055780D01*
X0104801Y0055772D02*
X0106449Y0055772D01*
X0106458Y0055763D02*
X0104792Y0055763D01*
X0104784Y0055755D02*
X0106466Y0055755D01*
X0106475Y0055746D02*
X0104775Y0055746D01*
X0104767Y0055738D02*
X0106483Y0055738D01*
X0106492Y0055729D02*
X0104758Y0055729D01*
X0104749Y0055721D02*
X0106501Y0055721D01*
X0106509Y0055712D02*
X0104741Y0055712D01*
X0104732Y0055703D02*
X0106518Y0055703D01*
X0106526Y0055695D02*
X0104724Y0055695D01*
X0104715Y0055686D02*
X0106535Y0055686D01*
X0106543Y0055678D02*
X0104707Y0055678D01*
X0104698Y0055669D02*
X0106552Y0055669D01*
X0106560Y0055661D02*
X0104690Y0055661D01*
X0104681Y0055652D02*
X0106569Y0055652D01*
X0106577Y0055644D02*
X0104673Y0055644D01*
X0104664Y0055635D02*
X0106586Y0055635D01*
X0106594Y0055627D02*
X0104656Y0055627D01*
X0104647Y0055618D02*
X0106603Y0055618D01*
X0106608Y0055610D02*
X0104642Y0055610D01*
X0104637Y0055601D02*
X0106613Y0055601D01*
X0106619Y0055593D02*
X0104631Y0055593D01*
X0104626Y0055584D02*
X0106624Y0055584D01*
X0106629Y0055576D02*
X0104621Y0055576D01*
X0104615Y0055567D02*
X0106635Y0055567D01*
X0106640Y0055559D02*
X0104610Y0055559D01*
X0104605Y0055550D02*
X0106645Y0055550D01*
X0106651Y0055542D02*
X0104599Y0055542D01*
X0104594Y0055533D02*
X0106656Y0055533D01*
X0106661Y0055525D02*
X0104589Y0055525D01*
X0104583Y0055516D02*
X0106667Y0055516D01*
X0106672Y0055508D02*
X0104578Y0055508D01*
X0104573Y0055499D02*
X0106677Y0055499D01*
X0106683Y0055491D02*
X0104567Y0055491D01*
X0104562Y0055482D02*
X0106688Y0055482D01*
X0106693Y0055474D02*
X0104557Y0055474D01*
X0104551Y0055465D02*
X0106699Y0055465D01*
X0106704Y0055457D02*
X0104546Y0055457D01*
X0104540Y0055448D02*
X0106710Y0055448D01*
X0106715Y0055440D02*
X0104535Y0055440D01*
X0104530Y0055431D02*
X0106720Y0055431D01*
X0106726Y0055423D02*
X0104524Y0055423D01*
X0104519Y0055414D02*
X0106731Y0055414D01*
X0106736Y0055405D02*
X0104514Y0055405D01*
X0104508Y0055397D02*
X0106742Y0055397D01*
X0106747Y0055388D02*
X0104503Y0055388D01*
X0104498Y0055380D02*
X0106752Y0055380D01*
X0106755Y0055371D02*
X0104495Y0055371D01*
X0104492Y0055363D02*
X0106758Y0055363D01*
X0106761Y0055354D02*
X0104489Y0055354D01*
X0104486Y0055346D02*
X0106764Y0055346D01*
X0106767Y0055337D02*
X0104483Y0055337D01*
X0104480Y0055329D02*
X0106770Y0055329D01*
X0106773Y0055320D02*
X0104477Y0055320D01*
X0104474Y0055312D02*
X0106776Y0055312D01*
X0106779Y0055303D02*
X0104471Y0055303D01*
X0104468Y0055295D02*
X0106782Y0055295D01*
X0106785Y0055286D02*
X0104465Y0055286D01*
X0104462Y0055278D02*
X0106788Y0055278D01*
X0106791Y0055269D02*
X0104459Y0055269D01*
X0104456Y0055261D02*
X0106794Y0055261D01*
X0106797Y0055252D02*
X0104453Y0055252D01*
X0104451Y0055244D02*
X0106799Y0055244D01*
X0106802Y0055235D02*
X0104448Y0055235D01*
X0104445Y0055227D02*
X0106805Y0055227D01*
X0106808Y0055218D02*
X0104442Y0055218D01*
X0104439Y0055210D02*
X0106811Y0055210D01*
X0106814Y0055201D02*
X0104436Y0055201D01*
X0104433Y0055193D02*
X0106817Y0055193D01*
X0106820Y0055184D02*
X0104430Y0055184D01*
X0104427Y0055176D02*
X0106823Y0055176D01*
X0106826Y0055167D02*
X0104424Y0055167D01*
X0104421Y0055159D02*
X0106829Y0055159D01*
X0106832Y0055150D02*
X0104418Y0055150D01*
X0104415Y0055142D02*
X0106835Y0055142D01*
X0106838Y0055133D02*
X0104412Y0055133D01*
X0104409Y0055125D02*
X0106841Y0055125D01*
X0106844Y0055116D02*
X0104406Y0055116D01*
X0104405Y0055108D02*
X0106845Y0055108D01*
X0106846Y0055099D02*
X0104404Y0055099D01*
X0104403Y0055090D02*
X0106847Y0055090D01*
X0106848Y0055082D02*
X0104402Y0055082D01*
X0104401Y0055073D02*
X0106849Y0055073D01*
X0106850Y0055065D02*
X0104400Y0055065D01*
X0104399Y0055056D02*
X0106851Y0055056D01*
X0106852Y0055048D02*
X0104398Y0055048D01*
X0104398Y0055039D02*
X0106852Y0055039D01*
X0106853Y0055031D02*
X0104397Y0055031D01*
X0104396Y0055022D02*
X0106854Y0055022D01*
X0106855Y0055014D02*
X0104395Y0055014D01*
X0104394Y0055005D02*
X0106856Y0055005D01*
X0106857Y0054997D02*
X0104393Y0054997D01*
X0104392Y0054988D02*
X0106858Y0054988D01*
X0106859Y0054980D02*
X0104391Y0054980D01*
X0104390Y0054971D02*
X0106860Y0054971D01*
X0106861Y0054963D02*
X0104389Y0054963D01*
X0104388Y0054954D02*
X0106862Y0054954D01*
X0106863Y0054946D02*
X0104387Y0054946D01*
X0104386Y0054937D02*
X0106864Y0054937D01*
X0106865Y0054929D02*
X0104385Y0054929D01*
X0104384Y0054920D02*
X0106866Y0054920D01*
X0106867Y0054912D02*
X0104383Y0054912D01*
X0104382Y0054903D02*
X0106868Y0054903D01*
X0106869Y0054895D02*
X0104381Y0054895D01*
X0104380Y0054886D02*
X0106870Y0054886D01*
X0106871Y0054878D02*
X0104379Y0054878D01*
X0104378Y0054869D02*
X0106872Y0054869D01*
X0106873Y0054861D02*
X0104377Y0054861D01*
X0104376Y0054852D02*
X0106874Y0054852D01*
X0106875Y0054844D02*
X0104375Y0054844D01*
X0104375Y0054835D02*
X0106875Y0054835D01*
X0106874Y0054827D02*
X0104376Y0054827D01*
X0104377Y0054818D02*
X0106873Y0054818D01*
X0106872Y0054810D02*
X0104378Y0054810D01*
X0104379Y0054801D02*
X0106871Y0054801D01*
X0106870Y0054793D02*
X0104380Y0054793D01*
X0104381Y0054784D02*
X0106869Y0054784D01*
X0106868Y0054775D02*
X0104382Y0054775D01*
X0104383Y0054767D02*
X0106867Y0054767D01*
X0106866Y0054758D02*
X0104384Y0054758D01*
X0104385Y0054750D02*
X0106865Y0054750D01*
X0106864Y0054741D02*
X0104386Y0054741D01*
X0104387Y0054733D02*
X0106863Y0054733D01*
X0106862Y0054724D02*
X0104388Y0054724D01*
X0104389Y0054716D02*
X0106861Y0054716D01*
X0106860Y0054707D02*
X0104390Y0054707D01*
X0104391Y0054699D02*
X0106859Y0054699D01*
X0106858Y0054690D02*
X0104392Y0054690D01*
X0104393Y0054682D02*
X0106857Y0054682D01*
X0106856Y0054673D02*
X0104394Y0054673D01*
X0104395Y0054665D02*
X0106855Y0054665D01*
X0106854Y0054656D02*
X0104396Y0054656D01*
X0104397Y0054648D02*
X0106853Y0054648D01*
X0106852Y0054639D02*
X0104398Y0054639D01*
X0104398Y0054631D02*
X0106851Y0054631D01*
X0106851Y0054622D02*
X0104399Y0054622D01*
X0104400Y0054614D02*
X0106850Y0054614D01*
X0106849Y0054605D02*
X0104401Y0054605D01*
X0104402Y0054597D02*
X0106848Y0054597D01*
X0106847Y0054588D02*
X0104403Y0054588D01*
X0104404Y0054580D02*
X0106846Y0054580D01*
X0106845Y0054571D02*
X0104405Y0054571D01*
X0104406Y0054563D02*
X0106844Y0054563D01*
X0106841Y0054554D02*
X0104409Y0054554D01*
X0104412Y0054546D02*
X0106838Y0054546D01*
X0106835Y0054537D02*
X0104415Y0054537D01*
X0104418Y0054529D02*
X0106832Y0054529D01*
X0106829Y0054520D02*
X0104421Y0054520D01*
X0104424Y0054512D02*
X0106826Y0054512D01*
X0106823Y0054503D02*
X0104427Y0054503D01*
X0104430Y0054495D02*
X0106820Y0054495D01*
X0106817Y0054486D02*
X0104433Y0054486D01*
X0104436Y0054477D02*
X0106814Y0054477D01*
X0106811Y0054469D02*
X0104439Y0054469D01*
X0104442Y0054460D02*
X0106808Y0054460D01*
X0106805Y0054452D02*
X0104445Y0054452D01*
X0104448Y0054443D02*
X0106802Y0054443D01*
X0106799Y0054435D02*
X0104451Y0054435D01*
X0104453Y0054426D02*
X0106796Y0054426D01*
X0106794Y0054418D02*
X0104456Y0054418D01*
X0104459Y0054409D02*
X0106791Y0054409D01*
X0106788Y0054401D02*
X0104462Y0054401D01*
X0104465Y0054392D02*
X0106785Y0054392D01*
X0106782Y0054384D02*
X0104468Y0054384D01*
X0104471Y0054375D02*
X0106779Y0054375D01*
X0106776Y0054367D02*
X0104474Y0054367D01*
X0104477Y0054358D02*
X0106773Y0054358D01*
X0106770Y0054350D02*
X0104480Y0054350D01*
X0104483Y0054341D02*
X0106767Y0054341D01*
X0106764Y0054333D02*
X0104486Y0054333D01*
X0104489Y0054324D02*
X0106761Y0054324D01*
X0106758Y0054316D02*
X0104492Y0054316D01*
X0104495Y0054307D02*
X0106755Y0054307D01*
X0106752Y0054299D02*
X0104498Y0054299D01*
X0104503Y0054290D02*
X0106747Y0054290D01*
X0106742Y0054282D02*
X0104508Y0054282D01*
X0104514Y0054273D02*
X0106736Y0054273D01*
X0106731Y0054265D02*
X0104519Y0054265D01*
X0104524Y0054256D02*
X0106726Y0054256D01*
X0106720Y0054248D02*
X0104530Y0054248D01*
X0104535Y0054239D02*
X0106715Y0054239D01*
X0106709Y0054231D02*
X0104541Y0054231D01*
X0104546Y0054222D02*
X0106704Y0054222D01*
X0106699Y0054214D02*
X0104551Y0054214D01*
X0104557Y0054205D02*
X0106693Y0054205D01*
X0106688Y0054197D02*
X0104562Y0054197D01*
X0104567Y0054188D02*
X0106683Y0054188D01*
X0106677Y0054180D02*
X0104573Y0054180D01*
X0104578Y0054171D02*
X0106672Y0054171D01*
X0106667Y0054162D02*
X0104583Y0054162D01*
X0104589Y0054154D02*
X0106661Y0054154D01*
X0106656Y0054145D02*
X0104594Y0054145D01*
X0104599Y0054137D02*
X0106651Y0054137D01*
X0106645Y0054128D02*
X0104605Y0054128D01*
X0104610Y0054120D02*
X0106640Y0054120D01*
X0106635Y0054111D02*
X0104615Y0054111D01*
X0104621Y0054103D02*
X0106629Y0054103D01*
X0106624Y0054094D02*
X0104626Y0054094D01*
X0104631Y0054086D02*
X0106619Y0054086D01*
X0106613Y0054077D02*
X0104637Y0054077D01*
X0104642Y0054069D02*
X0106608Y0054069D01*
X0106602Y0054060D02*
X0104648Y0054060D01*
X0104656Y0054052D02*
X0106594Y0054052D01*
X0106586Y0054043D02*
X0104664Y0054043D01*
X0104673Y0054035D02*
X0106577Y0054035D01*
X0106569Y0054026D02*
X0104681Y0054026D01*
X0104690Y0054018D02*
X0106560Y0054018D01*
X0106552Y0054009D02*
X0104698Y0054009D01*
X0104707Y0054001D02*
X0106543Y0054001D01*
X0106535Y0053992D02*
X0104715Y0053992D01*
X0104724Y0053984D02*
X0106526Y0053984D01*
X0106517Y0053975D02*
X0104733Y0053975D01*
X0104741Y0053967D02*
X0106509Y0053967D01*
X0106500Y0053958D02*
X0104750Y0053958D01*
X0104758Y0053950D02*
X0106492Y0053950D01*
X0106483Y0053941D02*
X0104767Y0053941D01*
X0104775Y0053933D02*
X0106475Y0053933D01*
X0106466Y0053924D02*
X0104784Y0053924D01*
X0104792Y0053916D02*
X0106458Y0053916D01*
X0106449Y0053907D02*
X0104801Y0053907D01*
X0104809Y0053899D02*
X0106441Y0053899D01*
X0106432Y0053890D02*
X0104818Y0053890D01*
X0104826Y0053882D02*
X0106424Y0053882D01*
X0106415Y0053873D02*
X0104835Y0053873D01*
X0104843Y0053865D02*
X0106407Y0053865D01*
X0106395Y0053856D02*
X0104855Y0053856D01*
X0104869Y0053847D02*
X0106381Y0053847D01*
X0106368Y0053839D02*
X0104882Y0053839D01*
X0104896Y0053830D02*
X0106354Y0053830D01*
X0106340Y0053822D02*
X0104909Y0053822D01*
X0104923Y0053813D02*
X0106327Y0053813D01*
X0106313Y0053805D02*
X0104937Y0053805D01*
X0104950Y0053796D02*
X0106300Y0053796D01*
X0106286Y0053788D02*
X0104964Y0053788D01*
X0104977Y0053779D02*
X0106273Y0053779D01*
X0106259Y0053771D02*
X0104991Y0053771D01*
X0105004Y0053762D02*
X0106246Y0053762D01*
X0106232Y0053754D02*
X0105018Y0053754D01*
X0105031Y0053745D02*
X0106219Y0053745D01*
X0106205Y0053737D02*
X0105045Y0053737D01*
X0105059Y0053728D02*
X0106191Y0053728D01*
X0106178Y0053720D02*
X0105072Y0053720D01*
X0105088Y0053711D02*
X0106162Y0053711D01*
X0106138Y0053703D02*
X0105112Y0053703D01*
X0105137Y0053694D02*
X0106113Y0053694D01*
X0106089Y0053686D02*
X0105161Y0053686D01*
X0105185Y0053677D02*
X0106065Y0053677D01*
X0106040Y0053669D02*
X0105210Y0053669D01*
X0105234Y0053660D02*
X0106016Y0053660D01*
X0105992Y0053652D02*
X0105258Y0053652D01*
X0105283Y0053643D02*
X0105967Y0053643D01*
X0105943Y0053635D02*
X0105307Y0053635D01*
X0105331Y0053626D02*
X0105919Y0053626D01*
X0105876Y0053618D02*
X0105374Y0053618D01*
X0105450Y0053609D02*
X0105800Y0053609D01*
X0105725Y0053601D02*
X0105525Y0053601D01*
X0105601Y0053592D02*
X0105649Y0053592D01*
X0105876Y0056061D02*
X0105374Y0056061D01*
X0105449Y0056070D02*
X0105801Y0056070D01*
X0105725Y0056078D02*
X0105525Y0056078D01*
X0105601Y0056087D02*
X0105649Y0056087D01*
D26*
X0141941Y0063523D03*
X0144500Y0063523D03*
X0147059Y0063523D03*
X0147059Y0070905D03*
X0141941Y0070905D03*
X0150441Y0052405D03*
X0155559Y0052405D03*
X0155559Y0045023D03*
X0153000Y0045023D03*
X0150441Y0045023D03*
D27*
X0150750Y0047714D03*
X0142250Y0066214D03*
D28*
X0167809Y0018773D03*
X0167809Y0016214D03*
X0167809Y0013655D03*
X0175191Y0013655D03*
X0175191Y0018773D03*
D29*
X0170500Y0018464D03*
D30*
X0180760Y0083588D03*
X0184500Y0083588D03*
X0188240Y0083588D03*
X0188240Y0092840D03*
X0184500Y0092840D03*
X0180760Y0092840D03*
D31*
X0174626Y0070955D03*
X0174626Y0067214D03*
X0174626Y0063474D03*
X0165374Y0063474D03*
X0165374Y0067214D03*
X0165374Y0070955D03*
D32*
X0107750Y0099214D03*
M02*
